<?xml version="1.0" encoding="utf-8" standalone="no"?>
<!DOCTYPE svg PUBLIC "-//W3C//DTD SVG 1.1//EN"
  "http://www.w3.org/Graphics/SVG/1.1/DTD/svg11.dtd">
<svg xmlns:xlink="http://www.w3.org/1999/xlink" width="720pt" height="432pt" viewBox="0 0 720 432" xmlns="http://www.w3.org/2000/svg" version="1.1">
 <metadata>
  <rdf:RDF xmlns:dc="http://purl.org/dc/elements/1.1/" xmlns:cc="http://creativecommons.org/ns#" xmlns:rdf="http://www.w3.org/1999/02/22-rdf-syntax-ns#">
   <cc:Work>
    <dc:type rdf:resource="http://purl.org/dc/dcmitype/StillImage"/>
    <dc:date>2026-01-10T00:42:39.303029</dc:date>
    <dc:format>image/svg+xml</dc:format>
    <dc:creator>
     <cc:Agent>
      <dc:title>Matplotlib v3.10.8, https://matplotlib.org/</dc:title>
     </cc:Agent>
    </dc:creator>
   </cc:Work>
  </rdf:RDF>
 </metadata>
 <defs>
  <style type="text/css">*{stroke-linejoin: round; stroke-linecap: butt}</style>
 </defs>
 <g id="figure_1">
  <g id="patch_1">
   <path d="M 0 432 
L 720 432 
L 720 0 
L 0 0 
z
" style="fill: #ffffff"/>
  </g>
  <g id="axes_1">
   <g id="patch_2">
    <path d="M 113.35275 144.362 
L 637.33475 144.362 
L 637.33475 76.818 
L 113.35275 76.818 
L 113.35275 144.362 
z
" clip-path="url(#p077ea7d297)" style="fill: none; stroke-dasharray: 3.7,1.6; stroke-dashoffset: 0; stroke: #808080; stroke-linejoin: miter"/>
   </g>
   <g id="text_1">
    <!-- A T G C G T A C G T A G C T A G C T A G C T A G -->
    <g transform="translate(177.275469 114.490312) scale(0.14 -0.14)">
     <defs>
      <path id="DejaVuSansMono-41" d="M 1925 4109 
L 1259 1722 
L 2591 1722 
L 1925 4109 
z
M 1544 4666 
L 2309 4666 
L 3738 0 
L 3084 0 
L 2741 1216 
L 1106 1216 
L 769 0 
L 116 0 
L 1544 4666 
z
" transform="scale(0.015625)"/>
      <path id="DejaVuSansMono-20" transform="scale(0.015625)"/>
      <path id="DejaVuSansMono-54" d="M 147 4666 
L 3706 4666 
L 3706 4134 
L 2247 4134 
L 2247 0 
L 1613 0 
L 1613 4134 
L 147 4134 
L 147 4666 
z
" transform="scale(0.015625)"/>
      <path id="DejaVuSansMono-47" d="M 3450 384 
Q 3197 150 2880 29 
Q 2563 -91 2194 -91 
Q 1306 -91 812 545 
Q 319 1181 319 2328 
Q 319 3472 819 4111 
Q 1319 4750 2209 4750 
Q 2503 4750 2772 4667 
Q 3041 4584 3291 4416 
L 3291 3769 
Q 3038 4009 2772 4123 
Q 2506 4238 2209 4238 
Q 1594 4238 1286 3761 
Q 978 3284 978 2328 
Q 978 1356 1276 889 
Q 1575 422 2194 422 
Q 2403 422 2561 470 
Q 2719 519 2847 622 
L 2847 1875 
L 2169 1875 
L 2169 2394 
L 3450 2394 
L 3450 384 
z
" transform="scale(0.015625)"/>
      <path id="DejaVuSansMono-43" d="M 3353 166 
Q 3113 38 2859 -26 
Q 2606 -91 2322 -91 
Q 1425 -91 929 543 
Q 434 1178 434 2328 
Q 434 3472 932 4111 
Q 1431 4750 2322 4750 
Q 2606 4750 2859 4686 
Q 3113 4622 3353 4494 
L 3353 3847 
Q 3122 4038 2856 4138 
Q 2591 4238 2322 4238 
Q 1706 4238 1400 3763 
Q 1094 3288 1094 2328 
Q 1094 1372 1400 897 
Q 1706 422 2322 422 
Q 2597 422 2861 522 
Q 3125 622 3353 813 
L 3353 166 
z
" transform="scale(0.015625)"/>
     </defs>
     <use xlink:href="#DejaVuSansMono-41"/>
     <use xlink:href="#DejaVuSansMono-20" transform="translate(60.205078 0)"/>
     <use xlink:href="#DejaVuSansMono-54" transform="translate(120.410156 0)"/>
     <use xlink:href="#DejaVuSansMono-20" transform="translate(180.615234 0)"/>
     <use xlink:href="#DejaVuSansMono-47" transform="translate(240.820312 0)"/>
     <use xlink:href="#DejaVuSansMono-20" transform="translate(301.025391 0)"/>
     <use xlink:href="#DejaVuSansMono-43" transform="translate(361.230469 0)"/>
     <use xlink:href="#DejaVuSansMono-20" transform="translate(421.435547 0)"/>
     <use xlink:href="#DejaVuSansMono-47" transform="translate(481.640625 0)"/>
     <use xlink:href="#DejaVuSansMono-20" transform="translate(541.845703 0)"/>
     <use xlink:href="#DejaVuSansMono-54" transform="translate(602.050781 0)"/>
     <use xlink:href="#DejaVuSansMono-20" transform="translate(662.255859 0)"/>
     <use xlink:href="#DejaVuSansMono-41" transform="translate(722.460938 0)"/>
     <use xlink:href="#DejaVuSansMono-20" transform="translate(782.666016 0)"/>
     <use xlink:href="#DejaVuSansMono-43" transform="translate(842.871094 0)"/>
     <use xlink:href="#DejaVuSansMono-20" transform="translate(903.076172 0)"/>
     <use xlink:href="#DejaVuSansMono-47" transform="translate(963.28125 0)"/>
     <use xlink:href="#DejaVuSansMono-20" transform="translate(1023.486328 0)"/>
     <use xlink:href="#DejaVuSansMono-54" transform="translate(1083.691406 0)"/>
     <use xlink:href="#DejaVuSansMono-20" transform="translate(1143.896484 0)"/>
     <use xlink:href="#DejaVuSansMono-41" transform="translate(1204.101562 0)"/>
     <use xlink:href="#DejaVuSansMono-20" transform="translate(1264.306641 0)"/>
     <use xlink:href="#DejaVuSansMono-47" transform="translate(1324.511719 0)"/>
     <use xlink:href="#DejaVuSansMono-20" transform="translate(1384.716797 0)"/>
     <use xlink:href="#DejaVuSansMono-43" transform="translate(1444.921875 0)"/>
     <use xlink:href="#DejaVuSansMono-20" transform="translate(1505.126953 0)"/>
     <use xlink:href="#DejaVuSansMono-54" transform="translate(1565.332031 0)"/>
     <use xlink:href="#DejaVuSansMono-20" transform="translate(1625.537109 0)"/>
     <use xlink:href="#DejaVuSansMono-41" transform="translate(1685.742188 0)"/>
     <use xlink:href="#DejaVuSansMono-20" transform="translate(1745.947266 0)"/>
     <use xlink:href="#DejaVuSansMono-47" transform="translate(1806.152344 0)"/>
     <use xlink:href="#DejaVuSansMono-20" transform="translate(1866.357422 0)"/>
     <use xlink:href="#DejaVuSansMono-43" transform="translate(1926.5625 0)"/>
     <use xlink:href="#DejaVuSansMono-20" transform="translate(1986.767578 0)"/>
     <use xlink:href="#DejaVuSansMono-54" transform="translate(2046.972656 0)"/>
     <use xlink:href="#DejaVuSansMono-20" transform="translate(2107.177734 0)"/>
     <use xlink:href="#DejaVuSansMono-41" transform="translate(2167.382812 0)"/>
     <use xlink:href="#DejaVuSansMono-20" transform="translate(2227.587891 0)"/>
     <use xlink:href="#DejaVuSansMono-47" transform="translate(2287.792969 0)"/>
     <use xlink:href="#DejaVuSansMono-20" transform="translate(2347.998047 0)"/>
     <use xlink:href="#DejaVuSansMono-43" transform="translate(2408.203125 0)"/>
     <use xlink:href="#DejaVuSansMono-20" transform="translate(2468.408203 0)"/>
     <use xlink:href="#DejaVuSansMono-54" transform="translate(2528.613281 0)"/>
     <use xlink:href="#DejaVuSansMono-20" transform="translate(2588.818359 0)"/>
     <use xlink:href="#DejaVuSansMono-41" transform="translate(2649.023438 0)"/>
     <use xlink:href="#DejaVuSansMono-20" transform="translate(2709.228516 0)"/>
     <use xlink:href="#DejaVuSansMono-47" transform="translate(2769.433594 0)"/>
    </g>
   </g>
   <g id="text_2">
    <!-- The Textual View: DNA as an Indexed Character String -->
    <g transform="translate(191.46625 20.16) scale(0.12 -0.12)">
     <defs>
      <path id="DejaVuSans-Bold-54" d="M 31 4666 
L 4331 4666 
L 4331 3756 
L 2784 3756 
L 2784 0 
L 1581 0 
L 1581 3756 
L 31 3756 
L 31 4666 
z
" transform="scale(0.015625)"/>
      <path id="DejaVuSans-Bold-68" d="M 4056 2131 
L 4056 0 
L 2931 0 
L 2931 347 
L 2931 1625 
Q 2931 2084 2911 2256 
Q 2891 2428 2841 2509 
Q 2775 2619 2662 2680 
Q 2550 2741 2406 2741 
Q 2056 2741 1856 2470 
Q 1656 2200 1656 1722 
L 1656 0 
L 538 0 
L 538 4863 
L 1656 4863 
L 1656 2988 
Q 1909 3294 2193 3439 
Q 2478 3584 2822 3584 
Q 3428 3584 3742 3212 
Q 4056 2841 4056 2131 
z
" transform="scale(0.015625)"/>
      <path id="DejaVuSans-Bold-65" d="M 4031 1759 
L 4031 1441 
L 1416 1441 
Q 1456 1047 1700 850 
Q 1944 653 2381 653 
Q 2734 653 3104 758 
Q 3475 863 3866 1075 
L 3866 213 
Q 3469 63 3072 -14 
Q 2675 -91 2278 -91 
Q 1328 -91 801 392 
Q 275 875 275 1747 
Q 275 2603 792 3093 
Q 1309 3584 2216 3584 
Q 3041 3584 3536 3087 
Q 4031 2591 4031 1759 
z
M 2881 2131 
Q 2881 2450 2695 2645 
Q 2509 2841 2209 2841 
Q 1884 2841 1681 2658 
Q 1478 2475 1428 2131 
L 2881 2131 
z
" transform="scale(0.015625)"/>
      <path id="DejaVuSans-Bold-20" transform="scale(0.015625)"/>
      <path id="DejaVuSans-Bold-78" d="M 1422 1791 
L 159 3500 
L 1344 3500 
L 2059 2463 
L 2784 3500 
L 3969 3500 
L 2706 1797 
L 4031 0 
L 2847 0 
L 2059 1106 
L 1281 0 
L 97 0 
L 1422 1791 
z
" transform="scale(0.015625)"/>
      <path id="DejaVuSans-Bold-74" d="M 1759 4494 
L 1759 3500 
L 2913 3500 
L 2913 2700 
L 1759 2700 
L 1759 1216 
Q 1759 972 1856 886 
Q 1953 800 2241 800 
L 2816 800 
L 2816 0 
L 1856 0 
Q 1194 0 917 276 
Q 641 553 641 1216 
L 641 2700 
L 84 2700 
L 84 3500 
L 641 3500 
L 641 4494 
L 1759 4494 
z
" transform="scale(0.015625)"/>
      <path id="DejaVuSans-Bold-75" d="M 500 1363 
L 500 3500 
L 1625 3500 
L 1625 3150 
Q 1625 2866 1622 2436 
Q 1619 2006 1619 1863 
Q 1619 1441 1641 1255 
Q 1663 1069 1716 984 
Q 1784 875 1895 815 
Q 2006 756 2150 756 
Q 2500 756 2700 1025 
Q 2900 1294 2900 1772 
L 2900 3500 
L 4019 3500 
L 4019 0 
L 2900 0 
L 2900 506 
Q 2647 200 2364 54 
Q 2081 -91 1741 -91 
Q 1134 -91 817 281 
Q 500 653 500 1363 
z
" transform="scale(0.015625)"/>
      <path id="DejaVuSans-Bold-61" d="M 2106 1575 
Q 1756 1575 1579 1456 
Q 1403 1338 1403 1106 
Q 1403 894 1545 773 
Q 1688 653 1941 653 
Q 2256 653 2472 879 
Q 2688 1106 2688 1447 
L 2688 1575 
L 2106 1575 
z
M 3816 1997 
L 3816 0 
L 2688 0 
L 2688 519 
Q 2463 200 2181 54 
Q 1900 -91 1497 -91 
Q 953 -91 614 226 
Q 275 544 275 1050 
Q 275 1666 698 1953 
Q 1122 2241 2028 2241 
L 2688 2241 
L 2688 2328 
Q 2688 2594 2478 2717 
Q 2269 2841 1825 2841 
Q 1466 2841 1156 2769 
Q 847 2697 581 2553 
L 581 3406 
Q 941 3494 1303 3539 
Q 1666 3584 2028 3584 
Q 2975 3584 3395 3211 
Q 3816 2838 3816 1997 
z
" transform="scale(0.015625)"/>
      <path id="DejaVuSans-Bold-6c" d="M 538 4863 
L 1656 4863 
L 1656 0 
L 538 0 
L 538 4863 
z
" transform="scale(0.015625)"/>
      <path id="DejaVuSans-Bold-56" d="M 31 4666 
L 1241 4666 
L 2478 1222 
L 3713 4666 
L 4922 4666 
L 3194 0 
L 1759 0 
L 31 4666 
z
" transform="scale(0.015625)"/>
      <path id="DejaVuSans-Bold-69" d="M 538 3500 
L 1656 3500 
L 1656 0 
L 538 0 
L 538 3500 
z
M 538 4863 
L 1656 4863 
L 1656 3950 
L 538 3950 
L 538 4863 
z
" transform="scale(0.015625)"/>
      <path id="DejaVuSans-Bold-77" d="M 225 3500 
L 1313 3500 
L 1900 1088 
L 2491 3500 
L 3425 3500 
L 4013 1113 
L 4603 3500 
L 5691 3500 
L 4769 0 
L 3547 0 
L 2956 2406 
L 2369 0 
L 1147 0 
L 225 3500 
z
" transform="scale(0.015625)"/>
      <path id="DejaVuSans-Bold-3a" d="M 716 3500 
L 1844 3500 
L 1844 2291 
L 716 2291 
L 716 3500 
z
M 716 1209 
L 1844 1209 
L 1844 0 
L 716 0 
L 716 1209 
z
" transform="scale(0.015625)"/>
      <path id="DejaVuSans-Bold-44" d="M 1791 3756 
L 1791 909 
L 2222 909 
Q 2959 909 3348 1275 
Q 3738 1641 3738 2338 
Q 3738 3031 3350 3393 
Q 2963 3756 2222 3756 
L 1791 3756 
z
M 588 4666 
L 1856 4666 
Q 2919 4666 3439 4514 
Q 3959 4363 4331 4000 
Q 4659 3684 4818 3271 
Q 4978 2859 4978 2338 
Q 4978 1809 4818 1395 
Q 4659 981 4331 666 
Q 3956 303 3431 151 
Q 2906 0 1856 0 
L 588 0 
L 588 4666 
z
" transform="scale(0.015625)"/>
      <path id="DejaVuSans-Bold-4e" d="M 588 4666 
L 1931 4666 
L 3628 1466 
L 3628 4666 
L 4769 4666 
L 4769 0 
L 3425 0 
L 1728 3200 
L 1728 0 
L 588 0 
L 588 4666 
z
" transform="scale(0.015625)"/>
      <path id="DejaVuSans-Bold-41" d="M 3419 850 
L 1538 850 
L 1241 0 
L 31 0 
L 1759 4666 
L 3194 4666 
L 4922 0 
L 3713 0 
L 3419 850 
z
M 1838 1716 
L 3116 1716 
L 2478 3572 
L 1838 1716 
z
" transform="scale(0.015625)"/>
      <path id="DejaVuSans-Bold-73" d="M 3272 3391 
L 3272 2541 
Q 2913 2691 2578 2766 
Q 2244 2841 1947 2841 
Q 1628 2841 1473 2761 
Q 1319 2681 1319 2516 
Q 1319 2381 1436 2309 
Q 1553 2238 1856 2203 
L 2053 2175 
Q 2913 2066 3209 1816 
Q 3506 1566 3506 1031 
Q 3506 472 3093 190 
Q 2681 -91 1863 -91 
Q 1516 -91 1145 -36 
Q 775 19 384 128 
L 384 978 
Q 719 816 1070 734 
Q 1422 653 1784 653 
Q 2113 653 2278 743 
Q 2444 834 2444 1013 
Q 2444 1163 2330 1236 
Q 2216 1309 1875 1350 
L 1678 1375 
Q 931 1469 631 1722 
Q 331 1975 331 2491 
Q 331 3047 712 3315 
Q 1094 3584 1881 3584 
Q 2191 3584 2531 3537 
Q 2872 3491 3272 3391 
z
" transform="scale(0.015625)"/>
      <path id="DejaVuSans-Bold-6e" d="M 4056 2131 
L 4056 0 
L 2931 0 
L 2931 347 
L 2931 1631 
Q 2931 2084 2911 2256 
Q 2891 2428 2841 2509 
Q 2775 2619 2662 2680 
Q 2550 2741 2406 2741 
Q 2056 2741 1856 2470 
Q 1656 2200 1656 1722 
L 1656 0 
L 538 0 
L 538 3500 
L 1656 3500 
L 1656 2988 
Q 1909 3294 2193 3439 
Q 2478 3584 2822 3584 
Q 3428 3584 3742 3212 
Q 4056 2841 4056 2131 
z
" transform="scale(0.015625)"/>
      <path id="DejaVuSans-Bold-49" d="M 588 4666 
L 1791 4666 
L 1791 0 
L 588 0 
L 588 4666 
z
" transform="scale(0.015625)"/>
      <path id="DejaVuSans-Bold-64" d="M 2919 2988 
L 2919 4863 
L 4044 4863 
L 4044 0 
L 2919 0 
L 2919 506 
Q 2688 197 2409 53 
Q 2131 -91 1766 -91 
Q 1119 -91 703 423 
Q 288 938 288 1747 
Q 288 2556 703 3070 
Q 1119 3584 1766 3584 
Q 2128 3584 2408 3439 
Q 2688 3294 2919 2988 
z
M 2181 722 
Q 2541 722 2730 984 
Q 2919 1247 2919 1747 
Q 2919 2247 2730 2509 
Q 2541 2772 2181 2772 
Q 1825 2772 1636 2509 
Q 1447 2247 1447 1747 
Q 1447 1247 1636 984 
Q 1825 722 2181 722 
z
" transform="scale(0.015625)"/>
      <path id="DejaVuSans-Bold-43" d="M 4288 256 
Q 3956 84 3597 -3 
Q 3238 -91 2847 -91 
Q 1681 -91 1000 561 
Q 319 1213 319 2328 
Q 319 3447 1000 4098 
Q 1681 4750 2847 4750 
Q 3238 4750 3597 4662 
Q 3956 4575 4288 4403 
L 4288 3438 
Q 3953 3666 3628 3772 
Q 3303 3878 2944 3878 
Q 2300 3878 1931 3465 
Q 1563 3053 1563 2328 
Q 1563 1606 1931 1193 
Q 2300 781 2944 781 
Q 3303 781 3628 887 
Q 3953 994 4288 1222 
L 4288 256 
z
" transform="scale(0.015625)"/>
      <path id="DejaVuSans-Bold-72" d="M 3138 2547 
Q 2991 2616 2845 2648 
Q 2700 2681 2553 2681 
Q 2122 2681 1889 2404 
Q 1656 2128 1656 1613 
L 1656 0 
L 538 0 
L 538 3500 
L 1656 3500 
L 1656 2925 
Q 1872 3269 2151 3426 
Q 2431 3584 2822 3584 
Q 2878 3584 2943 3579 
Q 3009 3575 3134 3559 
L 3138 2547 
z
" transform="scale(0.015625)"/>
      <path id="DejaVuSans-Bold-63" d="M 3366 3391 
L 3366 2478 
Q 3138 2634 2908 2709 
Q 2678 2784 2431 2784 
Q 1963 2784 1702 2511 
Q 1441 2238 1441 1747 
Q 1441 1256 1702 982 
Q 1963 709 2431 709 
Q 2694 709 2930 787 
Q 3166 866 3366 1019 
L 3366 103 
Q 3103 6 2833 -42 
Q 2563 -91 2291 -91 
Q 1344 -91 809 395 
Q 275 881 275 1747 
Q 275 2613 809 3098 
Q 1344 3584 2291 3584 
Q 2566 3584 2833 3536 
Q 3100 3488 3366 3391 
z
" transform="scale(0.015625)"/>
      <path id="DejaVuSans-Bold-53" d="M 3834 4519 
L 3834 3531 
Q 3450 3703 3084 3790 
Q 2719 3878 2394 3878 
Q 1963 3878 1756 3759 
Q 1550 3641 1550 3391 
Q 1550 3203 1689 3098 
Q 1828 2994 2194 2919 
L 2706 2816 
Q 3484 2659 3812 2340 
Q 4141 2022 4141 1434 
Q 4141 663 3683 286 
Q 3225 -91 2284 -91 
Q 1841 -91 1394 -6 
Q 947 78 500 244 
L 500 1259 
Q 947 1022 1364 901 
Q 1781 781 2169 781 
Q 2563 781 2772 912 
Q 2981 1044 2981 1288 
Q 2981 1506 2839 1625 
Q 2697 1744 2272 1838 
L 1806 1941 
Q 1106 2091 782 2419 
Q 459 2747 459 3303 
Q 459 4000 909 4375 
Q 1359 4750 2203 4750 
Q 2588 4750 2994 4692 
Q 3400 4634 3834 4519 
z
" transform="scale(0.015625)"/>
      <path id="DejaVuSans-Bold-67" d="M 2919 594 
Q 2688 288 2409 144 
Q 2131 0 1766 0 
Q 1125 0 706 504 
Q 288 1009 288 1791 
Q 288 2575 706 3076 
Q 1125 3578 1766 3578 
Q 2131 3578 2409 3434 
Q 2688 3291 2919 2981 
L 2919 3500 
L 4044 3500 
L 4044 353 
Q 4044 -491 3511 -936 
Q 2978 -1381 1966 -1381 
Q 1638 -1381 1331 -1331 
Q 1025 -1281 716 -1178 
L 716 -306 
Q 1009 -475 1290 -558 
Q 1572 -641 1856 -641 
Q 2406 -641 2662 -400 
Q 2919 -159 2919 353 
L 2919 594 
z
M 2181 2772 
Q 1834 2772 1640 2515 
Q 1447 2259 1447 1791 
Q 1447 1309 1634 1061 
Q 1822 813 2181 813 
Q 2531 813 2725 1069 
Q 2919 1325 2919 1791 
Q 2919 2259 2725 2515 
Q 2531 2772 2181 2772 
z
" transform="scale(0.015625)"/>
     </defs>
     <use xlink:href="#DejaVuSans-Bold-54"/>
     <use xlink:href="#DejaVuSans-Bold-68" transform="translate(68.212891 0)"/>
     <use xlink:href="#DejaVuSans-Bold-65" transform="translate(139.404297 0)"/>
     <use xlink:href="#DejaVuSans-Bold-20" transform="translate(207.226562 0)"/>
     <use xlink:href="#DejaVuSans-Bold-54" transform="translate(242.041016 0)"/>
     <use xlink:href="#DejaVuSans-Bold-65" transform="translate(297.003906 0)"/>
     <use xlink:href="#DejaVuSans-Bold-78" transform="translate(364.826172 0)"/>
     <use xlink:href="#DejaVuSans-Bold-74" transform="translate(429.328125 0)"/>
     <use xlink:href="#DejaVuSans-Bold-75" transform="translate(477.130859 0)"/>
     <use xlink:href="#DejaVuSans-Bold-61" transform="translate(548.322266 0)"/>
     <use xlink:href="#DejaVuSans-Bold-6c" transform="translate(615.802734 0)"/>
     <use xlink:href="#DejaVuSans-Bold-20" transform="translate(650.080078 0)"/>
     <use xlink:href="#DejaVuSans-Bold-56" transform="translate(684.894531 0)"/>
     <use xlink:href="#DejaVuSans-Bold-69" transform="translate(760.537109 0)"/>
     <use xlink:href="#DejaVuSans-Bold-65" transform="translate(794.814453 0)"/>
     <use xlink:href="#DejaVuSans-Bold-77" transform="translate(862.636719 0)"/>
     <use xlink:href="#DejaVuSans-Bold-3a" transform="translate(955.019531 0)"/>
     <use xlink:href="#DejaVuSans-Bold-20" transform="translate(995.009766 0)"/>
     <use xlink:href="#DejaVuSans-Bold-44" transform="translate(1029.824219 0)"/>
     <use xlink:href="#DejaVuSans-Bold-4e" transform="translate(1112.832031 0)"/>
     <use xlink:href="#DejaVuSans-Bold-41" transform="translate(1196.523438 0)"/>
     <use xlink:href="#DejaVuSans-Bold-20" transform="translate(1273.916016 0)"/>
     <use xlink:href="#DejaVuSans-Bold-61" transform="translate(1308.730469 0)"/>
     <use xlink:href="#DejaVuSans-Bold-73" transform="translate(1376.210938 0)"/>
     <use xlink:href="#DejaVuSans-Bold-20" transform="translate(1435.732422 0)"/>
     <use xlink:href="#DejaVuSans-Bold-61" transform="translate(1470.546875 0)"/>
     <use xlink:href="#DejaVuSans-Bold-6e" transform="translate(1538.027344 0)"/>
     <use xlink:href="#DejaVuSans-Bold-20" transform="translate(1609.21875 0)"/>
     <use xlink:href="#DejaVuSans-Bold-49" transform="translate(1644.033203 0)"/>
     <use xlink:href="#DejaVuSans-Bold-6e" transform="translate(1681.240234 0)"/>
     <use xlink:href="#DejaVuSans-Bold-64" transform="translate(1752.431641 0)"/>
     <use xlink:href="#DejaVuSans-Bold-65" transform="translate(1824.013672 0)"/>
     <use xlink:href="#DejaVuSans-Bold-78" transform="translate(1891.835938 0)"/>
     <use xlink:href="#DejaVuSans-Bold-65" transform="translate(1956.337891 0)"/>
     <use xlink:href="#DejaVuSans-Bold-64" transform="translate(2024.160156 0)"/>
     <use xlink:href="#DejaVuSans-Bold-20" transform="translate(2095.742188 0)"/>
     <use xlink:href="#DejaVuSans-Bold-43" transform="translate(2130.556641 0)"/>
     <use xlink:href="#DejaVuSans-Bold-68" transform="translate(2203.945312 0)"/>
     <use xlink:href="#DejaVuSans-Bold-61" transform="translate(2275.136719 0)"/>
     <use xlink:href="#DejaVuSans-Bold-72" transform="translate(2342.617188 0)"/>
     <use xlink:href="#DejaVuSans-Bold-61" transform="translate(2391.933594 0)"/>
     <use xlink:href="#DejaVuSans-Bold-63" transform="translate(2459.414062 0)"/>
     <use xlink:href="#DejaVuSans-Bold-74" transform="translate(2518.691406 0)"/>
     <use xlink:href="#DejaVuSans-Bold-65" transform="translate(2566.494141 0)"/>
     <use xlink:href="#DejaVuSans-Bold-72" transform="translate(2634.316406 0)"/>
     <use xlink:href="#DejaVuSans-Bold-20" transform="translate(2683.632812 0)"/>
     <use xlink:href="#DejaVuSans-Bold-53" transform="translate(2718.447266 0)"/>
     <use xlink:href="#DejaVuSans-Bold-74" transform="translate(2790.46875 0)"/>
     <use xlink:href="#DejaVuSans-Bold-72" transform="translate(2838.271484 0)"/>
     <use xlink:href="#DejaVuSans-Bold-69" transform="translate(2887.587891 0)"/>
     <use xlink:href="#DejaVuSans-Bold-6e" transform="translate(2921.865234 0)"/>
     <use xlink:href="#DejaVuSans-Bold-67" transform="translate(2993.056641 0)"/>
    </g>
   </g>
  </g>
  <g id="axes_2">
   <g id="patch_3">
    <path d="M 47.855 390.04 
L 702.8325 390.04 
L 702.8325 221.18 
L 47.855 221.18 
z
" style="fill: #ffffff"/>
   </g>
   <g id="FillBetweenPolyCollection_1">
    <defs>
     <path id="m8cf543b052" d="M 47.855 -41.96 
L 47.855 -83.138338 
L 49.16758 -79.908071 
L 50.48016 -86.665663 
L 51.79274 -78.229975 
L 53.105321 -80.492386 
L 54.417901 -82.334286 
L 55.730481 -84.150942 
L 57.043061 -74.901798 
L 58.355641 -70.885718 
L 59.668221 -82.741794 
L 60.980802 -82.545193 
L 62.293382 -72.92445 
L 63.605962 -73.148092 
L 64.918542 -81.362745 
L 66.231122 -80.052745 
L 67.543702 -76.291036 
L 68.856283 -80.670277 
L 70.168863 -81.254621 
L 71.481443 -87.608591 
L 72.794023 -79.656169 
L 74.106603 -83.534242 
L 75.419183 -77.363777 
L 76.731764 -74.181722 
L 78.044344 -77.452812 
L 79.356924 -83.127646 
L 80.669504 -80.816974 
L 81.982084 -84.062372 
L 83.294664 -84.28549 
L 84.607244 -81.045067 
L 85.919825 -83.990728 
L 87.232405 -82.736615 
L 88.544985 -86.626555 
L 89.857565 -81.119381 
L 91.170145 -86.963792 
L 92.482725 -80.692147 
L 93.795306 -80.371397 
L 95.107886 -83.092066 
L 96.420466 -80.52063 
L 97.733046 -80.774466 
L 99.045626 -81.268571 
L 100.358206 -80.497516 
L 101.670787 -79.964186 
L 102.983367 -77.883763 
L 104.295947 -85.403226 
L 105.608527 -86.113571 
L 106.921107 -80.456956 
L 108.233687 -82.2726 
L 109.546268 -85.252633 
L 110.858848 -85.653398 
L 112.171428 -86.505009 
L 113.484008 -92.681541 
L 114.796588 -92.418822 
L 116.109168 -85.788704 
L 117.421748 -92.318838 
L 118.734329 -89.409557 
L 120.046909 -92.247827 
L 121.359489 -95.489184 
L 122.672069 -93.131831 
L 123.984649 -95.074705 
L 125.297229 -98.030216 
L 126.60981 -98.207597 
L 127.92239 -99.323546 
L 129.23497 -96.622195 
L 130.54755 -109.15938 
L 131.86013 -108.851925 
L 133.17271 -108.917458 
L 134.485291 -111.386874 
L 135.797871 -114.535797 
L 137.110451 -115.317609 
L 138.423031 -118.417457 
L 139.735611 -115.250769 
L 141.048191 -117.201179 
L 142.360772 -127.027589 
L 143.673352 -127.091904 
L 144.985932 -118.064801 
L 146.298512 -135.635478 
L 147.611092 -130.747167 
L 148.923672 -135.733381 
L 150.236253 -131.790953 
L 151.548833 -138.751719 
L 152.861413 -149.588484 
L 154.173993 -146.424364 
L 155.486573 -149.883418 
L 156.799153 -149.983973 
L 158.111733 -145.921478 
L 159.424314 -161.577711 
L 160.736894 -152.191354 
L 162.049474 -167.097451 
L 163.362054 -159.290421 
L 164.674634 -164.242858 
L 165.987214 -164.037412 
L 167.299795 -165.516352 
L 168.612375 -164.686862 
L 169.924955 -173.583201 
L 171.237535 -169.740726 
L 172.550115 -165.623364 
L 173.862695 -171.853397 
L 175.175276 -172.503581 
L 176.487856 -170.486322 
L 177.800436 -174.31618 
L 179.113016 -170.724812 
L 180.425596 -167.122783 
L 181.738176 -164.325104 
L 183.050757 -180.157937 
L 184.363337 -169.06933 
L 185.675917 -175.832904 
L 186.988497 -167.639725 
L 188.301077 -165.729041 
L 189.613657 -164.295734 
L 190.926237 -165.904388 
L 192.238818 -164.02471 
L 193.551398 -168.577865 
L 194.863978 -159.510855 
L 196.176558 -159.373228 
L 197.489138 -159.337345 
L 198.801718 -156.436544 
L 200.114299 -154.281969 
L 201.426879 -150.664039 
L 202.739459 -146.577231 
L 204.052039 -144.831274 
L 205.364619 -145.360333 
L 206.677199 -134.755364 
L 207.98978 -133.932654 
L 209.30236 -127.194232 
L 210.61494 -131.073812 
L 211.92752 -123.562303 
L 213.2401 -124.822884 
L 214.55268 -119.483064 
L 215.865261 -122.628949 
L 217.177841 -116.941128 
L 218.490421 -120.300604 
L 219.803001 -109.728826 
L 221.115581 -108.146926 
L 222.428161 -116.236652 
L 223.740741 -108.553389 
L 225.053322 -108.930608 
L 226.365902 -104.091031 
L 227.678482 -103.885478 
L 228.991062 -103.573776 
L 230.303642 -92.91058 
L 231.616222 -94.627668 
L 232.928803 -99.49129 
L 234.241383 -86.223958 
L 235.553963 -94.052348 
L 236.866543 -94.242241 
L 238.179123 -97.490539 
L 239.491703 -90.74337 
L 240.804284 -87.086848 
L 242.116864 -98.428541 
L 243.429444 -90.614333 
L 244.742024 -83.43618 
L 246.054604 -87.594598 
L 247.367184 -84.071145 
L 248.679765 -83.880956 
L 249.992345 -82.672265 
L 251.304925 -84.069436 
L 252.617505 -82.022296 
L 253.930085 -84.428766 
L 255.242665 -82.232651 
L 256.555245 -83.13655 
L 257.867826 -81.096329 
L 259.180406 -79.786474 
L 260.492986 -78.35387 
L 261.805566 -84.493311 
L 263.118146 -85.777929 
L 264.430726 -79.213711 
L 265.743307 -84.309341 
L 267.055887 -72.894841 
L 268.368467 -86.264946 
L 269.681047 -82.333496 
L 270.993627 -74.838599 
L 272.306207 -83.019255 
L 273.618788 -82.474664 
L 274.931368 -73.396485 
L 276.243948 -84.10293 
L 277.556528 -80.357081 
L 278.869108 -78.399896 
L 280.181688 -81.60345 
L 281.494269 -83.088635 
L 282.806849 -83.233774 
L 284.119429 -77.51535 
L 285.432009 -81.931202 
L 286.744589 -81.750914 
L 288.057169 -77.797027 
L 289.369749 -78.924673 
L 290.68233 -78.080923 
L 291.99491 -81.051189 
L 293.30749 -82.860533 
L 294.62007 -77.764585 
L 295.93265 -79.388553 
L 297.24523 -74.918715 
L 298.557811 -85.54405 
L 299.870391 -79.892626 
L 301.182971 -83.985828 
L 302.495551 -77.085875 
L 303.808131 -83.048912 
L 305.120711 -82.773406 
L 306.433292 -79.389748 
L 307.745872 -79.632143 
L 309.058452 -88.019716 
L 310.371032 -86.192179 
L 311.683612 -78.619685 
L 312.996192 -85.942241 
L 314.308773 -78.402538 
L 315.621353 -78.256839 
L 316.933933 -79.063267 
L 318.246513 -75.592127 
L 319.559093 -83.319089 
L 320.871673 -83.630666 
L 322.184254 -77.256074 
L 323.496834 -80.492378 
L 324.809414 -82.959167 
L 326.121994 -82.572561 
L 327.434574 -92.075452 
L 328.747154 -80.950187 
L 330.059734 -72.525061 
L 331.372315 -83.615385 
L 332.684895 -78.705042 
L 333.997475 -78.187161 
L 335.310055 -81.267554 
L 336.622635 -81.054885 
L 337.935215 -81.066851 
L 339.247796 -75.507892 
L 340.560376 -76.930154 
L 341.872956 -77.319157 
L 343.185536 -82.223842 
L 344.498116 -79.061526 
L 345.810696 -75.137721 
L 347.123277 -78.90634 
L 348.435857 -83.355353 
L 349.748437 -84.158089 
L 351.061017 -78.085644 
L 352.373597 -84.527333 
L 353.686177 -77.988939 
L 354.998758 -70.008929 
L 356.311338 -75.314375 
L 357.623918 -83.245221 
L 358.936498 -83.014845 
L 360.249078 -75.87454 
L 361.561658 -78.171217 
L 362.874238 -76.778172 
L 364.186819 -86.206 
L 365.499399 -87.678426 
L 366.811979 -78.920395 
L 368.124559 -82.222294 
L 369.437139 -79.134701 
L 370.749719 -83.347136 
L 372.0623 -81.980775 
L 373.37488 -77.831454 
L 374.68746 -84.084388 
L 376.00004 -84.31607 
L 377.31262 -75.529591 
L 378.6252 -84.463356 
L 379.937781 -85.773269 
L 381.250361 -78.624379 
L 382.562941 -84.553731 
L 383.875521 -80.848857 
L 385.188101 -81.302319 
L 386.500681 -80.302381 
L 387.813262 -76.29743 
L 389.125842 -76.839641 
L 390.438422 -87.616131 
L 391.751002 -79.953418 
L 393.063582 -80.553748 
L 394.376162 -78.067069 
L 395.688742 -75.669129 
L 397.001323 -85.095724 
L 398.313903 -74.739038 
L 399.626483 -78.865168 
L 400.939063 -86.901202 
L 402.251643 -81.460891 
L 403.564223 -82.869487 
L 404.876804 -78.896471 
L 406.189384 -83.191397 
L 407.501964 -85.338467 
L 408.814544 -80.076934 
L 410.127124 -80.045892 
L 411.439704 -84.679361 
L 412.752285 -80.655327 
L 414.064865 -79.055809 
L 415.377445 -78.156751 
L 416.690025 -77.187467 
L 418.002605 -86.220868 
L 419.315185 -89.211384 
L 420.627766 -89.740522 
L 421.940346 -85.928521 
L 423.252926 -90.626608 
L 424.565506 -88.32295 
L 425.878086 -85.688839 
L 427.190666 -86.22529 
L 428.503246 -86.917367 
L 429.815827 -80.282632 
L 431.128407 -97.59058 
L 432.440987 -92.549874 
L 433.753567 -94.493069 
L 435.066147 -100.01379 
L 436.378727 -94.281973 
L 437.691308 -98.63 
L 439.003888 -98.352889 
L 440.316468 -94.917688 
L 441.629048 -91.735257 
L 442.941628 -101.773099 
L 444.254208 -103.136043 
L 445.566789 -99.655507 
L 446.879369 -103.468261 
L 448.191949 -109.286317 
L 449.504529 -110.400655 
L 450.817109 -115.820275 
L 452.129689 -115.161727 
L 453.44227 -112.601313 
L 454.75485 -109.396432 
L 456.06743 -121.078766 
L 457.38001 -117.762376 
L 458.69259 -120.310491 
L 460.00517 -126.154508 
L 461.317751 -124.720015 
L 462.630331 -130.517729 
L 463.942911 -127.868146 
L 465.255491 -134.839203 
L 466.568071 -132.289044 
L 467.880651 -129.862168 
L 469.193231 -134.948858 
L 470.505812 -148.908385 
L 471.818392 -145.126199 
L 473.130972 -140.785278 
L 474.443552 -141.20236 
L 475.756132 -155.802165 
L 477.068712 -151.457376 
L 478.381293 -151.610646 
L 479.693873 -154.090982 
L 481.006453 -160.105104 
L 482.319033 -153.599497 
L 483.631613 -162.552934 
L 484.944193 -171.571727 
L 486.256774 -161.650691 
L 487.569354 -168.872451 
L 488.881934 -170.973765 
L 490.194514 -175.704218 
L 491.507094 -172.187367 
L 492.819674 -174.570183 
L 494.132255 -177.877156 
L 495.444835 -177.031942 
L 496.757415 -184.468195 
L 498.069995 -177.817397 
L 499.382575 -181.224046 
L 500.695155 -181.208414 
L 502.007735 -177.796065 
L 503.320316 -178.592244 
L 504.632896 -180.278203 
L 505.945476 -180.259218 
L 507.258056 -186.975549 
L 508.570636 -174.85244 
L 509.883216 -177.851012 
L 511.195797 -184.452263 
L 512.508377 -184.326033 
L 513.820957 -173.420294 
L 515.133537 -182.681521 
L 516.446117 -177.950528 
L 517.758697 -176.963608 
L 519.071278 -180.161891 
L 520.383858 -169.353097 
L 521.696438 -173.310428 
L 523.009018 -171.115867 
L 524.321598 -170.838027 
L 525.634178 -167.508756 
L 526.946759 -165.197986 
L 528.259339 -162.663498 
L 529.571919 -158.408215 
L 530.884499 -157.216046 
L 532.197079 -151.044971 
L 533.509659 -158.574128 
L 534.822239 -155.709897 
L 536.13482 -152.378029 
L 537.4474 -152.252889 
L 538.75998 -147.221008 
L 540.07256 -142.019589 
L 541.38514 -146.708759 
L 542.69772 -139.928586 
L 544.010301 -135.209306 
L 545.322881 -141.618725 
L 546.635461 -133.809782 
L 547.948041 -131.507208 
L 549.260621 -129.454059 
L 550.573201 -126.265758 
L 551.885782 -122.421702 
L 553.198362 -125.74448 
L 554.510942 -126.475188 
L 555.823522 -119.214126 
L 557.136102 -112.085839 
L 558.448682 -116.118181 
L 559.761263 -110.087542 
L 561.073843 -115.988299 
L 562.386423 -113.693959 
L 563.699003 -110.145822 
L 565.011583 -107.209962 
L 566.324163 -102.207558 
L 567.636743 -102.907804 
L 568.949324 -105.32442 
L 570.261904 -107.672344 
L 571.574484 -101.08511 
L 572.887064 -97.444958 
L 574.199644 -95.278215 
L 575.512224 -84.116431 
L 576.824805 -93.168355 
L 578.137385 -92.129665 
L 579.449965 -93.056749 
L 580.762545 -97.114928 
L 582.075125 -88.702155 
L 583.387705 -94.598282 
L 584.700286 -89.534344 
L 586.012866 -86.648618 
L 587.325446 -88.721689 
L 588.638026 -89.713918 
L 589.950606 -88.52691 
L 591.263186 -81.41069 
L 592.575767 -80.779917 
L 593.888347 -88.466333 
L 595.200927 -89.967601 
L 596.513507 -78.452353 
L 597.826087 -90.047637 
L 599.138667 -83.049749 
L 600.451247 -82.137096 
L 601.763828 -84.481877 
L 603.076408 -87.229422 
L 604.388988 -88.642474 
L 605.701568 -83.772094 
L 607.014148 -81.805349 
L 608.326728 -85.979014 
L 609.639309 -80.84366 
L 610.951889 -76.071195 
L 612.264469 -74.753566 
L 613.577049 -81.648586 
L 614.889629 -81.652923 
L 616.202209 -79.697163 
L 617.51479 -81.940237 
L 618.82737 -86.312914 
L 620.13995 -83.373025 
L 621.45253 -73.084806 
L 622.76511 -78.937196 
L 624.07769 -81.115817 
L 625.390271 -84.851825 
L 626.702851 -77.264745 
L 628.015431 -78.35771 
L 629.328011 -86.47437 
L 630.640591 -79.865755 
L 631.953171 -80.670949 
L 633.265752 -82.68963 
L 634.578332 -74.176399 
L 635.890912 -69.229932 
L 637.203492 -79.312279 
L 638.516072 -82.222635 
L 639.828652 -78.57395 
L 641.141232 -75.159651 
L 642.453813 -74.411879 
L 643.766393 -80.266714 
L 645.078973 -78.664947 
L 646.391553 -78.076054 
L 647.704133 -83.781685 
L 649.016713 -80.998835 
L 650.329294 -82.528569 
L 651.641874 -87.127895 
L 652.954454 -76.019421 
L 654.267034 -85.26111 
L 655.579614 -81.6717 
L 656.892194 -80.07553 
L 658.204775 -80.237281 
L 659.517355 -83.589131 
L 660.829935 -81.66114 
L 662.142515 -93.811339 
L 663.455095 -78.474109 
L 664.767675 -82.285466 
L 666.080256 -78.762298 
L 667.392836 -75.919543 
L 668.705416 -86.219765 
L 670.017996 -82.388481 
L 671.330576 -77.071552 
L 672.643156 -82.564379 
L 673.955736 -77.882537 
L 675.268317 -84.423618 
L 676.580897 -76.48097 
L 677.893477 -82.712097 
L 679.206057 -80.109318 
L 680.518637 -75.810282 
L 681.831217 -79.156988 
L 683.143798 -76.426241 
L 684.456378 -83.794379 
L 685.768958 -74.406415 
L 687.081538 -79.927775 
L 688.394118 -76.894102 
L 689.706698 -81.715594 
L 691.019279 -74.419347 
L 692.331859 -87.372668 
L 693.644439 -81.33287 
L 694.957019 -82.593507 
L 696.269599 -83.347717 
L 697.582179 -75.321628 
L 698.89476 -82.249491 
L 700.20734 -75.887556 
L 701.51992 -82.483132 
L 702.8325 -83.170274 
L 702.8325 -41.96 
L 702.8325 -41.96 
L 701.51992 -41.96 
L 700.20734 -41.96 
L 698.89476 -41.96 
L 697.582179 -41.96 
L 696.269599 -41.96 
L 694.957019 -41.96 
L 693.644439 -41.96 
L 692.331859 -41.96 
L 691.019279 -41.96 
L 689.706698 -41.96 
L 688.394118 -41.96 
L 687.081538 -41.96 
L 685.768958 -41.96 
L 684.456378 -41.96 
L 683.143798 -41.96 
L 681.831217 -41.96 
L 680.518637 -41.96 
L 679.206057 -41.96 
L 677.893477 -41.96 
L 676.580897 -41.96 
L 675.268317 -41.96 
L 673.955736 -41.96 
L 672.643156 -41.96 
L 671.330576 -41.96 
L 670.017996 -41.96 
L 668.705416 -41.96 
L 667.392836 -41.96 
L 666.080256 -41.96 
L 664.767675 -41.96 
L 663.455095 -41.96 
L 662.142515 -41.96 
L 660.829935 -41.96 
L 659.517355 -41.96 
L 658.204775 -41.96 
L 656.892194 -41.96 
L 655.579614 -41.96 
L 654.267034 -41.96 
L 652.954454 -41.96 
L 651.641874 -41.96 
L 650.329294 -41.96 
L 649.016713 -41.96 
L 647.704133 -41.96 
L 646.391553 -41.96 
L 645.078973 -41.96 
L 643.766393 -41.96 
L 642.453813 -41.96 
L 641.141232 -41.96 
L 639.828652 -41.96 
L 638.516072 -41.96 
L 637.203492 -41.96 
L 635.890912 -41.96 
L 634.578332 -41.96 
L 633.265752 -41.96 
L 631.953171 -41.96 
L 630.640591 -41.96 
L 629.328011 -41.96 
L 628.015431 -41.96 
L 626.702851 -41.96 
L 625.390271 -41.96 
L 624.07769 -41.96 
L 622.76511 -41.96 
L 621.45253 -41.96 
L 620.13995 -41.96 
L 618.82737 -41.96 
L 617.51479 -41.96 
L 616.202209 -41.96 
L 614.889629 -41.96 
L 613.577049 -41.96 
L 612.264469 -41.96 
L 610.951889 -41.96 
L 609.639309 -41.96 
L 608.326728 -41.96 
L 607.014148 -41.96 
L 605.701568 -41.96 
L 604.388988 -41.96 
L 603.076408 -41.96 
L 601.763828 -41.96 
L 600.451247 -41.96 
L 599.138667 -41.96 
L 597.826087 -41.96 
L 596.513507 -41.96 
L 595.200927 -41.96 
L 593.888347 -41.96 
L 592.575767 -41.96 
L 591.263186 -41.96 
L 589.950606 -41.96 
L 588.638026 -41.96 
L 587.325446 -41.96 
L 586.012866 -41.96 
L 584.700286 -41.96 
L 583.387705 -41.96 
L 582.075125 -41.96 
L 580.762545 -41.96 
L 579.449965 -41.96 
L 578.137385 -41.96 
L 576.824805 -41.96 
L 575.512224 -41.96 
L 574.199644 -41.96 
L 572.887064 -41.96 
L 571.574484 -41.96 
L 570.261904 -41.96 
L 568.949324 -41.96 
L 567.636743 -41.96 
L 566.324163 -41.96 
L 565.011583 -41.96 
L 563.699003 -41.96 
L 562.386423 -41.96 
L 561.073843 -41.96 
L 559.761263 -41.96 
L 558.448682 -41.96 
L 557.136102 -41.96 
L 555.823522 -41.96 
L 554.510942 -41.96 
L 553.198362 -41.96 
L 551.885782 -41.96 
L 550.573201 -41.96 
L 549.260621 -41.96 
L 547.948041 -41.96 
L 546.635461 -41.96 
L 545.322881 -41.96 
L 544.010301 -41.96 
L 542.69772 -41.96 
L 541.38514 -41.96 
L 540.07256 -41.96 
L 538.75998 -41.96 
L 537.4474 -41.96 
L 536.13482 -41.96 
L 534.822239 -41.96 
L 533.509659 -41.96 
L 532.197079 -41.96 
L 530.884499 -41.96 
L 529.571919 -41.96 
L 528.259339 -41.96 
L 526.946759 -41.96 
L 525.634178 -41.96 
L 524.321598 -41.96 
L 523.009018 -41.96 
L 521.696438 -41.96 
L 520.383858 -41.96 
L 519.071278 -41.96 
L 517.758697 -41.96 
L 516.446117 -41.96 
L 515.133537 -41.96 
L 513.820957 -41.96 
L 512.508377 -41.96 
L 511.195797 -41.96 
L 509.883216 -41.96 
L 508.570636 -41.96 
L 507.258056 -41.96 
L 505.945476 -41.96 
L 504.632896 -41.96 
L 503.320316 -41.96 
L 502.007735 -41.96 
L 500.695155 -41.96 
L 499.382575 -41.96 
L 498.069995 -41.96 
L 496.757415 -41.96 
L 495.444835 -41.96 
L 494.132255 -41.96 
L 492.819674 -41.96 
L 491.507094 -41.96 
L 490.194514 -41.96 
L 488.881934 -41.96 
L 487.569354 -41.96 
L 486.256774 -41.96 
L 484.944193 -41.96 
L 483.631613 -41.96 
L 482.319033 -41.96 
L 481.006453 -41.96 
L 479.693873 -41.96 
L 478.381293 -41.96 
L 477.068712 -41.96 
L 475.756132 -41.96 
L 474.443552 -41.96 
L 473.130972 -41.96 
L 471.818392 -41.96 
L 470.505812 -41.96 
L 469.193231 -41.96 
L 467.880651 -41.96 
L 466.568071 -41.96 
L 465.255491 -41.96 
L 463.942911 -41.96 
L 462.630331 -41.96 
L 461.317751 -41.96 
L 460.00517 -41.96 
L 458.69259 -41.96 
L 457.38001 -41.96 
L 456.06743 -41.96 
L 454.75485 -41.96 
L 453.44227 -41.96 
L 452.129689 -41.96 
L 450.817109 -41.96 
L 449.504529 -41.96 
L 448.191949 -41.96 
L 446.879369 -41.96 
L 445.566789 -41.96 
L 444.254208 -41.96 
L 442.941628 -41.96 
L 441.629048 -41.96 
L 440.316468 -41.96 
L 439.003888 -41.96 
L 437.691308 -41.96 
L 436.378727 -41.96 
L 435.066147 -41.96 
L 433.753567 -41.96 
L 432.440987 -41.96 
L 431.128407 -41.96 
L 429.815827 -41.96 
L 428.503246 -41.96 
L 427.190666 -41.96 
L 425.878086 -41.96 
L 424.565506 -41.96 
L 423.252926 -41.96 
L 421.940346 -41.96 
L 420.627766 -41.96 
L 419.315185 -41.96 
L 418.002605 -41.96 
L 416.690025 -41.96 
L 415.377445 -41.96 
L 414.064865 -41.96 
L 412.752285 -41.96 
L 411.439704 -41.96 
L 410.127124 -41.96 
L 408.814544 -41.96 
L 407.501964 -41.96 
L 406.189384 -41.96 
L 404.876804 -41.96 
L 403.564223 -41.96 
L 402.251643 -41.96 
L 400.939063 -41.96 
L 399.626483 -41.96 
L 398.313903 -41.96 
L 397.001323 -41.96 
L 395.688742 -41.96 
L 394.376162 -41.96 
L 393.063582 -41.96 
L 391.751002 -41.96 
L 390.438422 -41.96 
L 389.125842 -41.96 
L 387.813262 -41.96 
L 386.500681 -41.96 
L 385.188101 -41.96 
L 383.875521 -41.96 
L 382.562941 -41.96 
L 381.250361 -41.96 
L 379.937781 -41.96 
L 378.6252 -41.96 
L 377.31262 -41.96 
L 376.00004 -41.96 
L 374.68746 -41.96 
L 373.37488 -41.96 
L 372.0623 -41.96 
L 370.749719 -41.96 
L 369.437139 -41.96 
L 368.124559 -41.96 
L 366.811979 -41.96 
L 365.499399 -41.96 
L 364.186819 -41.96 
L 362.874238 -41.96 
L 361.561658 -41.96 
L 360.249078 -41.96 
L 358.936498 -41.96 
L 357.623918 -41.96 
L 356.311338 -41.96 
L 354.998758 -41.96 
L 353.686177 -41.96 
L 352.373597 -41.96 
L 351.061017 -41.96 
L 349.748437 -41.96 
L 348.435857 -41.96 
L 347.123277 -41.96 
L 345.810696 -41.96 
L 344.498116 -41.96 
L 343.185536 -41.96 
L 341.872956 -41.96 
L 340.560376 -41.96 
L 339.247796 -41.96 
L 337.935215 -41.96 
L 336.622635 -41.96 
L 335.310055 -41.96 
L 333.997475 -41.96 
L 332.684895 -41.96 
L 331.372315 -41.96 
L 330.059734 -41.96 
L 328.747154 -41.96 
L 327.434574 -41.96 
L 326.121994 -41.96 
L 324.809414 -41.96 
L 323.496834 -41.96 
L 322.184254 -41.96 
L 320.871673 -41.96 
L 319.559093 -41.96 
L 318.246513 -41.96 
L 316.933933 -41.96 
L 315.621353 -41.96 
L 314.308773 -41.96 
L 312.996192 -41.96 
L 311.683612 -41.96 
L 310.371032 -41.96 
L 309.058452 -41.96 
L 307.745872 -41.96 
L 306.433292 -41.96 
L 305.120711 -41.96 
L 303.808131 -41.96 
L 302.495551 -41.96 
L 301.182971 -41.96 
L 299.870391 -41.96 
L 298.557811 -41.96 
L 297.24523 -41.96 
L 295.93265 -41.96 
L 294.62007 -41.96 
L 293.30749 -41.96 
L 291.99491 -41.96 
L 290.68233 -41.96 
L 289.369749 -41.96 
L 288.057169 -41.96 
L 286.744589 -41.96 
L 285.432009 -41.96 
L 284.119429 -41.96 
L 282.806849 -41.96 
L 281.494269 -41.96 
L 280.181688 -41.96 
L 278.869108 -41.96 
L 277.556528 -41.96 
L 276.243948 -41.96 
L 274.931368 -41.96 
L 273.618788 -41.96 
L 272.306207 -41.96 
L 270.993627 -41.96 
L 269.681047 -41.96 
L 268.368467 -41.96 
L 267.055887 -41.96 
L 265.743307 -41.96 
L 264.430726 -41.96 
L 263.118146 -41.96 
L 261.805566 -41.96 
L 260.492986 -41.96 
L 259.180406 -41.96 
L 257.867826 -41.96 
L 256.555245 -41.96 
L 255.242665 -41.96 
L 253.930085 -41.96 
L 252.617505 -41.96 
L 251.304925 -41.96 
L 249.992345 -41.96 
L 248.679765 -41.96 
L 247.367184 -41.96 
L 246.054604 -41.96 
L 244.742024 -41.96 
L 243.429444 -41.96 
L 242.116864 -41.96 
L 240.804284 -41.96 
L 239.491703 -41.96 
L 238.179123 -41.96 
L 236.866543 -41.96 
L 235.553963 -41.96 
L 234.241383 -41.96 
L 232.928803 -41.96 
L 231.616222 -41.96 
L 230.303642 -41.96 
L 228.991062 -41.96 
L 227.678482 -41.96 
L 226.365902 -41.96 
L 225.053322 -41.96 
L 223.740741 -41.96 
L 222.428161 -41.96 
L 221.115581 -41.96 
L 219.803001 -41.96 
L 218.490421 -41.96 
L 217.177841 -41.96 
L 215.865261 -41.96 
L 214.55268 -41.96 
L 213.2401 -41.96 
L 211.92752 -41.96 
L 210.61494 -41.96 
L 209.30236 -41.96 
L 207.98978 -41.96 
L 206.677199 -41.96 
L 205.364619 -41.96 
L 204.052039 -41.96 
L 202.739459 -41.96 
L 201.426879 -41.96 
L 200.114299 -41.96 
L 198.801718 -41.96 
L 197.489138 -41.96 
L 196.176558 -41.96 
L 194.863978 -41.96 
L 193.551398 -41.96 
L 192.238818 -41.96 
L 190.926237 -41.96 
L 189.613657 -41.96 
L 188.301077 -41.96 
L 186.988497 -41.96 
L 185.675917 -41.96 
L 184.363337 -41.96 
L 183.050757 -41.96 
L 181.738176 -41.96 
L 180.425596 -41.96 
L 179.113016 -41.96 
L 177.800436 -41.96 
L 176.487856 -41.96 
L 175.175276 -41.96 
L 173.862695 -41.96 
L 172.550115 -41.96 
L 171.237535 -41.96 
L 169.924955 -41.96 
L 168.612375 -41.96 
L 167.299795 -41.96 
L 165.987214 -41.96 
L 164.674634 -41.96 
L 163.362054 -41.96 
L 162.049474 -41.96 
L 160.736894 -41.96 
L 159.424314 -41.96 
L 158.111733 -41.96 
L 156.799153 -41.96 
L 155.486573 -41.96 
L 154.173993 -41.96 
L 152.861413 -41.96 
L 151.548833 -41.96 
L 150.236253 -41.96 
L 148.923672 -41.96 
L 147.611092 -41.96 
L 146.298512 -41.96 
L 144.985932 -41.96 
L 143.673352 -41.96 
L 142.360772 -41.96 
L 141.048191 -41.96 
L 139.735611 -41.96 
L 138.423031 -41.96 
L 137.110451 -41.96 
L 135.797871 -41.96 
L 134.485291 -41.96 
L 133.17271 -41.96 
L 131.86013 -41.96 
L 130.54755 -41.96 
L 129.23497 -41.96 
L 127.92239 -41.96 
L 126.60981 -41.96 
L 125.297229 -41.96 
L 123.984649 -41.96 
L 122.672069 -41.96 
L 121.359489 -41.96 
L 120.046909 -41.96 
L 118.734329 -41.96 
L 117.421748 -41.96 
L 116.109168 -41.96 
L 114.796588 -41.96 
L 113.484008 -41.96 
L 112.171428 -41.96 
L 110.858848 -41.96 
L 109.546268 -41.96 
L 108.233687 -41.96 
L 106.921107 -41.96 
L 105.608527 -41.96 
L 104.295947 -41.96 
L 102.983367 -41.96 
L 101.670787 -41.96 
L 100.358206 -41.96 
L 99.045626 -41.96 
L 97.733046 -41.96 
L 96.420466 -41.96 
L 95.107886 -41.96 
L 93.795306 -41.96 
L 92.482725 -41.96 
L 91.170145 -41.96 
L 89.857565 -41.96 
L 88.544985 -41.96 
L 87.232405 -41.96 
L 85.919825 -41.96 
L 84.607244 -41.96 
L 83.294664 -41.96 
L 81.982084 -41.96 
L 80.669504 -41.96 
L 79.356924 -41.96 
L 78.044344 -41.96 
L 76.731764 -41.96 
L 75.419183 -41.96 
L 74.106603 -41.96 
L 72.794023 -41.96 
L 71.481443 -41.96 
L 70.168863 -41.96 
L 68.856283 -41.96 
L 67.543702 -41.96 
L 66.231122 -41.96 
L 64.918542 -41.96 
L 63.605962 -41.96 
L 62.293382 -41.96 
L 60.980802 -41.96 
L 59.668221 -41.96 
L 58.355641 -41.96 
L 57.043061 -41.96 
L 55.730481 -41.96 
L 54.417901 -41.96 
L 53.105321 -41.96 
L 51.79274 -41.96 
L 50.48016 -41.96 
L 49.16758 -41.96 
L 47.855 -41.96 
z
" style="stroke: #3498db; stroke-opacity: 0.3"/>
    </defs>
    <g clip-path="url(#pfd0946160a)">
     <use xlink:href="#m8cf543b052" x="0" y="432" style="fill: #3498db; fill-opacity: 0.3; stroke: #3498db; stroke-opacity: 0.3"/>
    </g>
   </g>
   <g id="matplotlib.axis_1">
    <g id="xtick_1">
     <g id="line2d_1">
      <defs>
       <path id="m8bd332a29d" d="M 0 0 
L 0 3.5 
" style="stroke: #000000; stroke-width: 0.8"/>
      </defs>
      <g>
       <use xlink:href="#m8bd332a29d" x="47.855" y="390.04" style="stroke: #000000; stroke-width: 0.8"/>
      </g>
     </g>
     <g id="text_3">
      <!-- 0 -->
      <g transform="translate(44.67375 404.638438) scale(0.1 -0.1)">
       <defs>
        <path id="DejaVuSans-30" d="M 2034 4250 
Q 1547 4250 1301 3770 
Q 1056 3291 1056 2328 
Q 1056 1369 1301 889 
Q 1547 409 2034 409 
Q 2525 409 2770 889 
Q 3016 1369 3016 2328 
Q 3016 3291 2770 3770 
Q 2525 4250 2034 4250 
z
M 2034 4750 
Q 2819 4750 3233 4129 
Q 3647 3509 3647 2328 
Q 3647 1150 3233 529 
Q 2819 -91 2034 -91 
Q 1250 -91 836 529 
Q 422 1150 422 2328 
Q 422 3509 836 4129 
Q 1250 4750 2034 4750 
z
" transform="scale(0.015625)"/>
       </defs>
       <use xlink:href="#DejaVuSans-30"/>
      </g>
     </g>
    </g>
    <g id="xtick_2">
     <g id="line2d_2">
      <g>
       <use xlink:href="#m8bd332a29d" x="178.8505" y="390.04" style="stroke: #000000; stroke-width: 0.8"/>
      </g>
     </g>
     <g id="text_4">
      <!-- 10 -->
      <g transform="translate(172.488 404.638438) scale(0.1 -0.1)">
       <defs>
        <path id="DejaVuSans-31" d="M 794 531 
L 1825 531 
L 1825 4091 
L 703 3866 
L 703 4441 
L 1819 4666 
L 2450 4666 
L 2450 531 
L 3481 531 
L 3481 0 
L 794 0 
L 794 531 
z
" transform="scale(0.015625)"/>
       </defs>
       <use xlink:href="#DejaVuSans-31"/>
       <use xlink:href="#DejaVuSans-30" transform="translate(63.623047 0)"/>
      </g>
     </g>
    </g>
    <g id="xtick_3">
     <g id="line2d_3">
      <g>
       <use xlink:href="#m8bd332a29d" x="309.846" y="390.04" style="stroke: #000000; stroke-width: 0.8"/>
      </g>
     </g>
     <g id="text_5">
      <!-- 20 -->
      <g transform="translate(303.4835 404.638438) scale(0.1 -0.1)">
       <defs>
        <path id="DejaVuSans-32" d="M 1228 531 
L 3431 531 
L 3431 0 
L 469 0 
L 469 531 
Q 828 903 1448 1529 
Q 2069 2156 2228 2338 
Q 2531 2678 2651 2914 
Q 2772 3150 2772 3378 
Q 2772 3750 2511 3984 
Q 2250 4219 1831 4219 
Q 1534 4219 1204 4116 
Q 875 4013 500 3803 
L 500 4441 
Q 881 4594 1212 4672 
Q 1544 4750 1819 4750 
Q 2544 4750 2975 4387 
Q 3406 4025 3406 3419 
Q 3406 3131 3298 2873 
Q 3191 2616 2906 2266 
Q 2828 2175 2409 1742 
Q 1991 1309 1228 531 
z
" transform="scale(0.015625)"/>
       </defs>
       <use xlink:href="#DejaVuSans-32"/>
       <use xlink:href="#DejaVuSans-30" transform="translate(63.623047 0)"/>
      </g>
     </g>
    </g>
    <g id="xtick_4">
     <g id="line2d_4">
      <g>
       <use xlink:href="#m8bd332a29d" x="440.8415" y="390.04" style="stroke: #000000; stroke-width: 0.8"/>
      </g>
     </g>
     <g id="text_6">
      <!-- 30 -->
      <g transform="translate(434.479 404.638438) scale(0.1 -0.1)">
       <defs>
        <path id="DejaVuSans-33" d="M 2597 2516 
Q 3050 2419 3304 2112 
Q 3559 1806 3559 1356 
Q 3559 666 3084 287 
Q 2609 -91 1734 -91 
Q 1441 -91 1130 -33 
Q 819 25 488 141 
L 488 750 
Q 750 597 1062 519 
Q 1375 441 1716 441 
Q 2309 441 2620 675 
Q 2931 909 2931 1356 
Q 2931 1769 2642 2001 
Q 2353 2234 1838 2234 
L 1294 2234 
L 1294 2753 
L 1863 2753 
Q 2328 2753 2575 2939 
Q 2822 3125 2822 3475 
Q 2822 3834 2567 4026 
Q 2313 4219 1838 4219 
Q 1578 4219 1281 4162 
Q 984 4106 628 3988 
L 628 4550 
Q 988 4650 1302 4700 
Q 1616 4750 1894 4750 
Q 2613 4750 3031 4423 
Q 3450 4097 3450 3541 
Q 3450 3153 3228 2886 
Q 3006 2619 2597 2516 
z
" transform="scale(0.015625)"/>
       </defs>
       <use xlink:href="#DejaVuSans-33"/>
       <use xlink:href="#DejaVuSans-30" transform="translate(63.623047 0)"/>
      </g>
     </g>
    </g>
    <g id="xtick_5">
     <g id="line2d_5">
      <g>
       <use xlink:href="#m8bd332a29d" x="571.837" y="390.04" style="stroke: #000000; stroke-width: 0.8"/>
      </g>
     </g>
     <g id="text_7">
      <!-- 40 -->
      <g transform="translate(565.4745 404.638438) scale(0.1 -0.1)">
       <defs>
        <path id="DejaVuSans-34" d="M 2419 4116 
L 825 1625 
L 2419 1625 
L 2419 4116 
z
M 2253 4666 
L 3047 4666 
L 3047 1625 
L 3713 1625 
L 3713 1100 
L 3047 1100 
L 3047 0 
L 2419 0 
L 2419 1100 
L 313 1100 
L 313 1709 
L 2253 4666 
z
" transform="scale(0.015625)"/>
       </defs>
       <use xlink:href="#DejaVuSans-34"/>
       <use xlink:href="#DejaVuSans-30" transform="translate(63.623047 0)"/>
      </g>
     </g>
    </g>
    <g id="xtick_6">
     <g id="line2d_6">
      <g>
       <use xlink:href="#m8bd332a29d" x="702.8325" y="390.04" style="stroke: #000000; stroke-width: 0.8"/>
      </g>
     </g>
     <g id="text_8">
      <!-- 50 -->
      <g transform="translate(696.47 404.638438) scale(0.1 -0.1)">
       <defs>
        <path id="DejaVuSans-35" d="M 691 4666 
L 3169 4666 
L 3169 4134 
L 1269 4134 
L 1269 2991 
Q 1406 3038 1543 3061 
Q 1681 3084 1819 3084 
Q 2600 3084 3056 2656 
Q 3513 2228 3513 1497 
Q 3513 744 3044 326 
Q 2575 -91 1722 -91 
Q 1428 -91 1123 -41 
Q 819 9 494 109 
L 494 744 
Q 775 591 1075 516 
Q 1375 441 1709 441 
Q 2250 441 2565 725 
Q 2881 1009 2881 1497 
Q 2881 1984 2565 2268 
Q 2250 2553 1709 2553 
Q 1456 2553 1204 2497 
Q 953 2441 691 2322 
L 691 4666 
z
" transform="scale(0.015625)"/>
       </defs>
       <use xlink:href="#DejaVuSans-35"/>
       <use xlink:href="#DejaVuSans-30" transform="translate(63.623047 0)"/>
      </g>
     </g>
    </g>
    <g id="text_9">
     <!-- Sequence Position (Spatial/Coordinate Space) -->
     <g transform="translate(260.997656 418.316562) scale(0.1 -0.1)">
      <defs>
       <path id="DejaVuSans-53" d="M 3425 4513 
L 3425 3897 
Q 3066 4069 2747 4153 
Q 2428 4238 2131 4238 
Q 1616 4238 1336 4038 
Q 1056 3838 1056 3469 
Q 1056 3159 1242 3001 
Q 1428 2844 1947 2747 
L 2328 2669 
Q 3034 2534 3370 2195 
Q 3706 1856 3706 1288 
Q 3706 609 3251 259 
Q 2797 -91 1919 -91 
Q 1588 -91 1214 -16 
Q 841 59 441 206 
L 441 856 
Q 825 641 1194 531 
Q 1563 422 1919 422 
Q 2459 422 2753 634 
Q 3047 847 3047 1241 
Q 3047 1584 2836 1778 
Q 2625 1972 2144 2069 
L 1759 2144 
Q 1053 2284 737 2584 
Q 422 2884 422 3419 
Q 422 4038 858 4394 
Q 1294 4750 2059 4750 
Q 2388 4750 2728 4690 
Q 3069 4631 3425 4513 
z
" transform="scale(0.015625)"/>
       <path id="DejaVuSans-65" d="M 3597 1894 
L 3597 1613 
L 953 1613 
Q 991 1019 1311 708 
Q 1631 397 2203 397 
Q 2534 397 2845 478 
Q 3156 559 3463 722 
L 3463 178 
Q 3153 47 2828 -22 
Q 2503 -91 2169 -91 
Q 1331 -91 842 396 
Q 353 884 353 1716 
Q 353 2575 817 3079 
Q 1281 3584 2069 3584 
Q 2775 3584 3186 3129 
Q 3597 2675 3597 1894 
z
M 3022 2063 
Q 3016 2534 2758 2815 
Q 2500 3097 2075 3097 
Q 1594 3097 1305 2825 
Q 1016 2553 972 2059 
L 3022 2063 
z
" transform="scale(0.015625)"/>
       <path id="DejaVuSans-71" d="M 947 1747 
Q 947 1113 1208 752 
Q 1469 391 1925 391 
Q 2381 391 2643 752 
Q 2906 1113 2906 1747 
Q 2906 2381 2643 2742 
Q 2381 3103 1925 3103 
Q 1469 3103 1208 2742 
Q 947 2381 947 1747 
z
M 2906 525 
Q 2725 213 2448 61 
Q 2172 -91 1784 -91 
Q 1150 -91 751 415 
Q 353 922 353 1747 
Q 353 2572 751 3078 
Q 1150 3584 1784 3584 
Q 2172 3584 2448 3432 
Q 2725 3281 2906 2969 
L 2906 3500 
L 3481 3500 
L 3481 -1331 
L 2906 -1331 
L 2906 525 
z
" transform="scale(0.015625)"/>
       <path id="DejaVuSans-75" d="M 544 1381 
L 544 3500 
L 1119 3500 
L 1119 1403 
Q 1119 906 1312 657 
Q 1506 409 1894 409 
Q 2359 409 2629 706 
Q 2900 1003 2900 1516 
L 2900 3500 
L 3475 3500 
L 3475 0 
L 2900 0 
L 2900 538 
Q 2691 219 2414 64 
Q 2138 -91 1772 -91 
Q 1169 -91 856 284 
Q 544 659 544 1381 
z
M 1991 3584 
L 1991 3584 
z
" transform="scale(0.015625)"/>
       <path id="DejaVuSans-6e" d="M 3513 2113 
L 3513 0 
L 2938 0 
L 2938 2094 
Q 2938 2591 2744 2837 
Q 2550 3084 2163 3084 
Q 1697 3084 1428 2787 
Q 1159 2491 1159 1978 
L 1159 0 
L 581 0 
L 581 3500 
L 1159 3500 
L 1159 2956 
Q 1366 3272 1645 3428 
Q 1925 3584 2291 3584 
Q 2894 3584 3203 3211 
Q 3513 2838 3513 2113 
z
" transform="scale(0.015625)"/>
       <path id="DejaVuSans-63" d="M 3122 3366 
L 3122 2828 
Q 2878 2963 2633 3030 
Q 2388 3097 2138 3097 
Q 1578 3097 1268 2742 
Q 959 2388 959 1747 
Q 959 1106 1268 751 
Q 1578 397 2138 397 
Q 2388 397 2633 464 
Q 2878 531 3122 666 
L 3122 134 
Q 2881 22 2623 -34 
Q 2366 -91 2075 -91 
Q 1284 -91 818 406 
Q 353 903 353 1747 
Q 353 2603 823 3093 
Q 1294 3584 2113 3584 
Q 2378 3584 2631 3529 
Q 2884 3475 3122 3366 
z
" transform="scale(0.015625)"/>
       <path id="DejaVuSans-20" transform="scale(0.015625)"/>
       <path id="DejaVuSans-50" d="M 1259 4147 
L 1259 2394 
L 2053 2394 
Q 2494 2394 2734 2622 
Q 2975 2850 2975 3272 
Q 2975 3691 2734 3919 
Q 2494 4147 2053 4147 
L 1259 4147 
z
M 628 4666 
L 2053 4666 
Q 2838 4666 3239 4311 
Q 3641 3956 3641 3272 
Q 3641 2581 3239 2228 
Q 2838 1875 2053 1875 
L 1259 1875 
L 1259 0 
L 628 0 
L 628 4666 
z
" transform="scale(0.015625)"/>
       <path id="DejaVuSans-6f" d="M 1959 3097 
Q 1497 3097 1228 2736 
Q 959 2375 959 1747 
Q 959 1119 1226 758 
Q 1494 397 1959 397 
Q 2419 397 2687 759 
Q 2956 1122 2956 1747 
Q 2956 2369 2687 2733 
Q 2419 3097 1959 3097 
z
M 1959 3584 
Q 2709 3584 3137 3096 
Q 3566 2609 3566 1747 
Q 3566 888 3137 398 
Q 2709 -91 1959 -91 
Q 1206 -91 779 398 
Q 353 888 353 1747 
Q 353 2609 779 3096 
Q 1206 3584 1959 3584 
z
" transform="scale(0.015625)"/>
       <path id="DejaVuSans-73" d="M 2834 3397 
L 2834 2853 
Q 2591 2978 2328 3040 
Q 2066 3103 1784 3103 
Q 1356 3103 1142 2972 
Q 928 2841 928 2578 
Q 928 2378 1081 2264 
Q 1234 2150 1697 2047 
L 1894 2003 
Q 2506 1872 2764 1633 
Q 3022 1394 3022 966 
Q 3022 478 2636 193 
Q 2250 -91 1575 -91 
Q 1294 -91 989 -36 
Q 684 19 347 128 
L 347 722 
Q 666 556 975 473 
Q 1284 391 1588 391 
Q 1994 391 2212 530 
Q 2431 669 2431 922 
Q 2431 1156 2273 1281 
Q 2116 1406 1581 1522 
L 1381 1569 
Q 847 1681 609 1914 
Q 372 2147 372 2553 
Q 372 3047 722 3315 
Q 1072 3584 1716 3584 
Q 2034 3584 2315 3537 
Q 2597 3491 2834 3397 
z
" transform="scale(0.015625)"/>
       <path id="DejaVuSans-69" d="M 603 3500 
L 1178 3500 
L 1178 0 
L 603 0 
L 603 3500 
z
M 603 4863 
L 1178 4863 
L 1178 4134 
L 603 4134 
L 603 4863 
z
" transform="scale(0.015625)"/>
       <path id="DejaVuSans-74" d="M 1172 4494 
L 1172 3500 
L 2356 3500 
L 2356 3053 
L 1172 3053 
L 1172 1153 
Q 1172 725 1289 603 
Q 1406 481 1766 481 
L 2356 481 
L 2356 0 
L 1766 0 
Q 1100 0 847 248 
Q 594 497 594 1153 
L 594 3053 
L 172 3053 
L 172 3500 
L 594 3500 
L 594 4494 
L 1172 4494 
z
" transform="scale(0.015625)"/>
       <path id="DejaVuSans-28" d="M 1984 4856 
Q 1566 4138 1362 3434 
Q 1159 2731 1159 2009 
Q 1159 1288 1364 580 
Q 1569 -128 1984 -844 
L 1484 -844 
Q 1016 -109 783 600 
Q 550 1309 550 2009 
Q 550 2706 781 3412 
Q 1013 4119 1484 4856 
L 1984 4856 
z
" transform="scale(0.015625)"/>
       <path id="DejaVuSans-70" d="M 1159 525 
L 1159 -1331 
L 581 -1331 
L 581 3500 
L 1159 3500 
L 1159 2969 
Q 1341 3281 1617 3432 
Q 1894 3584 2278 3584 
Q 2916 3584 3314 3078 
Q 3713 2572 3713 1747 
Q 3713 922 3314 415 
Q 2916 -91 2278 -91 
Q 1894 -91 1617 61 
Q 1341 213 1159 525 
z
M 3116 1747 
Q 3116 2381 2855 2742 
Q 2594 3103 2138 3103 
Q 1681 3103 1420 2742 
Q 1159 2381 1159 1747 
Q 1159 1113 1420 752 
Q 1681 391 2138 391 
Q 2594 391 2855 752 
Q 3116 1113 3116 1747 
z
" transform="scale(0.015625)"/>
       <path id="DejaVuSans-61" d="M 2194 1759 
Q 1497 1759 1228 1600 
Q 959 1441 959 1056 
Q 959 750 1161 570 
Q 1363 391 1709 391 
Q 2188 391 2477 730 
Q 2766 1069 2766 1631 
L 2766 1759 
L 2194 1759 
z
M 3341 1997 
L 3341 0 
L 2766 0 
L 2766 531 
Q 2569 213 2275 61 
Q 1981 -91 1556 -91 
Q 1019 -91 701 211 
Q 384 513 384 1019 
Q 384 1609 779 1909 
Q 1175 2209 1959 2209 
L 2766 2209 
L 2766 2266 
Q 2766 2663 2505 2880 
Q 2244 3097 1772 3097 
Q 1472 3097 1187 3025 
Q 903 2953 641 2809 
L 641 3341 
Q 956 3463 1253 3523 
Q 1550 3584 1831 3584 
Q 2591 3584 2966 3190 
Q 3341 2797 3341 1997 
z
" transform="scale(0.015625)"/>
       <path id="DejaVuSans-6c" d="M 603 4863 
L 1178 4863 
L 1178 0 
L 603 0 
L 603 4863 
z
" transform="scale(0.015625)"/>
       <path id="DejaVuSans-2f" d="M 1625 4666 
L 2156 4666 
L 531 -594 
L 0 -594 
L 1625 4666 
z
" transform="scale(0.015625)"/>
       <path id="DejaVuSans-43" d="M 4122 4306 
L 4122 3641 
Q 3803 3938 3442 4084 
Q 3081 4231 2675 4231 
Q 1875 4231 1450 3742 
Q 1025 3253 1025 2328 
Q 1025 1406 1450 917 
Q 1875 428 2675 428 
Q 3081 428 3442 575 
Q 3803 722 4122 1019 
L 4122 359 
Q 3791 134 3420 21 
Q 3050 -91 2638 -91 
Q 1578 -91 968 557 
Q 359 1206 359 2328 
Q 359 3453 968 4101 
Q 1578 4750 2638 4750 
Q 3056 4750 3426 4639 
Q 3797 4528 4122 4306 
z
" transform="scale(0.015625)"/>
       <path id="DejaVuSans-72" d="M 2631 2963 
Q 2534 3019 2420 3045 
Q 2306 3072 2169 3072 
Q 1681 3072 1420 2755 
Q 1159 2438 1159 1844 
L 1159 0 
L 581 0 
L 581 3500 
L 1159 3500 
L 1159 2956 
Q 1341 3275 1631 3429 
Q 1922 3584 2338 3584 
Q 2397 3584 2469 3576 
Q 2541 3569 2628 3553 
L 2631 2963 
z
" transform="scale(0.015625)"/>
       <path id="DejaVuSans-64" d="M 2906 2969 
L 2906 4863 
L 3481 4863 
L 3481 0 
L 2906 0 
L 2906 525 
Q 2725 213 2448 61 
Q 2172 -91 1784 -91 
Q 1150 -91 751 415 
Q 353 922 353 1747 
Q 353 2572 751 3078 
Q 1150 3584 1784 3584 
Q 2172 3584 2448 3432 
Q 2725 3281 2906 2969 
z
M 947 1747 
Q 947 1113 1208 752 
Q 1469 391 1925 391 
Q 2381 391 2643 752 
Q 2906 1113 2906 1747 
Q 2906 2381 2643 2742 
Q 2381 3103 1925 3103 
Q 1469 3103 1208 2742 
Q 947 2381 947 1747 
z
" transform="scale(0.015625)"/>
       <path id="DejaVuSans-29" d="M 513 4856 
L 1013 4856 
Q 1481 4119 1714 3412 
Q 1947 2706 1947 2009 
Q 1947 1309 1714 600 
Q 1481 -109 1013 -844 
L 513 -844 
Q 928 -128 1133 580 
Q 1338 1288 1338 2009 
Q 1338 2731 1133 3434 
Q 928 4138 513 4856 
z
" transform="scale(0.015625)"/>
      </defs>
      <use xlink:href="#DejaVuSans-53"/>
      <use xlink:href="#DejaVuSans-65" transform="translate(63.476562 0)"/>
      <use xlink:href="#DejaVuSans-71" transform="translate(125 0)"/>
      <use xlink:href="#DejaVuSans-75" transform="translate(188.476562 0)"/>
      <use xlink:href="#DejaVuSans-65" transform="translate(251.855469 0)"/>
      <use xlink:href="#DejaVuSans-6e" transform="translate(313.378906 0)"/>
      <use xlink:href="#DejaVuSans-63" transform="translate(376.757812 0)"/>
      <use xlink:href="#DejaVuSans-65" transform="translate(431.738281 0)"/>
      <use xlink:href="#DejaVuSans-20" transform="translate(493.261719 0)"/>
      <use xlink:href="#DejaVuSans-50" transform="translate(525.048828 0)"/>
      <use xlink:href="#DejaVuSans-6f" transform="translate(581.726562 0)"/>
      <use xlink:href="#DejaVuSans-73" transform="translate(642.908203 0)"/>
      <use xlink:href="#DejaVuSans-69" transform="translate(695.007812 0)"/>
      <use xlink:href="#DejaVuSans-74" transform="translate(722.791016 0)"/>
      <use xlink:href="#DejaVuSans-69" transform="translate(762 0)"/>
      <use xlink:href="#DejaVuSans-6f" transform="translate(789.783203 0)"/>
      <use xlink:href="#DejaVuSans-6e" transform="translate(850.964844 0)"/>
      <use xlink:href="#DejaVuSans-20" transform="translate(914.34375 0)"/>
      <use xlink:href="#DejaVuSans-28" transform="translate(946.130859 0)"/>
      <use xlink:href="#DejaVuSans-53" transform="translate(985.144531 0)"/>
      <use xlink:href="#DejaVuSans-70" transform="translate(1048.621094 0)"/>
      <use xlink:href="#DejaVuSans-61" transform="translate(1112.097656 0)"/>
      <use xlink:href="#DejaVuSans-74" transform="translate(1173.376953 0)"/>
      <use xlink:href="#DejaVuSans-69" transform="translate(1212.585938 0)"/>
      <use xlink:href="#DejaVuSans-61" transform="translate(1240.369141 0)"/>
      <use xlink:href="#DejaVuSans-6c" transform="translate(1301.648438 0)"/>
      <use xlink:href="#DejaVuSans-2f" transform="translate(1329.431641 0)"/>
      <use xlink:href="#DejaVuSans-43" transform="translate(1363.123047 0)"/>
      <use xlink:href="#DejaVuSans-6f" transform="translate(1432.947266 0)"/>
      <use xlink:href="#DejaVuSans-6f" transform="translate(1494.128906 0)"/>
      <use xlink:href="#DejaVuSans-72" transform="translate(1555.310547 0)"/>
      <use xlink:href="#DejaVuSans-64" transform="translate(1594.673828 0)"/>
      <use xlink:href="#DejaVuSans-69" transform="translate(1658.150391 0)"/>
      <use xlink:href="#DejaVuSans-6e" transform="translate(1685.933594 0)"/>
      <use xlink:href="#DejaVuSans-61" transform="translate(1749.3125 0)"/>
      <use xlink:href="#DejaVuSans-74" transform="translate(1810.591797 0)"/>
      <use xlink:href="#DejaVuSans-65" transform="translate(1849.800781 0)"/>
      <use xlink:href="#DejaVuSans-20" transform="translate(1911.324219 0)"/>
      <use xlink:href="#DejaVuSans-53" transform="translate(1943.111328 0)"/>
      <use xlink:href="#DejaVuSans-70" transform="translate(2006.587891 0)"/>
      <use xlink:href="#DejaVuSans-61" transform="translate(2070.064453 0)"/>
      <use xlink:href="#DejaVuSans-63" transform="translate(2131.34375 0)"/>
      <use xlink:href="#DejaVuSans-65" transform="translate(2186.324219 0)"/>
      <use xlink:href="#DejaVuSans-29" transform="translate(2247.847656 0)"/>
     </g>
    </g>
   </g>
   <g id="matplotlib.axis_2">
    <g id="ytick_1">
     <g id="line2d_7">
      <defs>
       <path id="m82d66e7bdb" d="M 0 0 
L -3.5 0 
" style="stroke: #000000; stroke-width: 0.8"/>
      </defs>
      <g>
       <use xlink:href="#m82d66e7bdb" x="47.855" y="390.04" style="stroke: #000000; stroke-width: 0.8"/>
      </g>
     </g>
     <g id="text_10">
      <!-- 0.0 -->
      <g transform="translate(24.951875 393.839219) scale(0.1 -0.1)">
       <defs>
        <path id="DejaVuSans-2e" d="M 684 794 
L 1344 794 
L 1344 0 
L 684 0 
L 684 794 
z
" transform="scale(0.015625)"/>
       </defs>
       <use xlink:href="#DejaVuSans-30"/>
       <use xlink:href="#DejaVuSans-2e" transform="translate(63.623047 0)"/>
       <use xlink:href="#DejaVuSans-30" transform="translate(95.410156 0)"/>
      </g>
     </g>
    </g>
    <g id="ytick_2">
     <g id="line2d_8">
      <g>
       <use xlink:href="#m82d66e7bdb" x="47.855" y="351.662727" style="stroke: #000000; stroke-width: 0.8"/>
      </g>
     </g>
     <g id="text_11">
      <!-- 0.5 -->
      <g transform="translate(24.951875 355.461946) scale(0.1 -0.1)">
       <use xlink:href="#DejaVuSans-30"/>
       <use xlink:href="#DejaVuSans-2e" transform="translate(63.623047 0)"/>
       <use xlink:href="#DejaVuSans-35" transform="translate(95.410156 0)"/>
      </g>
     </g>
    </g>
    <g id="ytick_3">
     <g id="line2d_9">
      <g>
       <use xlink:href="#m82d66e7bdb" x="47.855" y="313.285455" style="stroke: #000000; stroke-width: 0.8"/>
      </g>
     </g>
     <g id="text_12">
      <!-- 1.0 -->
      <g transform="translate(24.951875 317.084673) scale(0.1 -0.1)">
       <use xlink:href="#DejaVuSans-31"/>
       <use xlink:href="#DejaVuSans-2e" transform="translate(63.623047 0)"/>
       <use xlink:href="#DejaVuSans-30" transform="translate(95.410156 0)"/>
      </g>
     </g>
    </g>
    <g id="ytick_4">
     <g id="line2d_10">
      <g>
       <use xlink:href="#m82d66e7bdb" x="47.855" y="274.908182" style="stroke: #000000; stroke-width: 0.8"/>
      </g>
     </g>
     <g id="text_13">
      <!-- 1.5 -->
      <g transform="translate(24.951875 278.707401) scale(0.1 -0.1)">
       <use xlink:href="#DejaVuSans-31"/>
       <use xlink:href="#DejaVuSans-2e" transform="translate(63.623047 0)"/>
       <use xlink:href="#DejaVuSans-35" transform="translate(95.410156 0)"/>
      </g>
     </g>
    </g>
    <g id="ytick_5">
     <g id="line2d_11">
      <g>
       <use xlink:href="#m82d66e7bdb" x="47.855" y="236.530909" style="stroke: #000000; stroke-width: 0.8"/>
      </g>
     </g>
     <g id="text_14">
      <!-- 2.0 -->
      <g transform="translate(24.951875 240.330128) scale(0.1 -0.1)">
       <use xlink:href="#DejaVuSans-32"/>
       <use xlink:href="#DejaVuSans-2e" transform="translate(63.623047 0)"/>
       <use xlink:href="#DejaVuSans-30" transform="translate(95.410156 0)"/>
      </g>
     </g>
    </g>
    <g id="text_15">
     <!-- Information Content (Bits) -->
     <g transform="translate(18.872188 370.902187) rotate(-90) scale(0.1 -0.1)">
      <defs>
       <path id="DejaVuSans-49" d="M 628 4666 
L 1259 4666 
L 1259 0 
L 628 0 
L 628 4666 
z
" transform="scale(0.015625)"/>
       <path id="DejaVuSans-66" d="M 2375 4863 
L 2375 4384 
L 1825 4384 
Q 1516 4384 1395 4259 
Q 1275 4134 1275 3809 
L 1275 3500 
L 2222 3500 
L 2222 3053 
L 1275 3053 
L 1275 0 
L 697 0 
L 697 3053 
L 147 3053 
L 147 3500 
L 697 3500 
L 697 3744 
Q 697 4328 969 4595 
Q 1241 4863 1831 4863 
L 2375 4863 
z
" transform="scale(0.015625)"/>
       <path id="DejaVuSans-6d" d="M 3328 2828 
Q 3544 3216 3844 3400 
Q 4144 3584 4550 3584 
Q 5097 3584 5394 3201 
Q 5691 2819 5691 2113 
L 5691 0 
L 5113 0 
L 5113 2094 
Q 5113 2597 4934 2840 
Q 4756 3084 4391 3084 
Q 3944 3084 3684 2787 
Q 3425 2491 3425 1978 
L 3425 0 
L 2847 0 
L 2847 2094 
Q 2847 2600 2669 2842 
Q 2491 3084 2119 3084 
Q 1678 3084 1418 2786 
Q 1159 2488 1159 1978 
L 1159 0 
L 581 0 
L 581 3500 
L 1159 3500 
L 1159 2956 
Q 1356 3278 1631 3431 
Q 1906 3584 2284 3584 
Q 2666 3584 2933 3390 
Q 3200 3197 3328 2828 
z
" transform="scale(0.015625)"/>
       <path id="DejaVuSans-42" d="M 1259 2228 
L 1259 519 
L 2272 519 
Q 2781 519 3026 730 
Q 3272 941 3272 1375 
Q 3272 1813 3026 2020 
Q 2781 2228 2272 2228 
L 1259 2228 
z
M 1259 4147 
L 1259 2741 
L 2194 2741 
Q 2656 2741 2882 2914 
Q 3109 3088 3109 3444 
Q 3109 3797 2882 3972 
Q 2656 4147 2194 4147 
L 1259 4147 
z
M 628 4666 
L 2241 4666 
Q 2963 4666 3353 4366 
Q 3744 4066 3744 3513 
Q 3744 3084 3544 2831 
Q 3344 2578 2956 2516 
Q 3422 2416 3680 2098 
Q 3938 1781 3938 1306 
Q 3938 681 3513 340 
Q 3088 0 2303 0 
L 628 0 
L 628 4666 
z
" transform="scale(0.015625)"/>
      </defs>
      <use xlink:href="#DejaVuSans-49"/>
      <use xlink:href="#DejaVuSans-6e" transform="translate(29.492188 0)"/>
      <use xlink:href="#DejaVuSans-66" transform="translate(92.871094 0)"/>
      <use xlink:href="#DejaVuSans-6f" transform="translate(128.076172 0)"/>
      <use xlink:href="#DejaVuSans-72" transform="translate(189.257812 0)"/>
      <use xlink:href="#DejaVuSans-6d" transform="translate(228.621094 0)"/>
      <use xlink:href="#DejaVuSans-61" transform="translate(326.033203 0)"/>
      <use xlink:href="#DejaVuSans-74" transform="translate(387.3125 0)"/>
      <use xlink:href="#DejaVuSans-69" transform="translate(426.521484 0)"/>
      <use xlink:href="#DejaVuSans-6f" transform="translate(454.304688 0)"/>
      <use xlink:href="#DejaVuSans-6e" transform="translate(515.486328 0)"/>
      <use xlink:href="#DejaVuSans-20" transform="translate(578.865234 0)"/>
      <use xlink:href="#DejaVuSans-43" transform="translate(610.652344 0)"/>
      <use xlink:href="#DejaVuSans-6f" transform="translate(680.476562 0)"/>
      <use xlink:href="#DejaVuSans-6e" transform="translate(741.658203 0)"/>
      <use xlink:href="#DejaVuSans-74" transform="translate(805.037109 0)"/>
      <use xlink:href="#DejaVuSans-65" transform="translate(844.246094 0)"/>
      <use xlink:href="#DejaVuSans-6e" transform="translate(905.769531 0)"/>
      <use xlink:href="#DejaVuSans-74" transform="translate(969.148438 0)"/>
      <use xlink:href="#DejaVuSans-20" transform="translate(1008.357422 0)"/>
      <use xlink:href="#DejaVuSans-28" transform="translate(1040.144531 0)"/>
      <use xlink:href="#DejaVuSans-42" transform="translate(1079.158203 0)"/>
      <use xlink:href="#DejaVuSans-69" transform="translate(1147.761719 0)"/>
      <use xlink:href="#DejaVuSans-74" transform="translate(1175.544922 0)"/>
      <use xlink:href="#DejaVuSans-73" transform="translate(1214.753906 0)"/>
      <use xlink:href="#DejaVuSans-29" transform="translate(1266.853516 0)"/>
     </g>
    </g>
   </g>
   <g id="line2d_12">
    <path d="M 47.855 348.861662 
L 49.16758 352.091929 
L 50.48016 345.334337 
L 51.79274 353.770025 
L 53.105321 351.507614 
L 55.730481 347.849058 
L 57.043061 357.098202 
L 58.355641 361.114282 
L 59.668221 349.258206 
L 60.980802 349.454807 
L 62.293382 359.07555 
L 63.605962 358.851908 
L 64.918542 350.637255 
L 66.231122 351.947255 
L 67.543702 355.708964 
L 68.856283 351.329723 
L 70.168863 350.745379 
L 71.481443 344.391409 
L 72.794023 352.343831 
L 74.106603 348.465758 
L 75.419183 354.636223 
L 76.731764 357.818278 
L 78.044344 354.547188 
L 79.356924 348.872354 
L 80.669504 351.183026 
L 81.982084 347.937628 
L 83.294664 347.71451 
L 84.607244 350.954933 
L 85.919825 348.009272 
L 87.232405 349.263385 
L 88.544985 345.373445 
L 89.857565 350.880619 
L 91.170145 345.036208 
L 92.482725 351.307853 
L 93.795306 351.628603 
L 95.107886 348.907934 
L 96.420466 351.47937 
L 97.733046 351.225534 
L 99.045626 350.731429 
L 100.358206 351.502484 
L 101.670787 352.035814 
L 102.983367 354.116237 
L 104.295947 346.596774 
L 105.608527 345.886429 
L 106.921107 351.543044 
L 108.233687 349.7274 
L 109.546268 346.747367 
L 110.858848 346.346602 
L 112.171428 345.494991 
L 113.484008 339.318459 
L 114.796588 339.581178 
L 116.109168 346.211296 
L 117.421748 339.681162 
L 118.734329 342.590443 
L 120.046909 339.752173 
L 121.359489 336.510816 
L 122.672069 338.868169 
L 123.984649 336.925295 
L 125.297229 333.969784 
L 126.60981 333.792403 
L 127.92239 332.676454 
L 129.23497 335.377805 
L 130.54755 322.84062 
L 131.86013 323.148075 
L 133.17271 323.082542 
L 134.485291 320.613126 
L 135.797871 317.464203 
L 137.110451 316.682391 
L 138.423031 313.582543 
L 139.735611 316.749231 
L 141.048191 314.798821 
L 142.360772 304.972411 
L 143.673352 304.908096 
L 144.985932 313.935199 
L 146.298512 296.364522 
L 147.611092 301.252833 
L 148.923672 296.266619 
L 150.236253 300.209047 
L 151.548833 293.248281 
L 152.861413 282.411516 
L 154.173993 285.575636 
L 155.486573 282.116582 
L 156.799153 282.016027 
L 158.111733 286.078522 
L 159.424314 270.422289 
L 160.736894 279.808646 
L 162.049474 264.902549 
L 163.362054 272.709579 
L 164.674634 267.757142 
L 165.987214 267.962588 
L 167.299795 266.483648 
L 168.612375 267.313138 
L 169.924955 258.416799 
L 172.550115 266.376636 
L 173.862695 260.146603 
L 175.175276 259.496419 
L 176.487856 261.513678 
L 177.800436 257.68382 
L 180.425596 264.877217 
L 181.738176 267.674896 
L 183.050757 251.842063 
L 184.363337 262.93067 
L 185.675917 256.167096 
L 186.988497 264.360275 
L 188.301077 266.270959 
L 189.613657 267.704266 
L 190.926237 266.095612 
L 192.238818 267.97529 
L 193.551398 263.422135 
L 194.863978 272.489145 
L 197.489138 272.662655 
L 198.801718 275.563456 
L 200.114299 277.718031 
L 201.426879 281.335961 
L 202.739459 285.422769 
L 204.052039 287.168726 
L 205.364619 286.639667 
L 206.677199 297.244636 
L 207.98978 298.067346 
L 209.30236 304.805768 
L 210.61494 300.926188 
L 211.92752 308.437697 
L 213.2401 307.177116 
L 214.55268 312.516936 
L 215.865261 309.371051 
L 217.177841 315.058872 
L 218.490421 311.699396 
L 219.803001 322.271174 
L 221.115581 323.853074 
L 222.428161 315.763348 
L 223.740741 323.446611 
L 225.053322 323.069392 
L 226.365902 327.908969 
L 228.991062 328.426224 
L 230.303642 339.08942 
L 231.616222 337.372332 
L 232.928803 332.50871 
L 234.241383 345.776042 
L 235.553963 337.947652 
L 236.866543 337.757759 
L 238.179123 334.509461 
L 239.491703 341.25663 
L 240.804284 344.913152 
L 242.116864 333.571459 
L 244.742024 348.56382 
L 246.054604 344.405402 
L 247.367184 347.928855 
L 248.679765 348.119044 
L 249.992345 349.327735 
L 251.304925 347.930564 
L 252.617505 349.977704 
L 253.930085 347.571234 
L 255.242665 349.767349 
L 256.555245 348.86345 
L 257.867826 350.903671 
L 260.492986 353.64613 
L 261.805566 347.506689 
L 263.118146 346.222071 
L 264.430726 352.786289 
L 265.743307 347.690659 
L 267.055887 359.105159 
L 268.368467 345.735054 
L 269.681047 349.666504 
L 270.993627 357.161401 
L 272.306207 348.980745 
L 273.618788 349.525336 
L 274.931368 358.603515 
L 276.243948 347.89707 
L 277.556528 351.642919 
L 278.869108 353.600104 
L 280.181688 350.39655 
L 281.494269 348.911365 
L 282.806849 348.766226 
L 284.119429 354.48465 
L 285.432009 350.068798 
L 286.744589 350.249086 
L 288.057169 354.202973 
L 289.369749 353.075327 
L 290.68233 353.919077 
L 291.99491 350.948811 
L 293.30749 349.139467 
L 294.62007 354.235415 
L 295.93265 352.611447 
L 297.24523 357.081285 
L 298.557811 346.45595 
L 299.870391 352.107374 
L 301.182971 348.014172 
L 302.495551 354.914125 
L 303.808131 348.951088 
L 305.120711 349.226594 
L 306.433292 352.610252 
L 307.745872 352.367857 
L 309.058452 343.980284 
L 310.371032 345.807821 
L 311.683612 353.380315 
L 312.996192 346.057759 
L 314.308773 353.597462 
L 315.621353 353.743161 
L 316.933933 352.936733 
L 318.246513 356.407873 
L 319.559093 348.680911 
L 320.871673 348.369334 
L 322.184254 354.743926 
L 323.496834 351.507622 
L 324.809414 349.040833 
L 326.121994 349.427439 
L 327.434574 339.924548 
L 328.747154 351.049813 
L 330.059734 359.474939 
L 331.372315 348.384615 
L 332.684895 353.294958 
L 333.997475 353.812839 
L 335.310055 350.732446 
L 336.622635 350.945115 
L 337.935215 350.933149 
L 339.247796 356.492108 
L 340.560376 355.069846 
L 341.872956 354.680843 
L 343.185536 349.776158 
L 344.498116 352.938474 
L 345.810696 356.862279 
L 347.123277 353.09366 
L 348.435857 348.644647 
L 349.748437 347.841911 
L 351.061017 353.914356 
L 352.373597 347.472667 
L 353.686177 354.011061 
L 354.998758 361.991071 
L 356.311338 356.685625 
L 357.623918 348.754779 
L 358.936498 348.985155 
L 360.249078 356.12546 
L 361.561658 353.828783 
L 362.874238 355.221828 
L 364.186819 345.794 
L 365.499399 344.321574 
L 366.811979 353.079605 
L 368.124559 349.777706 
L 369.437139 352.865299 
L 370.749719 348.652864 
L 372.0623 350.019225 
L 373.37488 354.168546 
L 374.68746 347.915612 
L 376.00004 347.68393 
L 377.31262 356.470409 
L 378.6252 347.536644 
L 379.937781 346.226731 
L 381.250361 353.375621 
L 382.562941 347.446269 
L 383.875521 351.151143 
L 385.188101 350.697681 
L 386.500681 351.697619 
L 387.813262 355.70257 
L 389.125842 355.160359 
L 390.438422 344.383869 
L 391.751002 352.046582 
L 393.063582 351.446252 
L 395.688742 356.330871 
L 397.001323 346.904276 
L 398.313903 357.260962 
L 399.626483 353.134832 
L 400.939063 345.098798 
L 402.251643 350.539109 
L 403.564223 349.130513 
L 404.876804 353.103529 
L 406.189384 348.808603 
L 407.501964 346.661533 
L 408.814544 351.923066 
L 410.127124 351.954108 
L 411.439704 347.320639 
L 412.752285 351.344673 
L 414.064865 352.944191 
L 416.690025 354.812533 
L 418.002605 345.779132 
L 419.315185 342.788616 
L 420.627766 342.259478 
L 421.940346 346.071479 
L 423.252926 341.373392 
L 424.565506 343.67705 
L 425.878086 346.311161 
L 427.190666 345.77471 
L 428.503246 345.082633 
L 429.815827 351.717368 
L 431.128407 334.40942 
L 432.440987 339.450126 
L 433.753567 337.506931 
L 435.066147 331.98621 
L 436.378727 337.718027 
L 437.691308 333.37 
L 439.003888 333.647111 
L 441.629048 340.264743 
L 442.941628 330.226901 
L 444.254208 328.863957 
L 445.566789 332.344493 
L 446.879369 328.531739 
L 448.191949 322.713683 
L 449.504529 321.599345 
L 450.817109 316.179725 
L 452.129689 316.838273 
L 453.44227 319.398687 
L 454.75485 322.603568 
L 456.06743 310.921234 
L 457.38001 314.237624 
L 458.69259 311.689509 
L 460.00517 305.845492 
L 461.317751 307.279985 
L 462.630331 301.482271 
L 463.942911 304.131854 
L 465.255491 297.160797 
L 467.880651 302.137832 
L 469.193231 297.051142 
L 470.505812 283.091615 
L 471.818392 286.873801 
L 473.130972 291.214722 
L 474.443552 290.79764 
L 475.756132 276.197835 
L 477.068712 280.542624 
L 478.381293 280.389354 
L 479.693873 277.909018 
L 481.006453 271.894896 
L 482.319033 278.400503 
L 484.944193 260.428273 
L 486.256774 270.349309 
L 487.569354 263.127549 
L 488.881934 261.026235 
L 490.194514 256.295782 
L 491.507094 259.812633 
L 492.819674 257.429817 
L 494.132255 254.122844 
L 495.444835 254.968058 
L 496.757415 247.531805 
L 498.069995 254.182603 
L 499.382575 250.775954 
L 500.695155 250.791586 
L 502.007735 254.203935 
L 503.320316 253.407756 
L 504.632896 251.721797 
L 505.945476 251.740782 
L 507.258056 245.024451 
L 508.570636 257.14756 
L 509.883216 254.148988 
L 511.195797 247.547737 
L 512.508377 247.673967 
L 513.820957 258.579706 
L 515.133537 249.318479 
L 516.446117 254.049472 
L 517.758697 255.036392 
L 519.071278 251.838109 
L 520.383858 262.646903 
L 521.696438 258.689572 
L 523.009018 260.884133 
L 524.321598 261.161973 
L 525.634178 264.491244 
L 528.259339 269.336502 
L 529.571919 273.591785 
L 530.884499 274.783954 
L 532.197079 280.955029 
L 533.509659 273.425872 
L 534.822239 276.290103 
L 536.13482 279.621971 
L 537.4474 279.747111 
L 540.07256 289.980411 
L 541.38514 285.291241 
L 542.69772 292.071414 
L 544.010301 296.790694 
L 545.322881 290.381275 
L 546.635461 298.190218 
L 547.948041 300.492792 
L 549.260621 302.545941 
L 550.573201 305.734242 
L 551.885782 309.578298 
L 553.198362 306.25552 
L 554.510942 305.524812 
L 557.136102 319.914161 
L 558.448682 315.881819 
L 559.761263 321.912458 
L 561.073843 316.011701 
L 562.386423 318.306041 
L 563.699003 321.854178 
L 565.011583 324.790038 
L 566.324163 329.792442 
L 567.636743 329.092196 
L 570.261904 324.327656 
L 571.574484 330.91489 
L 572.887064 334.555042 
L 574.199644 336.721785 
L 575.512224 347.883569 
L 576.824805 338.831645 
L 578.137385 339.870335 
L 579.449965 338.943251 
L 580.762545 334.885072 
L 582.075125 343.297845 
L 583.387705 337.401718 
L 584.700286 342.465656 
L 586.012866 345.351382 
L 587.325446 343.278311 
L 588.638026 342.286082 
L 589.950606 343.47309 
L 591.263186 350.58931 
L 592.575767 351.220083 
L 593.888347 343.533667 
L 595.200927 342.032399 
L 596.513507 353.547647 
L 597.826087 341.952363 
L 599.138667 348.950251 
L 600.451247 349.862904 
L 601.763828 347.518123 
L 603.076408 344.770578 
L 604.388988 343.357526 
L 605.701568 348.227906 
L 607.014148 350.194651 
L 608.326728 346.020986 
L 610.951889 355.928805 
L 612.264469 357.246434 
L 613.577049 350.351414 
L 614.889629 350.347077 
L 616.202209 352.302837 
L 617.51479 350.059763 
L 618.82737 345.687086 
L 620.13995 348.626975 
L 621.45253 358.915194 
L 622.76511 353.062804 
L 624.07769 350.884183 
L 625.390271 347.148175 
L 626.702851 354.735255 
L 628.015431 353.64229 
L 629.328011 345.52563 
L 630.640591 352.134245 
L 631.953171 351.329051 
L 633.265752 349.31037 
L 634.578332 357.823601 
L 635.890912 362.770068 
L 637.203492 352.687721 
L 638.516072 349.777365 
L 641.141232 356.840349 
L 642.453813 357.588121 
L 643.766393 351.733286 
L 645.078973 353.335053 
L 646.391553 353.923946 
L 647.704133 348.218315 
L 649.016713 351.001165 
L 650.329294 349.471431 
L 651.641874 344.872105 
L 652.954454 355.980579 
L 654.267034 346.73889 
L 655.579614 350.3283 
L 656.892194 351.92447 
L 658.204775 351.762719 
L 659.517355 348.410869 
L 660.829935 350.33886 
L 662.142515 338.188661 
L 663.455095 353.525891 
L 664.767675 349.714534 
L 666.080256 353.237702 
L 667.392836 356.080457 
L 668.705416 345.780235 
L 670.017996 349.611519 
L 671.330576 354.928448 
L 672.643156 349.435621 
L 673.955736 354.117463 
L 675.268317 347.576382 
L 676.580897 355.51903 
L 677.893477 349.287903 
L 679.206057 351.890682 
L 680.518637 356.189718 
L 681.831217 352.843012 
L 683.143798 355.573759 
L 684.456378 348.205621 
L 685.768958 357.593585 
L 687.081538 352.072225 
L 688.394118 355.105898 
L 689.706698 350.284406 
L 691.019279 357.580653 
L 692.331859 344.627332 
L 693.644439 350.66713 
L 694.957019 349.406493 
L 696.269599 348.652283 
L 697.582179 356.678372 
L 698.89476 349.750509 
L 700.20734 356.112444 
L 701.51992 349.516868 
L 702.8325 348.829726 
L 702.8325 348.829726 
" clip-path="url(#pfd0946160a)" style="fill: none; stroke: #2980b9; stroke-width: 2; stroke-linecap: square"/>
   </g>
   <g id="patch_4">
    <path d="M 47.855 390.04 
L 47.855 221.18 
" style="fill: none; stroke: #000000; stroke-width: 0.8; stroke-linejoin: miter; stroke-linecap: square"/>
   </g>
   <g id="patch_5">
    <path d="M 47.855 390.04 
L 702.8325 390.04 
" style="fill: none; stroke: #000000; stroke-width: 0.8; stroke-linejoin: miter; stroke-linecap: square"/>
   </g>
   <g id="patch_6">
    <path d="M 240.388629 246.462918 
Q 210.598 252.8019 181.900922 258.90819 
" style="fill: none; stroke: #000000; stroke-linecap: round"/>
    <path d="M 186.229581 260.031895 
L 181.900922 258.90819 
L 185.397081 256.119486 
" style="fill: none; stroke: #000000; stroke-linecap: round"/>
   </g>
   <g id="text_16">
    <!-- Functional Peak -->
    <g transform="translate(244.34825 233.008551) scale(0.1 -0.1)">
     <defs>
      <path id="DejaVuSans-46" d="M 628 4666 
L 3309 4666 
L 3309 4134 
L 1259 4134 
L 1259 2759 
L 3109 2759 
L 3109 2228 
L 1259 2228 
L 1259 0 
L 628 0 
L 628 4666 
z
" transform="scale(0.015625)"/>
      <path id="DejaVuSans-6b" d="M 581 4863 
L 1159 4863 
L 1159 1991 
L 2875 3500 
L 3609 3500 
L 1753 1863 
L 3688 0 
L 2938 0 
L 1159 1709 
L 1159 0 
L 581 0 
L 581 4863 
z
" transform="scale(0.015625)"/>
     </defs>
     <use xlink:href="#DejaVuSans-46"/>
     <use xlink:href="#DejaVuSans-75" transform="translate(52.019531 0)"/>
     <use xlink:href="#DejaVuSans-6e" transform="translate(115.398438 0)"/>
     <use xlink:href="#DejaVuSans-63" transform="translate(178.777344 0)"/>
     <use xlink:href="#DejaVuSans-74" transform="translate(233.757812 0)"/>
     <use xlink:href="#DejaVuSans-69" transform="translate(272.966797 0)"/>
     <use xlink:href="#DejaVuSans-6f" transform="translate(300.75 0)"/>
     <use xlink:href="#DejaVuSans-6e" transform="translate(361.931641 0)"/>
     <use xlink:href="#DejaVuSans-61" transform="translate(425.310547 0)"/>
     <use xlink:href="#DejaVuSans-6c" transform="translate(486.589844 0)"/>
     <use xlink:href="#DejaVuSans-20" transform="translate(514.373047 0)"/>
     <use xlink:href="#DejaVuSans-50" transform="translate(546.160156 0)"/>
     <use xlink:href="#DejaVuSans-65" transform="translate(602.837891 0)"/>
     <use xlink:href="#DejaVuSans-61" transform="translate(664.361328 0)"/>
     <use xlink:href="#DejaVuSans-6b" transform="translate(725.640625 0)"/>
    </g>
    <!-- (High Information) -->
    <g transform="translate(244.34825 244.206364) scale(0.1 -0.1)">
     <defs>
      <path id="DejaVuSans-48" d="M 628 4666 
L 1259 4666 
L 1259 2753 
L 3553 2753 
L 3553 4666 
L 4184 4666 
L 4184 0 
L 3553 0 
L 3553 2222 
L 1259 2222 
L 1259 0 
L 628 0 
L 628 4666 
z
" transform="scale(0.015625)"/>
      <path id="DejaVuSans-67" d="M 2906 1791 
Q 2906 2416 2648 2759 
Q 2391 3103 1925 3103 
Q 1463 3103 1205 2759 
Q 947 2416 947 1791 
Q 947 1169 1205 825 
Q 1463 481 1925 481 
Q 2391 481 2648 825 
Q 2906 1169 2906 1791 
z
M 3481 434 
Q 3481 -459 3084 -895 
Q 2688 -1331 1869 -1331 
Q 1566 -1331 1297 -1286 
Q 1028 -1241 775 -1147 
L 775 -588 
Q 1028 -725 1275 -790 
Q 1522 -856 1778 -856 
Q 2344 -856 2625 -561 
Q 2906 -266 2906 331 
L 2906 616 
Q 2728 306 2450 153 
Q 2172 0 1784 0 
Q 1141 0 747 490 
Q 353 981 353 1791 
Q 353 2603 747 3093 
Q 1141 3584 1784 3584 
Q 2172 3584 2450 3431 
Q 2728 3278 2906 2969 
L 2906 3500 
L 3481 3500 
L 3481 434 
z
" transform="scale(0.015625)"/>
      <path id="DejaVuSans-68" d="M 3513 2113 
L 3513 0 
L 2938 0 
L 2938 2094 
Q 2938 2591 2744 2837 
Q 2550 3084 2163 3084 
Q 1697 3084 1428 2787 
Q 1159 2491 1159 1978 
L 1159 0 
L 581 0 
L 581 4863 
L 1159 4863 
L 1159 2956 
Q 1366 3272 1645 3428 
Q 1925 3584 2291 3584 
Q 2894 3584 3203 3211 
Q 3513 2838 3513 2113 
z
" transform="scale(0.015625)"/>
     </defs>
     <use xlink:href="#DejaVuSans-28"/>
     <use xlink:href="#DejaVuSans-48" transform="translate(39.013672 0)"/>
     <use xlink:href="#DejaVuSans-69" transform="translate(114.208984 0)"/>
     <use xlink:href="#DejaVuSans-67" transform="translate(141.992188 0)"/>
     <use xlink:href="#DejaVuSans-68" transform="translate(205.46875 0)"/>
     <use xlink:href="#DejaVuSans-20" transform="translate(268.847656 0)"/>
     <use xlink:href="#DejaVuSans-49" transform="translate(300.634766 0)"/>
     <use xlink:href="#DejaVuSans-6e" transform="translate(330.126953 0)"/>
     <use xlink:href="#DejaVuSans-66" transform="translate(393.505859 0)"/>
     <use xlink:href="#DejaVuSans-6f" transform="translate(428.710938 0)"/>
     <use xlink:href="#DejaVuSans-72" transform="translate(489.892578 0)"/>
     <use xlink:href="#DejaVuSans-6d" transform="translate(529.255859 0)"/>
     <use xlink:href="#DejaVuSans-61" transform="translate(626.667969 0)"/>
     <use xlink:href="#DejaVuSans-74" transform="translate(687.947266 0)"/>
     <use xlink:href="#DejaVuSans-69" transform="translate(727.15625 0)"/>
     <use xlink:href="#DejaVuSans-6f" transform="translate(754.939453 0)"/>
     <use xlink:href="#DejaVuSans-6e" transform="translate(816.121094 0)"/>
     <use xlink:href="#DejaVuSans-29" transform="translate(879.5 0)"/>
    </g>
   </g>
   <g id="patch_7">
    <path d="M 373.853274 356.288455 
Q 355.911468 361.378072 339.045256 366.162571 
" style="fill: none; stroke: #000000; stroke-linecap: round"/>
    <path d="M 343.43923 366.995031 
L 339.045256 366.162571 
L 342.347608 363.146867 
" style="fill: none; stroke: #000000; stroke-linecap: round"/>
   </g>
   <g id="text_17">
    <!-- Neutral Drift -->
    <g transform="translate(375.34375 340.464915) scale(0.1 -0.1)">
     <defs>
      <path id="DejaVuSans-4e" d="M 628 4666 
L 1478 4666 
L 3547 763 
L 3547 4666 
L 4159 4666 
L 4159 0 
L 3309 0 
L 1241 3903 
L 1241 0 
L 628 0 
L 628 4666 
z
" transform="scale(0.015625)"/>
      <path id="DejaVuSans-44" d="M 1259 4147 
L 1259 519 
L 2022 519 
Q 2988 519 3436 956 
Q 3884 1394 3884 2338 
Q 3884 3275 3436 3711 
Q 2988 4147 2022 4147 
L 1259 4147 
z
M 628 4666 
L 1925 4666 
Q 3281 4666 3915 4102 
Q 4550 3538 4550 2338 
Q 4550 1131 3912 565 
Q 3275 0 1925 0 
L 628 0 
L 628 4666 
z
" transform="scale(0.015625)"/>
     </defs>
     <use xlink:href="#DejaVuSans-4e"/>
     <use xlink:href="#DejaVuSans-65" transform="translate(74.804688 0)"/>
     <use xlink:href="#DejaVuSans-75" transform="translate(136.328125 0)"/>
     <use xlink:href="#DejaVuSans-74" transform="translate(199.707031 0)"/>
     <use xlink:href="#DejaVuSans-72" transform="translate(238.916016 0)"/>
     <use xlink:href="#DejaVuSans-61" transform="translate(280.029297 0)"/>
     <use xlink:href="#DejaVuSans-6c" transform="translate(341.308594 0)"/>
     <use xlink:href="#DejaVuSans-20" transform="translate(369.091797 0)"/>
     <use xlink:href="#DejaVuSans-44" transform="translate(400.878906 0)"/>
     <use xlink:href="#DejaVuSans-72" transform="translate(477.880859 0)"/>
     <use xlink:href="#DejaVuSans-69" transform="translate(518.994141 0)"/>
     <use xlink:href="#DejaVuSans-66" transform="translate(546.777344 0)"/>
     <use xlink:href="#DejaVuSans-74" transform="translate(580.232422 0)"/>
    </g>
    <!-- (Low Information) -->
    <g transform="translate(375.34375 351.662727) scale(0.1 -0.1)">
     <defs>
      <path id="DejaVuSans-4c" d="M 628 4666 
L 1259 4666 
L 1259 531 
L 3531 531 
L 3531 0 
L 628 0 
L 628 4666 
z
" transform="scale(0.015625)"/>
      <path id="DejaVuSans-77" d="M 269 3500 
L 844 3500 
L 1563 769 
L 2278 3500 
L 2956 3500 
L 3675 769 
L 4391 3500 
L 4966 3500 
L 4050 0 
L 3372 0 
L 2619 2869 
L 1863 0 
L 1184 0 
L 269 3500 
z
" transform="scale(0.015625)"/>
     </defs>
     <use xlink:href="#DejaVuSans-28"/>
     <use xlink:href="#DejaVuSans-4c" transform="translate(39.013672 0)"/>
     <use xlink:href="#DejaVuSans-6f" transform="translate(92.976562 0)"/>
     <use xlink:href="#DejaVuSans-77" transform="translate(154.158203 0)"/>
     <use xlink:href="#DejaVuSans-20" transform="translate(235.945312 0)"/>
     <use xlink:href="#DejaVuSans-49" transform="translate(267.732422 0)"/>
     <use xlink:href="#DejaVuSans-6e" transform="translate(297.224609 0)"/>
     <use xlink:href="#DejaVuSans-66" transform="translate(360.603516 0)"/>
     <use xlink:href="#DejaVuSans-6f" transform="translate(395.808594 0)"/>
     <use xlink:href="#DejaVuSans-72" transform="translate(456.990234 0)"/>
     <use xlink:href="#DejaVuSans-6d" transform="translate(496.353516 0)"/>
     <use xlink:href="#DejaVuSans-61" transform="translate(593.765625 0)"/>
     <use xlink:href="#DejaVuSans-74" transform="translate(655.044922 0)"/>
     <use xlink:href="#DejaVuSans-69" transform="translate(694.253906 0)"/>
     <use xlink:href="#DejaVuSans-6f" transform="translate(722.037109 0)"/>
     <use xlink:href="#DejaVuSans-6e" transform="translate(783.21875 0)"/>
     <use xlink:href="#DejaVuSans-29" transform="translate(846.597656 0)"/>
    </g>
   </g>
   <g id="text_18">
    <!-- The Informational View: DNA as a Signal Density Landscape -->
    <g transform="translate(172.6 215.18) scale(0.12 -0.12)">
     <defs>
      <path id="DejaVuSans-Bold-66" d="M 2841 4863 
L 2841 4128 
L 2222 4128 
Q 1984 4128 1890 4042 
Q 1797 3956 1797 3744 
L 1797 3500 
L 2753 3500 
L 2753 2700 
L 1797 2700 
L 1797 0 
L 678 0 
L 678 2700 
L 122 2700 
L 122 3500 
L 678 3500 
L 678 3744 
Q 678 4316 997 4589 
Q 1316 4863 1984 4863 
L 2841 4863 
z
" transform="scale(0.015625)"/>
      <path id="DejaVuSans-Bold-6f" d="M 2203 2784 
Q 1831 2784 1636 2517 
Q 1441 2250 1441 1747 
Q 1441 1244 1636 976 
Q 1831 709 2203 709 
Q 2569 709 2762 976 
Q 2956 1244 2956 1747 
Q 2956 2250 2762 2517 
Q 2569 2784 2203 2784 
z
M 2203 3584 
Q 3106 3584 3614 3096 
Q 4122 2609 4122 1747 
Q 4122 884 3614 396 
Q 3106 -91 2203 -91 
Q 1297 -91 786 396 
Q 275 884 275 1747 
Q 275 2609 786 3096 
Q 1297 3584 2203 3584 
z
" transform="scale(0.015625)"/>
      <path id="DejaVuSans-Bold-6d" d="M 3781 2919 
Q 3994 3244 4286 3414 
Q 4578 3584 4928 3584 
Q 5531 3584 5847 3212 
Q 6163 2841 6163 2131 
L 6163 0 
L 5038 0 
L 5038 1825 
Q 5041 1866 5042 1909 
Q 5044 1953 5044 2034 
Q 5044 2406 4934 2573 
Q 4825 2741 4581 2741 
Q 4263 2741 4089 2478 
Q 3916 2216 3909 1719 
L 3909 0 
L 2784 0 
L 2784 1825 
Q 2784 2406 2684 2573 
Q 2584 2741 2328 2741 
Q 2006 2741 1831 2477 
Q 1656 2213 1656 1722 
L 1656 0 
L 531 0 
L 531 3500 
L 1656 3500 
L 1656 2988 
Q 1863 3284 2130 3434 
Q 2397 3584 2719 3584 
Q 3081 3584 3359 3409 
Q 3638 3234 3781 2919 
z
" transform="scale(0.015625)"/>
      <path id="DejaVuSans-Bold-79" d="M 78 3500 
L 1197 3500 
L 2138 1125 
L 2938 3500 
L 4056 3500 
L 2584 -331 
Q 2363 -916 2067 -1148 
Q 1772 -1381 1288 -1381 
L 641 -1381 
L 641 -647 
L 991 -647 
Q 1275 -647 1404 -556 
Q 1534 -466 1606 -231 
L 1638 -134 
L 78 3500 
z
" transform="scale(0.015625)"/>
      <path id="DejaVuSans-Bold-4c" d="M 588 4666 
L 1791 4666 
L 1791 909 
L 3903 909 
L 3903 0 
L 588 0 
L 588 4666 
z
" transform="scale(0.015625)"/>
      <path id="DejaVuSans-Bold-70" d="M 1656 506 
L 1656 -1331 
L 538 -1331 
L 538 3500 
L 1656 3500 
L 1656 2988 
Q 1888 3294 2169 3439 
Q 2450 3584 2816 3584 
Q 3463 3584 3878 3070 
Q 4294 2556 4294 1747 
Q 4294 938 3878 423 
Q 3463 -91 2816 -91 
Q 2450 -91 2169 54 
Q 1888 200 1656 506 
z
M 2400 2772 
Q 2041 2772 1848 2508 
Q 1656 2244 1656 1747 
Q 1656 1250 1848 986 
Q 2041 722 2400 722 
Q 2759 722 2948 984 
Q 3138 1247 3138 1747 
Q 3138 2247 2948 2509 
Q 2759 2772 2400 2772 
z
" transform="scale(0.015625)"/>
     </defs>
     <use xlink:href="#DejaVuSans-Bold-54"/>
     <use xlink:href="#DejaVuSans-Bold-68" transform="translate(68.212891 0)"/>
     <use xlink:href="#DejaVuSans-Bold-65" transform="translate(139.404297 0)"/>
     <use xlink:href="#DejaVuSans-Bold-20" transform="translate(207.226562 0)"/>
     <use xlink:href="#DejaVuSans-Bold-49" transform="translate(242.041016 0)"/>
     <use xlink:href="#DejaVuSans-Bold-6e" transform="translate(279.248047 0)"/>
     <use xlink:href="#DejaVuSans-Bold-66" transform="translate(350.439453 0)"/>
     <use xlink:href="#DejaVuSans-Bold-6f" transform="translate(393.945312 0)"/>
     <use xlink:href="#DejaVuSans-Bold-72" transform="translate(462.646484 0)"/>
     <use xlink:href="#DejaVuSans-Bold-6d" transform="translate(511.962891 0)"/>
     <use xlink:href="#DejaVuSans-Bold-61" transform="translate(616.162109 0)"/>
     <use xlink:href="#DejaVuSans-Bold-74" transform="translate(683.642578 0)"/>
     <use xlink:href="#DejaVuSans-Bold-69" transform="translate(731.445312 0)"/>
     <use xlink:href="#DejaVuSans-Bold-6f" transform="translate(765.722656 0)"/>
     <use xlink:href="#DejaVuSans-Bold-6e" transform="translate(834.423828 0)"/>
     <use xlink:href="#DejaVuSans-Bold-61" transform="translate(905.615234 0)"/>
     <use xlink:href="#DejaVuSans-Bold-6c" transform="translate(973.095703 0)"/>
     <use xlink:href="#DejaVuSans-Bold-20" transform="translate(1007.373047 0)"/>
     <use xlink:href="#DejaVuSans-Bold-56" transform="translate(1042.1875 0)"/>
     <use xlink:href="#DejaVuSans-Bold-69" transform="translate(1117.830078 0)"/>
     <use xlink:href="#DejaVuSans-Bold-65" transform="translate(1152.107422 0)"/>
     <use xlink:href="#DejaVuSans-Bold-77" transform="translate(1219.929688 0)"/>
     <use xlink:href="#DejaVuSans-Bold-3a" transform="translate(1312.3125 0)"/>
     <use xlink:href="#DejaVuSans-Bold-20" transform="translate(1352.302734 0)"/>
     <use xlink:href="#DejaVuSans-Bold-44" transform="translate(1387.117188 0)"/>
     <use xlink:href="#DejaVuSans-Bold-4e" transform="translate(1470.125 0)"/>
     <use xlink:href="#DejaVuSans-Bold-41" transform="translate(1553.816406 0)"/>
     <use xlink:href="#DejaVuSans-Bold-20" transform="translate(1631.208984 0)"/>
     <use xlink:href="#DejaVuSans-Bold-61" transform="translate(1666.023438 0)"/>
     <use xlink:href="#DejaVuSans-Bold-73" transform="translate(1733.503906 0)"/>
     <use xlink:href="#DejaVuSans-Bold-20" transform="translate(1793.025391 0)"/>
     <use xlink:href="#DejaVuSans-Bold-61" transform="translate(1827.839844 0)"/>
     <use xlink:href="#DejaVuSans-Bold-20" transform="translate(1895.320312 0)"/>
     <use xlink:href="#DejaVuSans-Bold-53" transform="translate(1930.134766 0)"/>
     <use xlink:href="#DejaVuSans-Bold-69" transform="translate(2002.15625 0)"/>
     <use xlink:href="#DejaVuSans-Bold-67" transform="translate(2036.433594 0)"/>
     <use xlink:href="#DejaVuSans-Bold-6e" transform="translate(2108.015625 0)"/>
     <use xlink:href="#DejaVuSans-Bold-61" transform="translate(2179.207031 0)"/>
     <use xlink:href="#DejaVuSans-Bold-6c" transform="translate(2246.6875 0)"/>
     <use xlink:href="#DejaVuSans-Bold-20" transform="translate(2280.964844 0)"/>
     <use xlink:href="#DejaVuSans-Bold-44" transform="translate(2315.779297 0)"/>
     <use xlink:href="#DejaVuSans-Bold-65" transform="translate(2398.787109 0)"/>
     <use xlink:href="#DejaVuSans-Bold-6e" transform="translate(2466.609375 0)"/>
     <use xlink:href="#DejaVuSans-Bold-73" transform="translate(2537.800781 0)"/>
     <use xlink:href="#DejaVuSans-Bold-69" transform="translate(2597.322266 0)"/>
     <use xlink:href="#DejaVuSans-Bold-74" transform="translate(2631.599609 0)"/>
     <use xlink:href="#DejaVuSans-Bold-79" transform="translate(2679.402344 0)"/>
     <use xlink:href="#DejaVuSans-Bold-20" transform="translate(2744.587891 0)"/>
     <use xlink:href="#DejaVuSans-Bold-4c" transform="translate(2779.402344 0)"/>
     <use xlink:href="#DejaVuSans-Bold-61" transform="translate(2843.123047 0)"/>
     <use xlink:href="#DejaVuSans-Bold-6e" transform="translate(2910.603516 0)"/>
     <use xlink:href="#DejaVuSans-Bold-64" transform="translate(2981.794922 0)"/>
     <use xlink:href="#DejaVuSans-Bold-73" transform="translate(3053.376953 0)"/>
     <use xlink:href="#DejaVuSans-Bold-63" transform="translate(3112.898438 0)"/>
     <use xlink:href="#DejaVuSans-Bold-61" transform="translate(3172.175781 0)"/>
     <use xlink:href="#DejaVuSans-Bold-70" transform="translate(3239.65625 0)"/>
     <use xlink:href="#DejaVuSans-Bold-65" transform="translate(3311.238281 0)"/>
    </g>
   </g>
  </g>
 </g>
 <defs>
  <clipPath id="p077ea7d297">
   <rect x="47.855" y="26.16" width="654.9775" height="168.86"/>
  </clipPath>
  <clipPath id="pfd0946160a">
   <rect x="47.855" y="221.18" width="654.9775" height="168.86"/>
  </clipPath>
 </defs>
</svg>
