<?xml version="1.0" encoding="utf-8" standalone="no"?>
<!DOCTYPE svg PUBLIC "-//W3C//DTD SVG 1.1//EN"
  "http://www.w3.org/Graphics/SVG/1.1/DTD/svg11.dtd">
<svg xmlns:xlink="http://www.w3.org/1999/xlink" width="720pt" height="432pt" viewBox="0 0 720 432" xmlns="http://www.w3.org/2000/svg" version="1.1">
 <metadata>
  <rdf:RDF xmlns:dc="http://purl.org/dc/elements/1.1/" xmlns:cc="http://creativecommons.org/ns#" xmlns:rdf="http://www.w3.org/1999/02/22-rdf-syntax-ns#">
   <cc:Work>
    <dc:type rdf:resource="http://purl.org/dc/dcmitype/StillImage"/>
    <dc:date>2026-01-10T00:45:35.600893</dc:date>
    <dc:format>image/svg+xml</dc:format>
    <dc:creator>
     <cc:Agent>
      <dc:title>Matplotlib v3.10.8, https://matplotlib.org/</dc:title>
     </cc:Agent>
    </dc:creator>
   </cc:Work>
  </rdf:RDF>
 </metadata>
 <defs>
  <style type="text/css">*{stroke-linejoin: round; stroke-linecap: butt}</style>
 </defs>
 <g id="figure_1">
  <g id="patch_1">
   <path d="M 0 432 
L 720 432 
L 720 0 
L 0 0 
z
" style="fill: #ffffff"/>
  </g>
  <g id="axes_1">
   <g id="text_1">
    <!-- A T G C G T A C G T A G C T A G -->
    <g transform="translate(247.886719 114.11) scale(0.14 -0.14)">
     <defs>
      <path id="DejaVuSansMono-41" d="M 1925 4109 
L 1259 1722 
L 2591 1722 
L 1925 4109 
z
M 1544 4666 
L 2309 4666 
L 3738 0 
L 3084 0 
L 2741 1216 
L 1106 1216 
L 769 0 
L 116 0 
L 1544 4666 
z
" transform="scale(0.015625)"/>
      <path id="DejaVuSansMono-20" transform="scale(0.015625)"/>
      <path id="DejaVuSansMono-54" d="M 147 4666 
L 3706 4666 
L 3706 4134 
L 2247 4134 
L 2247 0 
L 1613 0 
L 1613 4134 
L 147 4134 
L 147 4666 
z
" transform="scale(0.015625)"/>
      <path id="DejaVuSansMono-47" d="M 3450 384 
Q 3197 150 2880 29 
Q 2563 -91 2194 -91 
Q 1306 -91 812 545 
Q 319 1181 319 2328 
Q 319 3472 819 4111 
Q 1319 4750 2209 4750 
Q 2503 4750 2772 4667 
Q 3041 4584 3291 4416 
L 3291 3769 
Q 3038 4009 2772 4123 
Q 2506 4238 2209 4238 
Q 1594 4238 1286 3761 
Q 978 3284 978 2328 
Q 978 1356 1276 889 
Q 1575 422 2194 422 
Q 2403 422 2561 470 
Q 2719 519 2847 622 
L 2847 1875 
L 2169 1875 
L 2169 2394 
L 3450 2394 
L 3450 384 
z
" transform="scale(0.015625)"/>
      <path id="DejaVuSansMono-43" d="M 3353 166 
Q 3113 38 2859 -26 
Q 2606 -91 2322 -91 
Q 1425 -91 929 543 
Q 434 1178 434 2328 
Q 434 3472 932 4111 
Q 1431 4750 2322 4750 
Q 2606 4750 2859 4686 
Q 3113 4622 3353 4494 
L 3353 3847 
Q 3122 4038 2856 4138 
Q 2591 4238 2322 4238 
Q 1706 4238 1400 3763 
Q 1094 3288 1094 2328 
Q 1094 1372 1400 897 
Q 1706 422 2322 422 
Q 2597 422 2861 522 
Q 3125 622 3353 813 
L 3353 166 
z
" transform="scale(0.015625)"/>
     </defs>
     <use xlink:href="#DejaVuSansMono-41"/>
     <use xlink:href="#DejaVuSansMono-20" transform="translate(60.205078 0)"/>
     <use xlink:href="#DejaVuSansMono-54" transform="translate(120.410156 0)"/>
     <use xlink:href="#DejaVuSansMono-20" transform="translate(180.615234 0)"/>
     <use xlink:href="#DejaVuSansMono-47" transform="translate(240.820312 0)"/>
     <use xlink:href="#DejaVuSansMono-20" transform="translate(301.025391 0)"/>
     <use xlink:href="#DejaVuSansMono-43" transform="translate(361.230469 0)"/>
     <use xlink:href="#DejaVuSansMono-20" transform="translate(421.435547 0)"/>
     <use xlink:href="#DejaVuSansMono-47" transform="translate(481.640625 0)"/>
     <use xlink:href="#DejaVuSansMono-20" transform="translate(541.845703 0)"/>
     <use xlink:href="#DejaVuSansMono-54" transform="translate(602.050781 0)"/>
     <use xlink:href="#DejaVuSansMono-20" transform="translate(662.255859 0)"/>
     <use xlink:href="#DejaVuSansMono-41" transform="translate(722.460938 0)"/>
     <use xlink:href="#DejaVuSansMono-20" transform="translate(782.666016 0)"/>
     <use xlink:href="#DejaVuSansMono-43" transform="translate(842.871094 0)"/>
     <use xlink:href="#DejaVuSansMono-20" transform="translate(903.076172 0)"/>
     <use xlink:href="#DejaVuSansMono-47" transform="translate(963.28125 0)"/>
     <use xlink:href="#DejaVuSansMono-20" transform="translate(1023.486328 0)"/>
     <use xlink:href="#DejaVuSansMono-54" transform="translate(1083.691406 0)"/>
     <use xlink:href="#DejaVuSansMono-20" transform="translate(1143.896484 0)"/>
     <use xlink:href="#DejaVuSansMono-41" transform="translate(1204.101562 0)"/>
     <use xlink:href="#DejaVuSansMono-20" transform="translate(1264.306641 0)"/>
     <use xlink:href="#DejaVuSansMono-47" transform="translate(1324.511719 0)"/>
     <use xlink:href="#DejaVuSansMono-20" transform="translate(1384.716797 0)"/>
     <use xlink:href="#DejaVuSansMono-43" transform="translate(1444.921875 0)"/>
     <use xlink:href="#DejaVuSansMono-20" transform="translate(1505.126953 0)"/>
     <use xlink:href="#DejaVuSansMono-54" transform="translate(1565.332031 0)"/>
     <use xlink:href="#DejaVuSansMono-20" transform="translate(1625.537109 0)"/>
     <use xlink:href="#DejaVuSansMono-41" transform="translate(1685.742188 0)"/>
     <use xlink:href="#DejaVuSansMono-20" transform="translate(1745.947266 0)"/>
     <use xlink:href="#DejaVuSansMono-47" transform="translate(1806.152344 0)"/>
    </g>
   </g>
   <g id="text_2">
    <!-- Textual View -->
    <g transform="translate(341.104375 20.16) scale(0.12 -0.12)">
     <defs>
      <path id="DejaVuSans-54" d="M -19 4666 
L 3928 4666 
L 3928 4134 
L 2272 4134 
L 2272 0 
L 1638 0 
L 1638 4134 
L -19 4134 
L -19 4666 
z
" transform="scale(0.015625)"/>
      <path id="DejaVuSans-65" d="M 3597 1894 
L 3597 1613 
L 953 1613 
Q 991 1019 1311 708 
Q 1631 397 2203 397 
Q 2534 397 2845 478 
Q 3156 559 3463 722 
L 3463 178 
Q 3153 47 2828 -22 
Q 2503 -91 2169 -91 
Q 1331 -91 842 396 
Q 353 884 353 1716 
Q 353 2575 817 3079 
Q 1281 3584 2069 3584 
Q 2775 3584 3186 3129 
Q 3597 2675 3597 1894 
z
M 3022 2063 
Q 3016 2534 2758 2815 
Q 2500 3097 2075 3097 
Q 1594 3097 1305 2825 
Q 1016 2553 972 2059 
L 3022 2063 
z
" transform="scale(0.015625)"/>
      <path id="DejaVuSans-78" d="M 3513 3500 
L 2247 1797 
L 3578 0 
L 2900 0 
L 1881 1375 
L 863 0 
L 184 0 
L 1544 1831 
L 300 3500 
L 978 3500 
L 1906 2253 
L 2834 3500 
L 3513 3500 
z
" transform="scale(0.015625)"/>
      <path id="DejaVuSans-74" d="M 1172 4494 
L 1172 3500 
L 2356 3500 
L 2356 3053 
L 1172 3053 
L 1172 1153 
Q 1172 725 1289 603 
Q 1406 481 1766 481 
L 2356 481 
L 2356 0 
L 1766 0 
Q 1100 0 847 248 
Q 594 497 594 1153 
L 594 3053 
L 172 3053 
L 172 3500 
L 594 3500 
L 594 4494 
L 1172 4494 
z
" transform="scale(0.015625)"/>
      <path id="DejaVuSans-75" d="M 544 1381 
L 544 3500 
L 1119 3500 
L 1119 1403 
Q 1119 906 1312 657 
Q 1506 409 1894 409 
Q 2359 409 2629 706 
Q 2900 1003 2900 1516 
L 2900 3500 
L 3475 3500 
L 3475 0 
L 2900 0 
L 2900 538 
Q 2691 219 2414 64 
Q 2138 -91 1772 -91 
Q 1169 -91 856 284 
Q 544 659 544 1381 
z
M 1991 3584 
L 1991 3584 
z
" transform="scale(0.015625)"/>
      <path id="DejaVuSans-61" d="M 2194 1759 
Q 1497 1759 1228 1600 
Q 959 1441 959 1056 
Q 959 750 1161 570 
Q 1363 391 1709 391 
Q 2188 391 2477 730 
Q 2766 1069 2766 1631 
L 2766 1759 
L 2194 1759 
z
M 3341 1997 
L 3341 0 
L 2766 0 
L 2766 531 
Q 2569 213 2275 61 
Q 1981 -91 1556 -91 
Q 1019 -91 701 211 
Q 384 513 384 1019 
Q 384 1609 779 1909 
Q 1175 2209 1959 2209 
L 2766 2209 
L 2766 2266 
Q 2766 2663 2505 2880 
Q 2244 3097 1772 3097 
Q 1472 3097 1187 3025 
Q 903 2953 641 2809 
L 641 3341 
Q 956 3463 1253 3523 
Q 1550 3584 1831 3584 
Q 2591 3584 2966 3190 
Q 3341 2797 3341 1997 
z
" transform="scale(0.015625)"/>
      <path id="DejaVuSans-6c" d="M 603 4863 
L 1178 4863 
L 1178 0 
L 603 0 
L 603 4863 
z
" transform="scale(0.015625)"/>
      <path id="DejaVuSans-20" transform="scale(0.015625)"/>
      <path id="DejaVuSans-56" d="M 1831 0 
L 50 4666 
L 709 4666 
L 2188 738 
L 3669 4666 
L 4325 4666 
L 2547 0 
L 1831 0 
z
" transform="scale(0.015625)"/>
      <path id="DejaVuSans-69" d="M 603 3500 
L 1178 3500 
L 1178 0 
L 603 0 
L 603 3500 
z
M 603 4863 
L 1178 4863 
L 1178 4134 
L 603 4134 
L 603 4863 
z
" transform="scale(0.015625)"/>
      <path id="DejaVuSans-77" d="M 269 3500 
L 844 3500 
L 1563 769 
L 2278 3500 
L 2956 3500 
L 3675 769 
L 4391 3500 
L 4966 3500 
L 4050 0 
L 3372 0 
L 2619 2869 
L 1863 0 
L 1184 0 
L 269 3500 
z
" transform="scale(0.015625)"/>
     </defs>
     <use xlink:href="#DejaVuSans-54"/>
     <use xlink:href="#DejaVuSans-65" transform="translate(44.083984 0)"/>
     <use xlink:href="#DejaVuSans-78" transform="translate(103.857422 0)"/>
     <use xlink:href="#DejaVuSans-74" transform="translate(163.037109 0)"/>
     <use xlink:href="#DejaVuSans-75" transform="translate(202.246094 0)"/>
     <use xlink:href="#DejaVuSans-61" transform="translate(265.625 0)"/>
     <use xlink:href="#DejaVuSans-6c" transform="translate(326.904297 0)"/>
     <use xlink:href="#DejaVuSans-20" transform="translate(354.6875 0)"/>
     <use xlink:href="#DejaVuSans-56" transform="translate(386.474609 0)"/>
     <use xlink:href="#DejaVuSans-69" transform="translate(452.632812 0)"/>
     <use xlink:href="#DejaVuSans-65" transform="translate(480.416016 0)"/>
     <use xlink:href="#DejaVuSans-77" transform="translate(541.939453 0)"/>
    </g>
   </g>
  </g>
  <g id="axes_2">
   <g id="patch_2">
    <path d="M 47.855 404.12 
L 709.2 404.12 
L 709.2 228.22 
L 47.855 228.22 
z
" style="fill: #ffffff"/>
   </g>
   <g id="FillBetweenPolyCollection_1">
    <defs>
     <path id="m7635f7d221" d="M 77.916136 -35.875455 
L 77.916136 -76.670486 
L 79.120992 -77.425015 
L 80.325847 -81.586132 
L 81.530702 -79.10315 
L 82.735557 -80.904571 
L 83.940412 -80.576118 
L 85.145267 -78.399236 
L 86.350123 -77.933962 
L 87.554978 -79.256228 
L 88.759833 -82.348205 
L 89.964688 -80.558632 
L 91.169543 -77.203391 
L 92.374398 -77.261153 
L 93.579254 -80.647543 
L 94.784109 -77.992372 
L 95.988964 -79.816701 
L 97.193819 -78.95711 
L 98.398674 -80.816505 
L 99.603529 -78.682873 
L 100.808384 -78.026412 
L 102.01324 -80.698453 
L 103.218095 -78.901608 
L 104.42295 -79.607388 
L 105.627805 -78.370796 
L 106.83266 -77.076776 
L 108.037515 -81.980006 
L 109.242371 -80.569695 
L 110.447226 -80.344548 
L 111.652081 -82.433191 
L 112.856936 -77.827458 
L 114.061791 -83.351747 
L 115.266646 -79.489921 
L 116.471502 -82.612529 
L 117.676357 -81.69224 
L 118.881212 -75.82202 
L 120.086067 -81.225156 
L 121.290922 -79.095917 
L 122.495777 -84.060596 
L 123.700633 -83.804554 
L 124.905488 -82.379136 
L 126.110343 -82.061785 
L 127.315198 -83.955615 
L 128.520053 -83.272348 
L 129.724908 -84.2471 
L 130.929764 -85.030735 
L 132.134619 -86.652899 
L 133.339474 -84.025133 
L 134.544329 -83.052181 
L 135.749184 -85.291612 
L 136.954039 -88.719264 
L 138.158895 -92.827251 
L 139.36375 -87.904289 
L 140.568605 -92.078856 
L 141.77346 -86.201264 
L 142.978315 -93.017312 
L 144.18317 -93.378703 
L 145.388026 -94.268215 
L 146.592881 -93.88207 
L 147.797736 -97.01355 
L 149.002591 -102.505882 
L 150.207446 -101.660842 
L 151.412301 -103.874422 
L 152.617157 -104.065073 
L 153.822012 -107.315978 
L 155.026867 -107.587974 
L 156.231722 -113.225164 
L 157.436577 -114.87579 
L 158.641432 -116.051736 
L 159.846288 -118.506179 
L 161.051143 -122.881009 
L 162.255998 -125.378711 
L 163.460853 -123.065868 
L 164.665708 -130.133238 
L 165.870563 -132.412157 
L 167.075419 -132.410131 
L 168.280274 -135.022488 
L 169.485129 -137.794878 
L 170.689984 -141.53915 
L 171.894839 -146.1014 
L 173.099694 -146.800138 
L 174.30455 -149.834667 
L 175.509405 -152.701069 
L 176.71426 -155.79882 
L 177.919115 -157.088166 
L 179.12397 -161.016002 
L 180.328825 -165.75954 
L 181.533681 -168.205844 
L 182.738536 -168.32197 
L 183.943391 -171.26165 
L 185.148246 -176.13916 
L 186.353101 -175.493061 
L 187.557956 -176.340989 
L 188.762812 -177.277466 
L 189.967667 -181.421232 
L 191.172522 -180.890293 
L 192.377377 -184.373255 
L 193.582232 -186.405 
L 194.787087 -184.114757 
L 195.991943 -184.881956 
L 197.196798 -186.676146 
L 198.401653 -185.532006 
L 199.606508 -185.172076 
L 200.811363 -183.155644 
L 202.016218 -185.11399 
L 203.221074 -182.384873 
L 204.425929 -182.211212 
L 205.630784 -178.664926 
L 206.835639 -180.202318 
L 208.040494 -177.423867 
L 209.245349 -175.661859 
L 210.450204 -174.219378 
L 211.65506 -171.81182 
L 212.859915 -172.165209 
L 214.06477 -170.057616 
L 215.269625 -168.217425 
L 216.47448 -161.452417 
L 217.679335 -159.246898 
L 218.884191 -157.283987 
L 220.089046 -158.899335 
L 221.293901 -154.830183 
L 222.498756 -153.999847 
L 223.703611 -145.607065 
L 224.908466 -143.033812 
L 226.113322 -142.121948 
L 227.318177 -136.685513 
L 228.523032 -134.50546 
L 229.727887 -135.952545 
L 230.932742 -131.195776 
L 232.137597 -126.317413 
L 233.342453 -127.797491 
L 234.547308 -122.947192 
L 235.752163 -119.023595 
L 236.957018 -117.228353 
L 238.161873 -115.521254 
L 239.366728 -113.500586 
L 240.571584 -113.143392 
L 241.776439 -112.388253 
L 242.981294 -109.349829 
L 244.186149 -105.290302 
L 245.391004 -103.190995 
L 246.595859 -99.323711 
L 247.800715 -98.194824 
L 249.00557 -95.008556 
L 250.210425 -98.266168 
L 251.41528 -97.102384 
L 252.620135 -89.889854 
L 253.82499 -95.214944 
L 255.029846 -93.849388 
L 256.234701 -89.338972 
L 257.439556 -90.130139 
L 258.644411 -88.625339 
L 259.849266 -90.878928 
L 261.054121 -86.027564 
L 262.258977 -88.331036 
L 263.463832 -84.760468 
L 264.668687 -87.302616 
L 265.873542 -85.651547 
L 267.078397 -82.798906 
L 268.283252 -82.249098 
L 269.488108 -80.792005 
L 270.692963 -80.944277 
L 271.897818 -83.941064 
L 273.102673 -83.019834 
L 274.307528 -80.781213 
L 275.512383 -81.08625 
L 276.717239 -81.680074 
L 277.922094 -85.197015 
L 279.126949 -81.132148 
L 280.331804 -79.348151 
L 281.536659 -77.092287 
L 282.741514 -79.679235 
L 283.94637 -79.117124 
L 285.151225 -78.683206 
L 286.35608 -78.853587 
L 287.560935 -78.165221 
L 288.76579 -78.275871 
L 289.970645 -79.86021 
L 291.175501 -78.022743 
L 292.380356 -80.601054 
L 293.585211 -80.147687 
L 294.790066 -80.208059 
L 295.994921 -77.576727 
L 297.199776 -78.482038 
L 298.404632 -80.356845 
L 299.609487 -79.665434 
L 300.814342 -82.333763 
L 302.019197 -78.380525 
L 303.224052 -79.164948 
L 304.428907 -81.756876 
L 305.633763 -79.827089 
L 306.838618 -81.843558 
L 308.043473 -76.808948 
L 309.248328 -81.016326 
L 310.453183 -79.929843 
L 311.658038 -76.41757 
L 312.862894 -78.027898 
L 314.067749 -79.476344 
L 315.272604 -80.80076 
L 316.477459 -77.59188 
L 317.682314 -79.554177 
L 318.887169 -78.57145 
L 320.092025 -80.135062 
L 321.29688 -78.885667 
L 322.501735 -80.156443 
L 323.70659 -78.173096 
L 324.911445 -81.303279 
L 326.1163 -78.358732 
L 327.321155 -80.603096 
L 328.526011 -78.925701 
L 329.730866 -81.314261 
L 330.935721 -79.781178 
L 332.140576 -77.997646 
L 333.345431 -80.245212 
L 334.550286 -80.531034 
L 335.755142 -79.792474 
L 336.959997 -80.577699 
L 338.164852 -78.16737 
L 339.369707 -74.599783 
L 340.574562 -79.359869 
L 341.779417 -79.214575 
L 342.984273 -79.671086 
L 344.189128 -79.655392 
L 345.393983 -80.08152 
L 346.598838 -80.246675 
L 347.803693 -81.455823 
L 349.008548 -79.718545 
L 350.213404 -78.86435 
L 351.418259 -79.470639 
L 352.623114 -80.068843 
L 353.827969 -76.602417 
L 355.032824 -78.681171 
L 356.237679 -81.092618 
L 357.442535 -81.247045 
L 358.64739 -78.889185 
L 359.852245 -80.604893 
L 361.0571 -78.627508 
L 362.261955 -82.257682 
L 363.46681 -79.915485 
L 364.671666 -81.76365 
L 365.876521 -79.884293 
L 367.081376 -77.975274 
L 368.286231 -79.272709 
L 369.491086 -83.069813 
L 370.695941 -79.570689 
L 371.900797 -81.398241 
L 373.105652 -82.21281 
L 374.310507 -76.951961 
L 375.515362 -78.629574 
L 376.720217 -78.912421 
L 377.925072 -81.446136 
L 379.129928 -82.501687 
L 380.334783 -81.789155 
L 381.539638 -80.347582 
L 382.744493 -80.15425 
L 383.949348 -83.025764 
L 385.154203 -81.151051 
L 386.359059 -82.043874 
L 387.563914 -83.305103 
L 388.768769 -78.755042 
L 389.973624 -81.330503 
L 391.178479 -81.33756 
L 392.383334 -77.839996 
L 393.58819 -80.46307 
L 394.793045 -80.7016 
L 395.9979 -82.776122 
L 397.202755 -81.193024 
L 398.40761 -84.102372 
L 399.612465 -77.078694 
L 400.817321 -80.636966 
L 402.022176 -82.141004 
L 403.227031 -80.631311 
L 404.431886 -82.516802 
L 405.636741 -80.833893 
L 406.841596 -82.889577 
L 408.046452 -79.174743 
L 409.251307 -80.775331 
L 410.456162 -80.149332 
L 411.661017 -80.803953 
L 412.865872 -84.255984 
L 414.070727 -84.360249 
L 415.275583 -85.240291 
L 416.480438 -87.439766 
L 417.685293 -86.813127 
L 418.890148 -85.209409 
L 420.095003 -84.529595 
L 421.299858 -85.280006 
L 422.504714 -89.534348 
L 423.709569 -88.655933 
L 424.914424 -94.354856 
L 426.119279 -87.070125 
L 427.324134 -92.657175 
L 428.528989 -89.646832 
L 429.733845 -95.193067 
L 430.9387 -94.985514 
L 432.143555 -96.935408 
L 433.34841 -95.816814 
L 434.553265 -96.66248 
L 435.75812 -98.855929 
L 436.962975 -94.578633 
L 438.167831 -101.566864 
L 439.372686 -103.101638 
L 440.577541 -103.280739 
L 441.782396 -105.059043 
L 442.987251 -107.080651 
L 444.192106 -108.704129 
L 445.396962 -113.748407 
L 446.601817 -111.126985 
L 447.806672 -119.713989 
L 449.011527 -115.67098 
L 450.216382 -118.887971 
L 451.421237 -120.482461 
L 452.626093 -119.088448 
L 453.830948 -126.583061 
L 455.035803 -126.185279 
L 456.240658 -126.760876 
L 457.445513 -135.041253 
L 458.650368 -134.15141 
L 459.855224 -138.277916 
L 461.060079 -140.13893 
L 462.264934 -142.241729 
L 463.469789 -147.369498 
L 464.674644 -148.375224 
L 465.879499 -147.903789 
L 467.084355 -154.130941 
L 468.28921 -155.343175 
L 469.494065 -155.226962 
L 470.69892 -159.807845 
L 471.903775 -162.655284 
L 473.10863 -164.232349 
L 474.313486 -168.85209 
L 475.518341 -167.317646 
L 476.723196 -168.283574 
L 477.928051 -173.684438 
L 479.132906 -175.17231 
L 480.337761 -177.788808 
L 481.542617 -178.405577 
L 482.747472 -179.525454 
L 483.952327 -182.051263 
L 485.157182 -184.067438 
L 486.362037 -189.637286 
L 487.566892 -188.514014 
L 488.771748 -190.060081 
L 489.976603 -187.688168 
L 491.181458 -188.220159 
L 492.386313 -190.269953 
L 493.591168 -193.752989 
L 494.796023 -192.800325 
L 496.000879 -194.695605 
L 497.205734 -194.247504 
L 498.410589 -188.891457 
L 499.615444 -193.476211 
L 500.820299 -195.784545 
L 502.025154 -194.827122 
L 503.23001 -189.643646 
L 504.434865 -192.637909 
L 505.63972 -191.748296 
L 506.844575 -192.536127 
L 508.04943 -190.172355 
L 509.254285 -191.697195 
L 510.459141 -188.327851 
L 511.663996 -187.106525 
L 512.868851 -182.048274 
L 514.073706 -184.924086 
L 515.278561 -181.329695 
L 516.483416 -176.648548 
L 517.688272 -176.834675 
L 518.893127 -172.323242 
L 520.097982 -172.198424 
L 521.302837 -169.725064 
L 522.507692 -165.194051 
L 523.712547 -163.771163 
L 524.917403 -162.793872 
L 526.122258 -160.605858 
L 527.327113 -159.495906 
L 528.531968 -158.136292 
L 529.736823 -154.097621 
L 530.941678 -148.275072 
L 532.146534 -149.083702 
L 533.351389 -146.268506 
L 534.556244 -143.995779 
L 535.761099 -138.125518 
L 536.965954 -137.57557 
L 538.170809 -137.484347 
L 539.375665 -134.519793 
L 540.58052 -130.167205 
L 541.785375 -130.351833 
L 542.99023 -126.165135 
L 544.195085 -123.352403 
L 545.39994 -122.966507 
L 546.604796 -116.967715 
L 547.809651 -118.50762 
L 549.014506 -115.762924 
L 550.219361 -116.941342 
L 551.424216 -112.135117 
L 552.629071 -109.719586 
L 553.833926 -110.015237 
L 555.038782 -106.566997 
L 556.243637 -104.4291 
L 557.448492 -105.834978 
L 558.653347 -98.76011 
L 559.858202 -101.000903 
L 561.063057 -102.351723 
L 562.267913 -97.437654 
L 563.472768 -97.305855 
L 564.677623 -98.467143 
L 565.882478 -96.351411 
L 567.087333 -91.411355 
L 568.292188 -94.283033 
L 569.497044 -93.807033 
L 570.701899 -91.779777 
L 571.906754 -90.927984 
L 573.111609 -89.015347 
L 574.316464 -86.389552 
L 575.521319 -87.162291 
L 576.726175 -88.661603 
L 577.93103 -88.165496 
L 579.135885 -87.15558 
L 580.34074 -83.511213 
L 581.545595 -87.542872 
L 582.75045 -82.801004 
L 583.955306 -83.885003 
L 585.160161 -85.740653 
L 586.365016 -84.67733 
L 587.569871 -81.297407 
L 588.774726 -82.990859 
L 589.979581 -81.555983 
L 591.184437 -83.692934 
L 592.389292 -80.418012 
L 593.594147 -84.692027 
L 594.799002 -81.095584 
L 596.003857 -81.833999 
L 597.208712 -83.918251 
L 598.413568 -78.934871 
L 599.618423 -80.17612 
L 600.823278 -81.616972 
L 602.028133 -82.554489 
L 603.232988 -82.788836 
L 604.437843 -79.09839 
L 605.642699 -80.863919 
L 606.847554 -80.098586 
L 608.052409 -82.121832 
L 609.257264 -79.589459 
L 610.462119 -82.671822 
L 611.666974 -78.735144 
L 612.87183 -82.085026 
L 614.076685 -80.128709 
L 615.28154 -80.139468 
L 616.486395 -79.46772 
L 617.69125 -80.841063 
L 618.896105 -78.008139 
L 620.100961 -78.680209 
L 621.305816 -78.870821 
L 622.510671 -80.565934 
L 623.715526 -79.296333 
L 624.920381 -79.311328 
L 626.125236 -81.479148 
L 627.330092 -80.285443 
L 628.534947 -82.749702 
L 629.739802 -79.719175 
L 630.944657 -79.972078 
L 632.149512 -79.396295 
L 633.354367 -77.618908 
L 634.559223 -82.183211 
L 635.764078 -80.074637 
L 636.968933 -83.064644 
L 638.173788 -80.453137 
L 639.378643 -76.104422 
L 640.583498 -80.494432 
L 641.788354 -77.613196 
L 642.993209 -80.611207 
L 644.198064 -79.123669 
L 645.402919 -79.232714 
L 646.607774 -81.760104 
L 647.812629 -79.39063 
L 649.017485 -81.734716 
L 650.22234 -81.664809 
L 651.427195 -79.922051 
L 652.63205 -80.710851 
L 653.836905 -79.345997 
L 655.04176 -78.272713 
L 656.246616 -79.203422 
L 657.451471 -80.130096 
L 658.656326 -79.04302 
L 659.861181 -81.794564 
L 661.066036 -80.72837 
L 662.270891 -80.077003 
L 663.475746 -80.722962 
L 664.680602 -75.968703 
L 665.885457 -82.080276 
L 667.090312 -81.349943 
L 668.295167 -80.154251 
L 669.500022 -80.36723 
L 670.704877 -77.315242 
L 671.909733 -82.55542 
L 673.114588 -80.669239 
L 674.319443 -80.527447 
L 675.524298 -80.245279 
L 676.729153 -80.684057 
L 677.934008 -78.287247 
L 679.138864 -79.225782 
L 679.138864 -35.875455 
L 679.138864 -35.875455 
L 677.934008 -35.875455 
L 676.729153 -35.875455 
L 675.524298 -35.875455 
L 674.319443 -35.875455 
L 673.114588 -35.875455 
L 671.909733 -35.875455 
L 670.704877 -35.875455 
L 669.500022 -35.875455 
L 668.295167 -35.875455 
L 667.090312 -35.875455 
L 665.885457 -35.875455 
L 664.680602 -35.875455 
L 663.475746 -35.875455 
L 662.270891 -35.875455 
L 661.066036 -35.875455 
L 659.861181 -35.875455 
L 658.656326 -35.875455 
L 657.451471 -35.875455 
L 656.246616 -35.875455 
L 655.04176 -35.875455 
L 653.836905 -35.875455 
L 652.63205 -35.875455 
L 651.427195 -35.875455 
L 650.22234 -35.875455 
L 649.017485 -35.875455 
L 647.812629 -35.875455 
L 646.607774 -35.875455 
L 645.402919 -35.875455 
L 644.198064 -35.875455 
L 642.993209 -35.875455 
L 641.788354 -35.875455 
L 640.583498 -35.875455 
L 639.378643 -35.875455 
L 638.173788 -35.875455 
L 636.968933 -35.875455 
L 635.764078 -35.875455 
L 634.559223 -35.875455 
L 633.354367 -35.875455 
L 632.149512 -35.875455 
L 630.944657 -35.875455 
L 629.739802 -35.875455 
L 628.534947 -35.875455 
L 627.330092 -35.875455 
L 626.125236 -35.875455 
L 624.920381 -35.875455 
L 623.715526 -35.875455 
L 622.510671 -35.875455 
L 621.305816 -35.875455 
L 620.100961 -35.875455 
L 618.896105 -35.875455 
L 617.69125 -35.875455 
L 616.486395 -35.875455 
L 615.28154 -35.875455 
L 614.076685 -35.875455 
L 612.87183 -35.875455 
L 611.666974 -35.875455 
L 610.462119 -35.875455 
L 609.257264 -35.875455 
L 608.052409 -35.875455 
L 606.847554 -35.875455 
L 605.642699 -35.875455 
L 604.437843 -35.875455 
L 603.232988 -35.875455 
L 602.028133 -35.875455 
L 600.823278 -35.875455 
L 599.618423 -35.875455 
L 598.413568 -35.875455 
L 597.208712 -35.875455 
L 596.003857 -35.875455 
L 594.799002 -35.875455 
L 593.594147 -35.875455 
L 592.389292 -35.875455 
L 591.184437 -35.875455 
L 589.979581 -35.875455 
L 588.774726 -35.875455 
L 587.569871 -35.875455 
L 586.365016 -35.875455 
L 585.160161 -35.875455 
L 583.955306 -35.875455 
L 582.75045 -35.875455 
L 581.545595 -35.875455 
L 580.34074 -35.875455 
L 579.135885 -35.875455 
L 577.93103 -35.875455 
L 576.726175 -35.875455 
L 575.521319 -35.875455 
L 574.316464 -35.875455 
L 573.111609 -35.875455 
L 571.906754 -35.875455 
L 570.701899 -35.875455 
L 569.497044 -35.875455 
L 568.292188 -35.875455 
L 567.087333 -35.875455 
L 565.882478 -35.875455 
L 564.677623 -35.875455 
L 563.472768 -35.875455 
L 562.267913 -35.875455 
L 561.063057 -35.875455 
L 559.858202 -35.875455 
L 558.653347 -35.875455 
L 557.448492 -35.875455 
L 556.243637 -35.875455 
L 555.038782 -35.875455 
L 553.833926 -35.875455 
L 552.629071 -35.875455 
L 551.424216 -35.875455 
L 550.219361 -35.875455 
L 549.014506 -35.875455 
L 547.809651 -35.875455 
L 546.604796 -35.875455 
L 545.39994 -35.875455 
L 544.195085 -35.875455 
L 542.99023 -35.875455 
L 541.785375 -35.875455 
L 540.58052 -35.875455 
L 539.375665 -35.875455 
L 538.170809 -35.875455 
L 536.965954 -35.875455 
L 535.761099 -35.875455 
L 534.556244 -35.875455 
L 533.351389 -35.875455 
L 532.146534 -35.875455 
L 530.941678 -35.875455 
L 529.736823 -35.875455 
L 528.531968 -35.875455 
L 527.327113 -35.875455 
L 526.122258 -35.875455 
L 524.917403 -35.875455 
L 523.712547 -35.875455 
L 522.507692 -35.875455 
L 521.302837 -35.875455 
L 520.097982 -35.875455 
L 518.893127 -35.875455 
L 517.688272 -35.875455 
L 516.483416 -35.875455 
L 515.278561 -35.875455 
L 514.073706 -35.875455 
L 512.868851 -35.875455 
L 511.663996 -35.875455 
L 510.459141 -35.875455 
L 509.254285 -35.875455 
L 508.04943 -35.875455 
L 506.844575 -35.875455 
L 505.63972 -35.875455 
L 504.434865 -35.875455 
L 503.23001 -35.875455 
L 502.025154 -35.875455 
L 500.820299 -35.875455 
L 499.615444 -35.875455 
L 498.410589 -35.875455 
L 497.205734 -35.875455 
L 496.000879 -35.875455 
L 494.796023 -35.875455 
L 493.591168 -35.875455 
L 492.386313 -35.875455 
L 491.181458 -35.875455 
L 489.976603 -35.875455 
L 488.771748 -35.875455 
L 487.566892 -35.875455 
L 486.362037 -35.875455 
L 485.157182 -35.875455 
L 483.952327 -35.875455 
L 482.747472 -35.875455 
L 481.542617 -35.875455 
L 480.337761 -35.875455 
L 479.132906 -35.875455 
L 477.928051 -35.875455 
L 476.723196 -35.875455 
L 475.518341 -35.875455 
L 474.313486 -35.875455 
L 473.10863 -35.875455 
L 471.903775 -35.875455 
L 470.69892 -35.875455 
L 469.494065 -35.875455 
L 468.28921 -35.875455 
L 467.084355 -35.875455 
L 465.879499 -35.875455 
L 464.674644 -35.875455 
L 463.469789 -35.875455 
L 462.264934 -35.875455 
L 461.060079 -35.875455 
L 459.855224 -35.875455 
L 458.650368 -35.875455 
L 457.445513 -35.875455 
L 456.240658 -35.875455 
L 455.035803 -35.875455 
L 453.830948 -35.875455 
L 452.626093 -35.875455 
L 451.421237 -35.875455 
L 450.216382 -35.875455 
L 449.011527 -35.875455 
L 447.806672 -35.875455 
L 446.601817 -35.875455 
L 445.396962 -35.875455 
L 444.192106 -35.875455 
L 442.987251 -35.875455 
L 441.782396 -35.875455 
L 440.577541 -35.875455 
L 439.372686 -35.875455 
L 438.167831 -35.875455 
L 436.962975 -35.875455 
L 435.75812 -35.875455 
L 434.553265 -35.875455 
L 433.34841 -35.875455 
L 432.143555 -35.875455 
L 430.9387 -35.875455 
L 429.733845 -35.875455 
L 428.528989 -35.875455 
L 427.324134 -35.875455 
L 426.119279 -35.875455 
L 424.914424 -35.875455 
L 423.709569 -35.875455 
L 422.504714 -35.875455 
L 421.299858 -35.875455 
L 420.095003 -35.875455 
L 418.890148 -35.875455 
L 417.685293 -35.875455 
L 416.480438 -35.875455 
L 415.275583 -35.875455 
L 414.070727 -35.875455 
L 412.865872 -35.875455 
L 411.661017 -35.875455 
L 410.456162 -35.875455 
L 409.251307 -35.875455 
L 408.046452 -35.875455 
L 406.841596 -35.875455 
L 405.636741 -35.875455 
L 404.431886 -35.875455 
L 403.227031 -35.875455 
L 402.022176 -35.875455 
L 400.817321 -35.875455 
L 399.612465 -35.875455 
L 398.40761 -35.875455 
L 397.202755 -35.875455 
L 395.9979 -35.875455 
L 394.793045 -35.875455 
L 393.58819 -35.875455 
L 392.383334 -35.875455 
L 391.178479 -35.875455 
L 389.973624 -35.875455 
L 388.768769 -35.875455 
L 387.563914 -35.875455 
L 386.359059 -35.875455 
L 385.154203 -35.875455 
L 383.949348 -35.875455 
L 382.744493 -35.875455 
L 381.539638 -35.875455 
L 380.334783 -35.875455 
L 379.129928 -35.875455 
L 377.925072 -35.875455 
L 376.720217 -35.875455 
L 375.515362 -35.875455 
L 374.310507 -35.875455 
L 373.105652 -35.875455 
L 371.900797 -35.875455 
L 370.695941 -35.875455 
L 369.491086 -35.875455 
L 368.286231 -35.875455 
L 367.081376 -35.875455 
L 365.876521 -35.875455 
L 364.671666 -35.875455 
L 363.46681 -35.875455 
L 362.261955 -35.875455 
L 361.0571 -35.875455 
L 359.852245 -35.875455 
L 358.64739 -35.875455 
L 357.442535 -35.875455 
L 356.237679 -35.875455 
L 355.032824 -35.875455 
L 353.827969 -35.875455 
L 352.623114 -35.875455 
L 351.418259 -35.875455 
L 350.213404 -35.875455 
L 349.008548 -35.875455 
L 347.803693 -35.875455 
L 346.598838 -35.875455 
L 345.393983 -35.875455 
L 344.189128 -35.875455 
L 342.984273 -35.875455 
L 341.779417 -35.875455 
L 340.574562 -35.875455 
L 339.369707 -35.875455 
L 338.164852 -35.875455 
L 336.959997 -35.875455 
L 335.755142 -35.875455 
L 334.550286 -35.875455 
L 333.345431 -35.875455 
L 332.140576 -35.875455 
L 330.935721 -35.875455 
L 329.730866 -35.875455 
L 328.526011 -35.875455 
L 327.321155 -35.875455 
L 326.1163 -35.875455 
L 324.911445 -35.875455 
L 323.70659 -35.875455 
L 322.501735 -35.875455 
L 321.29688 -35.875455 
L 320.092025 -35.875455 
L 318.887169 -35.875455 
L 317.682314 -35.875455 
L 316.477459 -35.875455 
L 315.272604 -35.875455 
L 314.067749 -35.875455 
L 312.862894 -35.875455 
L 311.658038 -35.875455 
L 310.453183 -35.875455 
L 309.248328 -35.875455 
L 308.043473 -35.875455 
L 306.838618 -35.875455 
L 305.633763 -35.875455 
L 304.428907 -35.875455 
L 303.224052 -35.875455 
L 302.019197 -35.875455 
L 300.814342 -35.875455 
L 299.609487 -35.875455 
L 298.404632 -35.875455 
L 297.199776 -35.875455 
L 295.994921 -35.875455 
L 294.790066 -35.875455 
L 293.585211 -35.875455 
L 292.380356 -35.875455 
L 291.175501 -35.875455 
L 289.970645 -35.875455 
L 288.76579 -35.875455 
L 287.560935 -35.875455 
L 286.35608 -35.875455 
L 285.151225 -35.875455 
L 283.94637 -35.875455 
L 282.741514 -35.875455 
L 281.536659 -35.875455 
L 280.331804 -35.875455 
L 279.126949 -35.875455 
L 277.922094 -35.875455 
L 276.717239 -35.875455 
L 275.512383 -35.875455 
L 274.307528 -35.875455 
L 273.102673 -35.875455 
L 271.897818 -35.875455 
L 270.692963 -35.875455 
L 269.488108 -35.875455 
L 268.283252 -35.875455 
L 267.078397 -35.875455 
L 265.873542 -35.875455 
L 264.668687 -35.875455 
L 263.463832 -35.875455 
L 262.258977 -35.875455 
L 261.054121 -35.875455 
L 259.849266 -35.875455 
L 258.644411 -35.875455 
L 257.439556 -35.875455 
L 256.234701 -35.875455 
L 255.029846 -35.875455 
L 253.82499 -35.875455 
L 252.620135 -35.875455 
L 251.41528 -35.875455 
L 250.210425 -35.875455 
L 249.00557 -35.875455 
L 247.800715 -35.875455 
L 246.595859 -35.875455 
L 245.391004 -35.875455 
L 244.186149 -35.875455 
L 242.981294 -35.875455 
L 241.776439 -35.875455 
L 240.571584 -35.875455 
L 239.366728 -35.875455 
L 238.161873 -35.875455 
L 236.957018 -35.875455 
L 235.752163 -35.875455 
L 234.547308 -35.875455 
L 233.342453 -35.875455 
L 232.137597 -35.875455 
L 230.932742 -35.875455 
L 229.727887 -35.875455 
L 228.523032 -35.875455 
L 227.318177 -35.875455 
L 226.113322 -35.875455 
L 224.908466 -35.875455 
L 223.703611 -35.875455 
L 222.498756 -35.875455 
L 221.293901 -35.875455 
L 220.089046 -35.875455 
L 218.884191 -35.875455 
L 217.679335 -35.875455 
L 216.47448 -35.875455 
L 215.269625 -35.875455 
L 214.06477 -35.875455 
L 212.859915 -35.875455 
L 211.65506 -35.875455 
L 210.450204 -35.875455 
L 209.245349 -35.875455 
L 208.040494 -35.875455 
L 206.835639 -35.875455 
L 205.630784 -35.875455 
L 204.425929 -35.875455 
L 203.221074 -35.875455 
L 202.016218 -35.875455 
L 200.811363 -35.875455 
L 199.606508 -35.875455 
L 198.401653 -35.875455 
L 197.196798 -35.875455 
L 195.991943 -35.875455 
L 194.787087 -35.875455 
L 193.582232 -35.875455 
L 192.377377 -35.875455 
L 191.172522 -35.875455 
L 189.967667 -35.875455 
L 188.762812 -35.875455 
L 187.557956 -35.875455 
L 186.353101 -35.875455 
L 185.148246 -35.875455 
L 183.943391 -35.875455 
L 182.738536 -35.875455 
L 181.533681 -35.875455 
L 180.328825 -35.875455 
L 179.12397 -35.875455 
L 177.919115 -35.875455 
L 176.71426 -35.875455 
L 175.509405 -35.875455 
L 174.30455 -35.875455 
L 173.099694 -35.875455 
L 171.894839 -35.875455 
L 170.689984 -35.875455 
L 169.485129 -35.875455 
L 168.280274 -35.875455 
L 167.075419 -35.875455 
L 165.870563 -35.875455 
L 164.665708 -35.875455 
L 163.460853 -35.875455 
L 162.255998 -35.875455 
L 161.051143 -35.875455 
L 159.846288 -35.875455 
L 158.641432 -35.875455 
L 157.436577 -35.875455 
L 156.231722 -35.875455 
L 155.026867 -35.875455 
L 153.822012 -35.875455 
L 152.617157 -35.875455 
L 151.412301 -35.875455 
L 150.207446 -35.875455 
L 149.002591 -35.875455 
L 147.797736 -35.875455 
L 146.592881 -35.875455 
L 145.388026 -35.875455 
L 144.18317 -35.875455 
L 142.978315 -35.875455 
L 141.77346 -35.875455 
L 140.568605 -35.875455 
L 139.36375 -35.875455 
L 138.158895 -35.875455 
L 136.954039 -35.875455 
L 135.749184 -35.875455 
L 134.544329 -35.875455 
L 133.339474 -35.875455 
L 132.134619 -35.875455 
L 130.929764 -35.875455 
L 129.724908 -35.875455 
L 128.520053 -35.875455 
L 127.315198 -35.875455 
L 126.110343 -35.875455 
L 124.905488 -35.875455 
L 123.700633 -35.875455 
L 122.495777 -35.875455 
L 121.290922 -35.875455 
L 120.086067 -35.875455 
L 118.881212 -35.875455 
L 117.676357 -35.875455 
L 116.471502 -35.875455 
L 115.266646 -35.875455 
L 114.061791 -35.875455 
L 112.856936 -35.875455 
L 111.652081 -35.875455 
L 110.447226 -35.875455 
L 109.242371 -35.875455 
L 108.037515 -35.875455 
L 106.83266 -35.875455 
L 105.627805 -35.875455 
L 104.42295 -35.875455 
L 103.218095 -35.875455 
L 102.01324 -35.875455 
L 100.808384 -35.875455 
L 99.603529 -35.875455 
L 98.398674 -35.875455 
L 97.193819 -35.875455 
L 95.988964 -35.875455 
L 94.784109 -35.875455 
L 93.579254 -35.875455 
L 92.374398 -35.875455 
L 91.169543 -35.875455 
L 89.964688 -35.875455 
L 88.759833 -35.875455 
L 87.554978 -35.875455 
L 86.350123 -35.875455 
L 85.145267 -35.875455 
L 83.940412 -35.875455 
L 82.735557 -35.875455 
L 81.530702 -35.875455 
L 80.325847 -35.875455 
L 79.120992 -35.875455 
L 77.916136 -35.875455 
z
" style="stroke: #87ceeb; stroke-opacity: 0.5"/>
    </defs>
    <g clip-path="url(#p2976982975)">
     <use xlink:href="#m7635f7d221" x="0" y="432" style="fill: #87ceeb; fill-opacity: 0.5; stroke: #87ceeb; stroke-opacity: 0.5"/>
    </g>
   </g>
   <g id="matplotlib.axis_1">
    <g id="xtick_1">
     <g id="line2d_1">
      <defs>
       <path id="m8854095fbd" d="M 0 0 
L 0 3.5 
" style="stroke: #000000; stroke-width: 0.8"/>
      </defs>
      <g>
       <use xlink:href="#m8854095fbd" x="77.916136" y="404.12" style="stroke: #000000; stroke-width: 0.8"/>
      </g>
     </g>
     <g id="text_3">
      <!-- 0 -->
      <g transform="translate(74.734886 418.718437) scale(0.1 -0.1)">
       <defs>
        <path id="DejaVuSans-30" d="M 2034 4250 
Q 1547 4250 1301 3770 
Q 1056 3291 1056 2328 
Q 1056 1369 1301 889 
Q 1547 409 2034 409 
Q 2525 409 2770 889 
Q 3016 1369 3016 2328 
Q 3016 3291 2770 3770 
Q 2525 4250 2034 4250 
z
M 2034 4750 
Q 2819 4750 3233 4129 
Q 3647 3509 3647 2328 
Q 3647 1150 3233 529 
Q 2819 -91 2034 -91 
Q 1250 -91 836 529 
Q 422 1150 422 2328 
Q 422 3509 836 4129 
Q 1250 4750 2034 4750 
z
" transform="scale(0.015625)"/>
       </defs>
       <use xlink:href="#DejaVuSans-30"/>
      </g>
     </g>
    </g>
    <g id="xtick_2">
     <g id="line2d_2">
      <g>
       <use xlink:href="#m8854095fbd" x="198.160682" y="404.12" style="stroke: #000000; stroke-width: 0.8"/>
      </g>
     </g>
     <g id="text_4">
      <!-- 10 -->
      <g transform="translate(191.798182 418.718437) scale(0.1 -0.1)">
       <defs>
        <path id="DejaVuSans-31" d="M 794 531 
L 1825 531 
L 1825 4091 
L 703 3866 
L 703 4441 
L 1819 4666 
L 2450 4666 
L 2450 531 
L 3481 531 
L 3481 0 
L 794 0 
L 794 531 
z
" transform="scale(0.015625)"/>
       </defs>
       <use xlink:href="#DejaVuSans-31"/>
       <use xlink:href="#DejaVuSans-30" transform="translate(63.623047 0)"/>
      </g>
     </g>
    </g>
    <g id="xtick_3">
     <g id="line2d_3">
      <g>
       <use xlink:href="#m8854095fbd" x="318.405227" y="404.12" style="stroke: #000000; stroke-width: 0.8"/>
      </g>
     </g>
     <g id="text_5">
      <!-- 20 -->
      <g transform="translate(312.042727 418.718437) scale(0.1 -0.1)">
       <defs>
        <path id="DejaVuSans-32" d="M 1228 531 
L 3431 531 
L 3431 0 
L 469 0 
L 469 531 
Q 828 903 1448 1529 
Q 2069 2156 2228 2338 
Q 2531 2678 2651 2914 
Q 2772 3150 2772 3378 
Q 2772 3750 2511 3984 
Q 2250 4219 1831 4219 
Q 1534 4219 1204 4116 
Q 875 4013 500 3803 
L 500 4441 
Q 881 4594 1212 4672 
Q 1544 4750 1819 4750 
Q 2544 4750 2975 4387 
Q 3406 4025 3406 3419 
Q 3406 3131 3298 2873 
Q 3191 2616 2906 2266 
Q 2828 2175 2409 1742 
Q 1991 1309 1228 531 
z
" transform="scale(0.015625)"/>
       </defs>
       <use xlink:href="#DejaVuSans-32"/>
       <use xlink:href="#DejaVuSans-30" transform="translate(63.623047 0)"/>
      </g>
     </g>
    </g>
    <g id="xtick_4">
     <g id="line2d_4">
      <g>
       <use xlink:href="#m8854095fbd" x="438.649773" y="404.12" style="stroke: #000000; stroke-width: 0.8"/>
      </g>
     </g>
     <g id="text_6">
      <!-- 30 -->
      <g transform="translate(432.287273 418.718437) scale(0.1 -0.1)">
       <defs>
        <path id="DejaVuSans-33" d="M 2597 2516 
Q 3050 2419 3304 2112 
Q 3559 1806 3559 1356 
Q 3559 666 3084 287 
Q 2609 -91 1734 -91 
Q 1441 -91 1130 -33 
Q 819 25 488 141 
L 488 750 
Q 750 597 1062 519 
Q 1375 441 1716 441 
Q 2309 441 2620 675 
Q 2931 909 2931 1356 
Q 2931 1769 2642 2001 
Q 2353 2234 1838 2234 
L 1294 2234 
L 1294 2753 
L 1863 2753 
Q 2328 2753 2575 2939 
Q 2822 3125 2822 3475 
Q 2822 3834 2567 4026 
Q 2313 4219 1838 4219 
Q 1578 4219 1281 4162 
Q 984 4106 628 3988 
L 628 4550 
Q 988 4650 1302 4700 
Q 1616 4750 1894 4750 
Q 2613 4750 3031 4423 
Q 3450 4097 3450 3541 
Q 3450 3153 3228 2886 
Q 3006 2619 2597 2516 
z
" transform="scale(0.015625)"/>
       </defs>
       <use xlink:href="#DejaVuSans-33"/>
       <use xlink:href="#DejaVuSans-30" transform="translate(63.623047 0)"/>
      </g>
     </g>
    </g>
    <g id="xtick_5">
     <g id="line2d_5">
      <g>
       <use xlink:href="#m8854095fbd" x="558.894318" y="404.12" style="stroke: #000000; stroke-width: 0.8"/>
      </g>
     </g>
     <g id="text_7">
      <!-- 40 -->
      <g transform="translate(552.531818 418.718437) scale(0.1 -0.1)">
       <defs>
        <path id="DejaVuSans-34" d="M 2419 4116 
L 825 1625 
L 2419 1625 
L 2419 4116 
z
M 2253 4666 
L 3047 4666 
L 3047 1625 
L 3713 1625 
L 3713 1100 
L 3047 1100 
L 3047 0 
L 2419 0 
L 2419 1100 
L 313 1100 
L 313 1709 
L 2253 4666 
z
" transform="scale(0.015625)"/>
       </defs>
       <use xlink:href="#DejaVuSans-34"/>
       <use xlink:href="#DejaVuSans-30" transform="translate(63.623047 0)"/>
      </g>
     </g>
    </g>
    <g id="xtick_6">
     <g id="line2d_6">
      <g>
       <use xlink:href="#m8854095fbd" x="679.138864" y="404.12" style="stroke: #000000; stroke-width: 0.8"/>
      </g>
     </g>
     <g id="text_8">
      <!-- 50 -->
      <g transform="translate(672.776364 418.718437) scale(0.1 -0.1)">
       <defs>
        <path id="DejaVuSans-35" d="M 691 4666 
L 3169 4666 
L 3169 4134 
L 1269 4134 
L 1269 2991 
Q 1406 3038 1543 3061 
Q 1681 3084 1819 3084 
Q 2600 3084 3056 2656 
Q 3513 2228 3513 1497 
Q 3513 744 3044 326 
Q 2575 -91 1722 -91 
Q 1428 -91 1123 -41 
Q 819 9 494 109 
L 494 744 
Q 775 591 1075 516 
Q 1375 441 1709 441 
Q 2250 441 2565 725 
Q 2881 1009 2881 1497 
Q 2881 1984 2565 2268 
Q 2250 2553 1709 2553 
Q 1456 2553 1204 2497 
Q 953 2441 691 2322 
L 691 4666 
z
" transform="scale(0.015625)"/>
       </defs>
       <use xlink:href="#DejaVuSans-35"/>
       <use xlink:href="#DejaVuSans-30" transform="translate(63.623047 0)"/>
      </g>
     </g>
    </g>
   </g>
   <g id="matplotlib.axis_2">
    <g id="ytick_1">
     <g id="line2d_7">
      <defs>
       <path id="m07d2a70c92" d="M 0 0 
L -3.5 0 
" style="stroke: #000000; stroke-width: 0.8"/>
      </defs>
      <g>
       <use xlink:href="#m07d2a70c92" x="47.855" y="396.124545" style="stroke: #000000; stroke-width: 0.8"/>
      </g>
     </g>
     <g id="text_9">
      <!-- 0.00 -->
      <g transform="translate(18.589375 399.923764) scale(0.1 -0.1)">
       <defs>
        <path id="DejaVuSans-2e" d="M 684 794 
L 1344 794 
L 1344 0 
L 684 0 
L 684 794 
z
" transform="scale(0.015625)"/>
       </defs>
       <use xlink:href="#DejaVuSans-30"/>
       <use xlink:href="#DejaVuSans-2e" transform="translate(63.623047 0)"/>
       <use xlink:href="#DejaVuSans-30" transform="translate(95.410156 0)"/>
       <use xlink:href="#DejaVuSans-30" transform="translate(159.033203 0)"/>
      </g>
     </g>
    </g>
    <g id="ytick_2">
     <g id="line2d_8">
      <g>
       <use xlink:href="#m07d2a70c92" x="47.855" y="374.102001" style="stroke: #000000; stroke-width: 0.8"/>
      </g>
     </g>
     <g id="text_10">
      <!-- 0.25 -->
      <g transform="translate(18.589375 377.90122) scale(0.1 -0.1)">
       <use xlink:href="#DejaVuSans-30"/>
       <use xlink:href="#DejaVuSans-2e" transform="translate(63.623047 0)"/>
       <use xlink:href="#DejaVuSans-32" transform="translate(95.410156 0)"/>
       <use xlink:href="#DejaVuSans-35" transform="translate(159.033203 0)"/>
      </g>
     </g>
    </g>
    <g id="ytick_3">
     <g id="line2d_9">
      <g>
       <use xlink:href="#m07d2a70c92" x="47.855" y="352.079457" style="stroke: #000000; stroke-width: 0.8"/>
      </g>
     </g>
     <g id="text_11">
      <!-- 0.50 -->
      <g transform="translate(18.589375 355.878676) scale(0.1 -0.1)">
       <use xlink:href="#DejaVuSans-30"/>
       <use xlink:href="#DejaVuSans-2e" transform="translate(63.623047 0)"/>
       <use xlink:href="#DejaVuSans-35" transform="translate(95.410156 0)"/>
       <use xlink:href="#DejaVuSans-30" transform="translate(159.033203 0)"/>
      </g>
     </g>
    </g>
    <g id="ytick_4">
     <g id="line2d_10">
      <g>
       <use xlink:href="#m07d2a70c92" x="47.855" y="330.056913" style="stroke: #000000; stroke-width: 0.8"/>
      </g>
     </g>
     <g id="text_12">
      <!-- 0.75 -->
      <g transform="translate(18.589375 333.856132) scale(0.1 -0.1)">
       <defs>
        <path id="DejaVuSans-37" d="M 525 4666 
L 3525 4666 
L 3525 4397 
L 1831 0 
L 1172 0 
L 2766 4134 
L 525 4134 
L 525 4666 
z
" transform="scale(0.015625)"/>
       </defs>
       <use xlink:href="#DejaVuSans-30"/>
       <use xlink:href="#DejaVuSans-2e" transform="translate(63.623047 0)"/>
       <use xlink:href="#DejaVuSans-37" transform="translate(95.410156 0)"/>
       <use xlink:href="#DejaVuSans-35" transform="translate(159.033203 0)"/>
      </g>
     </g>
    </g>
    <g id="ytick_5">
     <g id="line2d_11">
      <g>
       <use xlink:href="#m07d2a70c92" x="47.855" y="308.034369" style="stroke: #000000; stroke-width: 0.8"/>
      </g>
     </g>
     <g id="text_13">
      <!-- 1.00 -->
      <g transform="translate(18.589375 311.833588) scale(0.1 -0.1)">
       <use xlink:href="#DejaVuSans-31"/>
       <use xlink:href="#DejaVuSans-2e" transform="translate(63.623047 0)"/>
       <use xlink:href="#DejaVuSans-30" transform="translate(95.410156 0)"/>
       <use xlink:href="#DejaVuSans-30" transform="translate(159.033203 0)"/>
      </g>
     </g>
    </g>
    <g id="ytick_6">
     <g id="line2d_12">
      <g>
       <use xlink:href="#m07d2a70c92" x="47.855" y="286.011825" style="stroke: #000000; stroke-width: 0.8"/>
      </g>
     </g>
     <g id="text_14">
      <!-- 1.25 -->
      <g transform="translate(18.589375 289.811044) scale(0.1 -0.1)">
       <use xlink:href="#DejaVuSans-31"/>
       <use xlink:href="#DejaVuSans-2e" transform="translate(63.623047 0)"/>
       <use xlink:href="#DejaVuSans-32" transform="translate(95.410156 0)"/>
       <use xlink:href="#DejaVuSans-35" transform="translate(159.033203 0)"/>
      </g>
     </g>
    </g>
    <g id="ytick_7">
     <g id="line2d_13">
      <g>
       <use xlink:href="#m07d2a70c92" x="47.855" y="263.989281" style="stroke: #000000; stroke-width: 0.8"/>
      </g>
     </g>
     <g id="text_15">
      <!-- 1.50 -->
      <g transform="translate(18.589375 267.7885) scale(0.1 -0.1)">
       <use xlink:href="#DejaVuSans-31"/>
       <use xlink:href="#DejaVuSans-2e" transform="translate(63.623047 0)"/>
       <use xlink:href="#DejaVuSans-35" transform="translate(95.410156 0)"/>
       <use xlink:href="#DejaVuSans-30" transform="translate(159.033203 0)"/>
      </g>
     </g>
    </g>
    <g id="ytick_8">
     <g id="line2d_14">
      <g>
       <use xlink:href="#m07d2a70c92" x="47.855" y="241.966737" style="stroke: #000000; stroke-width: 0.8"/>
      </g>
     </g>
     <g id="text_16">
      <!-- 1.75 -->
      <g transform="translate(18.589375 245.765956) scale(0.1 -0.1)">
       <use xlink:href="#DejaVuSans-31"/>
       <use xlink:href="#DejaVuSans-2e" transform="translate(63.623047 0)"/>
       <use xlink:href="#DejaVuSans-37" transform="translate(95.410156 0)"/>
       <use xlink:href="#DejaVuSans-35" transform="translate(159.033203 0)"/>
      </g>
     </g>
    </g>
    <g id="text_17">
     <!-- Bits -->
     <g transform="translate(12.509688 325.554375) rotate(-90) scale(0.1 -0.1)">
      <defs>
       <path id="DejaVuSans-42" d="M 1259 2228 
L 1259 519 
L 2272 519 
Q 2781 519 3026 730 
Q 3272 941 3272 1375 
Q 3272 1813 3026 2020 
Q 2781 2228 2272 2228 
L 1259 2228 
z
M 1259 4147 
L 1259 2741 
L 2194 2741 
Q 2656 2741 2882 2914 
Q 3109 3088 3109 3444 
Q 3109 3797 2882 3972 
Q 2656 4147 2194 4147 
L 1259 4147 
z
M 628 4666 
L 2241 4666 
Q 2963 4666 3353 4366 
Q 3744 4066 3744 3513 
Q 3744 3084 3544 2831 
Q 3344 2578 2956 2516 
Q 3422 2416 3680 2098 
Q 3938 1781 3938 1306 
Q 3938 681 3513 340 
Q 3088 0 2303 0 
L 628 0 
L 628 4666 
z
" transform="scale(0.015625)"/>
       <path id="DejaVuSans-73" d="M 2834 3397 
L 2834 2853 
Q 2591 2978 2328 3040 
Q 2066 3103 1784 3103 
Q 1356 3103 1142 2972 
Q 928 2841 928 2578 
Q 928 2378 1081 2264 
Q 1234 2150 1697 2047 
L 1894 2003 
Q 2506 1872 2764 1633 
Q 3022 1394 3022 966 
Q 3022 478 2636 193 
Q 2250 -91 1575 -91 
Q 1294 -91 989 -36 
Q 684 19 347 128 
L 347 722 
Q 666 556 975 473 
Q 1284 391 1588 391 
Q 1994 391 2212 530 
Q 2431 669 2431 922 
Q 2431 1156 2273 1281 
Q 2116 1406 1581 1522 
L 1381 1569 
Q 847 1681 609 1914 
Q 372 2147 372 2553 
Q 372 3047 722 3315 
Q 1072 3584 1716 3584 
Q 2034 3584 2315 3537 
Q 2597 3491 2834 3397 
z
" transform="scale(0.015625)"/>
      </defs>
      <use xlink:href="#DejaVuSans-42"/>
      <use xlink:href="#DejaVuSans-69" transform="translate(68.603516 0)"/>
      <use xlink:href="#DejaVuSans-74" transform="translate(96.386719 0)"/>
      <use xlink:href="#DejaVuSans-73" transform="translate(135.595703 0)"/>
     </g>
    </g>
   </g>
   <g id="patch_3">
    <path d="M 47.855 404.12 
L 47.855 228.22 
" style="fill: none; stroke: #000000; stroke-width: 0.8; stroke-linejoin: miter; stroke-linecap: square"/>
   </g>
   <g id="patch_4">
    <path d="M 709.2 404.12 
L 709.2 228.22 
" style="fill: none; stroke: #000000; stroke-width: 0.8; stroke-linejoin: miter; stroke-linecap: square"/>
   </g>
   <g id="patch_5">
    <path d="M 47.855 404.12 
L 709.2 404.12 
" style="fill: none; stroke: #000000; stroke-width: 0.8; stroke-linejoin: miter; stroke-linecap: square"/>
   </g>
   <g id="patch_6">
    <path d="M 47.855 228.22 
L 709.2 228.22 
" style="fill: none; stroke: #000000; stroke-width: 0.8; stroke-linejoin: miter; stroke-linecap: square"/>
   </g>
   <g id="text_18">
    <!-- Informational View -->
    <g transform="translate(322.310313 222.22) scale(0.12 -0.12)">
     <defs>
      <path id="DejaVuSans-49" d="M 628 4666 
L 1259 4666 
L 1259 0 
L 628 0 
L 628 4666 
z
" transform="scale(0.015625)"/>
      <path id="DejaVuSans-6e" d="M 3513 2113 
L 3513 0 
L 2938 0 
L 2938 2094 
Q 2938 2591 2744 2837 
Q 2550 3084 2163 3084 
Q 1697 3084 1428 2787 
Q 1159 2491 1159 1978 
L 1159 0 
L 581 0 
L 581 3500 
L 1159 3500 
L 1159 2956 
Q 1366 3272 1645 3428 
Q 1925 3584 2291 3584 
Q 2894 3584 3203 3211 
Q 3513 2838 3513 2113 
z
" transform="scale(0.015625)"/>
      <path id="DejaVuSans-66" d="M 2375 4863 
L 2375 4384 
L 1825 4384 
Q 1516 4384 1395 4259 
Q 1275 4134 1275 3809 
L 1275 3500 
L 2222 3500 
L 2222 3053 
L 1275 3053 
L 1275 0 
L 697 0 
L 697 3053 
L 147 3053 
L 147 3500 
L 697 3500 
L 697 3744 
Q 697 4328 969 4595 
Q 1241 4863 1831 4863 
L 2375 4863 
z
" transform="scale(0.015625)"/>
      <path id="DejaVuSans-6f" d="M 1959 3097 
Q 1497 3097 1228 2736 
Q 959 2375 959 1747 
Q 959 1119 1226 758 
Q 1494 397 1959 397 
Q 2419 397 2687 759 
Q 2956 1122 2956 1747 
Q 2956 2369 2687 2733 
Q 2419 3097 1959 3097 
z
M 1959 3584 
Q 2709 3584 3137 3096 
Q 3566 2609 3566 1747 
Q 3566 888 3137 398 
Q 2709 -91 1959 -91 
Q 1206 -91 779 398 
Q 353 888 353 1747 
Q 353 2609 779 3096 
Q 1206 3584 1959 3584 
z
" transform="scale(0.015625)"/>
      <path id="DejaVuSans-72" d="M 2631 2963 
Q 2534 3019 2420 3045 
Q 2306 3072 2169 3072 
Q 1681 3072 1420 2755 
Q 1159 2438 1159 1844 
L 1159 0 
L 581 0 
L 581 3500 
L 1159 3500 
L 1159 2956 
Q 1341 3275 1631 3429 
Q 1922 3584 2338 3584 
Q 2397 3584 2469 3576 
Q 2541 3569 2628 3553 
L 2631 2963 
z
" transform="scale(0.015625)"/>
      <path id="DejaVuSans-6d" d="M 3328 2828 
Q 3544 3216 3844 3400 
Q 4144 3584 4550 3584 
Q 5097 3584 5394 3201 
Q 5691 2819 5691 2113 
L 5691 0 
L 5113 0 
L 5113 2094 
Q 5113 2597 4934 2840 
Q 4756 3084 4391 3084 
Q 3944 3084 3684 2787 
Q 3425 2491 3425 1978 
L 3425 0 
L 2847 0 
L 2847 2094 
Q 2847 2600 2669 2842 
Q 2491 3084 2119 3084 
Q 1678 3084 1418 2786 
Q 1159 2488 1159 1978 
L 1159 0 
L 581 0 
L 581 3500 
L 1159 3500 
L 1159 2956 
Q 1356 3278 1631 3431 
Q 1906 3584 2284 3584 
Q 2666 3584 2933 3390 
Q 3200 3197 3328 2828 
z
" transform="scale(0.015625)"/>
     </defs>
     <use xlink:href="#DejaVuSans-49"/>
     <use xlink:href="#DejaVuSans-6e" transform="translate(29.492188 0)"/>
     <use xlink:href="#DejaVuSans-66" transform="translate(92.871094 0)"/>
     <use xlink:href="#DejaVuSans-6f" transform="translate(128.076172 0)"/>
     <use xlink:href="#DejaVuSans-72" transform="translate(189.257812 0)"/>
     <use xlink:href="#DejaVuSans-6d" transform="translate(228.621094 0)"/>
     <use xlink:href="#DejaVuSans-61" transform="translate(326.033203 0)"/>
     <use xlink:href="#DejaVuSans-74" transform="translate(387.3125 0)"/>
     <use xlink:href="#DejaVuSans-69" transform="translate(426.521484 0)"/>
     <use xlink:href="#DejaVuSans-6f" transform="translate(454.304688 0)"/>
     <use xlink:href="#DejaVuSans-6e" transform="translate(515.486328 0)"/>
     <use xlink:href="#DejaVuSans-61" transform="translate(578.865234 0)"/>
     <use xlink:href="#DejaVuSans-6c" transform="translate(640.144531 0)"/>
     <use xlink:href="#DejaVuSans-20" transform="translate(667.927734 0)"/>
     <use xlink:href="#DejaVuSans-56" transform="translate(699.714844 0)"/>
     <use xlink:href="#DejaVuSans-69" transform="translate(765.873047 0)"/>
     <use xlink:href="#DejaVuSans-65" transform="translate(793.65625 0)"/>
     <use xlink:href="#DejaVuSans-77" transform="translate(855.179688 0)"/>
    </g>
   </g>
  </g>
 </g>
 <defs>
  <clipPath id="p2976982975">
   <rect x="47.855" y="228.22" width="661.345" height="175.9"/>
  </clipPath>
 </defs>
</svg>
