<?xml version="1.0" encoding="utf-8" standalone="no"?>
<!DOCTYPE svg PUBLIC "-//W3C//DTD SVG 1.1//EN"
  "http://www.w3.org/Graphics/SVG/1.1/DTD/svg11.dtd">
<svg xmlns:xlink="http://www.w3.org/1999/xlink" width="708.48pt" height="276.48pt" viewBox="0 0 708.48 276.48" xmlns="http://www.w3.org/2000/svg" version="1.1">
 <metadata>
  <rdf:RDF xmlns:dc="http://purl.org/dc/elements/1.1/" xmlns:cc="http://creativecommons.org/ns#" xmlns:rdf="http://www.w3.org/1999/02/22-rdf-syntax-ns#">
   <cc:Work>
    <dc:type rdf:resource="http://purl.org/dc/dcmitype/StillImage"/>
    <dc:date>2026-01-10T01:46:28.124571</dc:date>
    <dc:format>image/svg+xml</dc:format>
    <dc:creator>
     <cc:Agent>
      <dc:title>Matplotlib v3.10.8, https://matplotlib.org/</dc:title>
     </cc:Agent>
    </dc:creator>
   </cc:Work>
  </rdf:RDF>
 </metadata>
 <defs>
  <style type="text/css">*{stroke-linejoin: round; stroke-linecap: butt}</style>
 </defs>
 <g id="figure_1">
  <g id="patch_1">
   <path d="M 0 276.48 
L 708.48 276.48 
L 708.48 0 
L 0 0 
z
" style="fill: #ffffff"/>
  </g>
  <g id="axes_1">
   <g id="text_1">
    <g id="patch_2">
     <path d="M 63.986466 151.246875 
L 110.585841 151.246875 
Q 117.785841 151.246875 117.785841 144.046875 
L 117.785841 132.433125 
Q 117.785841 125.233125 110.585841 125.233125 
L 63.986466 125.233125 
Q 56.786466 125.233125 56.786466 132.433125 
L 56.786466 144.046875 
Q 56.786466 151.246875 63.986466 151.246875 
z
" style="fill: #ffffff; stroke: #2c3e50; stroke-width: 2; stroke-linejoin: miter"/>
    </g>
    <!-- Source -->
    <g style="fill: #34495e" transform="translate(63.986466 141.55125) scale(0.12 -0.12)">
     <defs>
      <path id="DejaVuSans-Bold-53" d="M 3834 4519 
L 3834 3531 
Q 3450 3703 3084 3790 
Q 2719 3878 2394 3878 
Q 1963 3878 1756 3759 
Q 1550 3641 1550 3391 
Q 1550 3203 1689 3098 
Q 1828 2994 2194 2919 
L 2706 2816 
Q 3484 2659 3812 2340 
Q 4141 2022 4141 1434 
Q 4141 663 3683 286 
Q 3225 -91 2284 -91 
Q 1841 -91 1394 -6 
Q 947 78 500 244 
L 500 1259 
Q 947 1022 1364 901 
Q 1781 781 2169 781 
Q 2563 781 2772 912 
Q 2981 1044 2981 1288 
Q 2981 1506 2839 1625 
Q 2697 1744 2272 1838 
L 1806 1941 
Q 1106 2091 782 2419 
Q 459 2747 459 3303 
Q 459 4000 909 4375 
Q 1359 4750 2203 4750 
Q 2588 4750 2994 4692 
Q 3400 4634 3834 4519 
z
" transform="scale(0.015625)"/>
      <path id="DejaVuSans-Bold-6f" d="M 2203 2784 
Q 1831 2784 1636 2517 
Q 1441 2250 1441 1747 
Q 1441 1244 1636 976 
Q 1831 709 2203 709 
Q 2569 709 2762 976 
Q 2956 1244 2956 1747 
Q 2956 2250 2762 2517 
Q 2569 2784 2203 2784 
z
M 2203 3584 
Q 3106 3584 3614 3096 
Q 4122 2609 4122 1747 
Q 4122 884 3614 396 
Q 3106 -91 2203 -91 
Q 1297 -91 786 396 
Q 275 884 275 1747 
Q 275 2609 786 3096 
Q 1297 3584 2203 3584 
z
" transform="scale(0.015625)"/>
      <path id="DejaVuSans-Bold-75" d="M 500 1363 
L 500 3500 
L 1625 3500 
L 1625 3150 
Q 1625 2866 1622 2436 
Q 1619 2006 1619 1863 
Q 1619 1441 1641 1255 
Q 1663 1069 1716 984 
Q 1784 875 1895 815 
Q 2006 756 2150 756 
Q 2500 756 2700 1025 
Q 2900 1294 2900 1772 
L 2900 3500 
L 4019 3500 
L 4019 0 
L 2900 0 
L 2900 506 
Q 2647 200 2364 54 
Q 2081 -91 1741 -91 
Q 1134 -91 817 281 
Q 500 653 500 1363 
z
" transform="scale(0.015625)"/>
      <path id="DejaVuSans-Bold-72" d="M 3138 2547 
Q 2991 2616 2845 2648 
Q 2700 2681 2553 2681 
Q 2122 2681 1889 2404 
Q 1656 2128 1656 1613 
L 1656 0 
L 538 0 
L 538 3500 
L 1656 3500 
L 1656 2925 
Q 1872 3269 2151 3426 
Q 2431 3584 2822 3584 
Q 2878 3584 2943 3579 
Q 3009 3575 3134 3559 
L 3138 2547 
z
" transform="scale(0.015625)"/>
      <path id="DejaVuSans-Bold-63" d="M 3366 3391 
L 3366 2478 
Q 3138 2634 2908 2709 
Q 2678 2784 2431 2784 
Q 1963 2784 1702 2511 
Q 1441 2238 1441 1747 
Q 1441 1256 1702 982 
Q 1963 709 2431 709 
Q 2694 709 2930 787 
Q 3166 866 3366 1019 
L 3366 103 
Q 3103 6 2833 -42 
Q 2563 -91 2291 -91 
Q 1344 -91 809 395 
Q 275 881 275 1747 
Q 275 2613 809 3098 
Q 1344 3584 2291 3584 
Q 2566 3584 2833 3536 
Q 3100 3488 3366 3391 
z
" transform="scale(0.015625)"/>
      <path id="DejaVuSans-Bold-65" d="M 4031 1759 
L 4031 1441 
L 1416 1441 
Q 1456 1047 1700 850 
Q 1944 653 2381 653 
Q 2734 653 3104 758 
Q 3475 863 3866 1075 
L 3866 213 
Q 3469 63 3072 -14 
Q 2675 -91 2278 -91 
Q 1328 -91 801 392 
Q 275 875 275 1747 
Q 275 2603 792 3093 
Q 1309 3584 2216 3584 
Q 3041 3584 3536 3087 
Q 4031 2591 4031 1759 
z
M 2881 2131 
Q 2881 2450 2695 2645 
Q 2509 2841 2209 2841 
Q 1884 2841 1681 2658 
Q 1478 2475 1428 2131 
L 2881 2131 
z
" transform="scale(0.015625)"/>
     </defs>
     <use xlink:href="#DejaVuSans-Bold-53"/>
     <use xlink:href="#DejaVuSans-Bold-6f" transform="translate(72.021484 0)"/>
     <use xlink:href="#DejaVuSans-Bold-75" transform="translate(140.722656 0)"/>
     <use xlink:href="#DejaVuSans-Bold-72" transform="translate(211.914062 0)"/>
     <use xlink:href="#DejaVuSans-Bold-63" transform="translate(261.230469 0)"/>
     <use xlink:href="#DejaVuSans-Bold-65" transform="translate(320.507812 0)"/>
    </g>
   </g>
   <g id="patch_3">
    <path d="M 121.324399 138.24 
Q 154.024741 138.24 184.489016 138.24 
" style="fill: none; stroke: #3498db; stroke-width: 2; stroke-linecap: round"/>
    <path d="M 179.689016 135.84 
L 184.489016 138.24 
L 179.689016 140.64 
" style="fill: none; stroke: #3498db; stroke-width: 2; stroke-linecap: round"/>
   </g>
   <g id="text_2">
    <g id="patch_4">
     <path d="M 193.390889 151.246875 
L 248.135264 151.246875 
Q 255.335264 151.246875 255.335264 144.046875 
L 255.335264 132.433125 
Q 255.335264 125.233125 248.135264 125.233125 
L 193.390889 125.233125 
Q 186.190889 125.233125 186.190889 132.433125 
L 186.190889 144.046875 
Q 186.190889 151.246875 193.390889 151.246875 
z
" style="fill: #ffffff; stroke: #2c3e50; stroke-width: 2; stroke-linejoin: miter"/>
    </g>
    <!-- Encoder -->
    <g style="fill: #34495e" transform="translate(193.390889 141.55125) scale(0.12 -0.12)">
     <defs>
      <path id="DejaVuSans-Bold-45" d="M 588 4666 
L 3834 4666 
L 3834 3756 
L 1791 3756 
L 1791 2888 
L 3713 2888 
L 3713 1978 
L 1791 1978 
L 1791 909 
L 3903 909 
L 3903 0 
L 588 0 
L 588 4666 
z
" transform="scale(0.015625)"/>
      <path id="DejaVuSans-Bold-6e" d="M 4056 2131 
L 4056 0 
L 2931 0 
L 2931 347 
L 2931 1631 
Q 2931 2084 2911 2256 
Q 2891 2428 2841 2509 
Q 2775 2619 2662 2680 
Q 2550 2741 2406 2741 
Q 2056 2741 1856 2470 
Q 1656 2200 1656 1722 
L 1656 0 
L 538 0 
L 538 3500 
L 1656 3500 
L 1656 2988 
Q 1909 3294 2193 3439 
Q 2478 3584 2822 3584 
Q 3428 3584 3742 3212 
Q 4056 2841 4056 2131 
z
" transform="scale(0.015625)"/>
      <path id="DejaVuSans-Bold-64" d="M 2919 2988 
L 2919 4863 
L 4044 4863 
L 4044 0 
L 2919 0 
L 2919 506 
Q 2688 197 2409 53 
Q 2131 -91 1766 -91 
Q 1119 -91 703 423 
Q 288 938 288 1747 
Q 288 2556 703 3070 
Q 1119 3584 1766 3584 
Q 2128 3584 2408 3439 
Q 2688 3294 2919 2988 
z
M 2181 722 
Q 2541 722 2730 984 
Q 2919 1247 2919 1747 
Q 2919 2247 2730 2509 
Q 2541 2772 2181 2772 
Q 1825 2772 1636 2509 
Q 1447 2247 1447 1747 
Q 1447 1247 1636 984 
Q 1825 722 2181 722 
z
" transform="scale(0.015625)"/>
     </defs>
     <use xlink:href="#DejaVuSans-Bold-45"/>
     <use xlink:href="#DejaVuSans-Bold-6e" transform="translate(68.310547 0)"/>
     <use xlink:href="#DejaVuSans-Bold-63" transform="translate(139.501953 0)"/>
     <use xlink:href="#DejaVuSans-Bold-6f" transform="translate(198.779297 0)"/>
     <use xlink:href="#DejaVuSans-Bold-64" transform="translate(267.480469 0)"/>
     <use xlink:href="#DejaVuSans-Bold-65" transform="translate(339.0625 0)"/>
     <use xlink:href="#DejaVuSans-Bold-72" transform="translate(406.884766 0)"/>
    </g>
   </g>
   <g id="patch_5">
    <path d="M 254.801322 138.24 
Q 287.501665 138.24 317.965939 138.24 
" style="fill: none; stroke: #3498db; stroke-width: 2; stroke-linecap: round"/>
    <path d="M 313.165939 135.84 
L 317.965939 138.24 
L 313.165939 140.64 
" style="fill: none; stroke: #3498db; stroke-width: 2; stroke-linecap: round"/>
   </g>
   <g id="text_3">
    <g id="patch_6">
     <path d="M 326.847188 157.965562 
L 381.632812 157.965562 
Q 388.832812 157.965562 388.832812 150.765562 
L 388.832812 125.714437 
Q 388.832812 118.514437 381.632812 118.514437 
L 326.847188 118.514437 
Q 319.647188 118.514437 319.647188 125.714437 
L 319.647188 150.765562 
Q 319.647188 157.965562 326.847188 157.965562 
z
" style="fill: #ffffff; stroke: #2c3e50; stroke-width: 2; stroke-linejoin: miter"/>
    </g>
    <!-- Channel -->
    <g style="fill: #34495e" transform="translate(326.847188 134.832562) scale(0.12 -0.12)">
     <defs>
      <path id="DejaVuSans-Bold-43" d="M 4288 256 
Q 3956 84 3597 -3 
Q 3238 -91 2847 -91 
Q 1681 -91 1000 561 
Q 319 1213 319 2328 
Q 319 3447 1000 4098 
Q 1681 4750 2847 4750 
Q 3238 4750 3597 4662 
Q 3956 4575 4288 4403 
L 4288 3438 
Q 3953 3666 3628 3772 
Q 3303 3878 2944 3878 
Q 2300 3878 1931 3465 
Q 1563 3053 1563 2328 
Q 1563 1606 1931 1193 
Q 2300 781 2944 781 
Q 3303 781 3628 887 
Q 3953 994 4288 1222 
L 4288 256 
z
" transform="scale(0.015625)"/>
      <path id="DejaVuSans-Bold-68" d="M 4056 2131 
L 4056 0 
L 2931 0 
L 2931 347 
L 2931 1625 
Q 2931 2084 2911 2256 
Q 2891 2428 2841 2509 
Q 2775 2619 2662 2680 
Q 2550 2741 2406 2741 
Q 2056 2741 1856 2470 
Q 1656 2200 1656 1722 
L 1656 0 
L 538 0 
L 538 4863 
L 1656 4863 
L 1656 2988 
Q 1909 3294 2193 3439 
Q 2478 3584 2822 3584 
Q 3428 3584 3742 3212 
Q 4056 2841 4056 2131 
z
" transform="scale(0.015625)"/>
      <path id="DejaVuSans-Bold-61" d="M 2106 1575 
Q 1756 1575 1579 1456 
Q 1403 1338 1403 1106 
Q 1403 894 1545 773 
Q 1688 653 1941 653 
Q 2256 653 2472 879 
Q 2688 1106 2688 1447 
L 2688 1575 
L 2106 1575 
z
M 3816 1997 
L 3816 0 
L 2688 0 
L 2688 519 
Q 2463 200 2181 54 
Q 1900 -91 1497 -91 
Q 953 -91 614 226 
Q 275 544 275 1050 
Q 275 1666 698 1953 
Q 1122 2241 2028 2241 
L 2688 2241 
L 2688 2328 
Q 2688 2594 2478 2717 
Q 2269 2841 1825 2841 
Q 1466 2841 1156 2769 
Q 847 2697 581 2553 
L 581 3406 
Q 941 3494 1303 3539 
Q 1666 3584 2028 3584 
Q 2975 3584 3395 3211 
Q 3816 2838 3816 1997 
z
" transform="scale(0.015625)"/>
      <path id="DejaVuSans-Bold-6c" d="M 538 4863 
L 1656 4863 
L 1656 0 
L 538 0 
L 538 4863 
z
" transform="scale(0.015625)"/>
     </defs>
     <use xlink:href="#DejaVuSans-Bold-43"/>
     <use xlink:href="#DejaVuSans-Bold-68" transform="translate(73.388672 0)"/>
     <use xlink:href="#DejaVuSans-Bold-61" transform="translate(144.580078 0)"/>
     <use xlink:href="#DejaVuSans-Bold-6e" transform="translate(212.060547 0)"/>
     <use xlink:href="#DejaVuSans-Bold-6e" transform="translate(283.251953 0)"/>
     <use xlink:href="#DejaVuSans-Bold-65" transform="translate(354.443359 0)"/>
     <use xlink:href="#DejaVuSans-Bold-6c" transform="translate(422.265625 0)"/>
    </g>
    <!-- (Noise) -->
    <g style="fill: #34495e" transform="translate(329.914688 148.269937) scale(0.12 -0.12)">
     <defs>
      <path id="DejaVuSans-Bold-28" d="M 2413 -844 
L 1484 -844 
Q 1006 -72 778 623 
Q 550 1319 550 2003 
Q 550 2688 779 3389 
Q 1009 4091 1484 4856 
L 2413 4856 
Q 2013 4116 1813 3408 
Q 1613 2700 1613 2009 
Q 1613 1319 1811 609 
Q 2009 -100 2413 -844 
z
" transform="scale(0.015625)"/>
      <path id="DejaVuSans-Bold-4e" d="M 588 4666 
L 1931 4666 
L 3628 1466 
L 3628 4666 
L 4769 4666 
L 4769 0 
L 3425 0 
L 1728 3200 
L 1728 0 
L 588 0 
L 588 4666 
z
" transform="scale(0.015625)"/>
      <path id="DejaVuSans-Bold-69" d="M 538 3500 
L 1656 3500 
L 1656 0 
L 538 0 
L 538 3500 
z
M 538 4863 
L 1656 4863 
L 1656 3950 
L 538 3950 
L 538 4863 
z
" transform="scale(0.015625)"/>
      <path id="DejaVuSans-Bold-73" d="M 3272 3391 
L 3272 2541 
Q 2913 2691 2578 2766 
Q 2244 2841 1947 2841 
Q 1628 2841 1473 2761 
Q 1319 2681 1319 2516 
Q 1319 2381 1436 2309 
Q 1553 2238 1856 2203 
L 2053 2175 
Q 2913 2066 3209 1816 
Q 3506 1566 3506 1031 
Q 3506 472 3093 190 
Q 2681 -91 1863 -91 
Q 1516 -91 1145 -36 
Q 775 19 384 128 
L 384 978 
Q 719 816 1070 734 
Q 1422 653 1784 653 
Q 2113 653 2278 743 
Q 2444 834 2444 1013 
Q 2444 1163 2330 1236 
Q 2216 1309 1875 1350 
L 1678 1375 
Q 931 1469 631 1722 
Q 331 1975 331 2491 
Q 331 3047 712 3315 
Q 1094 3584 1881 3584 
Q 2191 3584 2531 3537 
Q 2872 3491 3272 3391 
z
" transform="scale(0.015625)"/>
      <path id="DejaVuSans-Bold-29" d="M 513 -844 
Q 913 -100 1113 609 
Q 1313 1319 1313 2009 
Q 1313 2700 1113 3408 
Q 913 4116 513 4856 
L 1441 4856 
Q 1916 4091 2145 3389 
Q 2375 2688 2375 2003 
Q 2375 1319 2147 623 
Q 1919 -72 1441 -844 
L 513 -844 
z
" transform="scale(0.015625)"/>
     </defs>
     <use xlink:href="#DejaVuSans-Bold-28"/>
     <use xlink:href="#DejaVuSans-Bold-4e" transform="translate(45.703125 0)"/>
     <use xlink:href="#DejaVuSans-Bold-6f" transform="translate(129.394531 0)"/>
     <use xlink:href="#DejaVuSans-Bold-69" transform="translate(198.095703 0)"/>
     <use xlink:href="#DejaVuSans-Bold-73" transform="translate(232.373047 0)"/>
     <use xlink:href="#DejaVuSans-Bold-65" transform="translate(291.894531 0)"/>
     <use xlink:href="#DejaVuSans-Bold-29" transform="translate(359.716797 0)"/>
    </g>
   </g>
   <g id="patch_7">
    <path d="M 388.278245 138.24 
Q 420.978588 138.24 451.442862 138.24 
" style="fill: none; stroke: #3498db; stroke-width: 2; stroke-linecap: round"/>
    <path d="M 446.642862 135.84 
L 451.442862 138.24 
L 446.642862 140.64 
" style="fill: none; stroke: #3498db; stroke-width: 2; stroke-linecap: round"/>
   </g>
   <g id="text_4">
    <g id="patch_8">
     <path d="M 459.664111 151.246875 
L 515.769736 151.246875 
Q 522.969736 151.246875 522.969736 144.046875 
L 522.969736 132.433125 
Q 522.969736 125.233125 515.769736 125.233125 
L 459.664111 125.233125 
Q 452.464111 125.233125 452.464111 132.433125 
L 452.464111 144.046875 
Q 452.464111 151.246875 459.664111 151.246875 
z
" style="fill: #ffffff; stroke: #2c3e50; stroke-width: 2; stroke-linejoin: miter"/>
    </g>
    <!-- Decoder -->
    <g style="fill: #34495e" transform="translate(459.664111 141.55125) scale(0.12 -0.12)">
     <defs>
      <path id="DejaVuSans-Bold-44" d="M 1791 3756 
L 1791 909 
L 2222 909 
Q 2959 909 3348 1275 
Q 3738 1641 3738 2338 
Q 3738 3031 3350 3393 
Q 2963 3756 2222 3756 
L 1791 3756 
z
M 588 4666 
L 1856 4666 
Q 2919 4666 3439 4514 
Q 3959 4363 4331 4000 
Q 4659 3684 4818 3271 
Q 4978 2859 4978 2338 
Q 4978 1809 4818 1395 
Q 4659 981 4331 666 
Q 3956 303 3431 151 
Q 2906 0 1856 0 
L 588 0 
L 588 4666 
z
" transform="scale(0.015625)"/>
     </defs>
     <use xlink:href="#DejaVuSans-Bold-44"/>
     <use xlink:href="#DejaVuSans-Bold-65" transform="translate(83.007812 0)"/>
     <use xlink:href="#DejaVuSans-Bold-63" transform="translate(150.830078 0)"/>
     <use xlink:href="#DejaVuSans-Bold-6f" transform="translate(210.107422 0)"/>
     <use xlink:href="#DejaVuSans-Bold-64" transform="translate(278.808594 0)"/>
     <use xlink:href="#DejaVuSans-Bold-65" transform="translate(350.390625 0)"/>
     <use xlink:href="#DejaVuSans-Bold-72" transform="translate(418.212891 0)"/>
    </g>
   </g>
   <g id="patch_9">
    <path d="M 521.755168 138.24 
Q 554.455511 138.24 584.919786 138.24 
" style="fill: none; stroke: #3498db; stroke-width: 2; stroke-linecap: round"/>
    <path d="M 580.119786 135.84 
L 584.919786 138.24 
L 580.119786 140.64 
" style="fill: none; stroke: #3498db; stroke-width: 2; stroke-linecap: round"/>
   </g>
   <g id="text_5">
    <g id="patch_10">
     <path d="M 582.009159 151.246875 
L 660.378534 151.246875 
Q 667.578534 151.246875 667.578534 144.046875 
L 667.578534 132.433125 
Q 667.578534 125.233125 660.378534 125.233125 
L 582.009159 125.233125 
Q 574.809159 125.233125 574.809159 132.433125 
L 574.809159 144.046875 
Q 574.809159 151.246875 582.009159 151.246875 
z
" style="fill: #ffffff; stroke: #2c3e50; stroke-width: 2; stroke-linejoin: miter"/>
    </g>
    <!-- Destination -->
    <g style="fill: #34495e" transform="translate(582.009159 141.55125) scale(0.12 -0.12)">
     <defs>
      <path id="DejaVuSans-Bold-74" d="M 1759 4494 
L 1759 3500 
L 2913 3500 
L 2913 2700 
L 1759 2700 
L 1759 1216 
Q 1759 972 1856 886 
Q 1953 800 2241 800 
L 2816 800 
L 2816 0 
L 1856 0 
Q 1194 0 917 276 
Q 641 553 641 1216 
L 641 2700 
L 84 2700 
L 84 3500 
L 641 3500 
L 641 4494 
L 1759 4494 
z
" transform="scale(0.015625)"/>
     </defs>
     <use xlink:href="#DejaVuSans-Bold-44"/>
     <use xlink:href="#DejaVuSans-Bold-65" transform="translate(83.007812 0)"/>
     <use xlink:href="#DejaVuSans-Bold-73" transform="translate(150.830078 0)"/>
     <use xlink:href="#DejaVuSans-Bold-74" transform="translate(210.351562 0)"/>
     <use xlink:href="#DejaVuSans-Bold-69" transform="translate(258.154297 0)"/>
     <use xlink:href="#DejaVuSans-Bold-6e" transform="translate(292.431641 0)"/>
     <use xlink:href="#DejaVuSans-Bold-61" transform="translate(363.623047 0)"/>
     <use xlink:href="#DejaVuSans-Bold-74" transform="translate(431.103516 0)"/>
     <use xlink:href="#DejaVuSans-Bold-69" transform="translate(478.90625 0)"/>
     <use xlink:href="#DejaVuSans-Bold-6f" transform="translate(513.183594 0)"/>
     <use xlink:href="#DejaVuSans-Bold-6e" transform="translate(581.884766 0)"/>
    </g>
   </g>
  </g>
 </g>
</svg>
