<?xml version="1.0" encoding="utf-8" standalone="no"?>
<!DOCTYPE svg PUBLIC "-//W3C//DTD SVG 1.1//EN"
  "http://www.w3.org/Graphics/SVG/1.1/DTD/svg11.dtd">
<svg xmlns:xlink="http://www.w3.org/1999/xlink" width="518.4pt" height="535.037812pt" viewBox="0 0 518.4 535.037812" xmlns="http://www.w3.org/2000/svg" version="1.1">
 <metadata>
  <rdf:RDF xmlns:dc="http://purl.org/dc/elements/1.1/" xmlns:cc="http://creativecommons.org/ns#" xmlns:rdf="http://www.w3.org/1999/02/22-rdf-syntax-ns#">
   <cc:Work>
    <dc:type rdf:resource="http://purl.org/dc/dcmitype/StillImage"/>
    <dc:date>2026-01-10T01:46:30.342165</dc:date>
    <dc:format>image/svg+xml</dc:format>
    <dc:creator>
     <cc:Agent>
      <dc:title>Matplotlib v3.10.8, https://matplotlib.org/</dc:title>
     </cc:Agent>
    </dc:creator>
   </cc:Work>
  </rdf:RDF>
 </metadata>
 <defs>
  <style type="text/css">*{stroke-linejoin: round; stroke-linecap: butt}</style>
 </defs>
 <g id="figure_1">
  <g id="patch_1">
   <path d="M 0 535.037812 
L 518.4 535.037812 
L 518.4 0 
L 0 0 
z
" style="fill: #ffffff"/>
  </g>
  <g id="axes_1">
   <g id="patch_2">
    <path d="M 70.192333 429.467325 
Q 61.516403 327.991712 53.030956 228.744039 
" clip-path="url(#p7e2a5a8136)" style="fill: none; stroke: #2c3e50; stroke-width: 2; stroke-linecap: round"/>
    <path d="M 49.726991 237.055706 
L 53.030956 228.744039 
L 57.697911 236.374211 
z
" clip-path="url(#p7e2a5a8136)" style="fill: #2c3e50; stroke: #2c3e50; stroke-width: 2; stroke-linecap: round"/>
   </g>
   <g id="patch_3">
    <path d="M 69.27245 191.433902 
Q 148.812734 135.903982 226.519556 81.654068 
" clip-path="url(#p7e2a5a8136)" style="fill: none; stroke: #2c3e50; stroke-width: 2; stroke-linecap: round"/>
    <path d="M 217.670217 82.953759 
L 226.519556 81.654068 
L 222.249705 89.513354 
z
" clip-path="url(#p7e2a5a8136)" style="fill: #2c3e50; stroke: #2c3e50; stroke-width: 2; stroke-linecap: round"/>
   </g>
   <g id="patch_4">
    <path d="M 267.517703 75.713074 
Q 357.07668 110.711447 444.55297 144.895935 
" clip-path="url(#p7e2a5a8136)" style="fill: none; stroke: #2c3e50; stroke-width: 2; stroke-linecap: round"/>
    <path d="M 438.557639 138.258465 
L 444.55297 144.895935 
L 435.645795 145.709718 
z
" clip-path="url(#p7e2a5a8136)" style="fill: #2c3e50; stroke: #2c3e50; stroke-width: 2; stroke-linecap: round"/>
   </g>
   <g id="patch_5">
    <path d="M 464.305151 175.985349 
Q 450.595564 272.042475 437.201915 365.885965 
" clip-path="url(#p7e2a5a8136)" style="fill: none; stroke: #2c3e50; stroke-width: 2; stroke-linecap: round"/>
    <path d="M 442.292119 358.531386 
L 437.201915 365.885965 
L 434.372375 357.401054 
z
" clip-path="url(#p7e2a5a8136)" style="fill: #2c3e50; stroke: #2c3e50; stroke-width: 2; stroke-linecap: round"/>
   </g>
   <g id="patch_6">
    <path d="M 413.562782 399.904751 
Q 335.85336 437.169633 260.160166 473.46765 
" clip-path="url(#p7e2a5a8136)" style="fill: none; stroke: #2c3e50; stroke-width: 2; stroke-linecap: round"/>
    <path d="M 269.10322 473.615228 
L 260.160166 473.46765 
L 265.644061 466.401753 
z
" clip-path="url(#p7e2a5a8136)" style="fill: #2c3e50; stroke: #2c3e50; stroke-width: 2; stroke-linecap: round"/>
   </g>
   <g id="patch_7">
    <path d="M 216.035252 479.82127 
Q 155.041206 467.924386 96.241869 456.45558 
" clip-path="url(#p7e2a5a8136)" style="fill: none; stroke: #2c3e50; stroke-width: 2; stroke-linecap: round"/>
    <path d="M 103.328131 461.913133 
L 96.241869 456.45558 
L 104.859669 454.061102 
z
" clip-path="url(#p7e2a5a8136)" style="fill: #2c3e50; stroke: #2c3e50; stroke-width: 2; stroke-linecap: round"/>
   </g>
   <g id="PathCollection_1">
    <defs>
     <path id="m4cbf73ff63" d="M 0 22.36068 
C 5.930122 22.36068 11.618159 20.004617 15.811388 15.811388 
C 20.004617 11.618159 22.36068 5.930122 22.36068 0 
C 22.36068 -5.930122 20.004617 -11.618159 15.811388 -15.811388 
C 11.618159 -20.004617 5.930122 -22.36068 0 -22.36068 
C -5.930122 -22.36068 -11.618159 -20.004617 -15.811388 -15.811388 
C -20.004617 -11.618159 -22.36068 -5.930122 -22.36068 0 
C -22.36068 5.930122 -20.004617 11.618159 -15.811388 15.811388 
C -11.618159 20.004617 -5.930122 22.36068 0 22.36068 
z
" style="stroke: #27ae60"/>
    </defs>
    <g clip-path="url(#p7e2a5a8136)">
     <use xlink:href="#m4cbf73ff63" x="72.097121" y="451.746148" style="fill: #27ae60; stroke: #27ae60"/>
     <use xlink:href="#m4cbf73ff63" x="50.935537" y="204.235558" style="fill: #27ae60; stroke: #27ae60"/>
     <use xlink:href="#m4cbf73ff63" x="246.688582" y="67.57335" style="fill: #27ae60; stroke: #27ae60"/>
     <use xlink:href="#m4cbf73ff63" x="467.464463" y="153.84942" style="fill: #27ae60; stroke: #27ae60"/>
     <use xlink:href="#m4cbf73ff63" x="433.726696" y="390.235321" style="fill: #27ae60; stroke: #27ae60"/>
     <use xlink:href="#m4cbf73ff63" x="237.983507" y="484.102275" style="fill: #27ae60; stroke: #27ae60"/>
    </g>
   </g>
   <g id="text_1">
    <g clip-path="url(#p7e2a5a8136)">
     <!-- ATG -->
     <g transform="translate(61.100246 454.505523) scale(0.1 -0.1)">
      <defs>
       <path id="DejaVuSans-Bold-41" d="M 3419 850 
L 1538 850 
L 1241 0 
L 31 0 
L 1759 4666 
L 3194 4666 
L 4922 0 
L 3713 0 
L 3419 850 
z
M 1838 1716 
L 3116 1716 
L 2478 3572 
L 1838 1716 
z
" transform="scale(0.015625)"/>
       <path id="DejaVuSans-Bold-54" d="M 31 4666 
L 4331 4666 
L 4331 3756 
L 2784 3756 
L 2784 0 
L 1581 0 
L 1581 3756 
L 31 3756 
L 31 4666 
z
" transform="scale(0.015625)"/>
       <path id="DejaVuSans-Bold-47" d="M 4781 347 
Q 4331 128 3847 18 
Q 3363 -91 2847 -91 
Q 1681 -91 1000 561 
Q 319 1213 319 2328 
Q 319 3456 1012 4103 
Q 1706 4750 2913 4750 
Q 3378 4750 3804 4662 
Q 4231 4575 4609 4403 
L 4609 3438 
Q 4219 3659 3833 3768 
Q 3447 3878 3059 3878 
Q 2341 3878 1952 3476 
Q 1563 3075 1563 2328 
Q 1563 1588 1938 1184 
Q 2313 781 3003 781 
Q 3191 781 3352 804 
Q 3513 828 3641 878 
L 3641 1784 
L 2906 1784 
L 2906 2591 
L 4781 2591 
L 4781 347 
z
" transform="scale(0.015625)"/>
      </defs>
      <use xlink:href="#DejaVuSans-Bold-41"/>
      <use xlink:href="#DejaVuSans-Bold-54" transform="translate(69.642578 0)"/>
      <use xlink:href="#DejaVuSans-Bold-47" transform="translate(137.855469 0)"/>
     </g>
    </g>
   </g>
   <g id="text_2">
    <g clip-path="url(#p7e2a5a8136)">
     <!-- TGC -->
     <g transform="translate(39.751162 206.994933) scale(0.1 -0.1)">
      <defs>
       <path id="DejaVuSans-Bold-43" d="M 4288 256 
Q 3956 84 3597 -3 
Q 3238 -91 2847 -91 
Q 1681 -91 1000 561 
Q 319 1213 319 2328 
Q 319 3447 1000 4098 
Q 1681 4750 2847 4750 
Q 3238 4750 3597 4662 
Q 3956 4575 4288 4403 
L 4288 3438 
Q 3953 3666 3628 3772 
Q 3303 3878 2944 3878 
Q 2300 3878 1931 3465 
Q 1563 3053 1563 2328 
Q 1563 1606 1931 1193 
Q 2300 781 2944 781 
Q 3303 781 3628 887 
Q 3953 994 4288 1222 
L 4288 256 
z
" transform="scale(0.015625)"/>
      </defs>
      <use xlink:href="#DejaVuSans-Bold-54"/>
      <use xlink:href="#DejaVuSans-Bold-47" transform="translate(68.212891 0)"/>
      <use xlink:href="#DejaVuSans-Bold-43" transform="translate(150.292969 0)"/>
     </g>
    </g>
   </g>
   <g id="text_3">
    <g clip-path="url(#p7e2a5a8136)">
     <!-- GCG -->
     <g transform="translate(234.811238 70.332725) scale(0.1 -0.1)">
      <use xlink:href="#DejaVuSans-Bold-47"/>
      <use xlink:href="#DejaVuSans-Bold-43" transform="translate(82.080078 0)"/>
      <use xlink:href="#DejaVuSans-Bold-47" transform="translate(155.46875 0)"/>
     </g>
    </g>
   </g>
   <g id="text_4">
    <g clip-path="url(#p7e2a5a8136)">
     <!-- CGT -->
     <g transform="translate(456.367588 156.608795) scale(0.1 -0.1)">
      <use xlink:href="#DejaVuSans-Bold-43"/>
      <use xlink:href="#DejaVuSans-Bold-47" transform="translate(73.388672 0)"/>
      <use xlink:href="#DejaVuSans-Bold-54" transform="translate(153.71875 0)"/>
     </g>
    </g>
   </g>
   <g id="text_5">
    <g clip-path="url(#p7e2a5a8136)">
     <!-- GTA -->
     <g transform="translate(422.817321 392.994696) scale(0.1 -0.1)">
      <use xlink:href="#DejaVuSans-Bold-47"/>
      <use xlink:href="#DejaVuSans-Bold-54" transform="translate(80.330078 0)"/>
      <use xlink:href="#DejaVuSans-Bold-41" transform="translate(140.792969 0)"/>
     </g>
    </g>
   </g>
   <g id="text_6">
    <g clip-path="url(#p7e2a5a8136)">
     <!-- TAC -->
     <g transform="translate(227.421007 486.86165) scale(0.1 -0.1)">
      <use xlink:href="#DejaVuSans-Bold-54"/>
      <use xlink:href="#DejaVuSans-Bold-41" transform="translate(60.462891 0)"/>
      <use xlink:href="#DejaVuSans-Bold-43" transform="translate(137.855469 0)"/>
     </g>
    </g>
   </g>
   <g id="text_7">
    <!-- De Bruijn Graph: Cycles and Repeats -->
    <g style="fill: #34495e" transform="translate(114.176406 17.837812) scale(0.14 -0.14)">
     <defs>
      <path id="DejaVuSans-Bold-44" d="M 1791 3756 
L 1791 909 
L 2222 909 
Q 2959 909 3348 1275 
Q 3738 1641 3738 2338 
Q 3738 3031 3350 3393 
Q 2963 3756 2222 3756 
L 1791 3756 
z
M 588 4666 
L 1856 4666 
Q 2919 4666 3439 4514 
Q 3959 4363 4331 4000 
Q 4659 3684 4818 3271 
Q 4978 2859 4978 2338 
Q 4978 1809 4818 1395 
Q 4659 981 4331 666 
Q 3956 303 3431 151 
Q 2906 0 1856 0 
L 588 0 
L 588 4666 
z
" transform="scale(0.015625)"/>
      <path id="DejaVuSans-Bold-65" d="M 4031 1759 
L 4031 1441 
L 1416 1441 
Q 1456 1047 1700 850 
Q 1944 653 2381 653 
Q 2734 653 3104 758 
Q 3475 863 3866 1075 
L 3866 213 
Q 3469 63 3072 -14 
Q 2675 -91 2278 -91 
Q 1328 -91 801 392 
Q 275 875 275 1747 
Q 275 2603 792 3093 
Q 1309 3584 2216 3584 
Q 3041 3584 3536 3087 
Q 4031 2591 4031 1759 
z
M 2881 2131 
Q 2881 2450 2695 2645 
Q 2509 2841 2209 2841 
Q 1884 2841 1681 2658 
Q 1478 2475 1428 2131 
L 2881 2131 
z
" transform="scale(0.015625)"/>
      <path id="DejaVuSans-Bold-20" transform="scale(0.015625)"/>
      <path id="DejaVuSans-Bold-42" d="M 2456 2859 
Q 2741 2859 2887 2984 
Q 3034 3109 3034 3353 
Q 3034 3594 2887 3720 
Q 2741 3847 2456 3847 
L 1791 3847 
L 1791 2859 
L 2456 2859 
z
M 2497 819 
Q 2859 819 3042 972 
Q 3225 1125 3225 1434 
Q 3225 1738 3044 1889 
Q 2863 2041 2497 2041 
L 1791 2041 
L 1791 819 
L 2497 819 
z
M 3616 2497 
Q 4003 2384 4215 2081 
Q 4428 1778 4428 1338 
Q 4428 663 3972 331 
Q 3516 0 2584 0 
L 588 0 
L 588 4666 
L 2394 4666 
Q 3366 4666 3802 4372 
Q 4238 4078 4238 3431 
Q 4238 3091 4078 2852 
Q 3919 2613 3616 2497 
z
" transform="scale(0.015625)"/>
      <path id="DejaVuSans-Bold-72" d="M 3138 2547 
Q 2991 2616 2845 2648 
Q 2700 2681 2553 2681 
Q 2122 2681 1889 2404 
Q 1656 2128 1656 1613 
L 1656 0 
L 538 0 
L 538 3500 
L 1656 3500 
L 1656 2925 
Q 1872 3269 2151 3426 
Q 2431 3584 2822 3584 
Q 2878 3584 2943 3579 
Q 3009 3575 3134 3559 
L 3138 2547 
z
" transform="scale(0.015625)"/>
      <path id="DejaVuSans-Bold-75" d="M 500 1363 
L 500 3500 
L 1625 3500 
L 1625 3150 
Q 1625 2866 1622 2436 
Q 1619 2006 1619 1863 
Q 1619 1441 1641 1255 
Q 1663 1069 1716 984 
Q 1784 875 1895 815 
Q 2006 756 2150 756 
Q 2500 756 2700 1025 
Q 2900 1294 2900 1772 
L 2900 3500 
L 4019 3500 
L 4019 0 
L 2900 0 
L 2900 506 
Q 2647 200 2364 54 
Q 2081 -91 1741 -91 
Q 1134 -91 817 281 
Q 500 653 500 1363 
z
" transform="scale(0.015625)"/>
      <path id="DejaVuSans-Bold-69" d="M 538 3500 
L 1656 3500 
L 1656 0 
L 538 0 
L 538 3500 
z
M 538 4863 
L 1656 4863 
L 1656 3950 
L 538 3950 
L 538 4863 
z
" transform="scale(0.015625)"/>
      <path id="DejaVuSans-Bold-6a" d="M 538 3500 
L 1656 3500 
L 1656 63 
Q 1656 -641 1318 -1011 
Q 981 -1381 341 -1381 
L -213 -1381 
L -213 -647 
L -19 -647 
Q 300 -647 419 -503 
Q 538 -359 538 63 
L 538 3500 
z
M 538 4863 
L 1656 4863 
L 1656 3950 
L 538 3950 
L 538 4863 
z
" transform="scale(0.015625)"/>
      <path id="DejaVuSans-Bold-6e" d="M 4056 2131 
L 4056 0 
L 2931 0 
L 2931 347 
L 2931 1631 
Q 2931 2084 2911 2256 
Q 2891 2428 2841 2509 
Q 2775 2619 2662 2680 
Q 2550 2741 2406 2741 
Q 2056 2741 1856 2470 
Q 1656 2200 1656 1722 
L 1656 0 
L 538 0 
L 538 3500 
L 1656 3500 
L 1656 2988 
Q 1909 3294 2193 3439 
Q 2478 3584 2822 3584 
Q 3428 3584 3742 3212 
Q 4056 2841 4056 2131 
z
" transform="scale(0.015625)"/>
      <path id="DejaVuSans-Bold-61" d="M 2106 1575 
Q 1756 1575 1579 1456 
Q 1403 1338 1403 1106 
Q 1403 894 1545 773 
Q 1688 653 1941 653 
Q 2256 653 2472 879 
Q 2688 1106 2688 1447 
L 2688 1575 
L 2106 1575 
z
M 3816 1997 
L 3816 0 
L 2688 0 
L 2688 519 
Q 2463 200 2181 54 
Q 1900 -91 1497 -91 
Q 953 -91 614 226 
Q 275 544 275 1050 
Q 275 1666 698 1953 
Q 1122 2241 2028 2241 
L 2688 2241 
L 2688 2328 
Q 2688 2594 2478 2717 
Q 2269 2841 1825 2841 
Q 1466 2841 1156 2769 
Q 847 2697 581 2553 
L 581 3406 
Q 941 3494 1303 3539 
Q 1666 3584 2028 3584 
Q 2975 3584 3395 3211 
Q 3816 2838 3816 1997 
z
" transform="scale(0.015625)"/>
      <path id="DejaVuSans-Bold-70" d="M 1656 506 
L 1656 -1331 
L 538 -1331 
L 538 3500 
L 1656 3500 
L 1656 2988 
Q 1888 3294 2169 3439 
Q 2450 3584 2816 3584 
Q 3463 3584 3878 3070 
Q 4294 2556 4294 1747 
Q 4294 938 3878 423 
Q 3463 -91 2816 -91 
Q 2450 -91 2169 54 
Q 1888 200 1656 506 
z
M 2400 2772 
Q 2041 2772 1848 2508 
Q 1656 2244 1656 1747 
Q 1656 1250 1848 986 
Q 2041 722 2400 722 
Q 2759 722 2948 984 
Q 3138 1247 3138 1747 
Q 3138 2247 2948 2509 
Q 2759 2772 2400 2772 
z
" transform="scale(0.015625)"/>
      <path id="DejaVuSans-Bold-68" d="M 4056 2131 
L 4056 0 
L 2931 0 
L 2931 347 
L 2931 1625 
Q 2931 2084 2911 2256 
Q 2891 2428 2841 2509 
Q 2775 2619 2662 2680 
Q 2550 2741 2406 2741 
Q 2056 2741 1856 2470 
Q 1656 2200 1656 1722 
L 1656 0 
L 538 0 
L 538 4863 
L 1656 4863 
L 1656 2988 
Q 1909 3294 2193 3439 
Q 2478 3584 2822 3584 
Q 3428 3584 3742 3212 
Q 4056 2841 4056 2131 
z
" transform="scale(0.015625)"/>
      <path id="DejaVuSans-Bold-3a" d="M 716 3500 
L 1844 3500 
L 1844 2291 
L 716 2291 
L 716 3500 
z
M 716 1209 
L 1844 1209 
L 1844 0 
L 716 0 
L 716 1209 
z
" transform="scale(0.015625)"/>
      <path id="DejaVuSans-Bold-79" d="M 78 3500 
L 1197 3500 
L 2138 1125 
L 2938 3500 
L 4056 3500 
L 2584 -331 
Q 2363 -916 2067 -1148 
Q 1772 -1381 1288 -1381 
L 641 -1381 
L 641 -647 
L 991 -647 
Q 1275 -647 1404 -556 
Q 1534 -466 1606 -231 
L 1638 -134 
L 78 3500 
z
" transform="scale(0.015625)"/>
      <path id="DejaVuSans-Bold-63" d="M 3366 3391 
L 3366 2478 
Q 3138 2634 2908 2709 
Q 2678 2784 2431 2784 
Q 1963 2784 1702 2511 
Q 1441 2238 1441 1747 
Q 1441 1256 1702 982 
Q 1963 709 2431 709 
Q 2694 709 2930 787 
Q 3166 866 3366 1019 
L 3366 103 
Q 3103 6 2833 -42 
Q 2563 -91 2291 -91 
Q 1344 -91 809 395 
Q 275 881 275 1747 
Q 275 2613 809 3098 
Q 1344 3584 2291 3584 
Q 2566 3584 2833 3536 
Q 3100 3488 3366 3391 
z
" transform="scale(0.015625)"/>
      <path id="DejaVuSans-Bold-6c" d="M 538 4863 
L 1656 4863 
L 1656 0 
L 538 0 
L 538 4863 
z
" transform="scale(0.015625)"/>
      <path id="DejaVuSans-Bold-73" d="M 3272 3391 
L 3272 2541 
Q 2913 2691 2578 2766 
Q 2244 2841 1947 2841 
Q 1628 2841 1473 2761 
Q 1319 2681 1319 2516 
Q 1319 2381 1436 2309 
Q 1553 2238 1856 2203 
L 2053 2175 
Q 2913 2066 3209 1816 
Q 3506 1566 3506 1031 
Q 3506 472 3093 190 
Q 2681 -91 1863 -91 
Q 1516 -91 1145 -36 
Q 775 19 384 128 
L 384 978 
Q 719 816 1070 734 
Q 1422 653 1784 653 
Q 2113 653 2278 743 
Q 2444 834 2444 1013 
Q 2444 1163 2330 1236 
Q 2216 1309 1875 1350 
L 1678 1375 
Q 931 1469 631 1722 
Q 331 1975 331 2491 
Q 331 3047 712 3315 
Q 1094 3584 1881 3584 
Q 2191 3584 2531 3537 
Q 2872 3491 3272 3391 
z
" transform="scale(0.015625)"/>
      <path id="DejaVuSans-Bold-64" d="M 2919 2988 
L 2919 4863 
L 4044 4863 
L 4044 0 
L 2919 0 
L 2919 506 
Q 2688 197 2409 53 
Q 2131 -91 1766 -91 
Q 1119 -91 703 423 
Q 288 938 288 1747 
Q 288 2556 703 3070 
Q 1119 3584 1766 3584 
Q 2128 3584 2408 3439 
Q 2688 3294 2919 2988 
z
M 2181 722 
Q 2541 722 2730 984 
Q 2919 1247 2919 1747 
Q 2919 2247 2730 2509 
Q 2541 2772 2181 2772 
Q 1825 2772 1636 2509 
Q 1447 2247 1447 1747 
Q 1447 1247 1636 984 
Q 1825 722 2181 722 
z
" transform="scale(0.015625)"/>
      <path id="DejaVuSans-Bold-52" d="M 2297 2597 
Q 2675 2597 2839 2737 
Q 3003 2878 3003 3200 
Q 3003 3519 2839 3656 
Q 2675 3794 2297 3794 
L 1791 3794 
L 1791 2597 
L 2297 2597 
z
M 1791 1766 
L 1791 0 
L 588 0 
L 588 4666 
L 2425 4666 
Q 3347 4666 3776 4356 
Q 4206 4047 4206 3378 
Q 4206 2916 3982 2619 
Q 3759 2322 3309 2181 
Q 3556 2125 3751 1926 
Q 3947 1728 4147 1325 
L 4800 0 
L 3519 0 
L 2950 1159 
Q 2778 1509 2601 1637 
Q 2425 1766 2131 1766 
L 1791 1766 
z
" transform="scale(0.015625)"/>
      <path id="DejaVuSans-Bold-74" d="M 1759 4494 
L 1759 3500 
L 2913 3500 
L 2913 2700 
L 1759 2700 
L 1759 1216 
Q 1759 972 1856 886 
Q 1953 800 2241 800 
L 2816 800 
L 2816 0 
L 1856 0 
Q 1194 0 917 276 
Q 641 553 641 1216 
L 641 2700 
L 84 2700 
L 84 3500 
L 641 3500 
L 641 4494 
L 1759 4494 
z
" transform="scale(0.015625)"/>
     </defs>
     <use xlink:href="#DejaVuSans-Bold-44"/>
     <use xlink:href="#DejaVuSans-Bold-65" transform="translate(83.007812 0)"/>
     <use xlink:href="#DejaVuSans-Bold-20" transform="translate(150.830078 0)"/>
     <use xlink:href="#DejaVuSans-Bold-42" transform="translate(185.644531 0)"/>
     <use xlink:href="#DejaVuSans-Bold-72" transform="translate(261.865234 0)"/>
     <use xlink:href="#DejaVuSans-Bold-75" transform="translate(311.181641 0)"/>
     <use xlink:href="#DejaVuSans-Bold-69" transform="translate(382.373047 0)"/>
     <use xlink:href="#DejaVuSans-Bold-6a" transform="translate(416.650391 0)"/>
     <use xlink:href="#DejaVuSans-Bold-6e" transform="translate(450.927734 0)"/>
     <use xlink:href="#DejaVuSans-Bold-20" transform="translate(522.119141 0)"/>
     <use xlink:href="#DejaVuSans-Bold-47" transform="translate(556.933594 0)"/>
     <use xlink:href="#DejaVuSans-Bold-72" transform="translate(639.013672 0)"/>
     <use xlink:href="#DejaVuSans-Bold-61" transform="translate(688.330078 0)"/>
     <use xlink:href="#DejaVuSans-Bold-70" transform="translate(755.810547 0)"/>
     <use xlink:href="#DejaVuSans-Bold-68" transform="translate(827.392578 0)"/>
     <use xlink:href="#DejaVuSans-Bold-3a" transform="translate(898.583984 0)"/>
     <use xlink:href="#DejaVuSans-Bold-20" transform="translate(938.574219 0)"/>
     <use xlink:href="#DejaVuSans-Bold-43" transform="translate(973.388672 0)"/>
     <use xlink:href="#DejaVuSans-Bold-79" transform="translate(1046.777344 0)"/>
     <use xlink:href="#DejaVuSans-Bold-63" transform="translate(1111.962891 0)"/>
     <use xlink:href="#DejaVuSans-Bold-6c" transform="translate(1171.240234 0)"/>
     <use xlink:href="#DejaVuSans-Bold-65" transform="translate(1205.517578 0)"/>
     <use xlink:href="#DejaVuSans-Bold-73" transform="translate(1273.339844 0)"/>
     <use xlink:href="#DejaVuSans-Bold-20" transform="translate(1332.861328 0)"/>
     <use xlink:href="#DejaVuSans-Bold-61" transform="translate(1367.675781 0)"/>
     <use xlink:href="#DejaVuSans-Bold-6e" transform="translate(1435.15625 0)"/>
     <use xlink:href="#DejaVuSans-Bold-64" transform="translate(1506.347656 0)"/>
     <use xlink:href="#DejaVuSans-Bold-20" transform="translate(1577.929688 0)"/>
     <use xlink:href="#DejaVuSans-Bold-52" transform="translate(1612.744141 0)"/>
     <use xlink:href="#DejaVuSans-Bold-65" transform="translate(1689.746094 0)"/>
     <use xlink:href="#DejaVuSans-Bold-70" transform="translate(1757.568359 0)"/>
     <use xlink:href="#DejaVuSans-Bold-65" transform="translate(1829.150391 0)"/>
     <use xlink:href="#DejaVuSans-Bold-61" transform="translate(1896.972656 0)"/>
     <use xlink:href="#DejaVuSans-Bold-74" transform="translate(1964.453125 0)"/>
     <use xlink:href="#DejaVuSans-Bold-73" transform="translate(2012.255859 0)"/>
    </g>
   </g>
  </g>
 </g>
 <defs>
  <clipPath id="p7e2a5a8136">
   <rect x="7.2" y="23.837812" width="504" height="504"/>
  </clipPath>
 </defs>
</svg>
