<?xml version="1.0" encoding="utf-8" standalone="no"?>
<!DOCTYPE svg PUBLIC "-//W3C//DTD SVG 1.1//EN"
  "http://www.w3.org/Graphics/SVG/1.1/DTD/svg11.dtd">
<svg xmlns:xlink="http://www.w3.org/1999/xlink" width="734.4pt" height="391.037812pt" viewBox="0 0 734.4 391.037812" xmlns="http://www.w3.org/2000/svg" version="1.1">
 <metadata>
  <rdf:RDF xmlns:dc="http://purl.org/dc/elements/1.1/" xmlns:cc="http://creativecommons.org/ns#" xmlns:rdf="http://www.w3.org/1999/02/22-rdf-syntax-ns#">
   <cc:Work>
    <dc:type rdf:resource="http://purl.org/dc/dcmitype/StillImage"/>
    <dc:date>2026-01-10T01:46:30.473832</dc:date>
    <dc:format>image/svg+xml</dc:format>
    <dc:creator>
     <cc:Agent>
      <dc:title>Matplotlib v3.10.8, https://matplotlib.org/</dc:title>
     </cc:Agent>
    </dc:creator>
   </cc:Work>
  </rdf:RDF>
 </metadata>
 <defs>
  <style type="text/css">*{stroke-linejoin: round; stroke-linecap: butt}</style>
 </defs>
 <g id="figure_1">
  <g id="patch_1">
   <path d="M 0 391.037812 
L 734.4 391.037812 
L 734.4 0 
L 0 0 
z
" style="fill: #ffffff"/>
  </g>
  <g id="axes_1">
   <g id="patch_2">
    <path d="M 92.040148 66.257887 
Q 218.441285 129.458455 342.842422 191.659024 
" clip-path="url(#pbb2e120c6a)" style="fill: none; stroke: #000000; stroke-width: 2; stroke-linecap: round"/>
    <path d="M 336.134218 182.714752 
L 342.842422 191.659024 
L 331.662082 191.659024 
z
" clip-path="url(#pbb2e120c6a)" style="stroke: #000000; stroke-width: 2; stroke-linecap: round"/>
   </g>
   <g id="patch_3">
    <path d="M 389.56081 192.657408 
Q 515.961947 129.456839 640.363083 67.256271 
" clip-path="url(#pbb2e120c6a)" style="fill: none; stroke: #000000; stroke-width: 2; stroke-linecap: round"/>
    <path d="M 629.182744 67.256271 
L 640.363083 67.256271 
L 633.65488 76.200543 
z
" clip-path="url(#pbb2e120c6a)" style="stroke: #000000; stroke-width: 2; stroke-linecap: round"/>
   </g>
   <g id="patch_4">
    <path d="M 389.56081 215.018217 
Q 515.961947 278.218786 640.363083 340.419354 
" clip-path="url(#pbb2e120c6a)" style="fill: none; stroke: #000000; stroke-width: 2; stroke-linecap: round"/>
    <path d="M 633.65488 331.475082 
L 640.363083 340.419354 
L 629.182744 340.419354 
z
" clip-path="url(#pbb2e120c6a)" style="stroke: #000000; stroke-width: 2; stroke-linecap: round"/>
   </g>
   <g id="patch_5">
    <path d="M 92.040148 341.417738 
Q 218.441285 278.21717 342.842422 216.016601 
" clip-path="url(#pbb2e120c6a)" style="fill: none; stroke: #000000; stroke-width: 2; stroke-linecap: round"/>
    <path d="M 331.662082 216.016601 
L 342.842422 216.016601 
L 336.134218 224.960873 
z
" clip-path="url(#pbb2e120c6a)" style="stroke: #000000; stroke-width: 2; stroke-linecap: round"/>
   </g>
   <g id="PathCollection_1">
    <defs>
     <path id="C0_0_e66814c309" d="M 0 25 
C 6.630078 25 12.989497 22.365842 17.67767 17.67767 
C 22.365842 12.989497 25 6.630078 25 -0 
C 25 -6.630078 22.365842 -12.989497 17.67767 -17.67767 
C 12.989497 -22.365842 6.630078 -25 0 -25 
C -6.630078 -25 -12.989497 -22.365842 -17.67767 -17.67767 
C -22.365842 -12.989497 -25 -6.630078 -25 0 
C -25 6.630078 -22.365842 12.989497 -17.67767 17.67767 
C -12.989497 22.365842 -6.630078 25 0 25 
z
"/>
    </defs>
    <g clip-path="url(#pbb2e120c6a)">
     <use xlink:href="#C0_0_e66814c309" x="69.679339" y="55.077482" style="fill: #2c3e50; stroke: #2c3e50"/>
    </g>
    <g clip-path="url(#pbb2e120c6a)">
     <use xlink:href="#C0_0_e66814c309" x="367.2" y="203.837812" style="fill: #2c3e50; stroke: #2c3e50"/>
    </g>
    <g clip-path="url(#pbb2e120c6a)">
     <use xlink:href="#C0_0_e66814c309" x="69.679339" y="352.598143" style="fill: #e74c3c; stroke: #e74c3c"/>
    </g>
    <g clip-path="url(#pbb2e120c6a)">
     <use xlink:href="#C0_0_e66814c309" x="664.720661" y="55.077482" style="fill: #2c3e50; stroke: #2c3e50"/>
    </g>
    <g clip-path="url(#pbb2e120c6a)">
     <use xlink:href="#C0_0_e66814c309" x="664.720661" y="352.598143" style="fill: #2c3e50; stroke: #2c3e50"/>
    </g>
   </g>
   <g id="text_1">
    <g clip-path="url(#pbb2e120c6a)">
     <!-- U1 -->
     <g style="fill: #ffffff" transform="translate(60.632464 58.388732) scale(0.12 -0.12)">
      <defs>
       <path id="DejaVuSans-Bold-55" d="M 588 4666 
L 1791 4666 
L 1791 1869 
Q 1791 1291 1980 1042 
Q 2169 794 2597 794 
Q 3028 794 3217 1042 
Q 3406 1291 3406 1869 
L 3406 4666 
L 4609 4666 
L 4609 1869 
Q 4609 878 4112 393 
Q 3616 -91 2597 -91 
Q 1581 -91 1084 393 
Q 588 878 588 1869 
L 588 4666 
z
" transform="scale(0.015625)"/>
       <path id="DejaVuSans-Bold-31" d="M 750 831 
L 1813 831 
L 1813 3847 
L 722 3622 
L 722 4441 
L 1806 4666 
L 2950 4666 
L 2950 831 
L 4013 831 
L 4013 0 
L 750 0 
L 750 831 
z
" transform="scale(0.015625)"/>
      </defs>
      <use xlink:href="#DejaVuSans-Bold-55"/>
      <use xlink:href="#DejaVuSans-Bold-31" transform="translate(81.201172 0)"/>
     </g>
    </g>
   </g>
   <g id="text_2">
    <g clip-path="url(#pbb2e120c6a)">
     <!-- REPEAT -->
     <g style="fill: #ffffff" transform="translate(341.713125 207.149062) scale(0.12 -0.12)">
      <defs>
       <path id="DejaVuSans-Bold-52" d="M 2297 2597 
Q 2675 2597 2839 2737 
Q 3003 2878 3003 3200 
Q 3003 3519 2839 3656 
Q 2675 3794 2297 3794 
L 1791 3794 
L 1791 2597 
L 2297 2597 
z
M 1791 1766 
L 1791 0 
L 588 0 
L 588 4666 
L 2425 4666 
Q 3347 4666 3776 4356 
Q 4206 4047 4206 3378 
Q 4206 2916 3982 2619 
Q 3759 2322 3309 2181 
Q 3556 2125 3751 1926 
Q 3947 1728 4147 1325 
L 4800 0 
L 3519 0 
L 2950 1159 
Q 2778 1509 2601 1637 
Q 2425 1766 2131 1766 
L 1791 1766 
z
" transform="scale(0.015625)"/>
       <path id="DejaVuSans-Bold-45" d="M 588 4666 
L 3834 4666 
L 3834 3756 
L 1791 3756 
L 1791 2888 
L 3713 2888 
L 3713 1978 
L 1791 1978 
L 1791 909 
L 3903 909 
L 3903 0 
L 588 0 
L 588 4666 
z
" transform="scale(0.015625)"/>
       <path id="DejaVuSans-Bold-50" d="M 588 4666 
L 2584 4666 
Q 3475 4666 3951 4270 
Q 4428 3875 4428 3144 
Q 4428 2409 3951 2014 
Q 3475 1619 2584 1619 
L 1791 1619 
L 1791 0 
L 588 0 
L 588 4666 
z
M 1791 3794 
L 1791 2491 
L 2456 2491 
Q 2806 2491 2997 2661 
Q 3188 2831 3188 3144 
Q 3188 3456 2997 3625 
Q 2806 3794 2456 3794 
L 1791 3794 
z
" transform="scale(0.015625)"/>
       <path id="DejaVuSans-Bold-41" d="M 3419 850 
L 1538 850 
L 1241 0 
L 31 0 
L 1759 4666 
L 3194 4666 
L 4922 0 
L 3713 0 
L 3419 850 
z
M 1838 1716 
L 3116 1716 
L 2478 3572 
L 1838 1716 
z
" transform="scale(0.015625)"/>
       <path id="DejaVuSans-Bold-54" d="M 31 4666 
L 4331 4666 
L 4331 3756 
L 2784 3756 
L 2784 0 
L 1581 0 
L 1581 3756 
L 31 3756 
L 31 4666 
z
" transform="scale(0.015625)"/>
      </defs>
      <use xlink:href="#DejaVuSans-Bold-52"/>
      <use xlink:href="#DejaVuSans-Bold-45" transform="translate(77.001953 0)"/>
      <use xlink:href="#DejaVuSans-Bold-50" transform="translate(145.3125 0)"/>
      <use xlink:href="#DejaVuSans-Bold-45" transform="translate(218.603516 0)"/>
      <use xlink:href="#DejaVuSans-Bold-41" transform="translate(286.914062 0)"/>
      <use xlink:href="#DejaVuSans-Bold-54" transform="translate(356.556641 0)"/>
     </g>
    </g>
   </g>
   <g id="text_3">
    <g clip-path="url(#pbb2e120c6a)">
     <!-- U2 -->
     <g style="fill: #ffffff" transform="translate(60.632464 355.909393) scale(0.12 -0.12)">
      <defs>
       <path id="DejaVuSans-Bold-32" d="M 1844 884 
L 3897 884 
L 3897 0 
L 506 0 
L 506 884 
L 2209 2388 
Q 2438 2594 2547 2791 
Q 2656 2988 2656 3200 
Q 2656 3528 2436 3728 
Q 2216 3928 1850 3928 
Q 1569 3928 1234 3808 
Q 900 3688 519 3450 
L 519 4475 
Q 925 4609 1322 4679 
Q 1719 4750 2100 4750 
Q 2938 4750 3402 4381 
Q 3866 4013 3866 3353 
Q 3866 2972 3669 2642 
Q 3472 2313 2841 1759 
L 1844 884 
z
" transform="scale(0.015625)"/>
      </defs>
      <use xlink:href="#DejaVuSans-Bold-55"/>
      <use xlink:href="#DejaVuSans-Bold-32" transform="translate(81.201172 0)"/>
     </g>
    </g>
   </g>
   <g id="text_4">
    <g clip-path="url(#pbb2e120c6a)">
     <!-- U3 -->
     <g style="fill: #ffffff" transform="translate(655.673786 58.388732) scale(0.12 -0.12)">
      <defs>
       <path id="DejaVuSans-Bold-33" d="M 2981 2516 
Q 3453 2394 3698 2092 
Q 3944 1791 3944 1325 
Q 3944 631 3412 270 
Q 2881 -91 1863 -91 
Q 1503 -91 1142 -33 
Q 781 25 428 141 
L 428 1069 
Q 766 900 1098 814 
Q 1431 728 1753 728 
Q 2231 728 2486 893 
Q 2741 1059 2741 1369 
Q 2741 1688 2480 1852 
Q 2219 2016 1709 2016 
L 1228 2016 
L 1228 2791 
L 1734 2791 
Q 2188 2791 2409 2933 
Q 2631 3075 2631 3366 
Q 2631 3634 2415 3781 
Q 2200 3928 1806 3928 
Q 1516 3928 1219 3862 
Q 922 3797 628 3669 
L 628 4550 
Q 984 4650 1334 4700 
Q 1684 4750 2022 4750 
Q 2931 4750 3382 4451 
Q 3834 4153 3834 3553 
Q 3834 3144 3618 2883 
Q 3403 2622 2981 2516 
z
" transform="scale(0.015625)"/>
      </defs>
      <use xlink:href="#DejaVuSans-Bold-55"/>
      <use xlink:href="#DejaVuSans-Bold-33" transform="translate(81.201172 0)"/>
     </g>
    </g>
   </g>
   <g id="text_5">
    <g clip-path="url(#pbb2e120c6a)">
     <!-- U4 -->
     <g style="fill: #ffffff" transform="translate(655.673786 355.909393) scale(0.12 -0.12)">
      <defs>
       <path id="DejaVuSans-Bold-34" d="M 2356 3675 
L 1038 1722 
L 2356 1722 
L 2356 3675 
z
M 2156 4666 
L 3494 4666 
L 3494 1722 
L 4159 1722 
L 4159 850 
L 3494 850 
L 3494 0 
L 2356 0 
L 2356 850 
L 288 850 
L 288 1881 
L 2156 4666 
z
" transform="scale(0.015625)"/>
      </defs>
      <use xlink:href="#DejaVuSans-Bold-55"/>
      <use xlink:href="#DejaVuSans-Bold-34" transform="translate(81.201172 0)"/>
     </g>
    </g>
   </g>
   <g id="text_6">
    <!-- The Repeat Bottleneck: Topological Ambiguity -->
    <g style="fill: #34495e" transform="translate(184.868594 17.837812) scale(0.14 -0.14)">
     <defs>
      <path id="DejaVuSans-Bold-68" d="M 4056 2131 
L 4056 0 
L 2931 0 
L 2931 347 
L 2931 1625 
Q 2931 2084 2911 2256 
Q 2891 2428 2841 2509 
Q 2775 2619 2662 2680 
Q 2550 2741 2406 2741 
Q 2056 2741 1856 2470 
Q 1656 2200 1656 1722 
L 1656 0 
L 538 0 
L 538 4863 
L 1656 4863 
L 1656 2988 
Q 1909 3294 2193 3439 
Q 2478 3584 2822 3584 
Q 3428 3584 3742 3212 
Q 4056 2841 4056 2131 
z
" transform="scale(0.015625)"/>
      <path id="DejaVuSans-Bold-65" d="M 4031 1759 
L 4031 1441 
L 1416 1441 
Q 1456 1047 1700 850 
Q 1944 653 2381 653 
Q 2734 653 3104 758 
Q 3475 863 3866 1075 
L 3866 213 
Q 3469 63 3072 -14 
Q 2675 -91 2278 -91 
Q 1328 -91 801 392 
Q 275 875 275 1747 
Q 275 2603 792 3093 
Q 1309 3584 2216 3584 
Q 3041 3584 3536 3087 
Q 4031 2591 4031 1759 
z
M 2881 2131 
Q 2881 2450 2695 2645 
Q 2509 2841 2209 2841 
Q 1884 2841 1681 2658 
Q 1478 2475 1428 2131 
L 2881 2131 
z
" transform="scale(0.015625)"/>
      <path id="DejaVuSans-Bold-20" transform="scale(0.015625)"/>
      <path id="DejaVuSans-Bold-70" d="M 1656 506 
L 1656 -1331 
L 538 -1331 
L 538 3500 
L 1656 3500 
L 1656 2988 
Q 1888 3294 2169 3439 
Q 2450 3584 2816 3584 
Q 3463 3584 3878 3070 
Q 4294 2556 4294 1747 
Q 4294 938 3878 423 
Q 3463 -91 2816 -91 
Q 2450 -91 2169 54 
Q 1888 200 1656 506 
z
M 2400 2772 
Q 2041 2772 1848 2508 
Q 1656 2244 1656 1747 
Q 1656 1250 1848 986 
Q 2041 722 2400 722 
Q 2759 722 2948 984 
Q 3138 1247 3138 1747 
Q 3138 2247 2948 2509 
Q 2759 2772 2400 2772 
z
" transform="scale(0.015625)"/>
      <path id="DejaVuSans-Bold-61" d="M 2106 1575 
Q 1756 1575 1579 1456 
Q 1403 1338 1403 1106 
Q 1403 894 1545 773 
Q 1688 653 1941 653 
Q 2256 653 2472 879 
Q 2688 1106 2688 1447 
L 2688 1575 
L 2106 1575 
z
M 3816 1997 
L 3816 0 
L 2688 0 
L 2688 519 
Q 2463 200 2181 54 
Q 1900 -91 1497 -91 
Q 953 -91 614 226 
Q 275 544 275 1050 
Q 275 1666 698 1953 
Q 1122 2241 2028 2241 
L 2688 2241 
L 2688 2328 
Q 2688 2594 2478 2717 
Q 2269 2841 1825 2841 
Q 1466 2841 1156 2769 
Q 847 2697 581 2553 
L 581 3406 
Q 941 3494 1303 3539 
Q 1666 3584 2028 3584 
Q 2975 3584 3395 3211 
Q 3816 2838 3816 1997 
z
" transform="scale(0.015625)"/>
      <path id="DejaVuSans-Bold-74" d="M 1759 4494 
L 1759 3500 
L 2913 3500 
L 2913 2700 
L 1759 2700 
L 1759 1216 
Q 1759 972 1856 886 
Q 1953 800 2241 800 
L 2816 800 
L 2816 0 
L 1856 0 
Q 1194 0 917 276 
Q 641 553 641 1216 
L 641 2700 
L 84 2700 
L 84 3500 
L 641 3500 
L 641 4494 
L 1759 4494 
z
" transform="scale(0.015625)"/>
      <path id="DejaVuSans-Bold-42" d="M 2456 2859 
Q 2741 2859 2887 2984 
Q 3034 3109 3034 3353 
Q 3034 3594 2887 3720 
Q 2741 3847 2456 3847 
L 1791 3847 
L 1791 2859 
L 2456 2859 
z
M 2497 819 
Q 2859 819 3042 972 
Q 3225 1125 3225 1434 
Q 3225 1738 3044 1889 
Q 2863 2041 2497 2041 
L 1791 2041 
L 1791 819 
L 2497 819 
z
M 3616 2497 
Q 4003 2384 4215 2081 
Q 4428 1778 4428 1338 
Q 4428 663 3972 331 
Q 3516 0 2584 0 
L 588 0 
L 588 4666 
L 2394 4666 
Q 3366 4666 3802 4372 
Q 4238 4078 4238 3431 
Q 4238 3091 4078 2852 
Q 3919 2613 3616 2497 
z
" transform="scale(0.015625)"/>
      <path id="DejaVuSans-Bold-6f" d="M 2203 2784 
Q 1831 2784 1636 2517 
Q 1441 2250 1441 1747 
Q 1441 1244 1636 976 
Q 1831 709 2203 709 
Q 2569 709 2762 976 
Q 2956 1244 2956 1747 
Q 2956 2250 2762 2517 
Q 2569 2784 2203 2784 
z
M 2203 3584 
Q 3106 3584 3614 3096 
Q 4122 2609 4122 1747 
Q 4122 884 3614 396 
Q 3106 -91 2203 -91 
Q 1297 -91 786 396 
Q 275 884 275 1747 
Q 275 2609 786 3096 
Q 1297 3584 2203 3584 
z
" transform="scale(0.015625)"/>
      <path id="DejaVuSans-Bold-6c" d="M 538 4863 
L 1656 4863 
L 1656 0 
L 538 0 
L 538 4863 
z
" transform="scale(0.015625)"/>
      <path id="DejaVuSans-Bold-6e" d="M 4056 2131 
L 4056 0 
L 2931 0 
L 2931 347 
L 2931 1631 
Q 2931 2084 2911 2256 
Q 2891 2428 2841 2509 
Q 2775 2619 2662 2680 
Q 2550 2741 2406 2741 
Q 2056 2741 1856 2470 
Q 1656 2200 1656 1722 
L 1656 0 
L 538 0 
L 538 3500 
L 1656 3500 
L 1656 2988 
Q 1909 3294 2193 3439 
Q 2478 3584 2822 3584 
Q 3428 3584 3742 3212 
Q 4056 2841 4056 2131 
z
" transform="scale(0.015625)"/>
      <path id="DejaVuSans-Bold-63" d="M 3366 3391 
L 3366 2478 
Q 3138 2634 2908 2709 
Q 2678 2784 2431 2784 
Q 1963 2784 1702 2511 
Q 1441 2238 1441 1747 
Q 1441 1256 1702 982 
Q 1963 709 2431 709 
Q 2694 709 2930 787 
Q 3166 866 3366 1019 
L 3366 103 
Q 3103 6 2833 -42 
Q 2563 -91 2291 -91 
Q 1344 -91 809 395 
Q 275 881 275 1747 
Q 275 2613 809 3098 
Q 1344 3584 2291 3584 
Q 2566 3584 2833 3536 
Q 3100 3488 3366 3391 
z
" transform="scale(0.015625)"/>
      <path id="DejaVuSans-Bold-6b" d="M 538 4863 
L 1656 4863 
L 1656 2216 
L 2944 3500 
L 4244 3500 
L 2534 1894 
L 4378 0 
L 3022 0 
L 1656 1459 
L 1656 0 
L 538 0 
L 538 4863 
z
" transform="scale(0.015625)"/>
      <path id="DejaVuSans-Bold-3a" d="M 716 3500 
L 1844 3500 
L 1844 2291 
L 716 2291 
L 716 3500 
z
M 716 1209 
L 1844 1209 
L 1844 0 
L 716 0 
L 716 1209 
z
" transform="scale(0.015625)"/>
      <path id="DejaVuSans-Bold-67" d="M 2919 594 
Q 2688 288 2409 144 
Q 2131 0 1766 0 
Q 1125 0 706 504 
Q 288 1009 288 1791 
Q 288 2575 706 3076 
Q 1125 3578 1766 3578 
Q 2131 3578 2409 3434 
Q 2688 3291 2919 2981 
L 2919 3500 
L 4044 3500 
L 4044 353 
Q 4044 -491 3511 -936 
Q 2978 -1381 1966 -1381 
Q 1638 -1381 1331 -1331 
Q 1025 -1281 716 -1178 
L 716 -306 
Q 1009 -475 1290 -558 
Q 1572 -641 1856 -641 
Q 2406 -641 2662 -400 
Q 2919 -159 2919 353 
L 2919 594 
z
M 2181 2772 
Q 1834 2772 1640 2515 
Q 1447 2259 1447 1791 
Q 1447 1309 1634 1061 
Q 1822 813 2181 813 
Q 2531 813 2725 1069 
Q 2919 1325 2919 1791 
Q 2919 2259 2725 2515 
Q 2531 2772 2181 2772 
z
" transform="scale(0.015625)"/>
      <path id="DejaVuSans-Bold-69" d="M 538 3500 
L 1656 3500 
L 1656 0 
L 538 0 
L 538 3500 
z
M 538 4863 
L 1656 4863 
L 1656 3950 
L 538 3950 
L 538 4863 
z
" transform="scale(0.015625)"/>
      <path id="DejaVuSans-Bold-6d" d="M 3781 2919 
Q 3994 3244 4286 3414 
Q 4578 3584 4928 3584 
Q 5531 3584 5847 3212 
Q 6163 2841 6163 2131 
L 6163 0 
L 5038 0 
L 5038 1825 
Q 5041 1866 5042 1909 
Q 5044 1953 5044 2034 
Q 5044 2406 4934 2573 
Q 4825 2741 4581 2741 
Q 4263 2741 4089 2478 
Q 3916 2216 3909 1719 
L 3909 0 
L 2784 0 
L 2784 1825 
Q 2784 2406 2684 2573 
Q 2584 2741 2328 2741 
Q 2006 2741 1831 2477 
Q 1656 2213 1656 1722 
L 1656 0 
L 531 0 
L 531 3500 
L 1656 3500 
L 1656 2988 
Q 1863 3284 2130 3434 
Q 2397 3584 2719 3584 
Q 3081 3584 3359 3409 
Q 3638 3234 3781 2919 
z
" transform="scale(0.015625)"/>
      <path id="DejaVuSans-Bold-62" d="M 2400 722 
Q 2759 722 2948 984 
Q 3138 1247 3138 1747 
Q 3138 2247 2948 2509 
Q 2759 2772 2400 2772 
Q 2041 2772 1848 2508 
Q 1656 2244 1656 1747 
Q 1656 1250 1848 986 
Q 2041 722 2400 722 
z
M 1656 2988 
Q 1888 3294 2169 3439 
Q 2450 3584 2816 3584 
Q 3463 3584 3878 3070 
Q 4294 2556 4294 1747 
Q 4294 938 3878 423 
Q 3463 -91 2816 -91 
Q 2450 -91 2169 54 
Q 1888 200 1656 506 
L 1656 0 
L 538 0 
L 538 4863 
L 1656 4863 
L 1656 2988 
z
" transform="scale(0.015625)"/>
      <path id="DejaVuSans-Bold-75" d="M 500 1363 
L 500 3500 
L 1625 3500 
L 1625 3150 
Q 1625 2866 1622 2436 
Q 1619 2006 1619 1863 
Q 1619 1441 1641 1255 
Q 1663 1069 1716 984 
Q 1784 875 1895 815 
Q 2006 756 2150 756 
Q 2500 756 2700 1025 
Q 2900 1294 2900 1772 
L 2900 3500 
L 4019 3500 
L 4019 0 
L 2900 0 
L 2900 506 
Q 2647 200 2364 54 
Q 2081 -91 1741 -91 
Q 1134 -91 817 281 
Q 500 653 500 1363 
z
" transform="scale(0.015625)"/>
      <path id="DejaVuSans-Bold-79" d="M 78 3500 
L 1197 3500 
L 2138 1125 
L 2938 3500 
L 4056 3500 
L 2584 -331 
Q 2363 -916 2067 -1148 
Q 1772 -1381 1288 -1381 
L 641 -1381 
L 641 -647 
L 991 -647 
Q 1275 -647 1404 -556 
Q 1534 -466 1606 -231 
L 1638 -134 
L 78 3500 
z
" transform="scale(0.015625)"/>
     </defs>
     <use xlink:href="#DejaVuSans-Bold-54"/>
     <use xlink:href="#DejaVuSans-Bold-68" transform="translate(68.212891 0)"/>
     <use xlink:href="#DejaVuSans-Bold-65" transform="translate(139.404297 0)"/>
     <use xlink:href="#DejaVuSans-Bold-20" transform="translate(207.226562 0)"/>
     <use xlink:href="#DejaVuSans-Bold-52" transform="translate(242.041016 0)"/>
     <use xlink:href="#DejaVuSans-Bold-65" transform="translate(319.042969 0)"/>
     <use xlink:href="#DejaVuSans-Bold-70" transform="translate(386.865234 0)"/>
     <use xlink:href="#DejaVuSans-Bold-65" transform="translate(458.447266 0)"/>
     <use xlink:href="#DejaVuSans-Bold-61" transform="translate(526.269531 0)"/>
     <use xlink:href="#DejaVuSans-Bold-74" transform="translate(593.75 0)"/>
     <use xlink:href="#DejaVuSans-Bold-20" transform="translate(641.552734 0)"/>
     <use xlink:href="#DejaVuSans-Bold-42" transform="translate(676.367188 0)"/>
     <use xlink:href="#DejaVuSans-Bold-6f" transform="translate(752.587891 0)"/>
     <use xlink:href="#DejaVuSans-Bold-74" transform="translate(821.289062 0)"/>
     <use xlink:href="#DejaVuSans-Bold-74" transform="translate(869.091797 0)"/>
     <use xlink:href="#DejaVuSans-Bold-6c" transform="translate(916.894531 0)"/>
     <use xlink:href="#DejaVuSans-Bold-65" transform="translate(951.171875 0)"/>
     <use xlink:href="#DejaVuSans-Bold-6e" transform="translate(1018.994141 0)"/>
     <use xlink:href="#DejaVuSans-Bold-65" transform="translate(1090.185547 0)"/>
     <use xlink:href="#DejaVuSans-Bold-63" transform="translate(1158.007812 0)"/>
     <use xlink:href="#DejaVuSans-Bold-6b" transform="translate(1217.285156 0)"/>
     <use xlink:href="#DejaVuSans-Bold-3a" transform="translate(1283.789062 0)"/>
     <use xlink:href="#DejaVuSans-Bold-20" transform="translate(1323.779297 0)"/>
     <use xlink:href="#DejaVuSans-Bold-54" transform="translate(1358.59375 0)"/>
     <use xlink:href="#DejaVuSans-Bold-6f" transform="translate(1413.556641 0)"/>
     <use xlink:href="#DejaVuSans-Bold-70" transform="translate(1482.257812 0)"/>
     <use xlink:href="#DejaVuSans-Bold-6f" transform="translate(1553.839844 0)"/>
     <use xlink:href="#DejaVuSans-Bold-6c" transform="translate(1622.541016 0)"/>
     <use xlink:href="#DejaVuSans-Bold-6f" transform="translate(1656.818359 0)"/>
     <use xlink:href="#DejaVuSans-Bold-67" transform="translate(1725.519531 0)"/>
     <use xlink:href="#DejaVuSans-Bold-69" transform="translate(1797.101562 0)"/>
     <use xlink:href="#DejaVuSans-Bold-63" transform="translate(1831.378906 0)"/>
     <use xlink:href="#DejaVuSans-Bold-61" transform="translate(1890.65625 0)"/>
     <use xlink:href="#DejaVuSans-Bold-6c" transform="translate(1958.136719 0)"/>
     <use xlink:href="#DejaVuSans-Bold-20" transform="translate(1992.414062 0)"/>
     <use xlink:href="#DejaVuSans-Bold-41" transform="translate(2027.228516 0)"/>
     <use xlink:href="#DejaVuSans-Bold-6d" transform="translate(2104.621094 0)"/>
     <use xlink:href="#DejaVuSans-Bold-62" transform="translate(2208.820312 0)"/>
     <use xlink:href="#DejaVuSans-Bold-69" transform="translate(2280.402344 0)"/>
     <use xlink:href="#DejaVuSans-Bold-67" transform="translate(2314.679688 0)"/>
     <use xlink:href="#DejaVuSans-Bold-75" transform="translate(2386.261719 0)"/>
     <use xlink:href="#DejaVuSans-Bold-69" transform="translate(2457.453125 0)"/>
     <use xlink:href="#DejaVuSans-Bold-74" transform="translate(2491.730469 0)"/>
     <use xlink:href="#DejaVuSans-Bold-79" transform="translate(2539.533203 0)"/>
    </g>
   </g>
  </g>
 </g>
 <defs>
  <clipPath id="pbb2e120c6a">
   <rect x="7.2" y="23.837812" width="720" height="360"/>
  </clipPath>
 </defs>
</svg>
