<?xml version="1.0" encoding="utf-8" standalone="no"?>
<!DOCTYPE svg PUBLIC "-//W3C//DTD SVG 1.1//EN"
  "http://www.w3.org/Graphics/SVG/1.1/DTD/svg11.dtd">
<svg xmlns:xlink="http://www.w3.org/1999/xlink" width="576pt" height="288pt" viewBox="0 0 576 288" xmlns="http://www.w3.org/2000/svg" version="1.1">
 <metadata>
  <rdf:RDF xmlns:dc="http://purl.org/dc/elements/1.1/" xmlns:cc="http://creativecommons.org/ns#" xmlns:rdf="http://www.w3.org/1999/02/22-rdf-syntax-ns#">
   <cc:Work>
    <dc:type rdf:resource="http://purl.org/dc/dcmitype/StillImage"/>
    <dc:date>2026-01-10T00:54:11.662191</dc:date>
    <dc:format>image/svg+xml</dc:format>
    <dc:creator>
     <cc:Agent>
      <dc:title>Matplotlib v3.10.8, https://matplotlib.org/</dc:title>
     </cc:Agent>
    </dc:creator>
   </cc:Work>
  </rdf:RDF>
 </metadata>
 <defs>
  <style type="text/css">*{stroke-linejoin: round; stroke-linecap: butt}</style>
 </defs>
 <g id="figure_1">
  <g id="patch_1">
   <path d="M 0 288 
L 576 288 
L 576 0 
L 0 0 
z
" style="fill: #ffffff"/>
  </g>
  <g id="axes_1">
   <g id="patch_2">
    <path d="M 47.855 246.04 
L 548.558182 246.04 
L 548.558182 26.16 
L 47.855 26.16 
z
" style="fill: #ffffff"/>
   </g>
   <g id="FillBetweenPolyCollection_1">
    <defs>
     <path id="mbff82d0c6f" d="M 70.614236 -51.954545 
L 70.614236 -51.954568 
L 71.069876 -51.954569 
L 71.525516 -51.954571 
L 71.981157 -51.954573 
L 72.436797 -51.954574 
L 72.892437 -51.954576 
L 73.348078 -51.954578 
L 73.803718 -51.954581 
L 74.259358 -51.954583 
L 74.714999 -51.954585 
L 75.170639 -51.954588 
L 75.626279 -51.954591 
L 76.08192 -51.954594 
L 76.53756 -51.954597 
L 76.9932 -51.9546 
L 77.448841 -51.954603 
L 77.904481 -51.954607 
L 78.360122 -51.954611 
L 78.815762 -51.954615 
L 79.271402 -51.95462 
L 79.727043 -51.954624 
L 80.182683 -51.954629 
L 80.638323 -51.954635 
L 81.093964 -51.95464 
L 81.549604 -51.954646 
L 82.005244 -51.954653 
L 82.460885 -51.954659 
L 82.916525 -51.954667 
L 83.372165 -51.954674 
L 83.827806 -51.954682 
L 84.283446 -51.954691 
L 84.739086 -51.9547 
L 85.194727 -51.954709 
L 85.650367 -51.954719 
L 86.106007 -51.95473 
L 86.561648 -51.954741 
L 87.017288 -51.954753 
L 87.472929 -51.954766 
L 87.928569 -51.954779 
L 88.384209 -51.954794 
L 88.83985 -51.954809 
L 89.29549 -51.954825 
L 89.75113 -51.954842 
L 90.206771 -51.954859 
L 90.662411 -51.954878 
L 91.118051 -51.954898 
L 91.573692 -51.95492 
L 92.029332 -51.954942 
L 92.484972 -51.954966 
L 92.940613 -51.954991 
L 93.396253 -51.955017 
L 93.851893 -51.955045 
L 94.307534 -51.955075 
L 94.763174 -51.955106 
L 95.218814 -51.955139 
L 95.674455 -51.955174 
L 96.130095 -51.95521 
L 96.585736 -51.955249 
L 97.041376 -51.95529 
L 97.497016 -51.955334 
L 97.952657 -51.955379 
L 98.408297 -51.955428 
L 98.863937 -51.955479 
L 99.319578 -51.955533 
L 99.775218 -51.955589 
L 100.230858 -51.955649 
L 100.686499 -51.955712 
L 101.142139 -51.955779 
L 101.597779 -51.955849 
L 102.05342 -51.955923 
L 102.50906 -51.956002 
L 102.9647 -51.956084 
L 103.420341 -51.956171 
L 103.875981 -51.956262 
L 104.331622 -51.956359 
L 104.787262 -51.95646 
L 105.242902 -51.956567 
L 105.698543 -51.95668 
L 106.154183 -51.956799 
L 106.609823 -51.956924 
L 107.065464 -51.957055 
L 107.521104 -51.957194 
L 107.976744 -51.95734 
L 108.432385 -51.957493 
L 108.888025 -51.957655 
L 109.343665 -51.957825 
L 109.799306 -51.958004 
L 110.254946 -51.958192 
L 110.710586 -51.95839 
L 111.166227 -51.958598 
L 111.621867 -51.958817 
L 112.077507 -51.959047 
L 112.533148 -51.959288 
L 112.988788 -51.959543 
L 113.444429 -51.95981 
L 113.900069 -51.96009 
L 114.355709 -51.960385 
L 114.81135 -51.960695 
L 115.26699 -51.96102 
L 115.72263 -51.961362 
L 116.178271 -51.961721 
L 116.633911 -51.962098 
L 117.089551 -51.962493 
L 117.545192 -51.962908 
L 118.000832 -51.963344 
L 118.456472 -51.963801 
L 118.912113 -51.964281 
L 119.367753 -51.964784 
L 119.823393 -51.965312 
L 120.279034 -51.965866 
L 120.734674 -51.966447 
L 121.190315 -51.967055 
L 121.645955 -51.967694 
L 122.101595 -51.968363 
L 122.557236 -51.969064 
L 123.012876 -51.969799 
L 123.468516 -51.970569 
L 123.924157 -51.971376 
L 124.379797 -51.972221 
L 124.835437 -51.973106 
L 125.291078 -51.974033 
L 125.746718 -51.975004 
L 126.202358 -51.97602 
L 126.657999 -51.977084 
L 127.113639 -51.978198 
L 127.569279 -51.979363 
L 128.02492 -51.980582 
L 128.48056 -51.981858 
L 128.9362 -51.983193 
L 129.391841 -51.984589 
L 129.847481 -51.986049 
L 130.303122 -51.987576 
L 130.758762 -51.989172 
L 131.214402 -51.990841 
L 131.670043 -51.992586 
L 132.125683 -51.994409 
L 132.581323 -51.996314 
L 133.036964 -51.998304 
L 133.492604 -52.000384 
L 133.948244 -52.002556 
L 134.403885 -52.004825 
L 134.859525 -52.007194 
L 135.315165 -52.009668 
L 135.770806 -52.012251 
L 136.226446 -52.014946 
L 136.682086 -52.01776 
L 137.137727 -52.020696 
L 137.593367 -52.02376 
L 138.049007 -52.026957 
L 138.504648 -52.030291 
L 138.960288 -52.033769 
L 139.415929 -52.037395 
L 139.871569 -52.041177 
L 140.327209 -52.04512 
L 140.78285 -52.049229 
L 141.23849 -52.053513 
L 141.69413 -52.057977 
L 142.149771 -52.062629 
L 142.605411 -52.067476 
L 143.061051 -52.072524 
L 143.516692 -52.077783 
L 143.972332 -52.083259 
L 144.427972 -52.088962 
L 144.883613 -52.094899 
L 145.339253 -52.101079 
L 145.794893 -52.107513 
L 146.250534 -52.114208 
L 146.706174 -52.121175 
L 147.161815 -52.128423 
L 147.617455 -52.135964 
L 148.073095 -52.143807 
L 148.528736 -52.151964 
L 148.984376 -52.160446 
L 149.440016 -52.169265 
L 149.895657 -52.178433 
L 150.351297 -52.187963 
L 150.806937 -52.197867 
L 151.262578 -52.208159 
L 151.718218 -52.218852 
L 152.173858 -52.22996 
L 152.629499 -52.241499 
L 153.085139 -52.253483 
L 153.540779 -52.265927 
L 153.99642 -52.278848 
L 154.45206 -52.292262 
L 154.9077 -52.306185 
L 155.363341 -52.320636 
L 155.818981 -52.335631 
L 156.274622 -52.35119 
L 156.730262 -52.367331 
L 157.185902 -52.384074 
L 157.641543 -52.401438 
L 158.097183 -52.419445 
L 158.552823 -52.438116 
L 159.008464 -52.457471 
L 159.464104 -52.477535 
L 159.919744 -52.498329 
L 160.375385 -52.519877 
L 160.831025 -52.542204 
L 161.286665 -52.565334 
L 161.742306 -52.589294 
L 162.197946 -52.614108 
L 162.653586 -52.639805 
L 163.109227 -52.666411 
L 163.564867 -52.693956 
L 164.020508 -52.722468 
L 164.476148 -52.751977 
L 164.931788 -52.782514 
L 165.387429 -52.81411 
L 165.843069 -52.846798 
L 166.298709 -52.880609 
L 166.75435 -52.915579 
L 167.20999 -52.951741 
L 167.66563 -52.989132 
L 168.121271 -53.027786 
L 168.576911 -53.067742 
L 169.032551 -53.109038 
L 169.488192 -53.151712 
L 169.943832 -53.195804 
L 170.399472 -53.241355 
L 170.855113 -53.288406 
L 171.310753 -53.337 
L 171.766393 -53.387182 
L 172.222034 -53.438994 
L 172.677674 -53.492483 
L 173.133315 -53.547694 
L 173.588955 -53.604677 
L 174.044595 -53.663478 
L 174.500236 -53.724147 
L 174.955876 -53.786735 
L 175.411516 -53.851294 
L 175.867157 -53.917876 
L 176.322797 -53.986534 
L 176.778437 -54.057323 
L 177.234078 -54.1303 
L 177.689718 -54.20552 
L 178.145358 -54.283043 
L 178.600999 -54.362926 
L 179.056639 -54.44523 
L 179.512279 -54.530017 
L 179.96792 -54.617348 
L 180.42356 -54.707288 
L 180.879201 -54.7999 
L 181.334841 -54.895252 
L 181.790481 -54.993408 
L 182.246122 -55.094439 
L 182.701762 -55.198412 
L 183.157402 -55.305398 
L 183.613043 -55.415469 
L 184.068683 -55.528697 
L 184.524323 -55.645156 
L 184.979964 -55.764921 
L 185.435604 -55.888067 
L 185.891244 -56.014674 
L 186.346885 -56.144817 
L 186.802525 -56.278578 
L 187.258165 -56.416036 
L 187.713806 -56.557274 
L 188.169446 -56.702374 
L 188.625086 -56.85142 
L 189.080727 -57.004497 
L 189.536367 -57.161692 
L 189.992008 -57.323091 
L 190.447648 -57.488782 
L 190.903288 -57.658857 
L 191.358929 -57.833403 
L 191.814569 -58.012514 
L 192.270209 -58.196281 
L 192.72585 -58.384797 
L 193.18149 -58.578158 
L 193.63713 -58.776458 
L 194.092771 -58.979794 
L 194.548411 -59.188263 
L 195.004051 -59.401962 
L 195.459692 -59.620992 
L 195.915332 -59.845451 
L 196.370972 -60.07544 
L 196.826613 -60.31106 
L 197.282253 -60.552415 
L 197.737893 -60.799605 
L 198.193534 -61.052735 
L 198.649174 -61.311909 
L 199.104815 -61.577232 
L 199.560455 -61.848809 
L 200.016095 -62.126746 
L 200.471736 -62.411148 
L 200.927376 -62.702124 
L 201.383016 -62.99978 
L 201.838657 -63.304225 
L 202.294297 -63.615564 
L 202.749937 -63.933908 
L 203.205578 -64.259365 
L 203.661218 -64.592042 
L 204.116858 -64.932049 
L 204.572499 -65.279495 
L 205.028139 -65.634489 
L 205.483779 -65.997138 
L 205.93942 -66.367553 
L 206.39506 -66.745841 
L 206.850701 -67.132112 
L 207.306341 -67.526472 
L 207.761981 -67.92903 
L 208.217622 -68.339893 
L 208.673262 -68.759168 
L 209.128902 -69.186961 
L 209.584543 -69.623379 
L 210.040183 -70.068525 
L 210.495823 -70.522505 
L 210.951464 -70.985421 
L 211.407104 -71.457377 
L 211.862744 -71.938474 
L 212.318385 -72.428813 
L 212.774025 -72.928492 
L 213.229665 -73.437611 
L 213.685306 -73.956266 
L 214.140946 -74.484553 
L 214.596586 -75.022566 
L 215.052227 -75.570398 
L 215.507867 -76.128139 
L 215.963508 -76.695879 
L 216.419148 -77.273705 
L 216.874788 -77.861703 
L 217.330429 -78.459957 
L 217.786069 -79.068549 
L 218.241709 -79.687557 
L 218.69735 -80.317058 
L 219.15299 -80.957129 
L 219.60863 -81.607841 
L 220.064271 -82.269265 
L 220.519911 -82.941467 
L 220.975551 -83.624512 
L 221.431192 -84.318462 
L 221.886832 -85.023377 
L 222.342472 -85.739312 
L 222.798113 -86.466321 
L 223.253753 -87.204452 
L 223.709394 -87.953753 
L 224.165034 -88.714267 
L 224.620674 -89.486033 
L 225.076315 -90.269088 
L 225.531955 -91.063465 
L 225.987595 -91.869191 
L 226.443236 -92.686293 
L 226.898876 -93.514791 
L 227.354516 -94.354703 
L 227.810157 -95.206041 
L 228.265797 -96.068815 
L 228.721437 -96.943028 
L 229.177078 -97.828682 
L 229.632718 -98.725773 
L 230.088358 -99.63429 
L 230.543999 -100.554222 
L 230.999639 -101.485549 
L 231.455279 -102.42825 
L 231.91092 -103.382297 
L 232.36656 -104.347656 
L 232.822201 -105.324291 
L 233.277841 -106.312159 
L 233.733481 -107.311212 
L 234.189122 -108.321397 
L 234.644762 -109.342656 
L 235.100402 -110.374924 
L 235.556043 -111.418134 
L 236.011683 -112.472209 
L 236.467323 -113.537071 
L 236.922964 -114.612633 
L 237.378604 -115.698804 
L 237.834244 -116.795487 
L 238.289885 -117.902579 
L 238.745525 -119.019971 
L 239.201165 -120.147549 
L 239.656806 -121.285193 
L 240.112446 -122.432776 
L 240.568086 -123.590165 
L 241.023727 -124.757223 
L 241.479367 -125.933805 
L 241.935008 -127.119762 
L 242.390648 -128.314936 
L 242.846288 -129.519165 
L 243.301929 -130.732281 
L 243.757569 -131.954109 
L 244.213209 -133.184468 
L 244.66885 -134.423172 
L 245.12449 -135.670028 
L 245.58013 -136.924837 
L 246.035771 -138.187393 
L 246.491411 -139.457485 
L 246.947051 -140.734897 
L 247.402692 -142.019405 
L 247.858332 -143.310781 
L 248.313972 -144.608788 
L 248.769613 -145.913185 
L 249.225253 -147.223727 
L 249.680894 -148.540159 
L 250.136534 -149.862224 
L 250.592174 -151.189658 
L 251.047815 -152.522189 
L 251.503455 -153.859542 
L 251.959095 -155.201437 
L 252.414736 -156.547587 
L 252.870376 -157.897699 
L 253.326016 -159.251476 
L 253.781657 -160.608616 
L 254.237297 -161.96881 
L 254.692937 -163.331747 
L 255.148578 -164.697107 
L 255.604218 -166.06457 
L 256.059858 -167.433806 
L 256.515499 -168.804484 
L 256.971139 -170.176268 
L 257.426779 -171.548817 
L 257.88242 -172.921785 
L 258.33806 -174.294823 
L 258.793701 -175.667578 
L 259.249341 -177.039692 
L 259.704981 -178.410805 
L 260.160622 -179.780551 
L 260.616262 -181.148563 
L 261.071902 -182.51447 
L 261.527543 -183.877896 
L 261.983183 -185.238465 
L 262.438823 -186.595797 
L 262.894464 -187.949507 
L 263.350104 -189.299212 
L 263.805744 -190.644523 
L 264.261385 -191.985051 
L 264.717025 -193.320404 
L 265.172665 -194.650187 
L 265.628306 -195.974008 
L 266.083946 -197.291468 
L 266.539587 -198.60217 
L 266.995227 -199.905715 
L 267.450867 -201.201705 
L 267.906508 -202.489738 
L 268.362148 -203.769416 
L 268.817788 -205.040335 
L 269.273429 -206.302098 
L 269.729069 -207.554302 
L 270.184709 -208.796547 
L 270.64035 -210.028435 
L 271.09599 -211.249567 
L 271.55163 -212.459545 
L 272.007271 -213.657972 
L 272.462911 -214.844455 
L 272.918551 -216.0186 
L 273.374192 -217.180016 
L 273.829832 -218.328314 
L 274.285472 -219.463107 
L 274.741113 -220.584011 
L 275.196753 -221.690645 
L 275.652394 -222.782629 
L 276.108034 -223.85959 
L 276.563674 -224.921154 
L 277.019315 -225.966954 
L 277.474955 -226.996626 
L 277.930595 -228.009809 
L 278.386236 -229.006147 
L 278.841876 -229.985288 
L 279.297516 -230.946886 
L 279.753157 -231.890599 
L 280.208797 -232.816089 
L 280.664437 -233.723024 
L 281.120078 -234.611079 
L 281.575718 -235.479933 
L 282.031358 -236.329271 
L 282.486999 -237.158785 
L 282.942639 -237.968172 
L 283.398279 -238.757136 
L 283.85392 -239.525387 
L 284.30956 -240.272644 
L 284.765201 -240.998629 
L 285.220841 -241.703076 
L 285.676481 -242.385722 
L 286.132122 -243.046313 
L 286.587762 -243.684604 
L 287.043402 -244.300356 
L 287.499043 -244.893338 
L 287.954683 -245.463328 
L 288.410323 -246.010111 
L 288.865964 -246.533482 
L 289.321604 -247.033242 
L 289.777244 -247.509204 
L 290.232885 -247.961185 
L 290.688525 -248.389016 
L 291.144165 -248.792534 
L 291.599806 -249.171584 
L 292.055446 -249.526023 
L 292.511087 -249.855716 
L 292.966727 -250.160535 
L 293.422367 -250.440366 
L 293.878008 -250.6951 
L 294.333648 -250.92464 
L 294.789288 -251.128898 
L 295.244929 -251.307796 
L 295.700569 -251.461265 
L 296.156209 -251.589246 
L 296.61185 -251.69169 
L 297.06749 -251.768557 
L 297.52313 -251.819819 
L 297.978771 -251.845455 
L 298.434411 -251.845455 
L 298.890051 -251.819819 
L 299.345692 -251.768557 
L 299.801332 -251.69169 
L 300.256972 -251.589246 
L 300.712613 -251.461265 
L 301.168253 -251.307796 
L 301.623894 -251.128898 
L 302.079534 -250.92464 
L 302.535174 -250.6951 
L 302.990815 -250.440366 
L 303.446455 -250.160535 
L 303.902095 -249.855716 
L 304.357736 -249.526023 
L 304.813376 -249.171584 
L 305.269016 -248.792534 
L 305.724657 -248.389016 
L 306.180297 -247.961185 
L 306.635937 -247.509204 
L 307.091578 -247.033242 
L 307.547218 -246.533482 
L 308.002858 -246.010111 
L 308.458499 -245.463328 
L 308.914139 -244.893338 
L 309.36978 -244.300356 
L 309.82542 -243.684604 
L 310.28106 -243.046313 
L 310.736701 -242.385722 
L 311.192341 -241.703076 
L 311.647981 -240.998629 
L 312.103622 -240.272644 
L 312.559262 -239.525387 
L 313.014902 -238.757136 
L 313.470543 -237.968172 
L 313.926183 -237.158785 
L 314.381823 -236.329271 
L 314.837464 -235.479933 
L 315.293104 -234.611079 
L 315.748744 -233.723024 
L 316.204385 -232.816089 
L 316.660025 -231.890599 
L 317.115665 -230.946886 
L 317.571306 -229.985288 
L 318.026946 -229.006147 
L 318.482587 -228.009809 
L 318.938227 -226.996626 
L 319.393867 -225.966954 
L 319.849508 -224.921154 
L 320.305148 -223.85959 
L 320.760788 -222.782629 
L 321.216429 -221.690645 
L 321.672069 -220.584011 
L 322.127709 -219.463107 
L 322.58335 -218.328314 
L 323.03899 -217.180016 
L 323.49463 -216.0186 
L 323.950271 -214.844455 
L 324.405911 -213.657972 
L 324.861551 -212.459545 
L 325.317192 -211.249567 
L 325.772832 -210.028435 
L 326.228473 -208.796547 
L 326.684113 -207.554302 
L 327.139753 -206.302098 
L 327.595394 -205.040335 
L 328.051034 -203.769416 
L 328.506674 -202.489738 
L 328.962315 -201.201705 
L 329.417955 -199.905715 
L 329.873595 -198.60217 
L 330.329236 -197.291468 
L 330.784876 -195.974008 
L 331.240516 -194.650187 
L 331.696157 -193.320404 
L 332.151797 -191.985051 
L 332.607437 -190.644523 
L 333.063078 -189.299212 
L 333.518718 -187.949507 
L 333.974358 -186.595797 
L 334.429999 -185.238465 
L 334.885639 -183.877896 
L 335.34128 -182.51447 
L 335.79692 -181.148563 
L 336.25256 -179.780551 
L 336.708201 -178.410805 
L 337.163841 -177.039692 
L 337.619481 -175.667578 
L 338.075122 -174.294823 
L 338.530762 -172.921785 
L 338.986402 -171.548817 
L 339.442043 -170.176268 
L 339.897683 -168.804484 
L 340.353323 -167.433806 
L 340.808964 -166.06457 
L 341.264604 -164.697107 
L 341.720244 -163.331747 
L 342.175885 -161.96881 
L 342.631525 -160.608616 
L 343.087165 -159.251476 
L 343.542806 -157.897699 
L 343.998446 -156.547587 
L 344.454087 -155.201437 
L 344.909727 -153.859542 
L 345.365367 -152.522189 
L 345.821008 -151.189658 
L 346.276648 -149.862224 
L 346.732288 -148.540159 
L 347.187929 -147.223727 
L 347.643569 -145.913185 
L 348.099209 -144.608788 
L 348.55485 -143.310781 
L 349.01049 -142.019405 
L 349.46613 -140.734897 
L 349.921771 -139.457485 
L 350.377411 -138.187393 
L 350.833051 -136.924837 
L 351.288692 -135.670028 
L 351.744332 -134.423172 
L 352.199973 -133.184468 
L 352.655613 -131.954109 
L 353.111253 -130.732281 
L 353.566894 -129.519165 
L 354.022534 -128.314936 
L 354.478174 -127.119762 
L 354.933815 -125.933805 
L 355.389455 -124.757223 
L 355.845095 -123.590165 
L 356.300736 -122.432776 
L 356.756376 -121.285193 
L 357.212016 -120.147549 
L 357.667657 -119.019971 
L 358.123297 -117.902579 
L 358.578937 -116.795487 
L 359.034578 -115.698804 
L 359.490218 -114.612633 
L 359.945858 -113.537071 
L 360.401499 -112.472209 
L 360.857139 -111.418134 
L 361.31278 -110.374924 
L 361.76842 -109.342656 
L 362.22406 -108.321397 
L 362.679701 -107.311212 
L 363.135341 -106.312159 
L 363.590981 -105.324291 
L 364.046622 -104.347656 
L 364.502262 -103.382297 
L 364.957902 -102.42825 
L 365.413543 -101.485549 
L 365.869183 -100.554222 
L 366.324823 -99.63429 
L 366.780464 -98.725773 
L 367.236104 -97.828682 
L 367.691744 -96.943028 
L 368.147385 -96.068815 
L 368.603025 -95.206041 
L 369.058666 -94.354703 
L 369.514306 -93.514791 
L 369.969946 -92.686293 
L 370.425587 -91.869191 
L 370.881227 -91.063465 
L 371.336867 -90.269088 
L 371.792508 -89.486033 
L 372.248148 -88.714267 
L 372.703788 -87.953753 
L 373.159429 -87.204452 
L 373.615069 -86.466321 
L 374.070709 -85.739312 
L 374.52635 -85.023377 
L 374.98199 -84.318462 
L 375.43763 -83.624512 
L 375.893271 -82.941467 
L 376.348911 -82.269265 
L 376.804551 -81.607841 
L 377.260192 -80.957129 
L 377.715832 -80.317058 
L 378.171473 -79.687557 
L 378.627113 -79.068549 
L 379.082753 -78.459957 
L 379.538394 -77.861703 
L 379.994034 -77.273705 
L 380.449674 -76.695879 
L 380.905315 -76.128139 
L 381.360955 -75.570398 
L 381.816595 -75.022566 
L 382.272236 -74.484553 
L 382.727876 -73.956266 
L 383.183516 -73.437611 
L 383.639157 -72.928492 
L 384.094797 -72.428813 
L 384.550437 -71.938474 
L 385.006078 -71.457377 
L 385.461718 -70.985421 
L 385.917358 -70.522505 
L 386.372999 -70.068525 
L 386.828639 -69.623379 
L 387.28428 -69.186961 
L 387.73992 -68.759168 
L 388.19556 -68.339893 
L 388.651201 -67.92903 
L 389.106841 -67.526472 
L 389.562481 -67.132112 
L 390.018122 -66.745841 
L 390.473762 -66.367553 
L 390.929402 -65.997138 
L 391.385043 -65.634489 
L 391.840683 -65.279495 
L 392.296323 -64.932049 
L 392.751964 -64.592042 
L 393.207604 -64.259365 
L 393.663244 -63.933908 
L 394.118885 -63.615564 
L 394.574525 -63.304225 
L 395.030166 -62.99978 
L 395.485806 -62.702124 
L 395.941446 -62.411148 
L 396.397087 -62.126746 
L 396.852727 -61.848809 
L 397.308367 -61.577232 
L 397.764008 -61.311909 
L 398.219648 -61.052735 
L 398.675288 -60.799605 
L 399.130929 -60.552415 
L 399.586569 -60.31106 
L 400.042209 -60.07544 
L 400.49785 -59.845451 
L 400.95349 -59.620992 
L 401.40913 -59.401962 
L 401.864771 -59.188263 
L 402.320411 -58.979794 
L 402.776051 -58.776458 
L 403.231692 -58.578158 
L 403.687332 -58.384797 
L 404.142973 -58.196281 
L 404.598613 -58.012514 
L 405.054253 -57.833403 
L 405.509894 -57.658857 
L 405.965534 -57.488782 
L 406.421174 -57.323091 
L 406.876815 -57.161692 
L 407.332455 -57.004497 
L 407.788095 -56.85142 
L 408.243736 -56.702374 
L 408.699376 -56.557274 
L 409.155016 -56.416036 
L 409.610657 -56.278578 
L 410.066297 -56.144817 
L 410.521937 -56.014674 
L 410.977578 -55.888067 
L 411.433218 -55.764921 
L 411.888859 -55.645156 
L 412.344499 -55.528697 
L 412.800139 -55.415469 
L 413.25578 -55.305398 
L 413.71142 -55.198412 
L 414.16706 -55.094439 
L 414.622701 -54.993408 
L 415.078341 -54.895252 
L 415.533981 -54.7999 
L 415.989622 -54.707288 
L 416.445262 -54.617348 
L 416.900902 -54.530017 
L 417.356543 -54.44523 
L 417.812183 -54.362926 
L 418.267823 -54.283043 
L 418.723464 -54.20552 
L 419.179104 -54.1303 
L 419.634744 -54.057323 
L 420.090385 -53.986534 
L 420.546025 -53.917876 
L 421.001666 -53.851294 
L 421.457306 -53.786735 
L 421.912946 -53.724147 
L 422.368587 -53.663478 
L 422.824227 -53.604677 
L 423.279867 -53.547694 
L 423.735508 -53.492483 
L 424.191148 -53.438994 
L 424.646788 -53.387182 
L 425.102429 -53.337 
L 425.558069 -53.288406 
L 426.013709 -53.241355 
L 426.46935 -53.195804 
L 426.92499 -53.151712 
L 427.38063 -53.109038 
L 427.836271 -53.067742 
L 428.291911 -53.027786 
L 428.747551 -52.989132 
L 429.203192 -52.951741 
L 429.658832 -52.915579 
L 430.114473 -52.880609 
L 430.570113 -52.846798 
L 431.025753 -52.81411 
L 431.481394 -52.782514 
L 431.937034 -52.751977 
L 432.392674 -52.722468 
L 432.848315 -52.693956 
L 433.303955 -52.666411 
L 433.759595 -52.639805 
L 434.215236 -52.614108 
L 434.670876 -52.589294 
L 435.126516 -52.565334 
L 435.582157 -52.542204 
L 436.037797 -52.519877 
L 436.493437 -52.498329 
L 436.949078 -52.477535 
L 437.404718 -52.457471 
L 437.860359 -52.438116 
L 438.315999 -52.419445 
L 438.771639 -52.401438 
L 439.22728 -52.384074 
L 439.68292 -52.367331 
L 440.13856 -52.35119 
L 440.594201 -52.335631 
L 441.049841 -52.320636 
L 441.505481 -52.306185 
L 441.961122 -52.292262 
L 442.416762 -52.278848 
L 442.872402 -52.265927 
L 443.328043 -52.253483 
L 443.783683 -52.241499 
L 444.239323 -52.22996 
L 444.694964 -52.218852 
L 445.150604 -52.208159 
L 445.606244 -52.197867 
L 446.061885 -52.187963 
L 446.517525 -52.178433 
L 446.973166 -52.169265 
L 447.428806 -52.160446 
L 447.884446 -52.151964 
L 448.340087 -52.143807 
L 448.795727 -52.135964 
L 449.251367 -52.128423 
L 449.707008 -52.121175 
L 450.162648 -52.114208 
L 450.618288 -52.107513 
L 451.073929 -52.101079 
L 451.529569 -52.094899 
L 451.985209 -52.088962 
L 452.44085 -52.083259 
L 452.89649 -52.077783 
L 453.35213 -52.072524 
L 453.807771 -52.067476 
L 454.263411 -52.062629 
L 454.719052 -52.057977 
L 455.174692 -52.053513 
L 455.630332 -52.049229 
L 456.085973 -52.04512 
L 456.541613 -52.041177 
L 456.997253 -52.037395 
L 457.452894 -52.033769 
L 457.908534 -52.030291 
L 458.364174 -52.026957 
L 458.819815 -52.02376 
L 459.275455 -52.020696 
L 459.731095 -52.01776 
L 460.186736 -52.014946 
L 460.642376 -52.012251 
L 461.098016 -52.009668 
L 461.553657 -52.007194 
L 462.009297 -52.004825 
L 462.464937 -52.002556 
L 462.920578 -52.000384 
L 463.376218 -51.998304 
L 463.831859 -51.996314 
L 464.287499 -51.994409 
L 464.743139 -51.992586 
L 465.19878 -51.990841 
L 465.65442 -51.989172 
L 466.11006 -51.987576 
L 466.565701 -51.986049 
L 467.021341 -51.984589 
L 467.476981 -51.983193 
L 467.932622 -51.981858 
L 468.388262 -51.980582 
L 468.843902 -51.979363 
L 469.299543 -51.978198 
L 469.755183 -51.977084 
L 470.210823 -51.97602 
L 470.666464 -51.975004 
L 471.122104 -51.974033 
L 471.577745 -51.973106 
L 472.033385 -51.972221 
L 472.489025 -51.971376 
L 472.944666 -51.970569 
L 473.400306 -51.969799 
L 473.855946 -51.969064 
L 474.311587 -51.968363 
L 474.767227 -51.967694 
L 475.222867 -51.967055 
L 475.678508 -51.966447 
L 476.134148 -51.965866 
L 476.589788 -51.965312 
L 477.045429 -51.964784 
L 477.501069 -51.964281 
L 477.956709 -51.963801 
L 478.41235 -51.963344 
L 478.86799 -51.962908 
L 479.32363 -51.962493 
L 479.779271 -51.962098 
L 480.234911 -51.961721 
L 480.690552 -51.961362 
L 481.146192 -51.96102 
L 481.601832 -51.960695 
L 482.057473 -51.960385 
L 482.513113 -51.96009 
L 482.968753 -51.95981 
L 483.424394 -51.959543 
L 483.880034 -51.959288 
L 484.335674 -51.959047 
L 484.791315 -51.958817 
L 485.246955 -51.958598 
L 485.702595 -51.95839 
L 486.158236 -51.958192 
L 486.613876 -51.958004 
L 487.069516 -51.957825 
L 487.525157 -51.957655 
L 487.980797 -51.957493 
L 488.436437 -51.95734 
L 488.892078 -51.957194 
L 489.347718 -51.957055 
L 489.803359 -51.956924 
L 490.258999 -51.956799 
L 490.714639 -51.95668 
L 491.17028 -51.956567 
L 491.62592 -51.95646 
L 492.08156 -51.956359 
L 492.537201 -51.956262 
L 492.992841 -51.956171 
L 493.448481 -51.956084 
L 493.904122 -51.956002 
L 494.359762 -51.955923 
L 494.815402 -51.955849 
L 495.271043 -51.955779 
L 495.726683 -51.955712 
L 496.182323 -51.955649 
L 496.637964 -51.955589 
L 497.093604 -51.955533 
L 497.549245 -51.955479 
L 498.004885 -51.955428 
L 498.460525 -51.955379 
L 498.916166 -51.955334 
L 499.371806 -51.95529 
L 499.827446 -51.955249 
L 500.283087 -51.95521 
L 500.738727 -51.955174 
L 501.194367 -51.955139 
L 501.650008 -51.955106 
L 502.105648 -51.955075 
L 502.561288 -51.955045 
L 503.016929 -51.955017 
L 503.472569 -51.954991 
L 503.928209 -51.954966 
L 504.38385 -51.954942 
L 504.83949 -51.95492 
L 505.29513 -51.954898 
L 505.750771 -51.954878 
L 506.206411 -51.954859 
L 506.662052 -51.954842 
L 507.117692 -51.954825 
L 507.573332 -51.954809 
L 508.028973 -51.954794 
L 508.484613 -51.954779 
L 508.940253 -51.954766 
L 509.395894 -51.954753 
L 509.851534 -51.954741 
L 510.307174 -51.95473 
L 510.762815 -51.954719 
L 511.218455 -51.954709 
L 511.674095 -51.9547 
L 512.129736 -51.954691 
L 512.585376 -51.954682 
L 513.041016 -51.954674 
L 513.496657 -51.954667 
L 513.952297 -51.954659 
L 514.407938 -51.954653 
L 514.863578 -51.954646 
L 515.319218 -51.95464 
L 515.774859 -51.954635 
L 516.230499 -51.954629 
L 516.686139 -51.954624 
L 517.14178 -51.95462 
L 517.59742 -51.954615 
L 518.05306 -51.954611 
L 518.508701 -51.954607 
L 518.964341 -51.954603 
L 519.419981 -51.9546 
L 519.875622 -51.954597 
L 520.331262 -51.954594 
L 520.786902 -51.954591 
L 521.242543 -51.954588 
L 521.698183 -51.954585 
L 522.153823 -51.954583 
L 522.609464 -51.954581 
L 523.065104 -51.954578 
L 523.520745 -51.954576 
L 523.976385 -51.954574 
L 524.432025 -51.954573 
L 524.887666 -51.954571 
L 525.343306 -51.954569 
L 525.798946 -51.954568 
L 525.798946 -51.954545 
L 525.798946 -51.954545 
L 525.343306 -51.954545 
L 524.887666 -51.954545 
L 524.432025 -51.954545 
L 523.976385 -51.954545 
L 523.520745 -51.954545 
L 523.065104 -51.954545 
L 522.609464 -51.954545 
L 522.153823 -51.954545 
L 521.698183 -51.954545 
L 521.242543 -51.954545 
L 520.786902 -51.954545 
L 520.331262 -51.954545 
L 519.875622 -51.954545 
L 519.419981 -51.954545 
L 518.964341 -51.954545 
L 518.508701 -51.954545 
L 518.05306 -51.954545 
L 517.59742 -51.954545 
L 517.14178 -51.954545 
L 516.686139 -51.954545 
L 516.230499 -51.954545 
L 515.774859 -51.954545 
L 515.319218 -51.954545 
L 514.863578 -51.954545 
L 514.407938 -51.954545 
L 513.952297 -51.954545 
L 513.496657 -51.954545 
L 513.041016 -51.954545 
L 512.585376 -51.954545 
L 512.129736 -51.954545 
L 511.674095 -51.954545 
L 511.218455 -51.954545 
L 510.762815 -51.954545 
L 510.307174 -51.954545 
L 509.851534 -51.954545 
L 509.395894 -51.954545 
L 508.940253 -51.954545 
L 508.484613 -51.954545 
L 508.028973 -51.954545 
L 507.573332 -51.954545 
L 507.117692 -51.954545 
L 506.662052 -51.954545 
L 506.206411 -51.954545 
L 505.750771 -51.954545 
L 505.29513 -51.954545 
L 504.83949 -51.954545 
L 504.38385 -51.954545 
L 503.928209 -51.954545 
L 503.472569 -51.954545 
L 503.016929 -51.954545 
L 502.561288 -51.954545 
L 502.105648 -51.954545 
L 501.650008 -51.954545 
L 501.194367 -51.954545 
L 500.738727 -51.954545 
L 500.283087 -51.954545 
L 499.827446 -51.954545 
L 499.371806 -51.954545 
L 498.916166 -51.954545 
L 498.460525 -51.954545 
L 498.004885 -51.954545 
L 497.549245 -51.954545 
L 497.093604 -51.954545 
L 496.637964 -51.954545 
L 496.182323 -51.954545 
L 495.726683 -51.954545 
L 495.271043 -51.954545 
L 494.815402 -51.954545 
L 494.359762 -51.954545 
L 493.904122 -51.954545 
L 493.448481 -51.954545 
L 492.992841 -51.954545 
L 492.537201 -51.954545 
L 492.08156 -51.954545 
L 491.62592 -51.954545 
L 491.17028 -51.954545 
L 490.714639 -51.954545 
L 490.258999 -51.954545 
L 489.803359 -51.954545 
L 489.347718 -51.954545 
L 488.892078 -51.954545 
L 488.436437 -51.954545 
L 487.980797 -51.954545 
L 487.525157 -51.954545 
L 487.069516 -51.954545 
L 486.613876 -51.954545 
L 486.158236 -51.954545 
L 485.702595 -51.954545 
L 485.246955 -51.954545 
L 484.791315 -51.954545 
L 484.335674 -51.954545 
L 483.880034 -51.954545 
L 483.424394 -51.954545 
L 482.968753 -51.954545 
L 482.513113 -51.954545 
L 482.057473 -51.954545 
L 481.601832 -51.954545 
L 481.146192 -51.954545 
L 480.690552 -51.954545 
L 480.234911 -51.954545 
L 479.779271 -51.954545 
L 479.32363 -51.954545 
L 478.86799 -51.954545 
L 478.41235 -51.954545 
L 477.956709 -51.954545 
L 477.501069 -51.954545 
L 477.045429 -51.954545 
L 476.589788 -51.954545 
L 476.134148 -51.954545 
L 475.678508 -51.954545 
L 475.222867 -51.954545 
L 474.767227 -51.954545 
L 474.311587 -51.954545 
L 473.855946 -51.954545 
L 473.400306 -51.954545 
L 472.944666 -51.954545 
L 472.489025 -51.954545 
L 472.033385 -51.954545 
L 471.577745 -51.954545 
L 471.122104 -51.954545 
L 470.666464 -51.954545 
L 470.210823 -51.954545 
L 469.755183 -51.954545 
L 469.299543 -51.954545 
L 468.843902 -51.954545 
L 468.388262 -51.954545 
L 467.932622 -51.954545 
L 467.476981 -51.954545 
L 467.021341 -51.954545 
L 466.565701 -51.954545 
L 466.11006 -51.954545 
L 465.65442 -51.954545 
L 465.19878 -51.954545 
L 464.743139 -51.954545 
L 464.287499 -51.954545 
L 463.831859 -51.954545 
L 463.376218 -51.954545 
L 462.920578 -51.954545 
L 462.464937 -51.954545 
L 462.009297 -51.954545 
L 461.553657 -51.954545 
L 461.098016 -51.954545 
L 460.642376 -51.954545 
L 460.186736 -51.954545 
L 459.731095 -51.954545 
L 459.275455 -51.954545 
L 458.819815 -51.954545 
L 458.364174 -51.954545 
L 457.908534 -51.954545 
L 457.452894 -51.954545 
L 456.997253 -51.954545 
L 456.541613 -51.954545 
L 456.085973 -51.954545 
L 455.630332 -51.954545 
L 455.174692 -51.954545 
L 454.719052 -51.954545 
L 454.263411 -51.954545 
L 453.807771 -51.954545 
L 453.35213 -51.954545 
L 452.89649 -51.954545 
L 452.44085 -51.954545 
L 451.985209 -51.954545 
L 451.529569 -51.954545 
L 451.073929 -51.954545 
L 450.618288 -51.954545 
L 450.162648 -51.954545 
L 449.707008 -51.954545 
L 449.251367 -51.954545 
L 448.795727 -51.954545 
L 448.340087 -51.954545 
L 447.884446 -51.954545 
L 447.428806 -51.954545 
L 446.973166 -51.954545 
L 446.517525 -51.954545 
L 446.061885 -51.954545 
L 445.606244 -51.954545 
L 445.150604 -51.954545 
L 444.694964 -51.954545 
L 444.239323 -51.954545 
L 443.783683 -51.954545 
L 443.328043 -51.954545 
L 442.872402 -51.954545 
L 442.416762 -51.954545 
L 441.961122 -51.954545 
L 441.505481 -51.954545 
L 441.049841 -51.954545 
L 440.594201 -51.954545 
L 440.13856 -51.954545 
L 439.68292 -51.954545 
L 439.22728 -51.954545 
L 438.771639 -51.954545 
L 438.315999 -51.954545 
L 437.860359 -51.954545 
L 437.404718 -51.954545 
L 436.949078 -51.954545 
L 436.493437 -51.954545 
L 436.037797 -51.954545 
L 435.582157 -51.954545 
L 435.126516 -51.954545 
L 434.670876 -51.954545 
L 434.215236 -51.954545 
L 433.759595 -51.954545 
L 433.303955 -51.954545 
L 432.848315 -51.954545 
L 432.392674 -51.954545 
L 431.937034 -51.954545 
L 431.481394 -51.954545 
L 431.025753 -51.954545 
L 430.570113 -51.954545 
L 430.114473 -51.954545 
L 429.658832 -51.954545 
L 429.203192 -51.954545 
L 428.747551 -51.954545 
L 428.291911 -51.954545 
L 427.836271 -51.954545 
L 427.38063 -51.954545 
L 426.92499 -51.954545 
L 426.46935 -51.954545 
L 426.013709 -51.954545 
L 425.558069 -51.954545 
L 425.102429 -51.954545 
L 424.646788 -51.954545 
L 424.191148 -51.954545 
L 423.735508 -51.954545 
L 423.279867 -51.954545 
L 422.824227 -51.954545 
L 422.368587 -51.954545 
L 421.912946 -51.954545 
L 421.457306 -51.954545 
L 421.001666 -51.954545 
L 420.546025 -51.954545 
L 420.090385 -51.954545 
L 419.634744 -51.954545 
L 419.179104 -51.954545 
L 418.723464 -51.954545 
L 418.267823 -51.954545 
L 417.812183 -51.954545 
L 417.356543 -51.954545 
L 416.900902 -51.954545 
L 416.445262 -51.954545 
L 415.989622 -51.954545 
L 415.533981 -51.954545 
L 415.078341 -51.954545 
L 414.622701 -51.954545 
L 414.16706 -51.954545 
L 413.71142 -51.954545 
L 413.25578 -51.954545 
L 412.800139 -51.954545 
L 412.344499 -51.954545 
L 411.888859 -51.954545 
L 411.433218 -51.954545 
L 410.977578 -51.954545 
L 410.521937 -51.954545 
L 410.066297 -51.954545 
L 409.610657 -51.954545 
L 409.155016 -51.954545 
L 408.699376 -51.954545 
L 408.243736 -51.954545 
L 407.788095 -51.954545 
L 407.332455 -51.954545 
L 406.876815 -51.954545 
L 406.421174 -51.954545 
L 405.965534 -51.954545 
L 405.509894 -51.954545 
L 405.054253 -51.954545 
L 404.598613 -51.954545 
L 404.142973 -51.954545 
L 403.687332 -51.954545 
L 403.231692 -51.954545 
L 402.776051 -51.954545 
L 402.320411 -51.954545 
L 401.864771 -51.954545 
L 401.40913 -51.954545 
L 400.95349 -51.954545 
L 400.49785 -51.954545 
L 400.042209 -51.954545 
L 399.586569 -51.954545 
L 399.130929 -51.954545 
L 398.675288 -51.954545 
L 398.219648 -51.954545 
L 397.764008 -51.954545 
L 397.308367 -51.954545 
L 396.852727 -51.954545 
L 396.397087 -51.954545 
L 395.941446 -51.954545 
L 395.485806 -51.954545 
L 395.030166 -51.954545 
L 394.574525 -51.954545 
L 394.118885 -51.954545 
L 393.663244 -51.954545 
L 393.207604 -51.954545 
L 392.751964 -51.954545 
L 392.296323 -51.954545 
L 391.840683 -51.954545 
L 391.385043 -51.954545 
L 390.929402 -51.954545 
L 390.473762 -51.954545 
L 390.018122 -51.954545 
L 389.562481 -51.954545 
L 389.106841 -51.954545 
L 388.651201 -51.954545 
L 388.19556 -51.954545 
L 387.73992 -51.954545 
L 387.28428 -51.954545 
L 386.828639 -51.954545 
L 386.372999 -51.954545 
L 385.917358 -51.954545 
L 385.461718 -51.954545 
L 385.006078 -51.954545 
L 384.550437 -51.954545 
L 384.094797 -51.954545 
L 383.639157 -51.954545 
L 383.183516 -51.954545 
L 382.727876 -51.954545 
L 382.272236 -51.954545 
L 381.816595 -51.954545 
L 381.360955 -51.954545 
L 380.905315 -51.954545 
L 380.449674 -51.954545 
L 379.994034 -51.954545 
L 379.538394 -51.954545 
L 379.082753 -51.954545 
L 378.627113 -51.954545 
L 378.171473 -51.954545 
L 377.715832 -51.954545 
L 377.260192 -51.954545 
L 376.804551 -51.954545 
L 376.348911 -51.954545 
L 375.893271 -51.954545 
L 375.43763 -51.954545 
L 374.98199 -51.954545 
L 374.52635 -51.954545 
L 374.070709 -51.954545 
L 373.615069 -51.954545 
L 373.159429 -51.954545 
L 372.703788 -51.954545 
L 372.248148 -51.954545 
L 371.792508 -51.954545 
L 371.336867 -51.954545 
L 370.881227 -51.954545 
L 370.425587 -51.954545 
L 369.969946 -51.954545 
L 369.514306 -51.954545 
L 369.058666 -51.954545 
L 368.603025 -51.954545 
L 368.147385 -51.954545 
L 367.691744 -51.954545 
L 367.236104 -51.954545 
L 366.780464 -51.954545 
L 366.324823 -51.954545 
L 365.869183 -51.954545 
L 365.413543 -51.954545 
L 364.957902 -51.954545 
L 364.502262 -51.954545 
L 364.046622 -51.954545 
L 363.590981 -51.954545 
L 363.135341 -51.954545 
L 362.679701 -51.954545 
L 362.22406 -51.954545 
L 361.76842 -51.954545 
L 361.31278 -51.954545 
L 360.857139 -51.954545 
L 360.401499 -51.954545 
L 359.945858 -51.954545 
L 359.490218 -51.954545 
L 359.034578 -51.954545 
L 358.578937 -51.954545 
L 358.123297 -51.954545 
L 357.667657 -51.954545 
L 357.212016 -51.954545 
L 356.756376 -51.954545 
L 356.300736 -51.954545 
L 355.845095 -51.954545 
L 355.389455 -51.954545 
L 354.933815 -51.954545 
L 354.478174 -51.954545 
L 354.022534 -51.954545 
L 353.566894 -51.954545 
L 353.111253 -51.954545 
L 352.655613 -51.954545 
L 352.199973 -51.954545 
L 351.744332 -51.954545 
L 351.288692 -51.954545 
L 350.833051 -51.954545 
L 350.377411 -51.954545 
L 349.921771 -51.954545 
L 349.46613 -51.954545 
L 349.01049 -51.954545 
L 348.55485 -51.954545 
L 348.099209 -51.954545 
L 347.643569 -51.954545 
L 347.187929 -51.954545 
L 346.732288 -51.954545 
L 346.276648 -51.954545 
L 345.821008 -51.954545 
L 345.365367 -51.954545 
L 344.909727 -51.954545 
L 344.454087 -51.954545 
L 343.998446 -51.954545 
L 343.542806 -51.954545 
L 343.087165 -51.954545 
L 342.631525 -51.954545 
L 342.175885 -51.954545 
L 341.720244 -51.954545 
L 341.264604 -51.954545 
L 340.808964 -51.954545 
L 340.353323 -51.954545 
L 339.897683 -51.954545 
L 339.442043 -51.954545 
L 338.986402 -51.954545 
L 338.530762 -51.954545 
L 338.075122 -51.954545 
L 337.619481 -51.954545 
L 337.163841 -51.954545 
L 336.708201 -51.954545 
L 336.25256 -51.954545 
L 335.79692 -51.954545 
L 335.34128 -51.954545 
L 334.885639 -51.954545 
L 334.429999 -51.954545 
L 333.974358 -51.954545 
L 333.518718 -51.954545 
L 333.063078 -51.954545 
L 332.607437 -51.954545 
L 332.151797 -51.954545 
L 331.696157 -51.954545 
L 331.240516 -51.954545 
L 330.784876 -51.954545 
L 330.329236 -51.954545 
L 329.873595 -51.954545 
L 329.417955 -51.954545 
L 328.962315 -51.954545 
L 328.506674 -51.954545 
L 328.051034 -51.954545 
L 327.595394 -51.954545 
L 327.139753 -51.954545 
L 326.684113 -51.954545 
L 326.228473 -51.954545 
L 325.772832 -51.954545 
L 325.317192 -51.954545 
L 324.861551 -51.954545 
L 324.405911 -51.954545 
L 323.950271 -51.954545 
L 323.49463 -51.954545 
L 323.03899 -51.954545 
L 322.58335 -51.954545 
L 322.127709 -51.954545 
L 321.672069 -51.954545 
L 321.216429 -51.954545 
L 320.760788 -51.954545 
L 320.305148 -51.954545 
L 319.849508 -51.954545 
L 319.393867 -51.954545 
L 318.938227 -51.954545 
L 318.482587 -51.954545 
L 318.026946 -51.954545 
L 317.571306 -51.954545 
L 317.115665 -51.954545 
L 316.660025 -51.954545 
L 316.204385 -51.954545 
L 315.748744 -51.954545 
L 315.293104 -51.954545 
L 314.837464 -51.954545 
L 314.381823 -51.954545 
L 313.926183 -51.954545 
L 313.470543 -51.954545 
L 313.014902 -51.954545 
L 312.559262 -51.954545 
L 312.103622 -51.954545 
L 311.647981 -51.954545 
L 311.192341 -51.954545 
L 310.736701 -51.954545 
L 310.28106 -51.954545 
L 309.82542 -51.954545 
L 309.36978 -51.954545 
L 308.914139 -51.954545 
L 308.458499 -51.954545 
L 308.002858 -51.954545 
L 307.547218 -51.954545 
L 307.091578 -51.954545 
L 306.635937 -51.954545 
L 306.180297 -51.954545 
L 305.724657 -51.954545 
L 305.269016 -51.954545 
L 304.813376 -51.954545 
L 304.357736 -51.954545 
L 303.902095 -51.954545 
L 303.446455 -51.954545 
L 302.990815 -51.954545 
L 302.535174 -51.954545 
L 302.079534 -51.954545 
L 301.623894 -51.954545 
L 301.168253 -51.954545 
L 300.712613 -51.954545 
L 300.256972 -51.954545 
L 299.801332 -51.954545 
L 299.345692 -51.954545 
L 298.890051 -51.954545 
L 298.434411 -51.954545 
L 297.978771 -51.954545 
L 297.52313 -51.954545 
L 297.06749 -51.954545 
L 296.61185 -51.954545 
L 296.156209 -51.954545 
L 295.700569 -51.954545 
L 295.244929 -51.954545 
L 294.789288 -51.954545 
L 294.333648 -51.954545 
L 293.878008 -51.954545 
L 293.422367 -51.954545 
L 292.966727 -51.954545 
L 292.511087 -51.954545 
L 292.055446 -51.954545 
L 291.599806 -51.954545 
L 291.144165 -51.954545 
L 290.688525 -51.954545 
L 290.232885 -51.954545 
L 289.777244 -51.954545 
L 289.321604 -51.954545 
L 288.865964 -51.954545 
L 288.410323 -51.954545 
L 287.954683 -51.954545 
L 287.499043 -51.954545 
L 287.043402 -51.954545 
L 286.587762 -51.954545 
L 286.132122 -51.954545 
L 285.676481 -51.954545 
L 285.220841 -51.954545 
L 284.765201 -51.954545 
L 284.30956 -51.954545 
L 283.85392 -51.954545 
L 283.398279 -51.954545 
L 282.942639 -51.954545 
L 282.486999 -51.954545 
L 282.031358 -51.954545 
L 281.575718 -51.954545 
L 281.120078 -51.954545 
L 280.664437 -51.954545 
L 280.208797 -51.954545 
L 279.753157 -51.954545 
L 279.297516 -51.954545 
L 278.841876 -51.954545 
L 278.386236 -51.954545 
L 277.930595 -51.954545 
L 277.474955 -51.954545 
L 277.019315 -51.954545 
L 276.563674 -51.954545 
L 276.108034 -51.954545 
L 275.652394 -51.954545 
L 275.196753 -51.954545 
L 274.741113 -51.954545 
L 274.285472 -51.954545 
L 273.829832 -51.954545 
L 273.374192 -51.954545 
L 272.918551 -51.954545 
L 272.462911 -51.954545 
L 272.007271 -51.954545 
L 271.55163 -51.954545 
L 271.09599 -51.954545 
L 270.64035 -51.954545 
L 270.184709 -51.954545 
L 269.729069 -51.954545 
L 269.273429 -51.954545 
L 268.817788 -51.954545 
L 268.362148 -51.954545 
L 267.906508 -51.954545 
L 267.450867 -51.954545 
L 266.995227 -51.954545 
L 266.539587 -51.954545 
L 266.083946 -51.954545 
L 265.628306 -51.954545 
L 265.172665 -51.954545 
L 264.717025 -51.954545 
L 264.261385 -51.954545 
L 263.805744 -51.954545 
L 263.350104 -51.954545 
L 262.894464 -51.954545 
L 262.438823 -51.954545 
L 261.983183 -51.954545 
L 261.527543 -51.954545 
L 261.071902 -51.954545 
L 260.616262 -51.954545 
L 260.160622 -51.954545 
L 259.704981 -51.954545 
L 259.249341 -51.954545 
L 258.793701 -51.954545 
L 258.33806 -51.954545 
L 257.88242 -51.954545 
L 257.426779 -51.954545 
L 256.971139 -51.954545 
L 256.515499 -51.954545 
L 256.059858 -51.954545 
L 255.604218 -51.954545 
L 255.148578 -51.954545 
L 254.692937 -51.954545 
L 254.237297 -51.954545 
L 253.781657 -51.954545 
L 253.326016 -51.954545 
L 252.870376 -51.954545 
L 252.414736 -51.954545 
L 251.959095 -51.954545 
L 251.503455 -51.954545 
L 251.047815 -51.954545 
L 250.592174 -51.954545 
L 250.136534 -51.954545 
L 249.680894 -51.954545 
L 249.225253 -51.954545 
L 248.769613 -51.954545 
L 248.313972 -51.954545 
L 247.858332 -51.954545 
L 247.402692 -51.954545 
L 246.947051 -51.954545 
L 246.491411 -51.954545 
L 246.035771 -51.954545 
L 245.58013 -51.954545 
L 245.12449 -51.954545 
L 244.66885 -51.954545 
L 244.213209 -51.954545 
L 243.757569 -51.954545 
L 243.301929 -51.954545 
L 242.846288 -51.954545 
L 242.390648 -51.954545 
L 241.935008 -51.954545 
L 241.479367 -51.954545 
L 241.023727 -51.954545 
L 240.568086 -51.954545 
L 240.112446 -51.954545 
L 239.656806 -51.954545 
L 239.201165 -51.954545 
L 238.745525 -51.954545 
L 238.289885 -51.954545 
L 237.834244 -51.954545 
L 237.378604 -51.954545 
L 236.922964 -51.954545 
L 236.467323 -51.954545 
L 236.011683 -51.954545 
L 235.556043 -51.954545 
L 235.100402 -51.954545 
L 234.644762 -51.954545 
L 234.189122 -51.954545 
L 233.733481 -51.954545 
L 233.277841 -51.954545 
L 232.822201 -51.954545 
L 232.36656 -51.954545 
L 231.91092 -51.954545 
L 231.455279 -51.954545 
L 230.999639 -51.954545 
L 230.543999 -51.954545 
L 230.088358 -51.954545 
L 229.632718 -51.954545 
L 229.177078 -51.954545 
L 228.721437 -51.954545 
L 228.265797 -51.954545 
L 227.810157 -51.954545 
L 227.354516 -51.954545 
L 226.898876 -51.954545 
L 226.443236 -51.954545 
L 225.987595 -51.954545 
L 225.531955 -51.954545 
L 225.076315 -51.954545 
L 224.620674 -51.954545 
L 224.165034 -51.954545 
L 223.709394 -51.954545 
L 223.253753 -51.954545 
L 222.798113 -51.954545 
L 222.342472 -51.954545 
L 221.886832 -51.954545 
L 221.431192 -51.954545 
L 220.975551 -51.954545 
L 220.519911 -51.954545 
L 220.064271 -51.954545 
L 219.60863 -51.954545 
L 219.15299 -51.954545 
L 218.69735 -51.954545 
L 218.241709 -51.954545 
L 217.786069 -51.954545 
L 217.330429 -51.954545 
L 216.874788 -51.954545 
L 216.419148 -51.954545 
L 215.963508 -51.954545 
L 215.507867 -51.954545 
L 215.052227 -51.954545 
L 214.596586 -51.954545 
L 214.140946 -51.954545 
L 213.685306 -51.954545 
L 213.229665 -51.954545 
L 212.774025 -51.954545 
L 212.318385 -51.954545 
L 211.862744 -51.954545 
L 211.407104 -51.954545 
L 210.951464 -51.954545 
L 210.495823 -51.954545 
L 210.040183 -51.954545 
L 209.584543 -51.954545 
L 209.128902 -51.954545 
L 208.673262 -51.954545 
L 208.217622 -51.954545 
L 207.761981 -51.954545 
L 207.306341 -51.954545 
L 206.850701 -51.954545 
L 206.39506 -51.954545 
L 205.93942 -51.954545 
L 205.483779 -51.954545 
L 205.028139 -51.954545 
L 204.572499 -51.954545 
L 204.116858 -51.954545 
L 203.661218 -51.954545 
L 203.205578 -51.954545 
L 202.749937 -51.954545 
L 202.294297 -51.954545 
L 201.838657 -51.954545 
L 201.383016 -51.954545 
L 200.927376 -51.954545 
L 200.471736 -51.954545 
L 200.016095 -51.954545 
L 199.560455 -51.954545 
L 199.104815 -51.954545 
L 198.649174 -51.954545 
L 198.193534 -51.954545 
L 197.737893 -51.954545 
L 197.282253 -51.954545 
L 196.826613 -51.954545 
L 196.370972 -51.954545 
L 195.915332 -51.954545 
L 195.459692 -51.954545 
L 195.004051 -51.954545 
L 194.548411 -51.954545 
L 194.092771 -51.954545 
L 193.63713 -51.954545 
L 193.18149 -51.954545 
L 192.72585 -51.954545 
L 192.270209 -51.954545 
L 191.814569 -51.954545 
L 191.358929 -51.954545 
L 190.903288 -51.954545 
L 190.447648 -51.954545 
L 189.992008 -51.954545 
L 189.536367 -51.954545 
L 189.080727 -51.954545 
L 188.625086 -51.954545 
L 188.169446 -51.954545 
L 187.713806 -51.954545 
L 187.258165 -51.954545 
L 186.802525 -51.954545 
L 186.346885 -51.954545 
L 185.891244 -51.954545 
L 185.435604 -51.954545 
L 184.979964 -51.954545 
L 184.524323 -51.954545 
L 184.068683 -51.954545 
L 183.613043 -51.954545 
L 183.157402 -51.954545 
L 182.701762 -51.954545 
L 182.246122 -51.954545 
L 181.790481 -51.954545 
L 181.334841 -51.954545 
L 180.879201 -51.954545 
L 180.42356 -51.954545 
L 179.96792 -51.954545 
L 179.512279 -51.954545 
L 179.056639 -51.954545 
L 178.600999 -51.954545 
L 178.145358 -51.954545 
L 177.689718 -51.954545 
L 177.234078 -51.954545 
L 176.778437 -51.954545 
L 176.322797 -51.954545 
L 175.867157 -51.954545 
L 175.411516 -51.954545 
L 174.955876 -51.954545 
L 174.500236 -51.954545 
L 174.044595 -51.954545 
L 173.588955 -51.954545 
L 173.133315 -51.954545 
L 172.677674 -51.954545 
L 172.222034 -51.954545 
L 171.766393 -51.954545 
L 171.310753 -51.954545 
L 170.855113 -51.954545 
L 170.399472 -51.954545 
L 169.943832 -51.954545 
L 169.488192 -51.954545 
L 169.032551 -51.954545 
L 168.576911 -51.954545 
L 168.121271 -51.954545 
L 167.66563 -51.954545 
L 167.20999 -51.954545 
L 166.75435 -51.954545 
L 166.298709 -51.954545 
L 165.843069 -51.954545 
L 165.387429 -51.954545 
L 164.931788 -51.954545 
L 164.476148 -51.954545 
L 164.020508 -51.954545 
L 163.564867 -51.954545 
L 163.109227 -51.954545 
L 162.653586 -51.954545 
L 162.197946 -51.954545 
L 161.742306 -51.954545 
L 161.286665 -51.954545 
L 160.831025 -51.954545 
L 160.375385 -51.954545 
L 159.919744 -51.954545 
L 159.464104 -51.954545 
L 159.008464 -51.954545 
L 158.552823 -51.954545 
L 158.097183 -51.954545 
L 157.641543 -51.954545 
L 157.185902 -51.954545 
L 156.730262 -51.954545 
L 156.274622 -51.954545 
L 155.818981 -51.954545 
L 155.363341 -51.954545 
L 154.9077 -51.954545 
L 154.45206 -51.954545 
L 153.99642 -51.954545 
L 153.540779 -51.954545 
L 153.085139 -51.954545 
L 152.629499 -51.954545 
L 152.173858 -51.954545 
L 151.718218 -51.954545 
L 151.262578 -51.954545 
L 150.806937 -51.954545 
L 150.351297 -51.954545 
L 149.895657 -51.954545 
L 149.440016 -51.954545 
L 148.984376 -51.954545 
L 148.528736 -51.954545 
L 148.073095 -51.954545 
L 147.617455 -51.954545 
L 147.161815 -51.954545 
L 146.706174 -51.954545 
L 146.250534 -51.954545 
L 145.794893 -51.954545 
L 145.339253 -51.954545 
L 144.883613 -51.954545 
L 144.427972 -51.954545 
L 143.972332 -51.954545 
L 143.516692 -51.954545 
L 143.061051 -51.954545 
L 142.605411 -51.954545 
L 142.149771 -51.954545 
L 141.69413 -51.954545 
L 141.23849 -51.954545 
L 140.78285 -51.954545 
L 140.327209 -51.954545 
L 139.871569 -51.954545 
L 139.415929 -51.954545 
L 138.960288 -51.954545 
L 138.504648 -51.954545 
L 138.049007 -51.954545 
L 137.593367 -51.954545 
L 137.137727 -51.954545 
L 136.682086 -51.954545 
L 136.226446 -51.954545 
L 135.770806 -51.954545 
L 135.315165 -51.954545 
L 134.859525 -51.954545 
L 134.403885 -51.954545 
L 133.948244 -51.954545 
L 133.492604 -51.954545 
L 133.036964 -51.954545 
L 132.581323 -51.954545 
L 132.125683 -51.954545 
L 131.670043 -51.954545 
L 131.214402 -51.954545 
L 130.758762 -51.954545 
L 130.303122 -51.954545 
L 129.847481 -51.954545 
L 129.391841 -51.954545 
L 128.9362 -51.954545 
L 128.48056 -51.954545 
L 128.02492 -51.954545 
L 127.569279 -51.954545 
L 127.113639 -51.954545 
L 126.657999 -51.954545 
L 126.202358 -51.954545 
L 125.746718 -51.954545 
L 125.291078 -51.954545 
L 124.835437 -51.954545 
L 124.379797 -51.954545 
L 123.924157 -51.954545 
L 123.468516 -51.954545 
L 123.012876 -51.954545 
L 122.557236 -51.954545 
L 122.101595 -51.954545 
L 121.645955 -51.954545 
L 121.190315 -51.954545 
L 120.734674 -51.954545 
L 120.279034 -51.954545 
L 119.823393 -51.954545 
L 119.367753 -51.954545 
L 118.912113 -51.954545 
L 118.456472 -51.954545 
L 118.000832 -51.954545 
L 117.545192 -51.954545 
L 117.089551 -51.954545 
L 116.633911 -51.954545 
L 116.178271 -51.954545 
L 115.72263 -51.954545 
L 115.26699 -51.954545 
L 114.81135 -51.954545 
L 114.355709 -51.954545 
L 113.900069 -51.954545 
L 113.444429 -51.954545 
L 112.988788 -51.954545 
L 112.533148 -51.954545 
L 112.077507 -51.954545 
L 111.621867 -51.954545 
L 111.166227 -51.954545 
L 110.710586 -51.954545 
L 110.254946 -51.954545 
L 109.799306 -51.954545 
L 109.343665 -51.954545 
L 108.888025 -51.954545 
L 108.432385 -51.954545 
L 107.976744 -51.954545 
L 107.521104 -51.954545 
L 107.065464 -51.954545 
L 106.609823 -51.954545 
L 106.154183 -51.954545 
L 105.698543 -51.954545 
L 105.242902 -51.954545 
L 104.787262 -51.954545 
L 104.331622 -51.954545 
L 103.875981 -51.954545 
L 103.420341 -51.954545 
L 102.9647 -51.954545 
L 102.50906 -51.954545 
L 102.05342 -51.954545 
L 101.597779 -51.954545 
L 101.142139 -51.954545 
L 100.686499 -51.954545 
L 100.230858 -51.954545 
L 99.775218 -51.954545 
L 99.319578 -51.954545 
L 98.863937 -51.954545 
L 98.408297 -51.954545 
L 97.952657 -51.954545 
L 97.497016 -51.954545 
L 97.041376 -51.954545 
L 96.585736 -51.954545 
L 96.130095 -51.954545 
L 95.674455 -51.954545 
L 95.218814 -51.954545 
L 94.763174 -51.954545 
L 94.307534 -51.954545 
L 93.851893 -51.954545 
L 93.396253 -51.954545 
L 92.940613 -51.954545 
L 92.484972 -51.954545 
L 92.029332 -51.954545 
L 91.573692 -51.954545 
L 91.118051 -51.954545 
L 90.662411 -51.954545 
L 90.206771 -51.954545 
L 89.75113 -51.954545 
L 89.29549 -51.954545 
L 88.83985 -51.954545 
L 88.384209 -51.954545 
L 87.928569 -51.954545 
L 87.472929 -51.954545 
L 87.017288 -51.954545 
L 86.561648 -51.954545 
L 86.106007 -51.954545 
L 85.650367 -51.954545 
L 85.194727 -51.954545 
L 84.739086 -51.954545 
L 84.283446 -51.954545 
L 83.827806 -51.954545 
L 83.372165 -51.954545 
L 82.916525 -51.954545 
L 82.460885 -51.954545 
L 82.005244 -51.954545 
L 81.549604 -51.954545 
L 81.093964 -51.954545 
L 80.638323 -51.954545 
L 80.182683 -51.954545 
L 79.727043 -51.954545 
L 79.271402 -51.954545 
L 78.815762 -51.954545 
L 78.360122 -51.954545 
L 77.904481 -51.954545 
L 77.448841 -51.954545 
L 76.9932 -51.954545 
L 76.53756 -51.954545 
L 76.08192 -51.954545 
L 75.626279 -51.954545 
L 75.170639 -51.954545 
L 74.714999 -51.954545 
L 74.259358 -51.954545 
L 73.803718 -51.954545 
L 73.348078 -51.954545 
L 72.892437 -51.954545 
L 72.436797 -51.954545 
L 71.981157 -51.954545 
L 71.525516 -51.954545 
L 71.069876 -51.954545 
L 70.614236 -51.954545 
z
" style="stroke: #808080; stroke-opacity: 0.3"/>
    </defs>
    <g clip-path="url(#pb4e34367d1)">
     <use xlink:href="#mbff82d0c6f" x="0" y="288" style="fill: #808080; fill-opacity: 0.3; stroke: #808080; stroke-opacity: 0.3"/>
    </g>
   </g>
   <g id="matplotlib.axis_1">
    <g id="xtick_1">
     <g id="line2d_1">
      <defs>
       <path id="m4f4fa0e2a4" d="M 0 0 
L 0 3.5 
" style="stroke: #000000; stroke-width: 0.8"/>
      </defs>
      <g>
       <use xlink:href="#m4f4fa0e2a4" x="70.614236" y="246.04" style="stroke: #000000; stroke-width: 0.8"/>
      </g>
     </g>
     <g id="text_1">
      <!-- 4 -->
      <g transform="translate(63.243142 260.638438) scale(0.1 -0.1)">
       <defs>
        <path id="DejaVuSans-2212" d="M 678 2272 
L 4684 2272 
L 4684 1741 
L 678 1741 
L 678 2272 
z
" transform="scale(0.015625)"/>
        <path id="DejaVuSans-34" d="M 2419 4116 
L 825 1625 
L 2419 1625 
L 2419 4116 
z
M 2253 4666 
L 3047 4666 
L 3047 1625 
L 3713 1625 
L 3713 1100 
L 3047 1100 
L 3047 0 
L 2419 0 
L 2419 1100 
L 313 1100 
L 313 1709 
L 2253 4666 
z
" transform="scale(0.015625)"/>
       </defs>
       <use xlink:href="#DejaVuSans-2212"/>
       <use xlink:href="#DejaVuSans-34" transform="translate(83.789062 0)"/>
      </g>
     </g>
    </g>
    <g id="xtick_2">
     <g id="line2d_2">
      <g>
       <use xlink:href="#m4f4fa0e2a4" x="127.512324" y="246.04" style="stroke: #000000; stroke-width: 0.8"/>
      </g>
     </g>
     <g id="text_2">
      <!-- 3 -->
      <g transform="translate(120.141231 260.638438) scale(0.1 -0.1)">
       <defs>
        <path id="DejaVuSans-33" d="M 2597 2516 
Q 3050 2419 3304 2112 
Q 3559 1806 3559 1356 
Q 3559 666 3084 287 
Q 2609 -91 1734 -91 
Q 1441 -91 1130 -33 
Q 819 25 488 141 
L 488 750 
Q 750 597 1062 519 
Q 1375 441 1716 441 
Q 2309 441 2620 675 
Q 2931 909 2931 1356 
Q 2931 1769 2642 2001 
Q 2353 2234 1838 2234 
L 1294 2234 
L 1294 2753 
L 1863 2753 
Q 2328 2753 2575 2939 
Q 2822 3125 2822 3475 
Q 2822 3834 2567 4026 
Q 2313 4219 1838 4219 
Q 1578 4219 1281 4162 
Q 984 4106 628 3988 
L 628 4550 
Q 988 4650 1302 4700 
Q 1616 4750 1894 4750 
Q 2613 4750 3031 4423 
Q 3450 4097 3450 3541 
Q 3450 3153 3228 2886 
Q 3006 2619 2597 2516 
z
" transform="scale(0.015625)"/>
       </defs>
       <use xlink:href="#DejaVuSans-2212"/>
       <use xlink:href="#DejaVuSans-33" transform="translate(83.789062 0)"/>
      </g>
     </g>
    </g>
    <g id="xtick_3">
     <g id="line2d_3">
      <g>
       <use xlink:href="#m4f4fa0e2a4" x="184.410413" y="246.04" style="stroke: #000000; stroke-width: 0.8"/>
      </g>
     </g>
     <g id="text_3">
      <!-- 2 -->
      <g transform="translate(177.039319 260.638438) scale(0.1 -0.1)">
       <defs>
        <path id="DejaVuSans-32" d="M 1228 531 
L 3431 531 
L 3431 0 
L 469 0 
L 469 531 
Q 828 903 1448 1529 
Q 2069 2156 2228 2338 
Q 2531 2678 2651 2914 
Q 2772 3150 2772 3378 
Q 2772 3750 2511 3984 
Q 2250 4219 1831 4219 
Q 1534 4219 1204 4116 
Q 875 4013 500 3803 
L 500 4441 
Q 881 4594 1212 4672 
Q 1544 4750 1819 4750 
Q 2544 4750 2975 4387 
Q 3406 4025 3406 3419 
Q 3406 3131 3298 2873 
Q 3191 2616 2906 2266 
Q 2828 2175 2409 1742 
Q 1991 1309 1228 531 
z
" transform="scale(0.015625)"/>
       </defs>
       <use xlink:href="#DejaVuSans-2212"/>
       <use xlink:href="#DejaVuSans-32" transform="translate(83.789062 0)"/>
      </g>
     </g>
    </g>
    <g id="xtick_4">
     <g id="line2d_4">
      <g>
       <use xlink:href="#m4f4fa0e2a4" x="241.308502" y="246.04" style="stroke: #000000; stroke-width: 0.8"/>
      </g>
     </g>
     <g id="text_4">
      <!-- 1 -->
      <g transform="translate(233.937408 260.638438) scale(0.1 -0.1)">
       <defs>
        <path id="DejaVuSans-31" d="M 794 531 
L 1825 531 
L 1825 4091 
L 703 3866 
L 703 4441 
L 1819 4666 
L 2450 4666 
L 2450 531 
L 3481 531 
L 3481 0 
L 794 0 
L 794 531 
z
" transform="scale(0.015625)"/>
       </defs>
       <use xlink:href="#DejaVuSans-2212"/>
       <use xlink:href="#DejaVuSans-31" transform="translate(83.789062 0)"/>
      </g>
     </g>
    </g>
    <g id="xtick_5">
     <g id="line2d_5">
      <g>
       <use xlink:href="#m4f4fa0e2a4" x="298.206591" y="246.04" style="stroke: #000000; stroke-width: 0.8"/>
      </g>
     </g>
     <g id="text_5">
      <!-- 0 -->
      <g transform="translate(295.025341 260.638438) scale(0.1 -0.1)">
       <defs>
        <path id="DejaVuSans-30" d="M 2034 4250 
Q 1547 4250 1301 3770 
Q 1056 3291 1056 2328 
Q 1056 1369 1301 889 
Q 1547 409 2034 409 
Q 2525 409 2770 889 
Q 3016 1369 3016 2328 
Q 3016 3291 2770 3770 
Q 2525 4250 2034 4250 
z
M 2034 4750 
Q 2819 4750 3233 4129 
Q 3647 3509 3647 2328 
Q 3647 1150 3233 529 
Q 2819 -91 2034 -91 
Q 1250 -91 836 529 
Q 422 1150 422 2328 
Q 422 3509 836 4129 
Q 1250 4750 2034 4750 
z
" transform="scale(0.015625)"/>
       </defs>
       <use xlink:href="#DejaVuSans-30"/>
      </g>
     </g>
    </g>
    <g id="xtick_6">
     <g id="line2d_6">
      <g>
       <use xlink:href="#m4f4fa0e2a4" x="355.10468" y="246.04" style="stroke: #000000; stroke-width: 0.8"/>
      </g>
     </g>
     <g id="text_6">
      <!-- 1 -->
      <g transform="translate(351.92343 260.638438) scale(0.1 -0.1)">
       <use xlink:href="#DejaVuSans-31"/>
      </g>
     </g>
    </g>
    <g id="xtick_7">
     <g id="line2d_7">
      <g>
       <use xlink:href="#m4f4fa0e2a4" x="412.002769" y="246.04" style="stroke: #000000; stroke-width: 0.8"/>
      </g>
     </g>
     <g id="text_7">
      <!-- 2 -->
      <g transform="translate(408.821519 260.638438) scale(0.1 -0.1)">
       <use xlink:href="#DejaVuSans-32"/>
      </g>
     </g>
    </g>
    <g id="xtick_8">
     <g id="line2d_8">
      <g>
       <use xlink:href="#m4f4fa0e2a4" x="468.900857" y="246.04" style="stroke: #000000; stroke-width: 0.8"/>
      </g>
     </g>
     <g id="text_8">
      <!-- 3 -->
      <g transform="translate(465.719607 260.638438) scale(0.1 -0.1)">
       <use xlink:href="#DejaVuSans-33"/>
      </g>
     </g>
    </g>
    <g id="xtick_9">
     <g id="line2d_9">
      <g>
       <use xlink:href="#m4f4fa0e2a4" x="525.798946" y="246.04" style="stroke: #000000; stroke-width: 0.8"/>
      </g>
     </g>
     <g id="text_9">
      <!-- 4 -->
      <g transform="translate(522.617696 260.638438) scale(0.1 -0.1)">
       <use xlink:href="#DejaVuSans-34"/>
      </g>
     </g>
    </g>
    <g id="text_10">
     <!-- Selection Coefficient (s) -->
     <g transform="translate(238.598778 274.316562) scale(0.1 -0.1)">
      <defs>
       <path id="DejaVuSans-53" d="M 3425 4513 
L 3425 3897 
Q 3066 4069 2747 4153 
Q 2428 4238 2131 4238 
Q 1616 4238 1336 4038 
Q 1056 3838 1056 3469 
Q 1056 3159 1242 3001 
Q 1428 2844 1947 2747 
L 2328 2669 
Q 3034 2534 3370 2195 
Q 3706 1856 3706 1288 
Q 3706 609 3251 259 
Q 2797 -91 1919 -91 
Q 1588 -91 1214 -16 
Q 841 59 441 206 
L 441 856 
Q 825 641 1194 531 
Q 1563 422 1919 422 
Q 2459 422 2753 634 
Q 3047 847 3047 1241 
Q 3047 1584 2836 1778 
Q 2625 1972 2144 2069 
L 1759 2144 
Q 1053 2284 737 2584 
Q 422 2884 422 3419 
Q 422 4038 858 4394 
Q 1294 4750 2059 4750 
Q 2388 4750 2728 4690 
Q 3069 4631 3425 4513 
z
" transform="scale(0.015625)"/>
       <path id="DejaVuSans-65" d="M 3597 1894 
L 3597 1613 
L 953 1613 
Q 991 1019 1311 708 
Q 1631 397 2203 397 
Q 2534 397 2845 478 
Q 3156 559 3463 722 
L 3463 178 
Q 3153 47 2828 -22 
Q 2503 -91 2169 -91 
Q 1331 -91 842 396 
Q 353 884 353 1716 
Q 353 2575 817 3079 
Q 1281 3584 2069 3584 
Q 2775 3584 3186 3129 
Q 3597 2675 3597 1894 
z
M 3022 2063 
Q 3016 2534 2758 2815 
Q 2500 3097 2075 3097 
Q 1594 3097 1305 2825 
Q 1016 2553 972 2059 
L 3022 2063 
z
" transform="scale(0.015625)"/>
       <path id="DejaVuSans-6c" d="M 603 4863 
L 1178 4863 
L 1178 0 
L 603 0 
L 603 4863 
z
" transform="scale(0.015625)"/>
       <path id="DejaVuSans-63" d="M 3122 3366 
L 3122 2828 
Q 2878 2963 2633 3030 
Q 2388 3097 2138 3097 
Q 1578 3097 1268 2742 
Q 959 2388 959 1747 
Q 959 1106 1268 751 
Q 1578 397 2138 397 
Q 2388 397 2633 464 
Q 2878 531 3122 666 
L 3122 134 
Q 2881 22 2623 -34 
Q 2366 -91 2075 -91 
Q 1284 -91 818 406 
Q 353 903 353 1747 
Q 353 2603 823 3093 
Q 1294 3584 2113 3584 
Q 2378 3584 2631 3529 
Q 2884 3475 3122 3366 
z
" transform="scale(0.015625)"/>
       <path id="DejaVuSans-74" d="M 1172 4494 
L 1172 3500 
L 2356 3500 
L 2356 3053 
L 1172 3053 
L 1172 1153 
Q 1172 725 1289 603 
Q 1406 481 1766 481 
L 2356 481 
L 2356 0 
L 1766 0 
Q 1100 0 847 248 
Q 594 497 594 1153 
L 594 3053 
L 172 3053 
L 172 3500 
L 594 3500 
L 594 4494 
L 1172 4494 
z
" transform="scale(0.015625)"/>
       <path id="DejaVuSans-69" d="M 603 3500 
L 1178 3500 
L 1178 0 
L 603 0 
L 603 3500 
z
M 603 4863 
L 1178 4863 
L 1178 4134 
L 603 4134 
L 603 4863 
z
" transform="scale(0.015625)"/>
       <path id="DejaVuSans-6f" d="M 1959 3097 
Q 1497 3097 1228 2736 
Q 959 2375 959 1747 
Q 959 1119 1226 758 
Q 1494 397 1959 397 
Q 2419 397 2687 759 
Q 2956 1122 2956 1747 
Q 2956 2369 2687 2733 
Q 2419 3097 1959 3097 
z
M 1959 3584 
Q 2709 3584 3137 3096 
Q 3566 2609 3566 1747 
Q 3566 888 3137 398 
Q 2709 -91 1959 -91 
Q 1206 -91 779 398 
Q 353 888 353 1747 
Q 353 2609 779 3096 
Q 1206 3584 1959 3584 
z
" transform="scale(0.015625)"/>
       <path id="DejaVuSans-6e" d="M 3513 2113 
L 3513 0 
L 2938 0 
L 2938 2094 
Q 2938 2591 2744 2837 
Q 2550 3084 2163 3084 
Q 1697 3084 1428 2787 
Q 1159 2491 1159 1978 
L 1159 0 
L 581 0 
L 581 3500 
L 1159 3500 
L 1159 2956 
Q 1366 3272 1645 3428 
Q 1925 3584 2291 3584 
Q 2894 3584 3203 3211 
Q 3513 2838 3513 2113 
z
" transform="scale(0.015625)"/>
       <path id="DejaVuSans-20" transform="scale(0.015625)"/>
       <path id="DejaVuSans-43" d="M 4122 4306 
L 4122 3641 
Q 3803 3938 3442 4084 
Q 3081 4231 2675 4231 
Q 1875 4231 1450 3742 
Q 1025 3253 1025 2328 
Q 1025 1406 1450 917 
Q 1875 428 2675 428 
Q 3081 428 3442 575 
Q 3803 722 4122 1019 
L 4122 359 
Q 3791 134 3420 21 
Q 3050 -91 2638 -91 
Q 1578 -91 968 557 
Q 359 1206 359 2328 
Q 359 3453 968 4101 
Q 1578 4750 2638 4750 
Q 3056 4750 3426 4639 
Q 3797 4528 4122 4306 
z
" transform="scale(0.015625)"/>
       <path id="DejaVuSans-66" d="M 2375 4863 
L 2375 4384 
L 1825 4384 
Q 1516 4384 1395 4259 
Q 1275 4134 1275 3809 
L 1275 3500 
L 2222 3500 
L 2222 3053 
L 1275 3053 
L 1275 0 
L 697 0 
L 697 3053 
L 147 3053 
L 147 3500 
L 697 3500 
L 697 3744 
Q 697 4328 969 4595 
Q 1241 4863 1831 4863 
L 2375 4863 
z
" transform="scale(0.015625)"/>
       <path id="DejaVuSans-28" d="M 1984 4856 
Q 1566 4138 1362 3434 
Q 1159 2731 1159 2009 
Q 1159 1288 1364 580 
Q 1569 -128 1984 -844 
L 1484 -844 
Q 1016 -109 783 600 
Q 550 1309 550 2009 
Q 550 2706 781 3412 
Q 1013 4119 1484 4856 
L 1984 4856 
z
" transform="scale(0.015625)"/>
       <path id="DejaVuSans-73" d="M 2834 3397 
L 2834 2853 
Q 2591 2978 2328 3040 
Q 2066 3103 1784 3103 
Q 1356 3103 1142 2972 
Q 928 2841 928 2578 
Q 928 2378 1081 2264 
Q 1234 2150 1697 2047 
L 1894 2003 
Q 2506 1872 2764 1633 
Q 3022 1394 3022 966 
Q 3022 478 2636 193 
Q 2250 -91 1575 -91 
Q 1294 -91 989 -36 
Q 684 19 347 128 
L 347 722 
Q 666 556 975 473 
Q 1284 391 1588 391 
Q 1994 391 2212 530 
Q 2431 669 2431 922 
Q 2431 1156 2273 1281 
Q 2116 1406 1581 1522 
L 1381 1569 
Q 847 1681 609 1914 
Q 372 2147 372 2553 
Q 372 3047 722 3315 
Q 1072 3584 1716 3584 
Q 2034 3584 2315 3537 
Q 2597 3491 2834 3397 
z
" transform="scale(0.015625)"/>
       <path id="DejaVuSans-29" d="M 513 4856 
L 1013 4856 
Q 1481 4119 1714 3412 
Q 1947 2706 1947 2009 
Q 1947 1309 1714 600 
Q 1481 -109 1013 -844 
L 513 -844 
Q 928 -128 1133 580 
Q 1338 1288 1338 2009 
Q 1338 2731 1133 3434 
Q 928 4138 513 4856 
z
" transform="scale(0.015625)"/>
      </defs>
      <use xlink:href="#DejaVuSans-53"/>
      <use xlink:href="#DejaVuSans-65" transform="translate(63.476562 0)"/>
      <use xlink:href="#DejaVuSans-6c" transform="translate(125 0)"/>
      <use xlink:href="#DejaVuSans-65" transform="translate(152.783203 0)"/>
      <use xlink:href="#DejaVuSans-63" transform="translate(214.306641 0)"/>
      <use xlink:href="#DejaVuSans-74" transform="translate(269.287109 0)"/>
      <use xlink:href="#DejaVuSans-69" transform="translate(308.496094 0)"/>
      <use xlink:href="#DejaVuSans-6f" transform="translate(336.279297 0)"/>
      <use xlink:href="#DejaVuSans-6e" transform="translate(397.460938 0)"/>
      <use xlink:href="#DejaVuSans-20" transform="translate(460.839844 0)"/>
      <use xlink:href="#DejaVuSans-43" transform="translate(492.626953 0)"/>
      <use xlink:href="#DejaVuSans-6f" transform="translate(562.451172 0)"/>
      <use xlink:href="#DejaVuSans-65" transform="translate(623.632812 0)"/>
      <use xlink:href="#DejaVuSans-66" transform="translate(685.15625 0)"/>
      <use xlink:href="#DejaVuSans-66" transform="translate(720.361328 0)"/>
      <use xlink:href="#DejaVuSans-69" transform="translate(755.566406 0)"/>
      <use xlink:href="#DejaVuSans-63" transform="translate(783.349609 0)"/>
      <use xlink:href="#DejaVuSans-69" transform="translate(838.330078 0)"/>
      <use xlink:href="#DejaVuSans-65" transform="translate(866.113281 0)"/>
      <use xlink:href="#DejaVuSans-6e" transform="translate(927.636719 0)"/>
      <use xlink:href="#DejaVuSans-74" transform="translate(991.015625 0)"/>
      <use xlink:href="#DejaVuSans-20" transform="translate(1030.224609 0)"/>
      <use xlink:href="#DejaVuSans-28" transform="translate(1062.011719 0)"/>
      <use xlink:href="#DejaVuSans-73" transform="translate(1101.025391 0)"/>
      <use xlink:href="#DejaVuSans-29" transform="translate(1153.125 0)"/>
     </g>
    </g>
   </g>
   <g id="matplotlib.axis_2">
    <g id="ytick_1">
     <g id="line2d_10">
      <defs>
       <path id="mcc2ca9ffb8" d="M 0 0 
L -3.5 0 
" style="stroke: #000000; stroke-width: 0.8"/>
      </defs>
      <g>
       <use xlink:href="#mcc2ca9ffb8" x="47.855" y="236.045455" style="stroke: #000000; stroke-width: 0.8"/>
      </g>
     </g>
     <g id="text_11">
      <!-- 0.0 -->
      <g transform="translate(24.951875 239.844673) scale(0.1 -0.1)">
       <defs>
        <path id="DejaVuSans-2e" d="M 684 794 
L 1344 794 
L 1344 0 
L 684 0 
L 684 794 
z
" transform="scale(0.015625)"/>
       </defs>
       <use xlink:href="#DejaVuSans-30"/>
       <use xlink:href="#DejaVuSans-2e" transform="translate(63.623047 0)"/>
       <use xlink:href="#DejaVuSans-30" transform="translate(95.410156 0)"/>
      </g>
     </g>
    </g>
    <g id="ytick_2">
     <g id="line2d_11">
      <g>
       <use xlink:href="#mcc2ca9ffb8" x="47.855" y="196.066632" style="stroke: #000000; stroke-width: 0.8"/>
      </g>
     </g>
     <g id="text_12">
      <!-- 0.2 -->
      <g transform="translate(24.951875 199.865851) scale(0.1 -0.1)">
       <use xlink:href="#DejaVuSans-30"/>
       <use xlink:href="#DejaVuSans-2e" transform="translate(63.623047 0)"/>
       <use xlink:href="#DejaVuSans-32" transform="translate(95.410156 0)"/>
      </g>
     </g>
    </g>
    <g id="ytick_3">
     <g id="line2d_12">
      <g>
       <use xlink:href="#mcc2ca9ffb8" x="47.855" y="156.087809" style="stroke: #000000; stroke-width: 0.8"/>
      </g>
     </g>
     <g id="text_13">
      <!-- 0.4 -->
      <g transform="translate(24.951875 159.887028) scale(0.1 -0.1)">
       <use xlink:href="#DejaVuSans-30"/>
       <use xlink:href="#DejaVuSans-2e" transform="translate(63.623047 0)"/>
       <use xlink:href="#DejaVuSans-34" transform="translate(95.410156 0)"/>
      </g>
     </g>
    </g>
    <g id="ytick_4">
     <g id="line2d_13">
      <g>
       <use xlink:href="#mcc2ca9ffb8" x="47.855" y="116.108986" style="stroke: #000000; stroke-width: 0.8"/>
      </g>
     </g>
     <g id="text_14">
      <!-- 0.6 -->
      <g transform="translate(24.951875 119.908205) scale(0.1 -0.1)">
       <defs>
        <path id="DejaVuSans-36" d="M 2113 2584 
Q 1688 2584 1439 2293 
Q 1191 2003 1191 1497 
Q 1191 994 1439 701 
Q 1688 409 2113 409 
Q 2538 409 2786 701 
Q 3034 994 3034 1497 
Q 3034 2003 2786 2293 
Q 2538 2584 2113 2584 
z
M 3366 4563 
L 3366 3988 
Q 3128 4100 2886 4159 
Q 2644 4219 2406 4219 
Q 1781 4219 1451 3797 
Q 1122 3375 1075 2522 
Q 1259 2794 1537 2939 
Q 1816 3084 2150 3084 
Q 2853 3084 3261 2657 
Q 3669 2231 3669 1497 
Q 3669 778 3244 343 
Q 2819 -91 2113 -91 
Q 1303 -91 875 529 
Q 447 1150 447 2328 
Q 447 3434 972 4092 
Q 1497 4750 2381 4750 
Q 2619 4750 2861 4703 
Q 3103 4656 3366 4563 
z
" transform="scale(0.015625)"/>
       </defs>
       <use xlink:href="#DejaVuSans-30"/>
       <use xlink:href="#DejaVuSans-2e" transform="translate(63.623047 0)"/>
       <use xlink:href="#DejaVuSans-36" transform="translate(95.410156 0)"/>
      </g>
     </g>
    </g>
    <g id="ytick_5">
     <g id="line2d_14">
      <g>
       <use xlink:href="#mcc2ca9ffb8" x="47.855" y="76.130164" style="stroke: #000000; stroke-width: 0.8"/>
      </g>
     </g>
     <g id="text_15">
      <!-- 0.8 -->
      <g transform="translate(24.951875 79.929382) scale(0.1 -0.1)">
       <defs>
        <path id="DejaVuSans-38" d="M 2034 2216 
Q 1584 2216 1326 1975 
Q 1069 1734 1069 1313 
Q 1069 891 1326 650 
Q 1584 409 2034 409 
Q 2484 409 2743 651 
Q 3003 894 3003 1313 
Q 3003 1734 2745 1975 
Q 2488 2216 2034 2216 
z
M 1403 2484 
Q 997 2584 770 2862 
Q 544 3141 544 3541 
Q 544 4100 942 4425 
Q 1341 4750 2034 4750 
Q 2731 4750 3128 4425 
Q 3525 4100 3525 3541 
Q 3525 3141 3298 2862 
Q 3072 2584 2669 2484 
Q 3125 2378 3379 2068 
Q 3634 1759 3634 1313 
Q 3634 634 3220 271 
Q 2806 -91 2034 -91 
Q 1263 -91 848 271 
Q 434 634 434 1313 
Q 434 1759 690 2068 
Q 947 2378 1403 2484 
z
M 1172 3481 
Q 1172 3119 1398 2916 
Q 1625 2713 2034 2713 
Q 2441 2713 2670 2916 
Q 2900 3119 2900 3481 
Q 2900 3844 2670 4047 
Q 2441 4250 2034 4250 
Q 1625 4250 1398 4047 
Q 1172 3844 1172 3481 
z
" transform="scale(0.015625)"/>
       </defs>
       <use xlink:href="#DejaVuSans-30"/>
       <use xlink:href="#DejaVuSans-2e" transform="translate(63.623047 0)"/>
       <use xlink:href="#DejaVuSans-38" transform="translate(95.410156 0)"/>
      </g>
     </g>
    </g>
    <g id="ytick_6">
     <g id="line2d_15">
      <g>
       <use xlink:href="#mcc2ca9ffb8" x="47.855" y="36.151341" style="stroke: #000000; stroke-width: 0.8"/>
      </g>
     </g>
     <g id="text_16">
      <!-- 1.0 -->
      <g transform="translate(24.951875 39.95056) scale(0.1 -0.1)">
       <use xlink:href="#DejaVuSans-31"/>
       <use xlink:href="#DejaVuSans-2e" transform="translate(63.623047 0)"/>
       <use xlink:href="#DejaVuSans-30" transform="translate(95.410156 0)"/>
      </g>
     </g>
    </g>
    <g id="text_17">
     <!-- Frequency -->
     <g transform="translate(18.872187 161.929687) rotate(-90) scale(0.1 -0.1)">
      <defs>
       <path id="DejaVuSans-46" d="M 628 4666 
L 3309 4666 
L 3309 4134 
L 1259 4134 
L 1259 2759 
L 3109 2759 
L 3109 2228 
L 1259 2228 
L 1259 0 
L 628 0 
L 628 4666 
z
" transform="scale(0.015625)"/>
       <path id="DejaVuSans-72" d="M 2631 2963 
Q 2534 3019 2420 3045 
Q 2306 3072 2169 3072 
Q 1681 3072 1420 2755 
Q 1159 2438 1159 1844 
L 1159 0 
L 581 0 
L 581 3500 
L 1159 3500 
L 1159 2956 
Q 1341 3275 1631 3429 
Q 1922 3584 2338 3584 
Q 2397 3584 2469 3576 
Q 2541 3569 2628 3553 
L 2631 2963 
z
" transform="scale(0.015625)"/>
       <path id="DejaVuSans-71" d="M 947 1747 
Q 947 1113 1208 752 
Q 1469 391 1925 391 
Q 2381 391 2643 752 
Q 2906 1113 2906 1747 
Q 2906 2381 2643 2742 
Q 2381 3103 1925 3103 
Q 1469 3103 1208 2742 
Q 947 2381 947 1747 
z
M 2906 525 
Q 2725 213 2448 61 
Q 2172 -91 1784 -91 
Q 1150 -91 751 415 
Q 353 922 353 1747 
Q 353 2572 751 3078 
Q 1150 3584 1784 3584 
Q 2172 3584 2448 3432 
Q 2725 3281 2906 2969 
L 2906 3500 
L 3481 3500 
L 3481 -1331 
L 2906 -1331 
L 2906 525 
z
" transform="scale(0.015625)"/>
       <path id="DejaVuSans-75" d="M 544 1381 
L 544 3500 
L 1119 3500 
L 1119 1403 
Q 1119 906 1312 657 
Q 1506 409 1894 409 
Q 2359 409 2629 706 
Q 2900 1003 2900 1516 
L 2900 3500 
L 3475 3500 
L 3475 0 
L 2900 0 
L 2900 538 
Q 2691 219 2414 64 
Q 2138 -91 1772 -91 
Q 1169 -91 856 284 
Q 544 659 544 1381 
z
M 1991 3584 
L 1991 3584 
z
" transform="scale(0.015625)"/>
       <path id="DejaVuSans-79" d="M 2059 -325 
Q 1816 -950 1584 -1140 
Q 1353 -1331 966 -1331 
L 506 -1331 
L 506 -850 
L 844 -850 
Q 1081 -850 1212 -737 
Q 1344 -625 1503 -206 
L 1606 56 
L 191 3500 
L 800 3500 
L 1894 763 
L 2988 3500 
L 3597 3500 
L 2059 -325 
z
" transform="scale(0.015625)"/>
      </defs>
      <use xlink:href="#DejaVuSans-46"/>
      <use xlink:href="#DejaVuSans-72" transform="translate(50.269531 0)"/>
      <use xlink:href="#DejaVuSans-65" transform="translate(89.132812 0)"/>
      <use xlink:href="#DejaVuSans-71" transform="translate(150.65625 0)"/>
      <use xlink:href="#DejaVuSans-75" transform="translate(214.132812 0)"/>
      <use xlink:href="#DejaVuSans-65" transform="translate(277.511719 0)"/>
      <use xlink:href="#DejaVuSans-6e" transform="translate(339.035156 0)"/>
      <use xlink:href="#DejaVuSans-63" transform="translate(402.414062 0)"/>
      <use xlink:href="#DejaVuSans-79" transform="translate(457.394531 0)"/>
     </g>
    </g>
   </g>
   <g id="patch_3">
    <path d="M 47.855 246.04 
L 47.855 26.16 
" style="fill: none; stroke: #000000; stroke-width: 0.8; stroke-linejoin: miter; stroke-linecap: square"/>
   </g>
   <g id="patch_4">
    <path d="M 548.558182 246.04 
L 548.558182 26.16 
" style="fill: none; stroke: #000000; stroke-width: 0.8; stroke-linejoin: miter; stroke-linecap: square"/>
   </g>
   <g id="patch_5">
    <path d="M 47.855 246.04 
L 548.558182 246.04 
" style="fill: none; stroke: #000000; stroke-width: 0.8; stroke-linejoin: miter; stroke-linecap: square"/>
   </g>
   <g id="patch_6">
    <path d="M 47.855 26.16 
L 548.558182 26.16 
" style="fill: none; stroke: #000000; stroke-width: 0.8; stroke-linejoin: miter; stroke-linecap: square"/>
   </g>
   <g id="patch_7">
    <path d="M 143.629603 162.121524 
Q 135.789842 197.107254 128.194551 231.002006 
" style="fill: none; stroke: #000000; stroke-linecap: round"/>
    <path d="M 131.0208 227.536127 
L 128.194551 231.002006 
L 127.117597 226.66148 
" style="fill: none; stroke: #000000; stroke-linecap: round"/>
   </g>
   <g id="text_18">
    <!-- Purifying Selection -->
    <g transform="translate(99.06328 156.087809) scale(0.1 -0.1)">
     <defs>
      <path id="DejaVuSans-50" d="M 1259 4147 
L 1259 2394 
L 2053 2394 
Q 2494 2394 2734 2622 
Q 2975 2850 2975 3272 
Q 2975 3691 2734 3919 
Q 2494 4147 2053 4147 
L 1259 4147 
z
M 628 4666 
L 2053 4666 
Q 2838 4666 3239 4311 
Q 3641 3956 3641 3272 
Q 3641 2581 3239 2228 
Q 2838 1875 2053 1875 
L 1259 1875 
L 1259 0 
L 628 0 
L 628 4666 
z
" transform="scale(0.015625)"/>
      <path id="DejaVuSans-67" d="M 2906 1791 
Q 2906 2416 2648 2759 
Q 2391 3103 1925 3103 
Q 1463 3103 1205 2759 
Q 947 2416 947 1791 
Q 947 1169 1205 825 
Q 1463 481 1925 481 
Q 2391 481 2648 825 
Q 2906 1169 2906 1791 
z
M 3481 434 
Q 3481 -459 3084 -895 
Q 2688 -1331 1869 -1331 
Q 1566 -1331 1297 -1286 
Q 1028 -1241 775 -1147 
L 775 -588 
Q 1028 -725 1275 -790 
Q 1522 -856 1778 -856 
Q 2344 -856 2625 -561 
Q 2906 -266 2906 331 
L 2906 616 
Q 2728 306 2450 153 
Q 2172 0 1784 0 
Q 1141 0 747 490 
Q 353 981 353 1791 
Q 353 2603 747 3093 
Q 1141 3584 1784 3584 
Q 2172 3584 2450 3431 
Q 2728 3278 2906 2969 
L 2906 3500 
L 3481 3500 
L 3481 434 
z
" transform="scale(0.015625)"/>
     </defs>
     <use xlink:href="#DejaVuSans-50"/>
     <use xlink:href="#DejaVuSans-75" transform="translate(58.552734 0)"/>
     <use xlink:href="#DejaVuSans-72" transform="translate(121.931641 0)"/>
     <use xlink:href="#DejaVuSans-69" transform="translate(163.044922 0)"/>
     <use xlink:href="#DejaVuSans-66" transform="translate(190.828125 0)"/>
     <use xlink:href="#DejaVuSans-79" transform="translate(224.283203 0)"/>
     <use xlink:href="#DejaVuSans-69" transform="translate(283.462891 0)"/>
     <use xlink:href="#DejaVuSans-6e" transform="translate(311.246094 0)"/>
     <use xlink:href="#DejaVuSans-67" transform="translate(374.625 0)"/>
     <use xlink:href="#DejaVuSans-20" transform="translate(438.101562 0)"/>
     <use xlink:href="#DejaVuSans-53" transform="translate(469.888672 0)"/>
     <use xlink:href="#DejaVuSans-65" transform="translate(533.365234 0)"/>
     <use xlink:href="#DejaVuSans-6c" transform="translate(594.888672 0)"/>
     <use xlink:href="#DejaVuSans-65" transform="translate(622.671875 0)"/>
     <use xlink:href="#DejaVuSans-63" transform="translate(684.195312 0)"/>
     <use xlink:href="#DejaVuSans-74" transform="translate(739.175781 0)"/>
     <use xlink:href="#DejaVuSans-69" transform="translate(778.384766 0)"/>
     <use xlink:href="#DejaVuSans-6f" transform="translate(806.167969 0)"/>
     <use xlink:href="#DejaVuSans-6e" transform="translate(867.349609 0)"/>
    </g>
   </g>
   <g id="patch_8">
    <path d="M 508.128743 161.925377 
Q 488.993058 197.106661 470.391581 231.305793 
" style="fill: none; stroke: #000000; stroke-linecap: round"/>
    <path d="M 474.059749 228.747563 
L 470.391581 231.305793 
L 470.545897 226.83632 
" style="fill: none; stroke: #000000; stroke-linecap: round"/>
   </g>
   <g id="text_19">
    <!-- Positive Selection -->
    <g transform="translate(468.900857 156.087809) scale(0.1 -0.1)">
     <defs>
      <path id="DejaVuSans-76" d="M 191 3500 
L 800 3500 
L 1894 563 
L 2988 3500 
L 3597 3500 
L 2284 0 
L 1503 0 
L 191 3500 
z
" transform="scale(0.015625)"/>
     </defs>
     <use xlink:href="#DejaVuSans-50"/>
     <use xlink:href="#DejaVuSans-6f" transform="translate(56.677734 0)"/>
     <use xlink:href="#DejaVuSans-73" transform="translate(117.859375 0)"/>
     <use xlink:href="#DejaVuSans-69" transform="translate(169.958984 0)"/>
     <use xlink:href="#DejaVuSans-74" transform="translate(197.742188 0)"/>
     <use xlink:href="#DejaVuSans-69" transform="translate(236.951172 0)"/>
     <use xlink:href="#DejaVuSans-76" transform="translate(264.734375 0)"/>
     <use xlink:href="#DejaVuSans-65" transform="translate(323.914062 0)"/>
     <use xlink:href="#DejaVuSans-20" transform="translate(385.4375 0)"/>
     <use xlink:href="#DejaVuSans-53" transform="translate(417.224609 0)"/>
     <use xlink:href="#DejaVuSans-65" transform="translate(480.701172 0)"/>
     <use xlink:href="#DejaVuSans-6c" transform="translate(542.224609 0)"/>
     <use xlink:href="#DejaVuSans-65" transform="translate(570.007812 0)"/>
     <use xlink:href="#DejaVuSans-63" transform="translate(631.53125 0)"/>
     <use xlink:href="#DejaVuSans-74" transform="translate(686.511719 0)"/>
     <use xlink:href="#DejaVuSans-69" transform="translate(725.720703 0)"/>
     <use xlink:href="#DejaVuSans-6f" transform="translate(753.503906 0)"/>
     <use xlink:href="#DejaVuSans-6e" transform="translate(814.685547 0)"/>
    </g>
   </g>
   <g id="text_20">
    <!-- The Distribution of Variation -->
    <g transform="translate(213.921591 20.16) scale(0.12 -0.12)">
     <defs>
      <path id="DejaVuSans-54" d="M -19 4666 
L 3928 4666 
L 3928 4134 
L 2272 4134 
L 2272 0 
L 1638 0 
L 1638 4134 
L -19 4134 
L -19 4666 
z
" transform="scale(0.015625)"/>
      <path id="DejaVuSans-68" d="M 3513 2113 
L 3513 0 
L 2938 0 
L 2938 2094 
Q 2938 2591 2744 2837 
Q 2550 3084 2163 3084 
Q 1697 3084 1428 2787 
Q 1159 2491 1159 1978 
L 1159 0 
L 581 0 
L 581 4863 
L 1159 4863 
L 1159 2956 
Q 1366 3272 1645 3428 
Q 1925 3584 2291 3584 
Q 2894 3584 3203 3211 
Q 3513 2838 3513 2113 
z
" transform="scale(0.015625)"/>
      <path id="DejaVuSans-44" d="M 1259 4147 
L 1259 519 
L 2022 519 
Q 2988 519 3436 956 
Q 3884 1394 3884 2338 
Q 3884 3275 3436 3711 
Q 2988 4147 2022 4147 
L 1259 4147 
z
M 628 4666 
L 1925 4666 
Q 3281 4666 3915 4102 
Q 4550 3538 4550 2338 
Q 4550 1131 3912 565 
Q 3275 0 1925 0 
L 628 0 
L 628 4666 
z
" transform="scale(0.015625)"/>
      <path id="DejaVuSans-62" d="M 3116 1747 
Q 3116 2381 2855 2742 
Q 2594 3103 2138 3103 
Q 1681 3103 1420 2742 
Q 1159 2381 1159 1747 
Q 1159 1113 1420 752 
Q 1681 391 2138 391 
Q 2594 391 2855 752 
Q 3116 1113 3116 1747 
z
M 1159 2969 
Q 1341 3281 1617 3432 
Q 1894 3584 2278 3584 
Q 2916 3584 3314 3078 
Q 3713 2572 3713 1747 
Q 3713 922 3314 415 
Q 2916 -91 2278 -91 
Q 1894 -91 1617 61 
Q 1341 213 1159 525 
L 1159 0 
L 581 0 
L 581 4863 
L 1159 4863 
L 1159 2969 
z
" transform="scale(0.015625)"/>
      <path id="DejaVuSans-56" d="M 1831 0 
L 50 4666 
L 709 4666 
L 2188 738 
L 3669 4666 
L 4325 4666 
L 2547 0 
L 1831 0 
z
" transform="scale(0.015625)"/>
      <path id="DejaVuSans-61" d="M 2194 1759 
Q 1497 1759 1228 1600 
Q 959 1441 959 1056 
Q 959 750 1161 570 
Q 1363 391 1709 391 
Q 2188 391 2477 730 
Q 2766 1069 2766 1631 
L 2766 1759 
L 2194 1759 
z
M 3341 1997 
L 3341 0 
L 2766 0 
L 2766 531 
Q 2569 213 2275 61 
Q 1981 -91 1556 -91 
Q 1019 -91 701 211 
Q 384 513 384 1019 
Q 384 1609 779 1909 
Q 1175 2209 1959 2209 
L 2766 2209 
L 2766 2266 
Q 2766 2663 2505 2880 
Q 2244 3097 1772 3097 
Q 1472 3097 1187 3025 
Q 903 2953 641 2809 
L 641 3341 
Q 956 3463 1253 3523 
Q 1550 3584 1831 3584 
Q 2591 3584 2966 3190 
Q 3341 2797 3341 1997 
z
" transform="scale(0.015625)"/>
     </defs>
     <use xlink:href="#DejaVuSans-54"/>
     <use xlink:href="#DejaVuSans-68" transform="translate(61.083984 0)"/>
     <use xlink:href="#DejaVuSans-65" transform="translate(124.462891 0)"/>
     <use xlink:href="#DejaVuSans-20" transform="translate(185.986328 0)"/>
     <use xlink:href="#DejaVuSans-44" transform="translate(217.773438 0)"/>
     <use xlink:href="#DejaVuSans-69" transform="translate(294.775391 0)"/>
     <use xlink:href="#DejaVuSans-73" transform="translate(322.558594 0)"/>
     <use xlink:href="#DejaVuSans-74" transform="translate(374.658203 0)"/>
     <use xlink:href="#DejaVuSans-72" transform="translate(413.867188 0)"/>
     <use xlink:href="#DejaVuSans-69" transform="translate(454.980469 0)"/>
     <use xlink:href="#DejaVuSans-62" transform="translate(482.763672 0)"/>
     <use xlink:href="#DejaVuSans-75" transform="translate(546.240234 0)"/>
     <use xlink:href="#DejaVuSans-74" transform="translate(609.619141 0)"/>
     <use xlink:href="#DejaVuSans-69" transform="translate(648.828125 0)"/>
     <use xlink:href="#DejaVuSans-6f" transform="translate(676.611328 0)"/>
     <use xlink:href="#DejaVuSans-6e" transform="translate(737.792969 0)"/>
     <use xlink:href="#DejaVuSans-20" transform="translate(801.171875 0)"/>
     <use xlink:href="#DejaVuSans-6f" transform="translate(832.958984 0)"/>
     <use xlink:href="#DejaVuSans-66" transform="translate(894.140625 0)"/>
     <use xlink:href="#DejaVuSans-20" transform="translate(929.345703 0)"/>
     <use xlink:href="#DejaVuSans-56" transform="translate(961.132812 0)"/>
     <use xlink:href="#DejaVuSans-61" transform="translate(1021.791016 0)"/>
     <use xlink:href="#DejaVuSans-72" transform="translate(1083.070312 0)"/>
     <use xlink:href="#DejaVuSans-69" transform="translate(1124.183594 0)"/>
     <use xlink:href="#DejaVuSans-61" transform="translate(1151.966797 0)"/>
     <use xlink:href="#DejaVuSans-74" transform="translate(1213.246094 0)"/>
     <use xlink:href="#DejaVuSans-69" transform="translate(1252.455078 0)"/>
     <use xlink:href="#DejaVuSans-6f" transform="translate(1280.238281 0)"/>
     <use xlink:href="#DejaVuSans-6e" transform="translate(1341.419922 0)"/>
    </g>
   </g>
   <g id="legend_1">
    <g id="patch_9">
     <path d="M 441.730057 48.838125 
L 541.558182 48.838125 
Q 543.558182 48.838125 543.558182 46.838125 
L 543.558182 33.16 
Q 543.558182 31.16 541.558182 31.16 
L 441.730057 31.16 
Q 439.730057 31.16 439.730057 33.16 
L 439.730057 46.838125 
Q 439.730057 48.838125 441.730057 48.838125 
z
" style="fill: #ffffff; opacity: 0.8; stroke: #cccccc; stroke-linejoin: miter"/>
    </g>
    <g id="patch_10">
     <path d="M 443.730057 42.758437 
L 463.730057 42.758437 
L 463.730057 35.758437 
L 443.730057 35.758437 
z
" style="fill: #808080; fill-opacity: 0.3; stroke: #808080; stroke-opacity: 0.3; stroke-linejoin: miter"/>
    </g>
    <g id="text_21">
     <!-- Neutral Noise -->
     <g transform="translate(471.730057 42.758437) scale(0.1 -0.1)">
      <defs>
       <path id="DejaVuSans-4e" d="M 628 4666 
L 1478 4666 
L 3547 763 
L 3547 4666 
L 4159 4666 
L 4159 0 
L 3309 0 
L 1241 3903 
L 1241 0 
L 628 0 
L 628 4666 
z
" transform="scale(0.015625)"/>
      </defs>
      <use xlink:href="#DejaVuSans-4e"/>
      <use xlink:href="#DejaVuSans-65" transform="translate(74.804688 0)"/>
      <use xlink:href="#DejaVuSans-75" transform="translate(136.328125 0)"/>
      <use xlink:href="#DejaVuSans-74" transform="translate(199.707031 0)"/>
      <use xlink:href="#DejaVuSans-72" transform="translate(238.916016 0)"/>
      <use xlink:href="#DejaVuSans-61" transform="translate(280.029297 0)"/>
      <use xlink:href="#DejaVuSans-6c" transform="translate(341.308594 0)"/>
      <use xlink:href="#DejaVuSans-20" transform="translate(369.091797 0)"/>
      <use xlink:href="#DejaVuSans-4e" transform="translate(400.878906 0)"/>
      <use xlink:href="#DejaVuSans-6f" transform="translate(475.683594 0)"/>
      <use xlink:href="#DejaVuSans-69" transform="translate(536.865234 0)"/>
      <use xlink:href="#DejaVuSans-73" transform="translate(564.648438 0)"/>
      <use xlink:href="#DejaVuSans-65" transform="translate(616.748047 0)"/>
     </g>
    </g>
   </g>
  </g>
 </g>
 <defs>
  <clipPath id="pb4e34367d1">
   <rect x="47.855" y="26.16" width="500.703182" height="219.88"/>
  </clipPath>
 </defs>
</svg>
