<?xml version="1.0" encoding="utf-8" standalone="no"?>
<!DOCTYPE svg PUBLIC "-//W3C//DTD SVG 1.1//EN"
  "http://www.w3.org/Graphics/SVG/1.1/DTD/svg11.dtd">
<svg xmlns:xlink="http://www.w3.org/1999/xlink" width="576pt" height="288pt" viewBox="0 0 576 288" xmlns="http://www.w3.org/2000/svg" version="1.1">
 <metadata>
  <rdf:RDF xmlns:dc="http://purl.org/dc/elements/1.1/" xmlns:cc="http://creativecommons.org/ns#" xmlns:rdf="http://www.w3.org/1999/02/22-rdf-syntax-ns#">
   <cc:Work>
    <dc:type rdf:resource="http://purl.org/dc/dcmitype/StillImage"/>
    <dc:date>2026-01-10T00:54:11.915909</dc:date>
    <dc:format>image/svg+xml</dc:format>
    <dc:creator>
     <cc:Agent>
      <dc:title>Matplotlib v3.10.8, https://matplotlib.org/</dc:title>
     </cc:Agent>
    </dc:creator>
   </cc:Work>
  </rdf:RDF>
 </metadata>
 <defs>
  <style type="text/css">*{stroke-linejoin: round; stroke-linecap: butt}</style>
 </defs>
 <g id="figure_1">
  <g id="patch_1">
   <path d="M 0 288 
L 576 288 
L 576 0 
L 0 0 
z
" style="fill: #ffffff"/>
  </g>
  <g id="axes_1">
   <g id="text_1">
    <!-- Original: [ A ][ B ][ C ][ D ] -->
    <g transform="translate(10.8 75.864) scale(0.12 -0.12)">
     <defs>
      <path id="DejaVuSansMono-4f" d="M 2828 2328 
Q 2828 3356 2617 3797 
Q 2406 4238 1925 4238 
Q 1447 4238 1236 3797 
Q 1025 3356 1025 2328 
Q 1025 1303 1236 862 
Q 1447 422 1925 422 
Q 2406 422 2617 861 
Q 2828 1300 2828 2328 
z
M 3488 2328 
Q 3488 1109 3102 509 
Q 2716 -91 1925 -91 
Q 1134 -91 750 506 
Q 366 1103 366 2328 
Q 366 3550 752 4150 
Q 1138 4750 1925 4750 
Q 2716 4750 3102 4150 
Q 3488 3550 3488 2328 
z
" transform="scale(0.015625)"/>
      <path id="DejaVuSansMono-72" d="M 3609 2778 
Q 3425 2922 3234 2987 
Q 3044 3053 2816 3053 
Q 2278 3053 1993 2715 
Q 1709 2378 1709 1741 
L 1709 0 
L 1131 0 
L 1131 3500 
L 1709 3500 
L 1709 2816 
Q 1853 3188 2151 3386 
Q 2450 3584 2859 3584 
Q 3072 3584 3256 3531 
Q 3441 3478 3609 3366 
L 3609 2778 
z
" transform="scale(0.015625)"/>
      <path id="DejaVuSansMono-69" d="M 800 3500 
L 2272 3500 
L 2272 447 
L 3413 447 
L 3413 0 
L 556 0 
L 556 447 
L 1697 447 
L 1697 3053 
L 800 3053 
L 800 3500 
z
M 1697 4863 
L 2272 4863 
L 2272 4134 
L 1697 4134 
L 1697 4863 
z
" transform="scale(0.015625)"/>
      <path id="DejaVuSansMono-67" d="M 2681 1778 
Q 2681 2425 2470 2761 
Q 2259 3097 1856 3097 
Q 1434 3097 1212 2761 
Q 991 2425 991 1778 
Q 991 1131 1214 792 
Q 1438 453 1863 453 
Q 2259 453 2470 793 
Q 2681 1134 2681 1778 
z
M 3256 225 
Q 3256 -563 2884 -969 
Q 2513 -1375 1791 -1375 
Q 1553 -1375 1293 -1331 
Q 1034 -1288 775 -1203 
L 775 -634 
Q 1081 -778 1331 -847 
Q 1581 -916 1791 -916 
Q 2256 -916 2468 -662 
Q 2681 -409 2681 141 
L 2681 166 
L 2681 556 
Q 2544 263 2306 119 
Q 2069 -25 1728 -25 
Q 1116 -25 750 465 
Q 384 956 384 1778 
Q 384 2603 750 3093 
Q 1116 3584 1728 3584 
Q 2066 3584 2300 3450 
Q 2534 3316 2681 3034 
L 2681 3488 
L 3256 3488 
L 3256 225 
z
" transform="scale(0.015625)"/>
      <path id="DejaVuSansMono-6e" d="M 3284 2169 
L 3284 0 
L 2706 0 
L 2706 2169 
Q 2706 2641 2540 2862 
Q 2375 3084 2022 3084 
Q 1619 3084 1401 2798 
Q 1184 2513 1184 1978 
L 1184 0 
L 609 0 
L 609 3500 
L 1184 3500 
L 1184 2975 
Q 1338 3275 1600 3429 
Q 1863 3584 2222 3584 
Q 2756 3584 3020 3232 
Q 3284 2881 3284 2169 
z
" transform="scale(0.015625)"/>
      <path id="DejaVuSansMono-61" d="M 2194 1759 
L 2003 1759 
Q 1500 1759 1245 1582 
Q 991 1406 991 1056 
Q 991 741 1181 566 
Q 1372 391 1709 391 
Q 2184 391 2456 720 
Q 2728 1050 2731 1631 
L 2731 1759 
L 2194 1759 
z
M 3309 1997 
L 3309 0 
L 2731 0 
L 2731 519 
Q 2547 206 2267 57 
Q 1988 -91 1588 -91 
Q 1053 -91 734 211 
Q 416 513 416 1019 
Q 416 1603 808 1906 
Q 1200 2209 1959 2209 
L 2731 2209 
L 2731 2300 
Q 2728 2719 2518 2908 
Q 2309 3097 1850 3097 
Q 1556 3097 1256 3012 
Q 956 2928 672 2766 
L 672 3341 
Q 991 3463 1283 3523 
Q 1575 3584 1850 3584 
Q 2284 3584 2592 3456 
Q 2900 3328 3091 3072 
Q 3209 2916 3259 2686 
Q 3309 2456 3309 1997 
z
" transform="scale(0.015625)"/>
      <path id="DejaVuSansMono-6c" d="M 1997 1269 
Q 1997 881 2139 684 
Q 2281 488 2559 488 
L 3231 488 
L 3231 0 
L 2503 0 
Q 1988 0 1705 331 
Q 1422 663 1422 1269 
L 1422 4447 
L 500 4447 
L 500 4897 
L 1997 4897 
L 1997 1269 
z
" transform="scale(0.015625)"/>
      <path id="DejaVuSansMono-3a" d="M 1528 3322 
L 2316 3322 
L 2316 2375 
L 1528 2375 
L 1528 3322 
z
M 1528 953 
L 2316 953 
L 2316 0 
L 1528 0 
L 1528 953 
z
" transform="scale(0.015625)"/>
      <path id="DejaVuSansMono-20" transform="scale(0.015625)"/>
      <path id="DejaVuSansMono-5b" d="M 1447 4863 
L 2772 4863 
L 2772 4416 
L 2022 4416 
L 2022 -397 
L 2772 -397 
L 2772 -844 
L 1447 -844 
L 1447 4863 
z
" transform="scale(0.015625)"/>
      <path id="DejaVuSansMono-41" d="M 1925 4109 
L 1259 1722 
L 2591 1722 
L 1925 4109 
z
M 1544 4666 
L 2309 4666 
L 3738 0 
L 3084 0 
L 2741 1216 
L 1106 1216 
L 769 0 
L 116 0 
L 1544 4666 
z
" transform="scale(0.015625)"/>
      <path id="DejaVuSansMono-5d" d="M 2406 4863 
L 2406 -844 
L 1081 -844 
L 1081 -397 
L 1831 -397 
L 1831 4416 
L 1081 4416 
L 1081 4863 
L 2406 4863 
z
" transform="scale(0.015625)"/>
      <path id="DejaVuSansMono-42" d="M 1153 2228 
L 1153 519 
L 1900 519 
Q 2450 519 2684 711 
Q 2919 903 2919 1344 
Q 2919 1800 2672 2014 
Q 2425 2228 1900 2228 
L 1153 2228 
z
M 1153 4147 
L 1153 2741 
L 1888 2741 
Q 2344 2741 2548 2916 
Q 2753 3091 2753 3481 
Q 2753 3834 2551 3990 
Q 2350 4147 1888 4147 
L 1153 4147 
z
M 519 4666 
L 1900 4666 
Q 2616 4666 3003 4356 
Q 3391 4047 3391 3481 
Q 3391 3053 3186 2806 
Q 2981 2559 2572 2497 
Q 3031 2428 3292 2104 
Q 3553 1781 3553 1281 
Q 3553 647 3137 323 
Q 2722 0 1900 0 
L 519 0 
L 519 4666 
z
" transform="scale(0.015625)"/>
      <path id="DejaVuSansMono-43" d="M 3353 166 
Q 3113 38 2859 -26 
Q 2606 -91 2322 -91 
Q 1425 -91 929 543 
Q 434 1178 434 2328 
Q 434 3472 932 4111 
Q 1431 4750 2322 4750 
Q 2606 4750 2859 4686 
Q 3113 4622 3353 4494 
L 3353 3847 
Q 3122 4038 2856 4138 
Q 2591 4238 2322 4238 
Q 1706 4238 1400 3763 
Q 1094 3288 1094 2328 
Q 1094 1372 1400 897 
Q 1706 422 2322 422 
Q 2597 422 2861 522 
Q 3125 622 3353 813 
L 3353 166 
z
" transform="scale(0.015625)"/>
      <path id="DejaVuSansMono-44" d="M 1363 519 
Q 2159 519 2475 911 
Q 2791 1303 2791 2328 
Q 2791 3363 2477 3755 
Q 2163 4147 1363 4147 
L 1063 4147 
L 1063 519 
L 1363 519 
z
M 1375 4666 
Q 2444 4666 2950 4097 
Q 3456 3528 3456 2328 
Q 3456 1134 2950 567 
Q 2444 0 1375 0 
L 428 0 
L 428 4666 
L 1375 4666 
z
" transform="scale(0.015625)"/>
     </defs>
     <use xlink:href="#DejaVuSansMono-4f"/>
     <use xlink:href="#DejaVuSansMono-72" transform="translate(60.205078 0)"/>
     <use xlink:href="#DejaVuSansMono-69" transform="translate(120.410156 0)"/>
     <use xlink:href="#DejaVuSansMono-67" transform="translate(180.615234 0)"/>
     <use xlink:href="#DejaVuSansMono-69" transform="translate(240.820312 0)"/>
     <use xlink:href="#DejaVuSansMono-6e" transform="translate(301.025391 0)"/>
     <use xlink:href="#DejaVuSansMono-61" transform="translate(361.230469 0)"/>
     <use xlink:href="#DejaVuSansMono-6c" transform="translate(421.435547 0)"/>
     <use xlink:href="#DejaVuSansMono-3a" transform="translate(481.640625 0)"/>
     <use xlink:href="#DejaVuSansMono-20" transform="translate(541.845703 0)"/>
     <use xlink:href="#DejaVuSansMono-5b" transform="translate(602.050781 0)"/>
     <use xlink:href="#DejaVuSansMono-20" transform="translate(662.255859 0)"/>
     <use xlink:href="#DejaVuSansMono-41" transform="translate(722.460938 0)"/>
     <use xlink:href="#DejaVuSansMono-20" transform="translate(782.666016 0)"/>
     <use xlink:href="#DejaVuSansMono-5d" transform="translate(842.871094 0)"/>
     <use xlink:href="#DejaVuSansMono-5b" transform="translate(903.076172 0)"/>
     <use xlink:href="#DejaVuSansMono-20" transform="translate(963.28125 0)"/>
     <use xlink:href="#DejaVuSansMono-42" transform="translate(1023.486328 0)"/>
     <use xlink:href="#DejaVuSansMono-20" transform="translate(1083.691406 0)"/>
     <use xlink:href="#DejaVuSansMono-5d" transform="translate(1143.896484 0)"/>
     <use xlink:href="#DejaVuSansMono-5b" transform="translate(1204.101562 0)"/>
     <use xlink:href="#DejaVuSansMono-20" transform="translate(1264.306641 0)"/>
     <use xlink:href="#DejaVuSansMono-43" transform="translate(1324.511719 0)"/>
     <use xlink:href="#DejaVuSansMono-20" transform="translate(1384.716797 0)"/>
     <use xlink:href="#DejaVuSansMono-5d" transform="translate(1444.921875 0)"/>
     <use xlink:href="#DejaVuSansMono-5b" transform="translate(1505.126953 0)"/>
     <use xlink:href="#DejaVuSansMono-20" transform="translate(1565.332031 0)"/>
     <use xlink:href="#DejaVuSansMono-44" transform="translate(1625.537109 0)"/>
     <use xlink:href="#DejaVuSansMono-20" transform="translate(1685.742188 0)"/>
     <use xlink:href="#DejaVuSansMono-5d" transform="translate(1745.947266 0)"/>
    </g>
   </g>
   <g id="text_2">
    <!-- Inversion: [ A ][ C ][ B ][ D ] -->
    <g style="fill: #0000ff" transform="translate(10.8 175.272) scale(0.12 -0.12)">
     <defs>
      <path id="DejaVuSansMono-49" d="M 628 4666 
L 3219 4666 
L 3219 4134 
L 2241 4134 
L 2241 531 
L 3219 531 
L 3219 0 
L 628 0 
L 628 531 
L 1606 531 
L 1606 4134 
L 628 4134 
L 628 4666 
z
" transform="scale(0.015625)"/>
      <path id="DejaVuSansMono-76" d="M 313 3500 
L 909 3500 
L 1925 563 
L 2944 3500 
L 3541 3500 
L 2297 0 
L 1556 0 
L 313 3500 
z
" transform="scale(0.015625)"/>
      <path id="DejaVuSansMono-65" d="M 3475 1894 
L 3475 1613 
L 984 1613 
L 984 1594 
Q 984 1022 1282 709 
Q 1581 397 2125 397 
Q 2400 397 2700 484 
Q 3000 572 3341 750 
L 3341 178 
Q 3013 44 2708 -23 
Q 2403 -91 2119 -91 
Q 1303 -91 843 398 
Q 384 888 384 1747 
Q 384 2584 834 3084 
Q 1284 3584 2034 3584 
Q 2703 3584 3089 3131 
Q 3475 2678 3475 1894 
z
M 2900 2063 
Q 2888 2569 2661 2833 
Q 2434 3097 2009 3097 
Q 1594 3097 1325 2822 
Q 1056 2547 1006 2059 
L 2900 2063 
z
" transform="scale(0.015625)"/>
      <path id="DejaVuSansMono-73" d="M 3041 3378 
L 3041 2816 
Q 2794 2959 2544 3031 
Q 2294 3103 2034 3103 
Q 1644 3103 1451 2976 
Q 1259 2850 1259 2591 
Q 1259 2356 1403 2240 
Q 1547 2125 2119 2016 
L 2350 1972 
Q 2778 1891 2998 1647 
Q 3219 1403 3219 1013 
Q 3219 494 2850 201 
Q 2481 -91 1825 -91 
Q 1566 -91 1281 -36 
Q 997 19 666 128 
L 666 722 
Q 988 556 1281 473 
Q 1575 391 1838 391 
Q 2219 391 2428 545 
Q 2638 700 2638 978 
Q 2638 1378 1872 1531 
L 1847 1538 
L 1631 1581 
Q 1134 1678 906 1908 
Q 678 2138 678 2534 
Q 678 3038 1018 3311 
Q 1359 3584 1991 3584 
Q 2272 3584 2531 3532 
Q 2791 3481 3041 3378 
z
" transform="scale(0.015625)"/>
      <path id="DejaVuSansMono-6f" d="M 1925 3097 
Q 1488 3097 1263 2756 
Q 1038 2416 1038 1747 
Q 1038 1081 1263 739 
Q 1488 397 1925 397 
Q 2366 397 2591 739 
Q 2816 1081 2816 1747 
Q 2816 2416 2591 2756 
Q 2366 3097 1925 3097 
z
M 1925 3584 
Q 2653 3584 3039 3112 
Q 3425 2641 3425 1747 
Q 3425 850 3040 379 
Q 2656 -91 1925 -91 
Q 1197 -91 812 379 
Q 428 850 428 1747 
Q 428 2641 812 3112 
Q 1197 3584 1925 3584 
z
" transform="scale(0.015625)"/>
     </defs>
     <use xlink:href="#DejaVuSansMono-49"/>
     <use xlink:href="#DejaVuSansMono-6e" transform="translate(60.205078 0)"/>
     <use xlink:href="#DejaVuSansMono-76" transform="translate(120.410156 0)"/>
     <use xlink:href="#DejaVuSansMono-65" transform="translate(180.615234 0)"/>
     <use xlink:href="#DejaVuSansMono-72" transform="translate(240.820312 0)"/>
     <use xlink:href="#DejaVuSansMono-73" transform="translate(301.025391 0)"/>
     <use xlink:href="#DejaVuSansMono-69" transform="translate(361.230469 0)"/>
     <use xlink:href="#DejaVuSansMono-6f" transform="translate(421.435547 0)"/>
     <use xlink:href="#DejaVuSansMono-6e" transform="translate(481.640625 0)"/>
     <use xlink:href="#DejaVuSansMono-3a" transform="translate(541.845703 0)"/>
     <use xlink:href="#DejaVuSansMono-20" transform="translate(602.050781 0)"/>
     <use xlink:href="#DejaVuSansMono-5b" transform="translate(662.255859 0)"/>
     <use xlink:href="#DejaVuSansMono-20" transform="translate(722.460938 0)"/>
     <use xlink:href="#DejaVuSansMono-41" transform="translate(782.666016 0)"/>
     <use xlink:href="#DejaVuSansMono-20" transform="translate(842.871094 0)"/>
     <use xlink:href="#DejaVuSansMono-5d" transform="translate(903.076172 0)"/>
     <use xlink:href="#DejaVuSansMono-5b" transform="translate(963.28125 0)"/>
     <use xlink:href="#DejaVuSansMono-20" transform="translate(1023.486328 0)"/>
     <use xlink:href="#DejaVuSansMono-43" transform="translate(1083.691406 0)"/>
     <use xlink:href="#DejaVuSansMono-20" transform="translate(1143.896484 0)"/>
     <use xlink:href="#DejaVuSansMono-5d" transform="translate(1204.101562 0)"/>
     <use xlink:href="#DejaVuSansMono-5b" transform="translate(1264.306641 0)"/>
     <use xlink:href="#DejaVuSansMono-20" transform="translate(1324.511719 0)"/>
     <use xlink:href="#DejaVuSansMono-42" transform="translate(1384.716797 0)"/>
     <use xlink:href="#DejaVuSansMono-20" transform="translate(1444.921875 0)"/>
     <use xlink:href="#DejaVuSansMono-5d" transform="translate(1505.126953 0)"/>
     <use xlink:href="#DejaVuSansMono-5b" transform="translate(1565.332031 0)"/>
     <use xlink:href="#DejaVuSansMono-20" transform="translate(1625.537109 0)"/>
     <use xlink:href="#DejaVuSansMono-44" transform="translate(1685.742188 0)"/>
     <use xlink:href="#DejaVuSansMono-20" transform="translate(1745.947266 0)"/>
     <use xlink:href="#DejaVuSansMono-5d" transform="translate(1806.152344 0)"/>
    </g>
   </g>
   <g id="text_3">
    <!-- Transloc.: [ A ][ X ][ Y ][ D ] -->
    <g style="fill: #ff0000" transform="translate(10.8 274.68) scale(0.12 -0.12)">
     <defs>
      <path id="DejaVuSansMono-54" d="M 147 4666 
L 3706 4666 
L 3706 4134 
L 2247 4134 
L 2247 0 
L 1613 0 
L 1613 4134 
L 147 4134 
L 147 4666 
z
" transform="scale(0.015625)"/>
      <path id="DejaVuSansMono-63" d="M 3316 178 
Q 3084 44 2839 -23 
Q 2594 -91 2338 -91 
Q 1525 -91 1067 396 
Q 609 884 609 1747 
Q 609 2609 1067 3096 
Q 1525 3584 2338 3584 
Q 2591 3584 2831 3518 
Q 3072 3453 3316 3316 
L 3316 2713 
Q 3088 2916 2858 3006 
Q 2628 3097 2338 3097 
Q 1797 3097 1506 2747 
Q 1216 2397 1216 1747 
Q 1216 1100 1508 748 
Q 1800 397 2338 397 
Q 2638 397 2875 489 
Q 3113 581 3316 775 
L 3316 178 
z
" transform="scale(0.015625)"/>
      <path id="DejaVuSansMono-2e" d="M 1528 953 
L 2316 953 
L 2316 0 
L 1528 0 
L 1528 953 
z
" transform="scale(0.015625)"/>
      <path id="DejaVuSansMono-58" d="M 269 4666 
L 947 4666 
L 1972 2906 
L 3016 4666 
L 3694 4666 
L 2297 2472 
L 3794 0 
L 3116 0 
L 1972 2009 
L 738 0 
L 56 0 
L 1619 2472 
L 269 4666 
z
" transform="scale(0.015625)"/>
      <path id="DejaVuSansMono-59" d="M 116 4666 
L 788 4666 
L 1925 2606 
L 3059 4666 
L 3738 4666 
L 2241 2094 
L 2241 0 
L 1606 0 
L 1606 2094 
L 116 4666 
z
" transform="scale(0.015625)"/>
     </defs>
     <use xlink:href="#DejaVuSansMono-54"/>
     <use xlink:href="#DejaVuSansMono-72" transform="translate(60.205078 0)"/>
     <use xlink:href="#DejaVuSansMono-61" transform="translate(120.410156 0)"/>
     <use xlink:href="#DejaVuSansMono-6e" transform="translate(180.615234 0)"/>
     <use xlink:href="#DejaVuSansMono-73" transform="translate(240.820312 0)"/>
     <use xlink:href="#DejaVuSansMono-6c" transform="translate(301.025391 0)"/>
     <use xlink:href="#DejaVuSansMono-6f" transform="translate(361.230469 0)"/>
     <use xlink:href="#DejaVuSansMono-63" transform="translate(421.435547 0)"/>
     <use xlink:href="#DejaVuSansMono-2e" transform="translate(481.640625 0)"/>
     <use xlink:href="#DejaVuSansMono-3a" transform="translate(541.845703 0)"/>
     <use xlink:href="#DejaVuSansMono-20" transform="translate(602.050781 0)"/>
     <use xlink:href="#DejaVuSansMono-5b" transform="translate(662.255859 0)"/>
     <use xlink:href="#DejaVuSansMono-20" transform="translate(722.460938 0)"/>
     <use xlink:href="#DejaVuSansMono-41" transform="translate(782.666016 0)"/>
     <use xlink:href="#DejaVuSansMono-20" transform="translate(842.871094 0)"/>
     <use xlink:href="#DejaVuSansMono-5d" transform="translate(903.076172 0)"/>
     <use xlink:href="#DejaVuSansMono-5b" transform="translate(963.28125 0)"/>
     <use xlink:href="#DejaVuSansMono-20" transform="translate(1023.486328 0)"/>
     <use xlink:href="#DejaVuSansMono-58" transform="translate(1083.691406 0)"/>
     <use xlink:href="#DejaVuSansMono-20" transform="translate(1143.896484 0)"/>
     <use xlink:href="#DejaVuSansMono-5d" transform="translate(1204.101562 0)"/>
     <use xlink:href="#DejaVuSansMono-5b" transform="translate(1264.306641 0)"/>
     <use xlink:href="#DejaVuSansMono-20" transform="translate(1324.511719 0)"/>
     <use xlink:href="#DejaVuSansMono-59" transform="translate(1384.716797 0)"/>
     <use xlink:href="#DejaVuSansMono-20" transform="translate(1444.921875 0)"/>
     <use xlink:href="#DejaVuSansMono-5d" transform="translate(1505.126953 0)"/>
     <use xlink:href="#DejaVuSansMono-5b" transform="translate(1565.332031 0)"/>
     <use xlink:href="#DejaVuSansMono-20" transform="translate(1625.537109 0)"/>
     <use xlink:href="#DejaVuSansMono-44" transform="translate(1685.742188 0)"/>
     <use xlink:href="#DejaVuSansMono-20" transform="translate(1745.947266 0)"/>
     <use xlink:href="#DejaVuSansMono-5d" transform="translate(1806.152344 0)"/>
    </g>
   </g>
   <g id="text_4">
    <!-- Structural Variation as Geometric Rearrangement -->
    <g transform="translate(139.155937 20.16) scale(0.12 -0.12)">
     <defs>
      <path id="DejaVuSans-53" d="M 3425 4513 
L 3425 3897 
Q 3066 4069 2747 4153 
Q 2428 4238 2131 4238 
Q 1616 4238 1336 4038 
Q 1056 3838 1056 3469 
Q 1056 3159 1242 3001 
Q 1428 2844 1947 2747 
L 2328 2669 
Q 3034 2534 3370 2195 
Q 3706 1856 3706 1288 
Q 3706 609 3251 259 
Q 2797 -91 1919 -91 
Q 1588 -91 1214 -16 
Q 841 59 441 206 
L 441 856 
Q 825 641 1194 531 
Q 1563 422 1919 422 
Q 2459 422 2753 634 
Q 3047 847 3047 1241 
Q 3047 1584 2836 1778 
Q 2625 1972 2144 2069 
L 1759 2144 
Q 1053 2284 737 2584 
Q 422 2884 422 3419 
Q 422 4038 858 4394 
Q 1294 4750 2059 4750 
Q 2388 4750 2728 4690 
Q 3069 4631 3425 4513 
z
" transform="scale(0.015625)"/>
      <path id="DejaVuSans-74" d="M 1172 4494 
L 1172 3500 
L 2356 3500 
L 2356 3053 
L 1172 3053 
L 1172 1153 
Q 1172 725 1289 603 
Q 1406 481 1766 481 
L 2356 481 
L 2356 0 
L 1766 0 
Q 1100 0 847 248 
Q 594 497 594 1153 
L 594 3053 
L 172 3053 
L 172 3500 
L 594 3500 
L 594 4494 
L 1172 4494 
z
" transform="scale(0.015625)"/>
      <path id="DejaVuSans-72" d="M 2631 2963 
Q 2534 3019 2420 3045 
Q 2306 3072 2169 3072 
Q 1681 3072 1420 2755 
Q 1159 2438 1159 1844 
L 1159 0 
L 581 0 
L 581 3500 
L 1159 3500 
L 1159 2956 
Q 1341 3275 1631 3429 
Q 1922 3584 2338 3584 
Q 2397 3584 2469 3576 
Q 2541 3569 2628 3553 
L 2631 2963 
z
" transform="scale(0.015625)"/>
      <path id="DejaVuSans-75" d="M 544 1381 
L 544 3500 
L 1119 3500 
L 1119 1403 
Q 1119 906 1312 657 
Q 1506 409 1894 409 
Q 2359 409 2629 706 
Q 2900 1003 2900 1516 
L 2900 3500 
L 3475 3500 
L 3475 0 
L 2900 0 
L 2900 538 
Q 2691 219 2414 64 
Q 2138 -91 1772 -91 
Q 1169 -91 856 284 
Q 544 659 544 1381 
z
M 1991 3584 
L 1991 3584 
z
" transform="scale(0.015625)"/>
      <path id="DejaVuSans-63" d="M 3122 3366 
L 3122 2828 
Q 2878 2963 2633 3030 
Q 2388 3097 2138 3097 
Q 1578 3097 1268 2742 
Q 959 2388 959 1747 
Q 959 1106 1268 751 
Q 1578 397 2138 397 
Q 2388 397 2633 464 
Q 2878 531 3122 666 
L 3122 134 
Q 2881 22 2623 -34 
Q 2366 -91 2075 -91 
Q 1284 -91 818 406 
Q 353 903 353 1747 
Q 353 2603 823 3093 
Q 1294 3584 2113 3584 
Q 2378 3584 2631 3529 
Q 2884 3475 3122 3366 
z
" transform="scale(0.015625)"/>
      <path id="DejaVuSans-61" d="M 2194 1759 
Q 1497 1759 1228 1600 
Q 959 1441 959 1056 
Q 959 750 1161 570 
Q 1363 391 1709 391 
Q 2188 391 2477 730 
Q 2766 1069 2766 1631 
L 2766 1759 
L 2194 1759 
z
M 3341 1997 
L 3341 0 
L 2766 0 
L 2766 531 
Q 2569 213 2275 61 
Q 1981 -91 1556 -91 
Q 1019 -91 701 211 
Q 384 513 384 1019 
Q 384 1609 779 1909 
Q 1175 2209 1959 2209 
L 2766 2209 
L 2766 2266 
Q 2766 2663 2505 2880 
Q 2244 3097 1772 3097 
Q 1472 3097 1187 3025 
Q 903 2953 641 2809 
L 641 3341 
Q 956 3463 1253 3523 
Q 1550 3584 1831 3584 
Q 2591 3584 2966 3190 
Q 3341 2797 3341 1997 
z
" transform="scale(0.015625)"/>
      <path id="DejaVuSans-6c" d="M 603 4863 
L 1178 4863 
L 1178 0 
L 603 0 
L 603 4863 
z
" transform="scale(0.015625)"/>
      <path id="DejaVuSans-20" transform="scale(0.015625)"/>
      <path id="DejaVuSans-56" d="M 1831 0 
L 50 4666 
L 709 4666 
L 2188 738 
L 3669 4666 
L 4325 4666 
L 2547 0 
L 1831 0 
z
" transform="scale(0.015625)"/>
      <path id="DejaVuSans-69" d="M 603 3500 
L 1178 3500 
L 1178 0 
L 603 0 
L 603 3500 
z
M 603 4863 
L 1178 4863 
L 1178 4134 
L 603 4134 
L 603 4863 
z
" transform="scale(0.015625)"/>
      <path id="DejaVuSans-6f" d="M 1959 3097 
Q 1497 3097 1228 2736 
Q 959 2375 959 1747 
Q 959 1119 1226 758 
Q 1494 397 1959 397 
Q 2419 397 2687 759 
Q 2956 1122 2956 1747 
Q 2956 2369 2687 2733 
Q 2419 3097 1959 3097 
z
M 1959 3584 
Q 2709 3584 3137 3096 
Q 3566 2609 3566 1747 
Q 3566 888 3137 398 
Q 2709 -91 1959 -91 
Q 1206 -91 779 398 
Q 353 888 353 1747 
Q 353 2609 779 3096 
Q 1206 3584 1959 3584 
z
" transform="scale(0.015625)"/>
      <path id="DejaVuSans-6e" d="M 3513 2113 
L 3513 0 
L 2938 0 
L 2938 2094 
Q 2938 2591 2744 2837 
Q 2550 3084 2163 3084 
Q 1697 3084 1428 2787 
Q 1159 2491 1159 1978 
L 1159 0 
L 581 0 
L 581 3500 
L 1159 3500 
L 1159 2956 
Q 1366 3272 1645 3428 
Q 1925 3584 2291 3584 
Q 2894 3584 3203 3211 
Q 3513 2838 3513 2113 
z
" transform="scale(0.015625)"/>
      <path id="DejaVuSans-73" d="M 2834 3397 
L 2834 2853 
Q 2591 2978 2328 3040 
Q 2066 3103 1784 3103 
Q 1356 3103 1142 2972 
Q 928 2841 928 2578 
Q 928 2378 1081 2264 
Q 1234 2150 1697 2047 
L 1894 2003 
Q 2506 1872 2764 1633 
Q 3022 1394 3022 966 
Q 3022 478 2636 193 
Q 2250 -91 1575 -91 
Q 1294 -91 989 -36 
Q 684 19 347 128 
L 347 722 
Q 666 556 975 473 
Q 1284 391 1588 391 
Q 1994 391 2212 530 
Q 2431 669 2431 922 
Q 2431 1156 2273 1281 
Q 2116 1406 1581 1522 
L 1381 1569 
Q 847 1681 609 1914 
Q 372 2147 372 2553 
Q 372 3047 722 3315 
Q 1072 3584 1716 3584 
Q 2034 3584 2315 3537 
Q 2597 3491 2834 3397 
z
" transform="scale(0.015625)"/>
      <path id="DejaVuSans-47" d="M 3809 666 
L 3809 1919 
L 2778 1919 
L 2778 2438 
L 4434 2438 
L 4434 434 
Q 4069 175 3628 42 
Q 3188 -91 2688 -91 
Q 1594 -91 976 548 
Q 359 1188 359 2328 
Q 359 3472 976 4111 
Q 1594 4750 2688 4750 
Q 3144 4750 3555 4637 
Q 3966 4525 4313 4306 
L 4313 3634 
Q 3963 3931 3569 4081 
Q 3175 4231 2741 4231 
Q 1884 4231 1454 3753 
Q 1025 3275 1025 2328 
Q 1025 1384 1454 906 
Q 1884 428 2741 428 
Q 3075 428 3337 486 
Q 3600 544 3809 666 
z
" transform="scale(0.015625)"/>
      <path id="DejaVuSans-65" d="M 3597 1894 
L 3597 1613 
L 953 1613 
Q 991 1019 1311 708 
Q 1631 397 2203 397 
Q 2534 397 2845 478 
Q 3156 559 3463 722 
L 3463 178 
Q 3153 47 2828 -22 
Q 2503 -91 2169 -91 
Q 1331 -91 842 396 
Q 353 884 353 1716 
Q 353 2575 817 3079 
Q 1281 3584 2069 3584 
Q 2775 3584 3186 3129 
Q 3597 2675 3597 1894 
z
M 3022 2063 
Q 3016 2534 2758 2815 
Q 2500 3097 2075 3097 
Q 1594 3097 1305 2825 
Q 1016 2553 972 2059 
L 3022 2063 
z
" transform="scale(0.015625)"/>
      <path id="DejaVuSans-6d" d="M 3328 2828 
Q 3544 3216 3844 3400 
Q 4144 3584 4550 3584 
Q 5097 3584 5394 3201 
Q 5691 2819 5691 2113 
L 5691 0 
L 5113 0 
L 5113 2094 
Q 5113 2597 4934 2840 
Q 4756 3084 4391 3084 
Q 3944 3084 3684 2787 
Q 3425 2491 3425 1978 
L 3425 0 
L 2847 0 
L 2847 2094 
Q 2847 2600 2669 2842 
Q 2491 3084 2119 3084 
Q 1678 3084 1418 2786 
Q 1159 2488 1159 1978 
L 1159 0 
L 581 0 
L 581 3500 
L 1159 3500 
L 1159 2956 
Q 1356 3278 1631 3431 
Q 1906 3584 2284 3584 
Q 2666 3584 2933 3390 
Q 3200 3197 3328 2828 
z
" transform="scale(0.015625)"/>
      <path id="DejaVuSans-52" d="M 2841 2188 
Q 3044 2119 3236 1894 
Q 3428 1669 3622 1275 
L 4263 0 
L 3584 0 
L 2988 1197 
Q 2756 1666 2539 1819 
Q 2322 1972 1947 1972 
L 1259 1972 
L 1259 0 
L 628 0 
L 628 4666 
L 2053 4666 
Q 2853 4666 3247 4331 
Q 3641 3997 3641 3322 
Q 3641 2881 3436 2590 
Q 3231 2300 2841 2188 
z
M 1259 4147 
L 1259 2491 
L 2053 2491 
Q 2509 2491 2742 2702 
Q 2975 2913 2975 3322 
Q 2975 3731 2742 3939 
Q 2509 4147 2053 4147 
L 1259 4147 
z
" transform="scale(0.015625)"/>
      <path id="DejaVuSans-67" d="M 2906 1791 
Q 2906 2416 2648 2759 
Q 2391 3103 1925 3103 
Q 1463 3103 1205 2759 
Q 947 2416 947 1791 
Q 947 1169 1205 825 
Q 1463 481 1925 481 
Q 2391 481 2648 825 
Q 2906 1169 2906 1791 
z
M 3481 434 
Q 3481 -459 3084 -895 
Q 2688 -1331 1869 -1331 
Q 1566 -1331 1297 -1286 
Q 1028 -1241 775 -1147 
L 775 -588 
Q 1028 -725 1275 -790 
Q 1522 -856 1778 -856 
Q 2344 -856 2625 -561 
Q 2906 -266 2906 331 
L 2906 616 
Q 2728 306 2450 153 
Q 2172 0 1784 0 
Q 1141 0 747 490 
Q 353 981 353 1791 
Q 353 2603 747 3093 
Q 1141 3584 1784 3584 
Q 2172 3584 2450 3431 
Q 2728 3278 2906 2969 
L 2906 3500 
L 3481 3500 
L 3481 434 
z
" transform="scale(0.015625)"/>
     </defs>
     <use xlink:href="#DejaVuSans-53"/>
     <use xlink:href="#DejaVuSans-74" transform="translate(63.476562 0)"/>
     <use xlink:href="#DejaVuSans-72" transform="translate(102.685547 0)"/>
     <use xlink:href="#DejaVuSans-75" transform="translate(143.798828 0)"/>
     <use xlink:href="#DejaVuSans-63" transform="translate(207.177734 0)"/>
     <use xlink:href="#DejaVuSans-74" transform="translate(262.158203 0)"/>
     <use xlink:href="#DejaVuSans-75" transform="translate(301.367188 0)"/>
     <use xlink:href="#DejaVuSans-72" transform="translate(364.746094 0)"/>
     <use xlink:href="#DejaVuSans-61" transform="translate(405.859375 0)"/>
     <use xlink:href="#DejaVuSans-6c" transform="translate(467.138672 0)"/>
     <use xlink:href="#DejaVuSans-20" transform="translate(494.921875 0)"/>
     <use xlink:href="#DejaVuSans-56" transform="translate(526.708984 0)"/>
     <use xlink:href="#DejaVuSans-61" transform="translate(587.367188 0)"/>
     <use xlink:href="#DejaVuSans-72" transform="translate(648.646484 0)"/>
     <use xlink:href="#DejaVuSans-69" transform="translate(689.759766 0)"/>
     <use xlink:href="#DejaVuSans-61" transform="translate(717.542969 0)"/>
     <use xlink:href="#DejaVuSans-74" transform="translate(778.822266 0)"/>
     <use xlink:href="#DejaVuSans-69" transform="translate(818.03125 0)"/>
     <use xlink:href="#DejaVuSans-6f" transform="translate(845.814453 0)"/>
     <use xlink:href="#DejaVuSans-6e" transform="translate(906.996094 0)"/>
     <use xlink:href="#DejaVuSans-20" transform="translate(970.375 0)"/>
     <use xlink:href="#DejaVuSans-61" transform="translate(1002.162109 0)"/>
     <use xlink:href="#DejaVuSans-73" transform="translate(1063.441406 0)"/>
     <use xlink:href="#DejaVuSans-20" transform="translate(1115.541016 0)"/>
     <use xlink:href="#DejaVuSans-47" transform="translate(1147.328125 0)"/>
     <use xlink:href="#DejaVuSans-65" transform="translate(1224.818359 0)"/>
     <use xlink:href="#DejaVuSans-6f" transform="translate(1286.341797 0)"/>
     <use xlink:href="#DejaVuSans-6d" transform="translate(1347.523438 0)"/>
     <use xlink:href="#DejaVuSans-65" transform="translate(1444.935547 0)"/>
     <use xlink:href="#DejaVuSans-74" transform="translate(1506.458984 0)"/>
     <use xlink:href="#DejaVuSans-72" transform="translate(1545.667969 0)"/>
     <use xlink:href="#DejaVuSans-69" transform="translate(1586.78125 0)"/>
     <use xlink:href="#DejaVuSans-63" transform="translate(1614.564453 0)"/>
     <use xlink:href="#DejaVuSans-20" transform="translate(1669.544922 0)"/>
     <use xlink:href="#DejaVuSans-52" transform="translate(1701.332031 0)"/>
     <use xlink:href="#DejaVuSans-65" transform="translate(1766.314453 0)"/>
     <use xlink:href="#DejaVuSans-61" transform="translate(1827.837891 0)"/>
     <use xlink:href="#DejaVuSans-72" transform="translate(1889.117188 0)"/>
     <use xlink:href="#DejaVuSans-72" transform="translate(1928.480469 0)"/>
     <use xlink:href="#DejaVuSans-61" transform="translate(1969.59375 0)"/>
     <use xlink:href="#DejaVuSans-6e" transform="translate(2030.873047 0)"/>
     <use xlink:href="#DejaVuSans-67" transform="translate(2094.251953 0)"/>
     <use xlink:href="#DejaVuSans-65" transform="translate(2157.728516 0)"/>
     <use xlink:href="#DejaVuSans-6d" transform="translate(2219.251953 0)"/>
     <use xlink:href="#DejaVuSans-65" transform="translate(2316.664062 0)"/>
     <use xlink:href="#DejaVuSans-6e" transform="translate(2378.1875 0)"/>
     <use xlink:href="#DejaVuSans-74" transform="translate(2441.566406 0)"/>
    </g>
   </g>
  </g>
 </g>
</svg>
