<?xml version="1.0" encoding="utf-8" standalone="no"?>
<!DOCTYPE svg PUBLIC "-//W3C//DTD SVG 1.1//EN"
  "http://www.w3.org/Graphics/SVG/1.1/DTD/svg11.dtd">
<svg xmlns:xlink="http://www.w3.org/1999/xlink" width="720pt" height="432pt" viewBox="0 0 720 432" xmlns="http://www.w3.org/2000/svg" version="1.1">
 <metadata>
  <rdf:RDF xmlns:dc="http://purl.org/dc/elements/1.1/" xmlns:cc="http://creativecommons.org/ns#" xmlns:rdf="http://www.w3.org/1999/02/22-rdf-syntax-ns#">
   <cc:Work>
    <dc:type rdf:resource="http://purl.org/dc/dcmitype/StillImage"/>
    <dc:date>2026-01-10T00:54:11.828629</dc:date>
    <dc:format>image/svg+xml</dc:format>
    <dc:creator>
     <cc:Agent>
      <dc:title>Matplotlib v3.10.8, https://matplotlib.org/</dc:title>
     </cc:Agent>
    </dc:creator>
   </cc:Work>
  </rdf:RDF>
 </metadata>
 <defs>
  <style type="text/css">*{stroke-linejoin: round; stroke-linecap: butt}</style>
 </defs>
 <g id="figure_1">
  <g id="patch_1">
   <path d="M 0 432 
L 720 432 
L 720 0 
L 0 0 
z
" style="fill: #ffffff"/>
  </g>
  <g id="axes_1">
   <g id="PathCollection_1">
    <defs>
     <path id="m33a88843bc" d="M 0 5 
C 1.326016 5 2.597899 4.473168 3.535534 3.535534 
C 4.473168 2.597899 5 1.326016 5 0 
C 5 -1.326016 4.473168 -2.597899 3.535534 -3.535534 
C 2.597899 -4.473168 1.326016 -5 0 -5 
C -1.326016 -5 -2.597899 -4.473168 -3.535534 -3.535534 
C -4.473168 -2.597899 -5 -1.326016 -5 0 
C -5 1.326016 -4.473168 2.597899 -3.535534 3.535534 
C -2.597899 4.473168 -1.326016 5 0 5 
z
" style="stroke: #ff0000"/>
    </defs>
    <g clip-path="url(#pdeb695f15d)">
     <use xlink:href="#m33a88843bc" x="233.018182" y="118.38" style="fill: #ff0000; stroke: #ff0000"/>
     <use xlink:href="#m33a88843bc" x="486.981818" y="118.38" style="fill: #ff0000; stroke: #ff0000"/>
    </g>
   </g>
   <g id="line2d_1">
    <path d="M 42.545455 118.38 
L 677.454545 118.38 
" clip-path="url(#pdeb695f15d)" style="fill: none; stroke: #000000; stroke-width: 2; stroke-linecap: square"/>
   </g>
   <g id="text_1">
    <!-- Linear Reference: Variation as 'Dots' on a Line -->
    <g transform="translate(221.626875 20.16) scale(0.12 -0.12)">
     <defs>
      <path id="DejaVuSans-4c" d="M 628 4666 
L 1259 4666 
L 1259 531 
L 3531 531 
L 3531 0 
L 628 0 
L 628 4666 
z
" transform="scale(0.015625)"/>
      <path id="DejaVuSans-69" d="M 603 3500 
L 1178 3500 
L 1178 0 
L 603 0 
L 603 3500 
z
M 603 4863 
L 1178 4863 
L 1178 4134 
L 603 4134 
L 603 4863 
z
" transform="scale(0.015625)"/>
      <path id="DejaVuSans-6e" d="M 3513 2113 
L 3513 0 
L 2938 0 
L 2938 2094 
Q 2938 2591 2744 2837 
Q 2550 3084 2163 3084 
Q 1697 3084 1428 2787 
Q 1159 2491 1159 1978 
L 1159 0 
L 581 0 
L 581 3500 
L 1159 3500 
L 1159 2956 
Q 1366 3272 1645 3428 
Q 1925 3584 2291 3584 
Q 2894 3584 3203 3211 
Q 3513 2838 3513 2113 
z
" transform="scale(0.015625)"/>
      <path id="DejaVuSans-65" d="M 3597 1894 
L 3597 1613 
L 953 1613 
Q 991 1019 1311 708 
Q 1631 397 2203 397 
Q 2534 397 2845 478 
Q 3156 559 3463 722 
L 3463 178 
Q 3153 47 2828 -22 
Q 2503 -91 2169 -91 
Q 1331 -91 842 396 
Q 353 884 353 1716 
Q 353 2575 817 3079 
Q 1281 3584 2069 3584 
Q 2775 3584 3186 3129 
Q 3597 2675 3597 1894 
z
M 3022 2063 
Q 3016 2534 2758 2815 
Q 2500 3097 2075 3097 
Q 1594 3097 1305 2825 
Q 1016 2553 972 2059 
L 3022 2063 
z
" transform="scale(0.015625)"/>
      <path id="DejaVuSans-61" d="M 2194 1759 
Q 1497 1759 1228 1600 
Q 959 1441 959 1056 
Q 959 750 1161 570 
Q 1363 391 1709 391 
Q 2188 391 2477 730 
Q 2766 1069 2766 1631 
L 2766 1759 
L 2194 1759 
z
M 3341 1997 
L 3341 0 
L 2766 0 
L 2766 531 
Q 2569 213 2275 61 
Q 1981 -91 1556 -91 
Q 1019 -91 701 211 
Q 384 513 384 1019 
Q 384 1609 779 1909 
Q 1175 2209 1959 2209 
L 2766 2209 
L 2766 2266 
Q 2766 2663 2505 2880 
Q 2244 3097 1772 3097 
Q 1472 3097 1187 3025 
Q 903 2953 641 2809 
L 641 3341 
Q 956 3463 1253 3523 
Q 1550 3584 1831 3584 
Q 2591 3584 2966 3190 
Q 3341 2797 3341 1997 
z
" transform="scale(0.015625)"/>
      <path id="DejaVuSans-72" d="M 2631 2963 
Q 2534 3019 2420 3045 
Q 2306 3072 2169 3072 
Q 1681 3072 1420 2755 
Q 1159 2438 1159 1844 
L 1159 0 
L 581 0 
L 581 3500 
L 1159 3500 
L 1159 2956 
Q 1341 3275 1631 3429 
Q 1922 3584 2338 3584 
Q 2397 3584 2469 3576 
Q 2541 3569 2628 3553 
L 2631 2963 
z
" transform="scale(0.015625)"/>
      <path id="DejaVuSans-20" transform="scale(0.015625)"/>
      <path id="DejaVuSans-52" d="M 2841 2188 
Q 3044 2119 3236 1894 
Q 3428 1669 3622 1275 
L 4263 0 
L 3584 0 
L 2988 1197 
Q 2756 1666 2539 1819 
Q 2322 1972 1947 1972 
L 1259 1972 
L 1259 0 
L 628 0 
L 628 4666 
L 2053 4666 
Q 2853 4666 3247 4331 
Q 3641 3997 3641 3322 
Q 3641 2881 3436 2590 
Q 3231 2300 2841 2188 
z
M 1259 4147 
L 1259 2491 
L 2053 2491 
Q 2509 2491 2742 2702 
Q 2975 2913 2975 3322 
Q 2975 3731 2742 3939 
Q 2509 4147 2053 4147 
L 1259 4147 
z
" transform="scale(0.015625)"/>
      <path id="DejaVuSans-66" d="M 2375 4863 
L 2375 4384 
L 1825 4384 
Q 1516 4384 1395 4259 
Q 1275 4134 1275 3809 
L 1275 3500 
L 2222 3500 
L 2222 3053 
L 1275 3053 
L 1275 0 
L 697 0 
L 697 3053 
L 147 3053 
L 147 3500 
L 697 3500 
L 697 3744 
Q 697 4328 969 4595 
Q 1241 4863 1831 4863 
L 2375 4863 
z
" transform="scale(0.015625)"/>
      <path id="DejaVuSans-63" d="M 3122 3366 
L 3122 2828 
Q 2878 2963 2633 3030 
Q 2388 3097 2138 3097 
Q 1578 3097 1268 2742 
Q 959 2388 959 1747 
Q 959 1106 1268 751 
Q 1578 397 2138 397 
Q 2388 397 2633 464 
Q 2878 531 3122 666 
L 3122 134 
Q 2881 22 2623 -34 
Q 2366 -91 2075 -91 
Q 1284 -91 818 406 
Q 353 903 353 1747 
Q 353 2603 823 3093 
Q 1294 3584 2113 3584 
Q 2378 3584 2631 3529 
Q 2884 3475 3122 3366 
z
" transform="scale(0.015625)"/>
      <path id="DejaVuSans-3a" d="M 750 794 
L 1409 794 
L 1409 0 
L 750 0 
L 750 794 
z
M 750 3309 
L 1409 3309 
L 1409 2516 
L 750 2516 
L 750 3309 
z
" transform="scale(0.015625)"/>
      <path id="DejaVuSans-56" d="M 1831 0 
L 50 4666 
L 709 4666 
L 2188 738 
L 3669 4666 
L 4325 4666 
L 2547 0 
L 1831 0 
z
" transform="scale(0.015625)"/>
      <path id="DejaVuSans-74" d="M 1172 4494 
L 1172 3500 
L 2356 3500 
L 2356 3053 
L 1172 3053 
L 1172 1153 
Q 1172 725 1289 603 
Q 1406 481 1766 481 
L 2356 481 
L 2356 0 
L 1766 0 
Q 1100 0 847 248 
Q 594 497 594 1153 
L 594 3053 
L 172 3053 
L 172 3500 
L 594 3500 
L 594 4494 
L 1172 4494 
z
" transform="scale(0.015625)"/>
      <path id="DejaVuSans-6f" d="M 1959 3097 
Q 1497 3097 1228 2736 
Q 959 2375 959 1747 
Q 959 1119 1226 758 
Q 1494 397 1959 397 
Q 2419 397 2687 759 
Q 2956 1122 2956 1747 
Q 2956 2369 2687 2733 
Q 2419 3097 1959 3097 
z
M 1959 3584 
Q 2709 3584 3137 3096 
Q 3566 2609 3566 1747 
Q 3566 888 3137 398 
Q 2709 -91 1959 -91 
Q 1206 -91 779 398 
Q 353 888 353 1747 
Q 353 2609 779 3096 
Q 1206 3584 1959 3584 
z
" transform="scale(0.015625)"/>
      <path id="DejaVuSans-73" d="M 2834 3397 
L 2834 2853 
Q 2591 2978 2328 3040 
Q 2066 3103 1784 3103 
Q 1356 3103 1142 2972 
Q 928 2841 928 2578 
Q 928 2378 1081 2264 
Q 1234 2150 1697 2047 
L 1894 2003 
Q 2506 1872 2764 1633 
Q 3022 1394 3022 966 
Q 3022 478 2636 193 
Q 2250 -91 1575 -91 
Q 1294 -91 989 -36 
Q 684 19 347 128 
L 347 722 
Q 666 556 975 473 
Q 1284 391 1588 391 
Q 1994 391 2212 530 
Q 2431 669 2431 922 
Q 2431 1156 2273 1281 
Q 2116 1406 1581 1522 
L 1381 1569 
Q 847 1681 609 1914 
Q 372 2147 372 2553 
Q 372 3047 722 3315 
Q 1072 3584 1716 3584 
Q 2034 3584 2315 3537 
Q 2597 3491 2834 3397 
z
" transform="scale(0.015625)"/>
      <path id="DejaVuSans-27" d="M 1147 4666 
L 1147 2931 
L 616 2931 
L 616 4666 
L 1147 4666 
z
" transform="scale(0.015625)"/>
      <path id="DejaVuSans-44" d="M 1259 4147 
L 1259 519 
L 2022 519 
Q 2988 519 3436 956 
Q 3884 1394 3884 2338 
Q 3884 3275 3436 3711 
Q 2988 4147 2022 4147 
L 1259 4147 
z
M 628 4666 
L 1925 4666 
Q 3281 4666 3915 4102 
Q 4550 3538 4550 2338 
Q 4550 1131 3912 565 
Q 3275 0 1925 0 
L 628 0 
L 628 4666 
z
" transform="scale(0.015625)"/>
     </defs>
     <use xlink:href="#DejaVuSans-4c"/>
     <use xlink:href="#DejaVuSans-69" transform="translate(55.712891 0)"/>
     <use xlink:href="#DejaVuSans-6e" transform="translate(83.496094 0)"/>
     <use xlink:href="#DejaVuSans-65" transform="translate(146.875 0)"/>
     <use xlink:href="#DejaVuSans-61" transform="translate(208.398438 0)"/>
     <use xlink:href="#DejaVuSans-72" transform="translate(269.677734 0)"/>
     <use xlink:href="#DejaVuSans-20" transform="translate(310.791016 0)"/>
     <use xlink:href="#DejaVuSans-52" transform="translate(342.578125 0)"/>
     <use xlink:href="#DejaVuSans-65" transform="translate(407.560547 0)"/>
     <use xlink:href="#DejaVuSans-66" transform="translate(469.083984 0)"/>
     <use xlink:href="#DejaVuSans-65" transform="translate(504.289062 0)"/>
     <use xlink:href="#DejaVuSans-72" transform="translate(565.8125 0)"/>
     <use xlink:href="#DejaVuSans-65" transform="translate(604.675781 0)"/>
     <use xlink:href="#DejaVuSans-6e" transform="translate(666.199219 0)"/>
     <use xlink:href="#DejaVuSans-63" transform="translate(729.578125 0)"/>
     <use xlink:href="#DejaVuSans-65" transform="translate(784.558594 0)"/>
     <use xlink:href="#DejaVuSans-3a" transform="translate(846.082031 0)"/>
     <use xlink:href="#DejaVuSans-20" transform="translate(879.773438 0)"/>
     <use xlink:href="#DejaVuSans-56" transform="translate(911.560547 0)"/>
     <use xlink:href="#DejaVuSans-61" transform="translate(972.21875 0)"/>
     <use xlink:href="#DejaVuSans-72" transform="translate(1033.498047 0)"/>
     <use xlink:href="#DejaVuSans-69" transform="translate(1074.611328 0)"/>
     <use xlink:href="#DejaVuSans-61" transform="translate(1102.394531 0)"/>
     <use xlink:href="#DejaVuSans-74" transform="translate(1163.673828 0)"/>
     <use xlink:href="#DejaVuSans-69" transform="translate(1202.882812 0)"/>
     <use xlink:href="#DejaVuSans-6f" transform="translate(1230.666016 0)"/>
     <use xlink:href="#DejaVuSans-6e" transform="translate(1291.847656 0)"/>
     <use xlink:href="#DejaVuSans-20" transform="translate(1355.226562 0)"/>
     <use xlink:href="#DejaVuSans-61" transform="translate(1387.013672 0)"/>
     <use xlink:href="#DejaVuSans-73" transform="translate(1448.292969 0)"/>
     <use xlink:href="#DejaVuSans-20" transform="translate(1500.392578 0)"/>
     <use xlink:href="#DejaVuSans-27" transform="translate(1532.179688 0)"/>
     <use xlink:href="#DejaVuSans-44" transform="translate(1559.669922 0)"/>
     <use xlink:href="#DejaVuSans-6f" transform="translate(1636.671875 0)"/>
     <use xlink:href="#DejaVuSans-74" transform="translate(1697.853516 0)"/>
     <use xlink:href="#DejaVuSans-73" transform="translate(1737.0625 0)"/>
     <use xlink:href="#DejaVuSans-27" transform="translate(1789.162109 0)"/>
     <use xlink:href="#DejaVuSans-20" transform="translate(1816.652344 0)"/>
     <use xlink:href="#DejaVuSans-6f" transform="translate(1848.439453 0)"/>
     <use xlink:href="#DejaVuSans-6e" transform="translate(1909.621094 0)"/>
     <use xlink:href="#DejaVuSans-20" transform="translate(1973 0)"/>
     <use xlink:href="#DejaVuSans-61" transform="translate(2004.787109 0)"/>
     <use xlink:href="#DejaVuSans-20" transform="translate(2066.066406 0)"/>
     <use xlink:href="#DejaVuSans-4c" transform="translate(2097.853516 0)"/>
     <use xlink:href="#DejaVuSans-69" transform="translate(2153.566406 0)"/>
     <use xlink:href="#DejaVuSans-6e" transform="translate(2181.349609 0)"/>
     <use xlink:href="#DejaVuSans-65" transform="translate(2244.728516 0)"/>
    </g>
   </g>
  </g>
  <g id="axes_2">
   <g id="patch_2">
    <path d="M 72.987323 328.98 
Q 167.60399 328.98 261.102622 328.98 
" clip-path="url(#p61315ba4aa)" style="fill: none; stroke: #000000; stroke-linecap: round"/>
    <path d="M 257.102622 326.98 
L 261.102622 328.98 
L 257.102622 330.98 
z
" clip-path="url(#p61315ba4aa)" style="stroke: #000000; stroke-linecap: round"/>
   </g>
   <g id="patch_3">
    <path d="M 265.272459 328.397364 
Q 359.999795 290.872643 453.687683 253.759683 
" clip-path="url(#p61315ba4aa)" style="fill: none; stroke: #000000; stroke-linecap: round"/>
    <path d="M 449.232259 253.373422 
L 453.687683 253.759683 
L 450.70542 257.092266 
z
" clip-path="url(#p61315ba4aa)" style="stroke: #000000; stroke-linecap: round"/>
   </g>
   <g id="patch_4">
    <path d="M 265.272459 329.562636 
Q 359.999795 367.087357 453.687683 404.200317 
" clip-path="url(#p61315ba4aa)" style="fill: none; stroke: #000000; stroke-linecap: round"/>
    <path d="M 450.70542 400.867734 
L 453.687683 404.200317 
L 449.232259 404.586578 
z
" clip-path="url(#p61315ba4aa)" style="stroke: #000000; stroke-linecap: round"/>
   </g>
   <g id="patch_5">
    <path d="M 457.669153 253.34776 
Q 552.39649 290.872481 646.084378 327.985441 
" clip-path="url(#p61315ba4aa)" style="fill: none; stroke: #000000; stroke-linecap: round"/>
    <path d="M 643.102114 324.652858 
L 646.084378 327.985441 
L 641.628954 328.371702 
z
" clip-path="url(#p61315ba4aa)" style="stroke: #000000; stroke-linecap: round"/>
   </g>
   <g id="patch_6">
    <path d="M 457.669153 404.61224 
Q 552.39649 367.087519 646.084378 329.974559 
" clip-path="url(#p61315ba4aa)" style="fill: none; stroke: #000000; stroke-linecap: round"/>
    <path d="M 641.628954 329.588298 
L 646.084378 329.974559 
L 643.102114 333.307142 
z
" clip-path="url(#p61315ba4aa)" style="stroke: #000000; stroke-linecap: round"/>
   </g>
   <g id="PathCollection_2">
    <defs>
     <path id="m0c6ff8700c" d="M 0 1.581139 
C 0.419323 1.581139 0.821528 1.41454 1.118034 1.118034 
C 1.41454 0.821528 1.581139 0.419323 1.581139 0 
C 1.581139 -0.419323 1.41454 -0.821528 1.118034 -1.118034 
C 0.821528 -1.41454 0.419323 -1.581139 0 -1.581139 
C -0.419323 -1.581139 -0.821528 -1.41454 -1.118034 -1.118034 
C -1.41454 -0.821528 -1.581139 -0.419323 -1.581139 0 
C -1.581139 0.419323 -1.41454 0.821528 -1.118034 1.118034 
C -0.821528 1.41454 -0.419323 1.581139 0 1.581139 
z
" style="stroke: #808080"/>
    </defs>
    <g clip-path="url(#p61315ba4aa)">
     <use xlink:href="#m0c6ff8700c" x="71.404959" y="328.98" style="fill: #808080; stroke: #808080"/>
     <use xlink:href="#m0c6ff8700c" x="263.801653" y="328.98" style="fill: #808080; stroke: #808080"/>
     <use xlink:href="#m0c6ff8700c" x="456.198347" y="252.765124" style="fill: #808080; stroke: #808080"/>
     <use xlink:href="#m0c6ff8700c" x="456.198347" y="405.194876" style="fill: #808080; stroke: #808080"/>
     <use xlink:href="#m0c6ff8700c" x="648.595041" y="328.98" style="fill: #808080; stroke: #808080"/>
    </g>
   </g>
   <g id="text_2">
    <!-- Graph Genome: Variation as Alternative Paths -->
    <g transform="translate(222.044063 230.76) scale(0.12 -0.12)">
     <defs>
      <path id="DejaVuSans-47" d="M 3809 666 
L 3809 1919 
L 2778 1919 
L 2778 2438 
L 4434 2438 
L 4434 434 
Q 4069 175 3628 42 
Q 3188 -91 2688 -91 
Q 1594 -91 976 548 
Q 359 1188 359 2328 
Q 359 3472 976 4111 
Q 1594 4750 2688 4750 
Q 3144 4750 3555 4637 
Q 3966 4525 4313 4306 
L 4313 3634 
Q 3963 3931 3569 4081 
Q 3175 4231 2741 4231 
Q 1884 4231 1454 3753 
Q 1025 3275 1025 2328 
Q 1025 1384 1454 906 
Q 1884 428 2741 428 
Q 3075 428 3337 486 
Q 3600 544 3809 666 
z
" transform="scale(0.015625)"/>
      <path id="DejaVuSans-70" d="M 1159 525 
L 1159 -1331 
L 581 -1331 
L 581 3500 
L 1159 3500 
L 1159 2969 
Q 1341 3281 1617 3432 
Q 1894 3584 2278 3584 
Q 2916 3584 3314 3078 
Q 3713 2572 3713 1747 
Q 3713 922 3314 415 
Q 2916 -91 2278 -91 
Q 1894 -91 1617 61 
Q 1341 213 1159 525 
z
M 3116 1747 
Q 3116 2381 2855 2742 
Q 2594 3103 2138 3103 
Q 1681 3103 1420 2742 
Q 1159 2381 1159 1747 
Q 1159 1113 1420 752 
Q 1681 391 2138 391 
Q 2594 391 2855 752 
Q 3116 1113 3116 1747 
z
" transform="scale(0.015625)"/>
      <path id="DejaVuSans-68" d="M 3513 2113 
L 3513 0 
L 2938 0 
L 2938 2094 
Q 2938 2591 2744 2837 
Q 2550 3084 2163 3084 
Q 1697 3084 1428 2787 
Q 1159 2491 1159 1978 
L 1159 0 
L 581 0 
L 581 4863 
L 1159 4863 
L 1159 2956 
Q 1366 3272 1645 3428 
Q 1925 3584 2291 3584 
Q 2894 3584 3203 3211 
Q 3513 2838 3513 2113 
z
" transform="scale(0.015625)"/>
      <path id="DejaVuSans-6d" d="M 3328 2828 
Q 3544 3216 3844 3400 
Q 4144 3584 4550 3584 
Q 5097 3584 5394 3201 
Q 5691 2819 5691 2113 
L 5691 0 
L 5113 0 
L 5113 2094 
Q 5113 2597 4934 2840 
Q 4756 3084 4391 3084 
Q 3944 3084 3684 2787 
Q 3425 2491 3425 1978 
L 3425 0 
L 2847 0 
L 2847 2094 
Q 2847 2600 2669 2842 
Q 2491 3084 2119 3084 
Q 1678 3084 1418 2786 
Q 1159 2488 1159 1978 
L 1159 0 
L 581 0 
L 581 3500 
L 1159 3500 
L 1159 2956 
Q 1356 3278 1631 3431 
Q 1906 3584 2284 3584 
Q 2666 3584 2933 3390 
Q 3200 3197 3328 2828 
z
" transform="scale(0.015625)"/>
      <path id="DejaVuSans-41" d="M 2188 4044 
L 1331 1722 
L 3047 1722 
L 2188 4044 
z
M 1831 4666 
L 2547 4666 
L 4325 0 
L 3669 0 
L 3244 1197 
L 1141 1197 
L 716 0 
L 50 0 
L 1831 4666 
z
" transform="scale(0.015625)"/>
      <path id="DejaVuSans-6c" d="M 603 4863 
L 1178 4863 
L 1178 0 
L 603 0 
L 603 4863 
z
" transform="scale(0.015625)"/>
      <path id="DejaVuSans-76" d="M 191 3500 
L 800 3500 
L 1894 563 
L 2988 3500 
L 3597 3500 
L 2284 0 
L 1503 0 
L 191 3500 
z
" transform="scale(0.015625)"/>
      <path id="DejaVuSans-50" d="M 1259 4147 
L 1259 2394 
L 2053 2394 
Q 2494 2394 2734 2622 
Q 2975 2850 2975 3272 
Q 2975 3691 2734 3919 
Q 2494 4147 2053 4147 
L 1259 4147 
z
M 628 4666 
L 2053 4666 
Q 2838 4666 3239 4311 
Q 3641 3956 3641 3272 
Q 3641 2581 3239 2228 
Q 2838 1875 2053 1875 
L 1259 1875 
L 1259 0 
L 628 0 
L 628 4666 
z
" transform="scale(0.015625)"/>
     </defs>
     <use xlink:href="#DejaVuSans-47"/>
     <use xlink:href="#DejaVuSans-72" transform="translate(77.490234 0)"/>
     <use xlink:href="#DejaVuSans-61" transform="translate(118.603516 0)"/>
     <use xlink:href="#DejaVuSans-70" transform="translate(179.882812 0)"/>
     <use xlink:href="#DejaVuSans-68" transform="translate(243.359375 0)"/>
     <use xlink:href="#DejaVuSans-20" transform="translate(306.738281 0)"/>
     <use xlink:href="#DejaVuSans-47" transform="translate(338.525391 0)"/>
     <use xlink:href="#DejaVuSans-65" transform="translate(416.015625 0)"/>
     <use xlink:href="#DejaVuSans-6e" transform="translate(477.539062 0)"/>
     <use xlink:href="#DejaVuSans-6f" transform="translate(540.917969 0)"/>
     <use xlink:href="#DejaVuSans-6d" transform="translate(602.099609 0)"/>
     <use xlink:href="#DejaVuSans-65" transform="translate(699.511719 0)"/>
     <use xlink:href="#DejaVuSans-3a" transform="translate(761.035156 0)"/>
     <use xlink:href="#DejaVuSans-20" transform="translate(794.726562 0)"/>
     <use xlink:href="#DejaVuSans-56" transform="translate(826.513672 0)"/>
     <use xlink:href="#DejaVuSans-61" transform="translate(887.171875 0)"/>
     <use xlink:href="#DejaVuSans-72" transform="translate(948.451172 0)"/>
     <use xlink:href="#DejaVuSans-69" transform="translate(989.564453 0)"/>
     <use xlink:href="#DejaVuSans-61" transform="translate(1017.347656 0)"/>
     <use xlink:href="#DejaVuSans-74" transform="translate(1078.626953 0)"/>
     <use xlink:href="#DejaVuSans-69" transform="translate(1117.835938 0)"/>
     <use xlink:href="#DejaVuSans-6f" transform="translate(1145.619141 0)"/>
     <use xlink:href="#DejaVuSans-6e" transform="translate(1206.800781 0)"/>
     <use xlink:href="#DejaVuSans-20" transform="translate(1270.179688 0)"/>
     <use xlink:href="#DejaVuSans-61" transform="translate(1301.966797 0)"/>
     <use xlink:href="#DejaVuSans-73" transform="translate(1363.246094 0)"/>
     <use xlink:href="#DejaVuSans-20" transform="translate(1415.345703 0)"/>
     <use xlink:href="#DejaVuSans-41" transform="translate(1447.132812 0)"/>
     <use xlink:href="#DejaVuSans-6c" transform="translate(1515.541016 0)"/>
     <use xlink:href="#DejaVuSans-74" transform="translate(1543.324219 0)"/>
     <use xlink:href="#DejaVuSans-65" transform="translate(1582.533203 0)"/>
     <use xlink:href="#DejaVuSans-72" transform="translate(1644.056641 0)"/>
     <use xlink:href="#DejaVuSans-6e" transform="translate(1683.419922 0)"/>
     <use xlink:href="#DejaVuSans-61" transform="translate(1746.798828 0)"/>
     <use xlink:href="#DejaVuSans-74" transform="translate(1808.078125 0)"/>
     <use xlink:href="#DejaVuSans-69" transform="translate(1847.287109 0)"/>
     <use xlink:href="#DejaVuSans-76" transform="translate(1875.070312 0)"/>
     <use xlink:href="#DejaVuSans-65" transform="translate(1934.25 0)"/>
     <use xlink:href="#DejaVuSans-20" transform="translate(1995.773438 0)"/>
     <use xlink:href="#DejaVuSans-50" transform="translate(2027.560547 0)"/>
     <use xlink:href="#DejaVuSans-61" transform="translate(2083.363281 0)"/>
     <use xlink:href="#DejaVuSans-74" transform="translate(2144.642578 0)"/>
     <use xlink:href="#DejaVuSans-68" transform="translate(2183.851562 0)"/>
     <use xlink:href="#DejaVuSans-73" transform="translate(2247.230469 0)"/>
    </g>
   </g>
  </g>
 </g>
 <defs>
  <clipPath id="pdeb695f15d">
   <rect x="10.8" y="26.16" width="698.4" height="184.44"/>
  </clipPath>
  <clipPath id="p61315ba4aa">
   <rect x="10.8" y="236.76" width="698.4" height="184.44"/>
  </clipPath>
 </defs>
</svg>
