<?xml version="1.0" encoding="utf-8" standalone="no"?>
<!DOCTYPE svg PUBLIC "-//W3C//DTD SVG 1.1//EN"
  "http://www.w3.org/Graphics/SVG/1.1/DTD/svg11.dtd">
<svg xmlns:xlink="http://www.w3.org/1999/xlink" width="708.48pt" height="492.317813pt" viewBox="0 0 708.48 492.317813" xmlns="http://www.w3.org/2000/svg" version="1.1">
 <metadata>
  <rdf:RDF xmlns:dc="http://purl.org/dc/elements/1.1/" xmlns:cc="http://creativecommons.org/ns#" xmlns:rdf="http://www.w3.org/1999/02/22-rdf-syntax-ns#">
   <cc:Work>
    <dc:type rdf:resource="http://purl.org/dc/dcmitype/StillImage"/>
    <dc:date>2026-01-10T01:46:30.810426</dc:date>
    <dc:format>image/svg+xml</dc:format>
    <dc:creator>
     <cc:Agent>
      <dc:title>Matplotlib v3.10.8, https://matplotlib.org/</dc:title>
     </cc:Agent>
    </dc:creator>
   </cc:Work>
  </rdf:RDF>
 </metadata>
 <defs>
  <style type="text/css">*{stroke-linejoin: round; stroke-linecap: butt}</style>
 </defs>
 <g id="figure_1">
  <g id="patch_1">
   <path d="M 0 492.317813 
L 708.48 492.317813 
L 708.48 0 
L 0 0 
z
" style="fill: #ffffff"/>
  </g>
  <g id="axes_1">
   <g id="line2d_1">
    <path d="M 38.749091 131.717812 
L 669.730909 131.717812 
" clip-path="url(#pd7828f6d5e)" style="fill: none; stroke: #2c3e50; stroke-width: 3; stroke-linecap: square"/>
   </g>
   <g id="PathCollection_1">
    <defs>
     <path id="me99978d511" d="M 0 6.123724 
C 1.624031 6.123724 3.181764 5.47849 4.330127 4.330127 
C 5.47849 3.181764 6.123724 1.624031 6.123724 0 
C 6.123724 -1.624031 5.47849 -3.181764 4.330127 -4.330127 
C 3.181764 -5.47849 1.624031 -6.123724 0 -6.123724 
C -1.624031 -6.123724 -3.181764 -5.47849 -4.330127 -4.330127 
C -5.47849 -3.181764 -6.123724 -1.624031 -6.123724 0 
C -6.123724 1.624031 -5.47849 3.181764 -4.330127 4.330127 
C -3.181764 5.47849 -1.624031 6.123724 0 6.123724 
z
" style="stroke: #000000"/>
    </defs>
    <g clip-path="url(#pd7828f6d5e)">
     <use xlink:href="#me99978d511" x="228.043636" y="131.717812" style="fill: #e74c3c; stroke: #000000"/>
     <use xlink:href="#me99978d511" x="480.436364" y="131.717812" style="fill: #e74c3c; stroke: #000000"/>
    </g>
   </g>
   <g id="text_1">
    <!-- Linear Reference: Variation as Deviations -->
    <g style="fill: #34495e" transform="translate(190.205937 17.837812) scale(0.14 -0.14)">
     <defs>
      <path id="DejaVuSans-Bold-4c" d="M 588 4666 
L 1791 4666 
L 1791 909 
L 3903 909 
L 3903 0 
L 588 0 
L 588 4666 
z
" transform="scale(0.015625)"/>
      <path id="DejaVuSans-Bold-69" d="M 538 3500 
L 1656 3500 
L 1656 0 
L 538 0 
L 538 3500 
z
M 538 4863 
L 1656 4863 
L 1656 3950 
L 538 3950 
L 538 4863 
z
" transform="scale(0.015625)"/>
      <path id="DejaVuSans-Bold-6e" d="M 4056 2131 
L 4056 0 
L 2931 0 
L 2931 347 
L 2931 1631 
Q 2931 2084 2911 2256 
Q 2891 2428 2841 2509 
Q 2775 2619 2662 2680 
Q 2550 2741 2406 2741 
Q 2056 2741 1856 2470 
Q 1656 2200 1656 1722 
L 1656 0 
L 538 0 
L 538 3500 
L 1656 3500 
L 1656 2988 
Q 1909 3294 2193 3439 
Q 2478 3584 2822 3584 
Q 3428 3584 3742 3212 
Q 4056 2841 4056 2131 
z
" transform="scale(0.015625)"/>
      <path id="DejaVuSans-Bold-65" d="M 4031 1759 
L 4031 1441 
L 1416 1441 
Q 1456 1047 1700 850 
Q 1944 653 2381 653 
Q 2734 653 3104 758 
Q 3475 863 3866 1075 
L 3866 213 
Q 3469 63 3072 -14 
Q 2675 -91 2278 -91 
Q 1328 -91 801 392 
Q 275 875 275 1747 
Q 275 2603 792 3093 
Q 1309 3584 2216 3584 
Q 3041 3584 3536 3087 
Q 4031 2591 4031 1759 
z
M 2881 2131 
Q 2881 2450 2695 2645 
Q 2509 2841 2209 2841 
Q 1884 2841 1681 2658 
Q 1478 2475 1428 2131 
L 2881 2131 
z
" transform="scale(0.015625)"/>
      <path id="DejaVuSans-Bold-61" d="M 2106 1575 
Q 1756 1575 1579 1456 
Q 1403 1338 1403 1106 
Q 1403 894 1545 773 
Q 1688 653 1941 653 
Q 2256 653 2472 879 
Q 2688 1106 2688 1447 
L 2688 1575 
L 2106 1575 
z
M 3816 1997 
L 3816 0 
L 2688 0 
L 2688 519 
Q 2463 200 2181 54 
Q 1900 -91 1497 -91 
Q 953 -91 614 226 
Q 275 544 275 1050 
Q 275 1666 698 1953 
Q 1122 2241 2028 2241 
L 2688 2241 
L 2688 2328 
Q 2688 2594 2478 2717 
Q 2269 2841 1825 2841 
Q 1466 2841 1156 2769 
Q 847 2697 581 2553 
L 581 3406 
Q 941 3494 1303 3539 
Q 1666 3584 2028 3584 
Q 2975 3584 3395 3211 
Q 3816 2838 3816 1997 
z
" transform="scale(0.015625)"/>
      <path id="DejaVuSans-Bold-72" d="M 3138 2547 
Q 2991 2616 2845 2648 
Q 2700 2681 2553 2681 
Q 2122 2681 1889 2404 
Q 1656 2128 1656 1613 
L 1656 0 
L 538 0 
L 538 3500 
L 1656 3500 
L 1656 2925 
Q 1872 3269 2151 3426 
Q 2431 3584 2822 3584 
Q 2878 3584 2943 3579 
Q 3009 3575 3134 3559 
L 3138 2547 
z
" transform="scale(0.015625)"/>
      <path id="DejaVuSans-Bold-20" transform="scale(0.015625)"/>
      <path id="DejaVuSans-Bold-52" d="M 2297 2597 
Q 2675 2597 2839 2737 
Q 3003 2878 3003 3200 
Q 3003 3519 2839 3656 
Q 2675 3794 2297 3794 
L 1791 3794 
L 1791 2597 
L 2297 2597 
z
M 1791 1766 
L 1791 0 
L 588 0 
L 588 4666 
L 2425 4666 
Q 3347 4666 3776 4356 
Q 4206 4047 4206 3378 
Q 4206 2916 3982 2619 
Q 3759 2322 3309 2181 
Q 3556 2125 3751 1926 
Q 3947 1728 4147 1325 
L 4800 0 
L 3519 0 
L 2950 1159 
Q 2778 1509 2601 1637 
Q 2425 1766 2131 1766 
L 1791 1766 
z
" transform="scale(0.015625)"/>
      <path id="DejaVuSans-Bold-66" d="M 2841 4863 
L 2841 4128 
L 2222 4128 
Q 1984 4128 1890 4042 
Q 1797 3956 1797 3744 
L 1797 3500 
L 2753 3500 
L 2753 2700 
L 1797 2700 
L 1797 0 
L 678 0 
L 678 2700 
L 122 2700 
L 122 3500 
L 678 3500 
L 678 3744 
Q 678 4316 997 4589 
Q 1316 4863 1984 4863 
L 2841 4863 
z
" transform="scale(0.015625)"/>
      <path id="DejaVuSans-Bold-63" d="M 3366 3391 
L 3366 2478 
Q 3138 2634 2908 2709 
Q 2678 2784 2431 2784 
Q 1963 2784 1702 2511 
Q 1441 2238 1441 1747 
Q 1441 1256 1702 982 
Q 1963 709 2431 709 
Q 2694 709 2930 787 
Q 3166 866 3366 1019 
L 3366 103 
Q 3103 6 2833 -42 
Q 2563 -91 2291 -91 
Q 1344 -91 809 395 
Q 275 881 275 1747 
Q 275 2613 809 3098 
Q 1344 3584 2291 3584 
Q 2566 3584 2833 3536 
Q 3100 3488 3366 3391 
z
" transform="scale(0.015625)"/>
      <path id="DejaVuSans-Bold-3a" d="M 716 3500 
L 1844 3500 
L 1844 2291 
L 716 2291 
L 716 3500 
z
M 716 1209 
L 1844 1209 
L 1844 0 
L 716 0 
L 716 1209 
z
" transform="scale(0.015625)"/>
      <path id="DejaVuSans-Bold-56" d="M 31 4666 
L 1241 4666 
L 2478 1222 
L 3713 4666 
L 4922 4666 
L 3194 0 
L 1759 0 
L 31 4666 
z
" transform="scale(0.015625)"/>
      <path id="DejaVuSans-Bold-74" d="M 1759 4494 
L 1759 3500 
L 2913 3500 
L 2913 2700 
L 1759 2700 
L 1759 1216 
Q 1759 972 1856 886 
Q 1953 800 2241 800 
L 2816 800 
L 2816 0 
L 1856 0 
Q 1194 0 917 276 
Q 641 553 641 1216 
L 641 2700 
L 84 2700 
L 84 3500 
L 641 3500 
L 641 4494 
L 1759 4494 
z
" transform="scale(0.015625)"/>
      <path id="DejaVuSans-Bold-6f" d="M 2203 2784 
Q 1831 2784 1636 2517 
Q 1441 2250 1441 1747 
Q 1441 1244 1636 976 
Q 1831 709 2203 709 
Q 2569 709 2762 976 
Q 2956 1244 2956 1747 
Q 2956 2250 2762 2517 
Q 2569 2784 2203 2784 
z
M 2203 3584 
Q 3106 3584 3614 3096 
Q 4122 2609 4122 1747 
Q 4122 884 3614 396 
Q 3106 -91 2203 -91 
Q 1297 -91 786 396 
Q 275 884 275 1747 
Q 275 2609 786 3096 
Q 1297 3584 2203 3584 
z
" transform="scale(0.015625)"/>
      <path id="DejaVuSans-Bold-73" d="M 3272 3391 
L 3272 2541 
Q 2913 2691 2578 2766 
Q 2244 2841 1947 2841 
Q 1628 2841 1473 2761 
Q 1319 2681 1319 2516 
Q 1319 2381 1436 2309 
Q 1553 2238 1856 2203 
L 2053 2175 
Q 2913 2066 3209 1816 
Q 3506 1566 3506 1031 
Q 3506 472 3093 190 
Q 2681 -91 1863 -91 
Q 1516 -91 1145 -36 
Q 775 19 384 128 
L 384 978 
Q 719 816 1070 734 
Q 1422 653 1784 653 
Q 2113 653 2278 743 
Q 2444 834 2444 1013 
Q 2444 1163 2330 1236 
Q 2216 1309 1875 1350 
L 1678 1375 
Q 931 1469 631 1722 
Q 331 1975 331 2491 
Q 331 3047 712 3315 
Q 1094 3584 1881 3584 
Q 2191 3584 2531 3537 
Q 2872 3491 3272 3391 
z
" transform="scale(0.015625)"/>
      <path id="DejaVuSans-Bold-44" d="M 1791 3756 
L 1791 909 
L 2222 909 
Q 2959 909 3348 1275 
Q 3738 1641 3738 2338 
Q 3738 3031 3350 3393 
Q 2963 3756 2222 3756 
L 1791 3756 
z
M 588 4666 
L 1856 4666 
Q 2919 4666 3439 4514 
Q 3959 4363 4331 4000 
Q 4659 3684 4818 3271 
Q 4978 2859 4978 2338 
Q 4978 1809 4818 1395 
Q 4659 981 4331 666 
Q 3956 303 3431 151 
Q 2906 0 1856 0 
L 588 0 
L 588 4666 
z
" transform="scale(0.015625)"/>
      <path id="DejaVuSans-Bold-76" d="M 97 3500 
L 1216 3500 
L 2088 1081 
L 2956 3500 
L 4078 3500 
L 2700 0 
L 1472 0 
L 97 3500 
z
" transform="scale(0.015625)"/>
     </defs>
     <use xlink:href="#DejaVuSans-Bold-4c"/>
     <use xlink:href="#DejaVuSans-Bold-69" transform="translate(63.720703 0)"/>
     <use xlink:href="#DejaVuSans-Bold-6e" transform="translate(97.998047 0)"/>
     <use xlink:href="#DejaVuSans-Bold-65" transform="translate(169.189453 0)"/>
     <use xlink:href="#DejaVuSans-Bold-61" transform="translate(237.011719 0)"/>
     <use xlink:href="#DejaVuSans-Bold-72" transform="translate(304.492188 0)"/>
     <use xlink:href="#DejaVuSans-Bold-20" transform="translate(353.808594 0)"/>
     <use xlink:href="#DejaVuSans-Bold-52" transform="translate(388.623047 0)"/>
     <use xlink:href="#DejaVuSans-Bold-65" transform="translate(465.625 0)"/>
     <use xlink:href="#DejaVuSans-Bold-66" transform="translate(533.447266 0)"/>
     <use xlink:href="#DejaVuSans-Bold-65" transform="translate(576.953125 0)"/>
     <use xlink:href="#DejaVuSans-Bold-72" transform="translate(644.775391 0)"/>
     <use xlink:href="#DejaVuSans-Bold-65" transform="translate(694.091797 0)"/>
     <use xlink:href="#DejaVuSans-Bold-6e" transform="translate(761.914062 0)"/>
     <use xlink:href="#DejaVuSans-Bold-63" transform="translate(833.105469 0)"/>
     <use xlink:href="#DejaVuSans-Bold-65" transform="translate(892.382812 0)"/>
     <use xlink:href="#DejaVuSans-Bold-3a" transform="translate(960.205078 0)"/>
     <use xlink:href="#DejaVuSans-Bold-20" transform="translate(1000.195312 0)"/>
     <use xlink:href="#DejaVuSans-Bold-56" transform="translate(1035.009766 0)"/>
     <use xlink:href="#DejaVuSans-Bold-61" transform="translate(1106.902344 0)"/>
     <use xlink:href="#DejaVuSans-Bold-72" transform="translate(1174.382812 0)"/>
     <use xlink:href="#DejaVuSans-Bold-69" transform="translate(1223.699219 0)"/>
     <use xlink:href="#DejaVuSans-Bold-61" transform="translate(1257.976562 0)"/>
     <use xlink:href="#DejaVuSans-Bold-74" transform="translate(1325.457031 0)"/>
     <use xlink:href="#DejaVuSans-Bold-69" transform="translate(1373.259766 0)"/>
     <use xlink:href="#DejaVuSans-Bold-6f" transform="translate(1407.537109 0)"/>
     <use xlink:href="#DejaVuSans-Bold-6e" transform="translate(1476.238281 0)"/>
     <use xlink:href="#DejaVuSans-Bold-20" transform="translate(1547.429688 0)"/>
     <use xlink:href="#DejaVuSans-Bold-61" transform="translate(1582.244141 0)"/>
     <use xlink:href="#DejaVuSans-Bold-73" transform="translate(1649.724609 0)"/>
     <use xlink:href="#DejaVuSans-Bold-20" transform="translate(1709.246094 0)"/>
     <use xlink:href="#DejaVuSans-Bold-44" transform="translate(1744.060547 0)"/>
     <use xlink:href="#DejaVuSans-Bold-65" transform="translate(1827.068359 0)"/>
     <use xlink:href="#DejaVuSans-Bold-76" transform="translate(1894.890625 0)"/>
     <use xlink:href="#DejaVuSans-Bold-69" transform="translate(1960.076172 0)"/>
     <use xlink:href="#DejaVuSans-Bold-61" transform="translate(1994.353516 0)"/>
     <use xlink:href="#DejaVuSans-Bold-74" transform="translate(2061.833984 0)"/>
     <use xlink:href="#DejaVuSans-Bold-69" transform="translate(2109.636719 0)"/>
     <use xlink:href="#DejaVuSans-Bold-6f" transform="translate(2143.914062 0)"/>
     <use xlink:href="#DejaVuSans-Bold-6e" transform="translate(2212.615234 0)"/>
     <use xlink:href="#DejaVuSans-Bold-73" transform="translate(2283.806641 0)"/>
    </g>
   </g>
  </g>
  <g id="axes_2">
   <g id="patch_2">
    <path d="M 72.432276 377.237813 
Q 139.13533 377.237813 203.043299 377.237813 
" clip-path="url(#pda736293ab)" style="fill: none; stroke: #3498db; stroke-width: 2.5; stroke-linecap: round"/>
    <path d="M 199.043299 375.237813 
L 203.043299 377.237813 
L 199.043299 379.237813 
z
" clip-path="url(#pda736293ab)" style="fill: #3498db; stroke: #3498db; stroke-width: 2.5; stroke-linecap: round"/>
   </g>
   <g id="patch_3">
    <path d="M 215.08231 374.597221 
Q 282.538839 332.65848 347.621643 292.19552 
" clip-path="url(#pda736293ab)" style="fill: none; stroke: #3498db; stroke-width: 2.5; stroke-linecap: round"/>
    <path d="M 343.168661 292.608986 
L 347.621643 292.19552 
L 345.280626 296.005985 
z
" clip-path="url(#pda736293ab)" style="fill: #3498db; stroke: #3498db; stroke-width: 2.5; stroke-linecap: round"/>
   </g>
   <g id="patch_4">
    <path d="M 215.08231 379.878404 
Q 282.538839 421.817145 347.621643 462.280105 
" clip-path="url(#pda736293ab)" style="fill: none; stroke: #3498db; stroke-width: 2.5; stroke-linecap: round"/>
    <path d="M 345.280626 458.46964 
L 347.621643 462.280105 
L 343.168661 461.866639 
z
" clip-path="url(#pda736293ab)" style="fill: #3498db; stroke: #3498db; stroke-width: 2.5; stroke-linecap: round"/>
   </g>
   <g id="patch_5">
    <path d="M 358.487269 290.721379 
Q 425.943798 332.66012 491.026601 373.12308 
" clip-path="url(#pda736293ab)" style="fill: none; stroke: #3498db; stroke-width: 2.5; stroke-linecap: round"/>
    <path d="M 488.685585 369.312615 
L 491.026601 373.12308 
L 486.57362 372.709614 
z
" clip-path="url(#pda736293ab)" style="fill: #3498db; stroke: #3498db; stroke-width: 2.5; stroke-linecap: round"/>
   </g>
   <g id="patch_6">
    <path d="M 358.487269 463.754246 
Q 425.943798 421.815505 491.026601 381.352545 
" clip-path="url(#pda736293ab)" style="fill: none; stroke: #3498db; stroke-width: 2.5; stroke-linecap: round"/>
    <path d="M 486.57362 381.766011 
L 491.026601 381.352545 
L 488.685585 385.16301 
z
" clip-path="url(#pda736293ab)" style="fill: #3498db; stroke: #3498db; stroke-width: 2.5; stroke-linecap: round"/>
   </g>
   <g id="patch_7">
    <path d="M 502.647152 377.237813 
Q 569.350206 377.237813 633.258175 377.237813 
" clip-path="url(#pda736293ab)" style="fill: none; stroke: #3498db; stroke-width: 2.5; stroke-linecap: round"/>
    <path d="M 629.258175 375.237813 
L 633.258175 377.237813 
L 629.258175 379.237813 
z
" clip-path="url(#pda736293ab)" style="fill: #3498db; stroke: #3498db; stroke-width: 2.5; stroke-linecap: round"/>
   </g>
   <g id="PathCollection_2">
    <defs>
     <path id="m2f11074dda" d="M 0 5 
C 1.326016 5 2.597899 4.473168 3.535534 3.535534 
C 4.473168 2.597899 5 1.326016 5 0 
C 5 -1.326016 4.473168 -2.597899 3.535534 -3.535534 
C 2.597899 -4.473168 1.326016 -5 0 -5 
C -1.326016 -5 -2.597899 -4.473168 -3.535534 -3.535534 
C -4.473168 -2.597899 -5 -1.326016 -5 0 
C -5 1.326016 -4.473168 2.597899 -3.535534 3.535534 
C -2.597899 4.473168 -1.326016 5 0 5 
z
" style="stroke: #2c3e50"/>
    </defs>
    <g clip-path="url(#pda736293ab)">
     <use xlink:href="#m2f11074dda" x="67.430083" y="377.237813" style="fill: #2c3e50; stroke: #2c3e50"/>
     <use xlink:href="#m2f11074dda" x="210.835041" y="377.237813" style="fill: #2c3e50; stroke: #2c3e50"/>
     <use xlink:href="#m2f11074dda" x="354.24" y="288.080788" style="fill: #2c3e50; stroke: #2c3e50"/>
     <use xlink:href="#m2f11074dda" x="354.24" y="466.394837" style="fill: #2c3e50; stroke: #2c3e50"/>
     <use xlink:href="#m2f11074dda" x="497.644959" y="377.237813" style="fill: #2c3e50; stroke: #2c3e50"/>
     <use xlink:href="#m2f11074dda" x="641.049917" y="377.237813" style="fill: #2c3e50; stroke: #2c3e50"/>
    </g>
   </g>
   <g id="text_2">
    <!-- Graph Genome: Variation as Alternative Paths -->
    <g style="fill: #34495e" transform="translate(171.962187 263.357812) scale(0.14 -0.14)">
     <defs>
      <path id="DejaVuSans-Bold-47" d="M 4781 347 
Q 4331 128 3847 18 
Q 3363 -91 2847 -91 
Q 1681 -91 1000 561 
Q 319 1213 319 2328 
Q 319 3456 1012 4103 
Q 1706 4750 2913 4750 
Q 3378 4750 3804 4662 
Q 4231 4575 4609 4403 
L 4609 3438 
Q 4219 3659 3833 3768 
Q 3447 3878 3059 3878 
Q 2341 3878 1952 3476 
Q 1563 3075 1563 2328 
Q 1563 1588 1938 1184 
Q 2313 781 3003 781 
Q 3191 781 3352 804 
Q 3513 828 3641 878 
L 3641 1784 
L 2906 1784 
L 2906 2591 
L 4781 2591 
L 4781 347 
z
" transform="scale(0.015625)"/>
      <path id="DejaVuSans-Bold-70" d="M 1656 506 
L 1656 -1331 
L 538 -1331 
L 538 3500 
L 1656 3500 
L 1656 2988 
Q 1888 3294 2169 3439 
Q 2450 3584 2816 3584 
Q 3463 3584 3878 3070 
Q 4294 2556 4294 1747 
Q 4294 938 3878 423 
Q 3463 -91 2816 -91 
Q 2450 -91 2169 54 
Q 1888 200 1656 506 
z
M 2400 2772 
Q 2041 2772 1848 2508 
Q 1656 2244 1656 1747 
Q 1656 1250 1848 986 
Q 2041 722 2400 722 
Q 2759 722 2948 984 
Q 3138 1247 3138 1747 
Q 3138 2247 2948 2509 
Q 2759 2772 2400 2772 
z
" transform="scale(0.015625)"/>
      <path id="DejaVuSans-Bold-68" d="M 4056 2131 
L 4056 0 
L 2931 0 
L 2931 347 
L 2931 1625 
Q 2931 2084 2911 2256 
Q 2891 2428 2841 2509 
Q 2775 2619 2662 2680 
Q 2550 2741 2406 2741 
Q 2056 2741 1856 2470 
Q 1656 2200 1656 1722 
L 1656 0 
L 538 0 
L 538 4863 
L 1656 4863 
L 1656 2988 
Q 1909 3294 2193 3439 
Q 2478 3584 2822 3584 
Q 3428 3584 3742 3212 
Q 4056 2841 4056 2131 
z
" transform="scale(0.015625)"/>
      <path id="DejaVuSans-Bold-6d" d="M 3781 2919 
Q 3994 3244 4286 3414 
Q 4578 3584 4928 3584 
Q 5531 3584 5847 3212 
Q 6163 2841 6163 2131 
L 6163 0 
L 5038 0 
L 5038 1825 
Q 5041 1866 5042 1909 
Q 5044 1953 5044 2034 
Q 5044 2406 4934 2573 
Q 4825 2741 4581 2741 
Q 4263 2741 4089 2478 
Q 3916 2216 3909 1719 
L 3909 0 
L 2784 0 
L 2784 1825 
Q 2784 2406 2684 2573 
Q 2584 2741 2328 2741 
Q 2006 2741 1831 2477 
Q 1656 2213 1656 1722 
L 1656 0 
L 531 0 
L 531 3500 
L 1656 3500 
L 1656 2988 
Q 1863 3284 2130 3434 
Q 2397 3584 2719 3584 
Q 3081 3584 3359 3409 
Q 3638 3234 3781 2919 
z
" transform="scale(0.015625)"/>
      <path id="DejaVuSans-Bold-41" d="M 3419 850 
L 1538 850 
L 1241 0 
L 31 0 
L 1759 4666 
L 3194 4666 
L 4922 0 
L 3713 0 
L 3419 850 
z
M 1838 1716 
L 3116 1716 
L 2478 3572 
L 1838 1716 
z
" transform="scale(0.015625)"/>
      <path id="DejaVuSans-Bold-6c" d="M 538 4863 
L 1656 4863 
L 1656 0 
L 538 0 
L 538 4863 
z
" transform="scale(0.015625)"/>
      <path id="DejaVuSans-Bold-50" d="M 588 4666 
L 2584 4666 
Q 3475 4666 3951 4270 
Q 4428 3875 4428 3144 
Q 4428 2409 3951 2014 
Q 3475 1619 2584 1619 
L 1791 1619 
L 1791 0 
L 588 0 
L 588 4666 
z
M 1791 3794 
L 1791 2491 
L 2456 2491 
Q 2806 2491 2997 2661 
Q 3188 2831 3188 3144 
Q 3188 3456 2997 3625 
Q 2806 3794 2456 3794 
L 1791 3794 
z
" transform="scale(0.015625)"/>
     </defs>
     <use xlink:href="#DejaVuSans-Bold-47"/>
     <use xlink:href="#DejaVuSans-Bold-72" transform="translate(82.080078 0)"/>
     <use xlink:href="#DejaVuSans-Bold-61" transform="translate(131.396484 0)"/>
     <use xlink:href="#DejaVuSans-Bold-70" transform="translate(198.876953 0)"/>
     <use xlink:href="#DejaVuSans-Bold-68" transform="translate(270.458984 0)"/>
     <use xlink:href="#DejaVuSans-Bold-20" transform="translate(341.650391 0)"/>
     <use xlink:href="#DejaVuSans-Bold-47" transform="translate(376.464844 0)"/>
     <use xlink:href="#DejaVuSans-Bold-65" transform="translate(458.544922 0)"/>
     <use xlink:href="#DejaVuSans-Bold-6e" transform="translate(526.367188 0)"/>
     <use xlink:href="#DejaVuSans-Bold-6f" transform="translate(597.558594 0)"/>
     <use xlink:href="#DejaVuSans-Bold-6d" transform="translate(666.259766 0)"/>
     <use xlink:href="#DejaVuSans-Bold-65" transform="translate(770.458984 0)"/>
     <use xlink:href="#DejaVuSans-Bold-3a" transform="translate(838.28125 0)"/>
     <use xlink:href="#DejaVuSans-Bold-20" transform="translate(878.271484 0)"/>
     <use xlink:href="#DejaVuSans-Bold-56" transform="translate(913.085938 0)"/>
     <use xlink:href="#DejaVuSans-Bold-61" transform="translate(984.978516 0)"/>
     <use xlink:href="#DejaVuSans-Bold-72" transform="translate(1052.458984 0)"/>
     <use xlink:href="#DejaVuSans-Bold-69" transform="translate(1101.775391 0)"/>
     <use xlink:href="#DejaVuSans-Bold-61" transform="translate(1136.052734 0)"/>
     <use xlink:href="#DejaVuSans-Bold-74" transform="translate(1203.533203 0)"/>
     <use xlink:href="#DejaVuSans-Bold-69" transform="translate(1251.335938 0)"/>
     <use xlink:href="#DejaVuSans-Bold-6f" transform="translate(1285.613281 0)"/>
     <use xlink:href="#DejaVuSans-Bold-6e" transform="translate(1354.314453 0)"/>
     <use xlink:href="#DejaVuSans-Bold-20" transform="translate(1425.505859 0)"/>
     <use xlink:href="#DejaVuSans-Bold-61" transform="translate(1460.320312 0)"/>
     <use xlink:href="#DejaVuSans-Bold-73" transform="translate(1527.800781 0)"/>
     <use xlink:href="#DejaVuSans-Bold-20" transform="translate(1587.322266 0)"/>
     <use xlink:href="#DejaVuSans-Bold-41" transform="translate(1622.136719 0)"/>
     <use xlink:href="#DejaVuSans-Bold-6c" transform="translate(1699.529297 0)"/>
     <use xlink:href="#DejaVuSans-Bold-74" transform="translate(1733.806641 0)"/>
     <use xlink:href="#DejaVuSans-Bold-65" transform="translate(1781.609375 0)"/>
     <use xlink:href="#DejaVuSans-Bold-72" transform="translate(1849.431641 0)"/>
     <use xlink:href="#DejaVuSans-Bold-6e" transform="translate(1898.748047 0)"/>
     <use xlink:href="#DejaVuSans-Bold-61" transform="translate(1969.939453 0)"/>
     <use xlink:href="#DejaVuSans-Bold-74" transform="translate(2037.419922 0)"/>
     <use xlink:href="#DejaVuSans-Bold-69" transform="translate(2085.222656 0)"/>
     <use xlink:href="#DejaVuSans-Bold-76" transform="translate(2119.5 0)"/>
     <use xlink:href="#DejaVuSans-Bold-65" transform="translate(2184.685547 0)"/>
     <use xlink:href="#DejaVuSans-Bold-20" transform="translate(2252.507812 0)"/>
     <use xlink:href="#DejaVuSans-Bold-50" transform="translate(2287.322266 0)"/>
     <use xlink:href="#DejaVuSans-Bold-61" transform="translate(2357.988281 0)"/>
     <use xlink:href="#DejaVuSans-Bold-74" transform="translate(2425.46875 0)"/>
     <use xlink:href="#DejaVuSans-Bold-68" transform="translate(2473.271484 0)"/>
     <use xlink:href="#DejaVuSans-Bold-73" transform="translate(2544.462891 0)"/>
    </g>
   </g>
  </g>
 </g>
 <defs>
  <clipPath id="pd7828f6d5e">
   <rect x="7.2" y="23.837812" width="694.08" height="215.76"/>
  </clipPath>
  <clipPath id="pda736293ab">
   <rect x="7.2" y="269.357812" width="694.08" height="215.76"/>
  </clipPath>
 </defs>
</svg>
